<?xml version="1.0" encoding="UTF-8" standalone="no"?><svg xmlns="http://www.w3.org/2000/svg" xmlns:xlink="http://www.w3.org/1999/xlink" clip-rule="evenodd" stroke-miterlimit="4.00" viewBox="0 0 1920 1080"><desc>SVG generated by Keynote</desc><defs></defs><g transform="matrix(1.00, 0.00, -0.00, -1.00, 0.0, 1080.0)"><path d="M 0.0 1080.0 L 1920.0 1080.0 L 1920.0 0.0 L 0.0 0.0 Z M 0.0 1080.0 " fill="#000000"></path><text xml:space="preserve" font-family="HelveticaNeue-Thin" font-size="133.0" fill="#FEFFFF" transform="matrix(1.00, 0.00, -0.00, -1.00, 751.0, 766.0)">M</text><text xml:space="preserve" font-family="HelveticaNeue-Thin" font-size="133.0" fill="#FEFFFF" transform="matrix(1.00, 0.00, -0.00, -1.00, 858.6, 766.0)">o</text><text xml:space="preserve" font-family="HelveticaNeue-Thin" font-size="133.0" fill="#FEFFFF" transform="matrix(1.00, 0.00, -0.00, -1.00, 930.0, 766.0)">c</text><text xml:space="preserve" font-family="HelveticaNeue-Thin" font-size="133.0" fill="#FEFFFF" transform="matrix(1.00, 0.00, -0.00, -1.00, 999.0, 766.0)">h</text><text xml:space="preserve" font-family="HelveticaNeue-Thin" font-size="133.0" fill="#FEFFFF" transform="matrix(1.00, 0.00, -0.00, -1.00, 1068.1, 766.0)">a</text><text xml:space="preserve" font-family="HelveticaNeue-Thin" font-size="133.0" fill="#FEFFFF" transform="matrix(1.00, 0.00, -0.00, -1.00, 1134.6, 766.0)">!</text><text xml:space="preserve" font-family="HelveticaNeue-Thin" font-size="133.0" fill="#FEFFFF" transform="matrix(1.00, 0.00, -0.00, -1.00, 1169.0, 766.0)"> </text><g><clipPath id="clip-28"><path d="M 750.0 795.5 L 1169.0 795.5 L 1169.0 804.1 L 750.0 804.1 Z M 750.0 795.5 "></path></clipPath><g clip-path="url(#clip-28)"><path d="M 358.6 100.3 L 776.7 100.3 " fill="none" stroke="#FEFFFF" stroke-width="6.61" stroke-miterlimit="0.00" transform="matrix(1.00, 0.00, 0.00, -1.00, 392.4, 900.0)"></path></g></g><text xml:space="preserve" font-family="HelveticaNeue-Thin" font-size="133.0" fill="#FEFFFF" transform="matrix(1.00, 0.00, -0.00, -1.00, 674.0, 605.0)">L</text><text xml:space="preserve" font-family="HelveticaNeue-Thin" font-size="133.0" fill="#FEFFFF" transform="matrix(1.00, 0.00, -0.00, -1.00, 740.5, 605.0)">i</text><text xml:space="preserve" font-family="HelveticaNeue-Thin" font-size="133.0" fill="#FEFFFF" transform="matrix(1.00, 0.00, -0.00, -1.00, 762.8, 605.0)">v</text><text xml:space="preserve" font-family="HelveticaNeue-Thin" font-size="133.0" fill="#FEFFFF" transform="matrix(1.00, 0.00, -0.00, -1.00, 821.9, 605.0)">e</text><text xml:space="preserve" font-family="HelveticaNeue-Thin" font-size="133.0" fill="#FEFFFF" transform="matrix(1.00, 0.00, -0.00, -1.00, 890.9, 605.0)">S</text><text xml:space="preserve" font-family="HelveticaNeue-Thin" font-size="133.0" fill="#FEFFFF" transform="matrix(1.00, 0.00, -0.00, -1.00, 974.7, 605.0)">c</text><text xml:space="preserve" font-family="HelveticaNeue-Thin" font-size="133.0" fill="#FEFFFF" transform="matrix(1.00, 0.00, -0.00, -1.00, 1043.7, 605.0)">r</text><text xml:space="preserve" font-family="HelveticaNeue-Thin" font-size="133.0" fill="#FEFFFF" transform="matrix(1.00, 0.00, -0.00, -1.00, 1080.7, 605.0)">i</text><text xml:space="preserve" font-family="HelveticaNeue-Thin" font-size="133.0" fill="#FEFFFF" transform="matrix(1.00, 0.00, -0.00, -1.00, 1103.1, 605.0)">p</text><text xml:space="preserve" font-family="HelveticaNeue-Thin" font-size="133.0" fill="#FEFFFF" transform="matrix(1.00, 0.00, -0.00, -1.00, 1177.0, 605.0)">t</text><text xml:space="preserve" font-family="HelveticaNeue-Thin" font-size="133.0" fill="#FEFFFF" transform="matrix(1.00, 0.00, -0.00, -1.00, 1211.5, 605.0)">!</text><text xml:space="preserve" font-family="HelveticaNeue-Thin" font-size="133.0" fill="#FEFFFF" transform="matrix(1.00, 0.00, -0.00, -1.00, 1245.9, 605.0)"> </text><g><clipPath id="clip-29"><path d="M 673.1 634.5 L 1246.0 634.5 L 1246.0 643.1 L 673.1 643.1 Z M 673.1 634.5 "></path></clipPath><g clip-path="url(#clip-29)"><path d="M 281.7 261.3 L 853.6 261.3 " fill="none" stroke="#FEFFFF" stroke-width="6.61" stroke-miterlimit="0.00" transform="matrix(1.00, 0.00, 0.00, -1.00, 392.4, 900.0)"></path></g></g><text xml:space="preserve" font-family="HelveticaNeue-Thin" font-size="179.0" fill="#FEFFFF" transform="matrix(1.00, 0.00, -0.00, -1.00, 549.0, 400.0)">J</text><text xml:space="preserve" font-family="HelveticaNeue-Thin" font-size="179.0" fill="#FEFFFF" transform="matrix(1.00, 0.00, -0.00, -1.00, 635.1, 400.0)">a</text><text xml:space="preserve" font-family="HelveticaNeue-Thin" font-size="179.0" fill="#FEFFFF" transform="matrix(1.00, 0.00, -0.00, -1.00, 724.6, 400.0)">v</text><text xml:space="preserve" font-family="HelveticaNeue-Thin" font-size="179.0" fill="#FEFFFF" transform="matrix(1.00, 0.00, -0.00, -1.00, 804.1, 400.0)">a</text><text xml:space="preserve" font-family="HelveticaNeue-Thin" font-size="179.0" fill="#FEFFFF" transform="matrix(1.00, 0.00, -0.00, -1.00, 893.6, 400.0)">S</text><text xml:space="preserve" font-family="HelveticaNeue-Thin" font-size="179.0" fill="#FEFFFF" transform="matrix(1.00, 0.00, -0.00, -1.00, 1006.3, 400.0)">c</text><text xml:space="preserve" font-family="HelveticaNeue-Thin" font-size="179.0" fill="#FEFFFF" transform="matrix(1.00, 0.00, -0.00, -1.00, 1099.2, 400.0)">r</text><text xml:space="preserve" font-family="HelveticaNeue-Thin" font-size="179.0" fill="#FEFFFF" transform="matrix(1.00, 0.00, -0.00, -1.00, 1149.0, 400.0)">i</text><text xml:space="preserve" font-family="HelveticaNeue-Thin" font-size="179.0" fill="#FEFFFF" transform="matrix(1.00, 0.00, -0.00, -1.00, 1179.1, 400.0)">p</text><text xml:space="preserve" font-family="HelveticaNeue-Thin" font-size="179.0" fill="#FEFFFF" transform="matrix(1.00, 0.00, -0.00, -1.00, 1278.6, 400.0)">t</text><text xml:space="preserve" font-family="HelveticaNeue-Thin" font-size="179.0" fill="#FEFFFF" transform="matrix(1.00, 0.00, -0.00, -1.00, 1325.0, 400.0)">!</text></g></svg>