<?xml version="1.0" encoding="UTF-8" standalone="no"?><svg xmlns="http://www.w3.org/2000/svg" xmlns:xlink="http://www.w3.org/1999/xlink" clip-rule="evenodd" stroke-miterlimit="4.00" viewBox="0 0 1920 1080"><desc>SVG generated by Keynote</desc><defs></defs><g transform="matrix(1.00, 0.00, -0.00, -1.00, 0.0, 1080.0)"><path d="M 0.0 1080.0 L 1920.0 1080.0 L 1920.0 0.0 L 0.0 0.0 Z M 0.0 1080.0 " fill="#FEFFFE"></path><text xml:space="preserve" font-family="HelveticaNeue-Thin" font-size="173.0" fill="#000000" transform="matrix(1.00, 0.00, -0.00, -1.00, 373.0, 475.0)">O</text><text xml:space="preserve" font-family="HelveticaNeue-Thin" font-size="173.0" fill="#000000" transform="matrix(1.00, 0.00, -0.00, -1.00, 501.2, 475.0)">r</text><text xml:space="preserve" font-family="HelveticaNeue-Thin" font-size="173.0" fill="#000000" transform="matrix(1.00, 0.00, -0.00, -1.00, 547.2, 475.0)">g</text><text xml:space="preserve" font-family="HelveticaNeue-Thin" font-size="173.0" fill="#000000" transform="matrix(1.00, 0.00, -0.00, -1.00, 640.1, 475.0)">a</text><text xml:space="preserve" font-family="HelveticaNeue-Thin" font-size="173.0" fill="#000000" transform="matrix(1.00, 0.00, -0.00, -1.00, 726.6, 475.0)">n</text><text xml:space="preserve" font-family="HelveticaNeue-Thin" font-size="173.0" fill="#000000" transform="matrix(1.00, 0.00, -0.00, -1.00, 816.4, 475.0)">i</text><text xml:space="preserve" font-family="HelveticaNeue-Thin" font-size="173.0" fill="#000000" transform="matrix(1.00, 0.00, -0.00, -1.00, 845.5, 475.0)">z</text><text xml:space="preserve" font-family="HelveticaNeue-Thin" font-size="173.0" fill="#000000" transform="matrix(1.00, 0.00, -0.00, -1.00, 919.2, 475.0)">i</text><text xml:space="preserve" font-family="HelveticaNeue-Thin" font-size="173.0" fill="#000000" transform="matrix(1.00, 0.00, -0.00, -1.00, 948.2, 475.0)">n</text><text xml:space="preserve" font-family="HelveticaNeue-Thin" font-size="173.0" fill="#000000" transform="matrix(1.00, 0.00, -0.00, -1.00, 1038.0, 475.0)">g</text><text xml:space="preserve" font-family="HelveticaNeue-Thin" font-size="173.0" fill="#000000" transform="matrix(1.00, 0.00, -0.00, -1.00, 1130.9, 475.0)"> </text><text xml:space="preserve" font-family="HelveticaNeue-Thin" font-size="173.0" fill="#000000" transform="matrix(1.00, 0.00, -0.00, -1.00, 1179.0, 475.0)">c</text><text xml:space="preserve" font-family="HelveticaNeue-Thin" font-size="173.0" fill="#000000" transform="matrix(1.00, 0.00, -0.00, -1.00, 1268.8, 475.0)">o</text><text xml:space="preserve" font-family="HelveticaNeue-Thin" font-size="173.0" fill="#000000" transform="matrix(1.00, 0.00, -0.00, -1.00, 1361.7, 475.0)">d</text><text xml:space="preserve" font-family="HelveticaNeue-Thin" font-size="173.0" fill="#000000" transform="matrix(1.00, 0.00, -0.00, -1.00, 1457.9, 475.0)">e</text></g></svg>