<?xml version="1.0" encoding="UTF-8" standalone="no"?><svg xmlns="http://www.w3.org/2000/svg" xmlns:xlink="http://www.w3.org/1999/xlink" clip-rule="evenodd" stroke-miterlimit="4.00" viewBox="0 0 1920 1080"><desc>SVG generated by Keynote</desc><defs></defs><g transform="matrix(1.00, 0.00, -0.00, -1.00, 0.0, 1080.0)"><path d="M 0.0 1080.0 L 1920.0 1080.0 L 1920.0 0.0 L 0.0 0.0 Z M 0.0 1080.0 " fill="#FEFFFE"></path><text xml:space="preserve" font-family="SourceCodePro-Regular" font-size="64.0" fill="#52575F" transform="matrix(1.00, 0.00, -0.00, -1.00, 53.0, 798.0)">h</text><text xml:space="preserve" font-family="SourceCodePro-Regular" font-size="64.0" fill="#52575F" transform="matrix(1.00, 0.00, -0.00, -1.00, 91.4, 798.0)">t</text><text xml:space="preserve" font-family="SourceCodePro-Regular" font-size="64.0" fill="#52575F" transform="matrix(1.00, 0.00, -0.00, -1.00, 129.8, 798.0)">t</text><text xml:space="preserve" font-family="SourceCodePro-Regular" font-size="64.0" fill="#52575F" transform="matrix(1.00, 0.00, -0.00, -1.00, 168.2, 798.0)">p</text><text xml:space="preserve" font-family="SourceCodePro-Regular" font-size="64.0" fill="#52575F" transform="matrix(1.00, 0.00, -0.00, -1.00, 206.6, 798.0)">s</text><text xml:space="preserve" font-family="SourceCodePro-Regular" font-size="64.0" fill="#52575F" transform="matrix(1.00, 0.00, -0.00, -1.00, 245.0, 798.0)">:</text><text xml:space="preserve" font-family="SourceCodePro-Regular" font-size="64.0" fill="#52575F" transform="matrix(1.00, 0.00, -0.00, -1.00, 283.4, 798.0)">/</text><text xml:space="preserve" font-family="SourceCodePro-Regular" font-size="64.0" fill="#52575F" transform="matrix(1.00, 0.00, -0.00, -1.00, 321.8, 798.0)">/</text><text xml:space="preserve" font-family="SourceCodePro-Regular" font-size="64.0" fill="#52575F" transform="matrix(1.00, 0.00, -0.00, -1.00, 360.2, 798.0)">a</text><text xml:space="preserve" font-family="SourceCodePro-Regular" font-size="64.0" fill="#52575F" transform="matrix(1.00, 0.00, -0.00, -1.00, 398.6, 798.0)">p</text><text xml:space="preserve" font-family="SourceCodePro-Regular" font-size="64.0" fill="#52575F" transform="matrix(1.00, 0.00, -0.00, -1.00, 437.0, 798.0)">i</text><text xml:space="preserve" font-family="SourceCodePro-Regular" font-size="64.0" fill="#52575F" transform="matrix(1.00, 0.00, -0.00, -1.00, 475.4, 798.0)">.</text><text xml:space="preserve" font-family="SourceCodePro-Regular" font-size="64.0" fill="#52575F" transform="matrix(1.00, 0.00, -0.00, -1.00, 513.8, 798.0)">.</text><text xml:space="preserve" font-family="SourceCodePro-Regular" font-size="64.0" fill="#52575F" transform="matrix(1.00, 0.00, -0.00, -1.00, 552.2, 798.0)">.</text><text xml:space="preserve" font-family="SourceCodePro-Regular" font-size="64.0" fill="#52575F" transform="matrix(1.00, 0.00, -0.00, -1.00, 590.6, 798.0)">?</text><text xml:space="preserve" font-family="SourceCodePro-Regular" font-size="64.0" fill="#0B5C11" transform="matrix(1.00, 0.00, -0.00, -1.00, 629.0, 798.0)">a</text><text xml:space="preserve" font-family="SourceCodePro-Regular" font-size="64.0" fill="#0B5C11" transform="matrix(1.00, 0.00, -0.00, -1.00, 667.4, 798.0)">p</text><text xml:space="preserve" font-family="SourceCodePro-Regular" font-size="64.0" fill="#0B5C11" transform="matrix(1.00, 0.00, -0.00, -1.00, 705.8, 798.0)">i</text><text xml:space="preserve" font-family="SourceCodePro-Regular" font-size="64.0" fill="#0B5C11" transform="matrix(1.00, 0.00, -0.00, -1.00, 744.2, 798.0)">_</text><text xml:space="preserve" font-family="SourceCodePro-Regular" font-size="64.0" fill="#0B5C11" transform="matrix(1.00, 0.00, -0.00, -1.00, 782.6, 798.0)">k</text><text xml:space="preserve" font-family="SourceCodePro-Regular" font-size="64.0" fill="#0B5C11" transform="matrix(1.00, 0.00, -0.00, -1.00, 821.0, 798.0)">e</text><text xml:space="preserve" font-family="SourceCodePro-Regular" font-size="64.0" fill="#0B5C11" transform="matrix(1.00, 0.00, -0.00, -1.00, 859.4, 798.0)">y</text><text xml:space="preserve" font-family="SourceCodePro-Regular" font-size="64.0" fill="#52575F" transform="matrix(1.00, 0.00, -0.00, -1.00, 897.8, 798.0)">=</text><text xml:space="preserve" font-family="SourceCodePro-Regular" font-size="64.0" fill="#961817" transform="matrix(1.00, 0.00, -0.00, -1.00, 936.2, 798.0)">D</text><text xml:space="preserve" font-family="SourceCodePro-Regular" font-size="64.0" fill="#961817" transform="matrix(1.00, 0.00, -0.00, -1.00, 974.6, 798.0)">E</text><text xml:space="preserve" font-family="SourceCodePro-Regular" font-size="64.0" fill="#961817" transform="matrix(1.00, 0.00, -0.00, -1.00, 1013.0, 798.0)">M</text><text xml:space="preserve" font-family="SourceCodePro-Regular" font-size="64.0" fill="#961817" transform="matrix(1.00, 0.00, -0.00, -1.00, 1051.4, 798.0)">O</text><text xml:space="preserve" font-family="SourceCodePro-Regular" font-size="64.0" fill="#961817" transform="matrix(1.00, 0.00, -0.00, -1.00, 1089.8, 798.0)">_</text><text xml:space="preserve" font-family="SourceCodePro-Regular" font-size="64.0" fill="#961817" transform="matrix(1.00, 0.00, -0.00, -1.00, 1128.2, 798.0)">K</text><text xml:space="preserve" font-family="SourceCodePro-Regular" font-size="64.0" fill="#961817" transform="matrix(1.00, 0.00, -0.00, -1.00, 1166.6, 798.0)">E</text><text xml:space="preserve" font-family="SourceCodePro-Regular" font-size="64.0" fill="#961817" transform="matrix(1.00, 0.00, -0.00, -1.00, 1205.0, 798.0)">Y</text><text xml:space="preserve" font-family="SourceCodePro-Regular" font-size="64.0" fill="#52575F" transform="matrix(1.00, 0.00, -0.00, -1.00, 1243.4, 798.0)">&amp;</text><text xml:space="preserve" font-family="SourceCodePro-Regular" font-size="64.0" fill="#0B5C11" transform="matrix(1.00, 0.00, -0.00, -1.00, 1281.8, 798.0)">d</text><text xml:space="preserve" font-family="SourceCodePro-Regular" font-size="64.0" fill="#0B5C11" transform="matrix(1.00, 0.00, -0.00, -1.00, 1320.2, 798.0)">a</text><text xml:space="preserve" font-family="SourceCodePro-Regular" font-size="64.0" fill="#0B5C11" transform="matrix(1.00, 0.00, -0.00, -1.00, 1358.6, 798.0)">t</text><text xml:space="preserve" font-family="SourceCodePro-Regular" font-size="64.0" fill="#0B5C11" transform="matrix(1.00, 0.00, -0.00, -1.00, 1397.0, 798.0)">e</text><text xml:space="preserve" font-family="SourceCodePro-Regular" font-size="64.0" fill="#52575F" transform="matrix(1.00, 0.00, -0.00, -1.00, 1435.4, 798.0)">=</text><text xml:space="preserve" font-family="SourceCodePro-Regular" font-size="64.0" fill="#961817" transform="matrix(1.00, 0.00, -0.00, -1.00, 1473.8, 798.0)">2</text><text xml:space="preserve" font-family="SourceCodePro-Regular" font-size="64.0" fill="#961817" transform="matrix(1.00, 0.00, -0.00, -1.00, 1512.2, 798.0)">0</text><text xml:space="preserve" font-family="SourceCodePro-Regular" font-size="64.0" fill="#961817" transform="matrix(1.00, 0.00, -0.00, -1.00, 1550.6, 798.0)">1</text><text xml:space="preserve" font-family="SourceCodePro-Regular" font-size="64.0" fill="#961817" transform="matrix(1.00, 0.00, -0.00, -1.00, 1589.0, 798.0)">5</text><text xml:space="preserve" font-family="SourceCodePro-Regular" font-size="64.0" fill="#961817" transform="matrix(1.00, 0.00, -0.00, -1.00, 1627.4, 798.0)">-</text><text xml:space="preserve" font-family="SourceCodePro-Regular" font-size="64.0" fill="#961817" transform="matrix(1.00, 0.00, -0.00, -1.00, 1665.8, 798.0)">1</text><text xml:space="preserve" font-family="SourceCodePro-Regular" font-size="64.0" fill="#961817" transform="matrix(1.00, 0.00, -0.00, -1.00, 1704.2, 798.0)">1</text><text xml:space="preserve" font-family="SourceCodePro-Regular" font-size="64.0" fill="#961817" transform="matrix(1.00, 0.00, -0.00, -1.00, 1742.6, 798.0)">-</text><text xml:space="preserve" font-family="SourceCodePro-Regular" font-size="64.0" fill="#961817" transform="matrix(1.00, 0.00, -0.00, -1.00, 1781.0, 798.0)">2</text><text xml:space="preserve" font-family="SourceCodePro-Regular" font-size="64.0" fill="#961817" transform="matrix(1.00, 0.00, -0.00, -1.00, 1819.4, 798.0)">7</text><text xml:space="preserve" font-family="HelveticaNeue-Thin" font-size="127.0" fill="#000000" transform="matrix(1.00, 0.00, -0.00, -1.00, 652.0, 491.0)">q</text><text xml:space="preserve" font-family="HelveticaNeue-Thin" font-size="127.0" fill="#000000" transform="matrix(1.00, 0.00, -0.00, -1.00, 722.6, 491.0)">u</text><text xml:space="preserve" font-family="HelveticaNeue-Thin" font-size="127.0" fill="#000000" transform="matrix(1.00, 0.00, -0.00, -1.00, 788.5, 491.0)">e</text><text xml:space="preserve" font-family="HelveticaNeue-Thin" font-size="127.0" fill="#000000" transform="matrix(1.00, 0.00, -0.00, -1.00, 854.4, 491.0)">r</text><text xml:space="preserve" font-family="HelveticaNeue-Thin" font-size="127.0" fill="#000000" transform="matrix(1.00, 0.00, -0.00, -1.00, 892.0, 491.0)">y</text><text xml:space="preserve" font-family="HelveticaNeue-Thin" font-size="127.0" fill="#000000" transform="matrix(1.00, 0.00, -0.00, -1.00, 948.4, 491.0)"> </text><text xml:space="preserve" font-family="HelveticaNeue-Thin" font-size="127.0" fill="#000000" transform="matrix(1.00, 0.00, -0.00, -1.00, 983.7, 491.0)">s</text><text xml:space="preserve" font-family="HelveticaNeue-Thin" font-size="127.0" fill="#000000" transform="matrix(1.00, 0.00, -0.00, -1.00, 1044.8, 491.0)">t</text><text xml:space="preserve" font-family="HelveticaNeue-Thin" font-size="127.0" fill="#000000" transform="matrix(1.00, 0.00, -0.00, -1.00, 1077.7, 491.0)">r</text><text xml:space="preserve" font-family="HelveticaNeue-Thin" font-size="127.0" fill="#000000" transform="matrix(1.00, 0.00, -0.00, -1.00, 1113.0, 491.0)">i</text><text xml:space="preserve" font-family="HelveticaNeue-Thin" font-size="127.0" fill="#000000" transform="matrix(1.00, 0.00, -0.00, -1.00, 1134.3, 491.0)">n</text><text xml:space="preserve" font-family="HelveticaNeue-Thin" font-size="127.0" fill="#000000" transform="matrix(1.00, 0.00, -0.00, -1.00, 1200.3, 491.0)">g</text></g></svg>