<?xml version="1.0" encoding="UTF-8" standalone="no"?><svg xmlns="http://www.w3.org/2000/svg" xmlns:xlink="http://www.w3.org/1999/xlink" clip-rule="evenodd" stroke-miterlimit="4.00" viewBox="0 0 1920 1080"><desc>SVG generated by Keynote</desc><defs></defs><g transform="matrix(1.00, 0.00, -0.00, -1.00, 0.0, 1080.0)"><path d="M 0.0 1080.0 L 1920.0 1080.0 L 1920.0 0.0 L 0.0 0.0 Z M 0.0 1080.0 " fill="#000000"></path><image xlink:href="83750B4ECFFD84BE5C1C480FC00BC8BD.png" width="636.00" height="523.00" transform="matrix(2.03, 0.00, -0.00, -2.03, 283.0, 1072.0)"></image><text xml:space="preserve" font-family="Inkpen2Script" font-size="140.0" fill="#FEFFFF" transform="matrix(0.96, 0.28, 0.28, -0.96, 136.4, 352.5)">S</text><text xml:space="preserve" font-family="Inkpen2Script" font-size="140.0" fill="#FEFFFF" transform="matrix(0.96, 0.28, 0.28, -0.96, 196.8, 370.4)">h</text><text xml:space="preserve" font-family="Inkpen2Script" font-size="140.0" fill="#FEFFFF" transform="matrix(0.96, 0.28, 0.28, -0.96, 240.9, 383.5)">o</text><text xml:space="preserve" font-family="Inkpen2Script" font-size="140.0" fill="#FEFFFF" transform="matrix(0.96, 0.28, 0.28, -0.96, 287.4, 397.3)">c</text><text xml:space="preserve" font-family="Inkpen2Script" font-size="140.0" fill="#FEFFFF" transform="matrix(0.96, 0.28, 0.28, -0.96, 338.0, 412.4)">k</text><text xml:space="preserve" font-family="Inkpen2Script" font-size="140.0" fill="#FEFFFF" transform="matrix(0.96, 0.28, 0.28, -0.96, 383.8, 426.0)">w</text><text xml:space="preserve" font-family="Inkpen2Script" font-size="140.0" fill="#FEFFFF" transform="matrix(0.96, 0.28, 0.28, -0.96, 454.6, 447.0)">a</text><text xml:space="preserve" font-family="Inkpen2Script" font-size="140.0" fill="#FEFFFF" transform="matrix(0.96, 0.28, 0.28, -0.96, 495.4, 459.1)">v</text><text xml:space="preserve" font-family="Inkpen2Script" font-size="140.0" fill="#FEFFFF" transform="matrix(0.96, 0.28, 0.28, -0.96, 542.4, 473.1)">e</text><text xml:space="preserve" font-family="Inkpen2Script" font-size="140.0" fill="#FEFFFF" transform="matrix(0.96, 0.28, 0.28, -0.96, 588.2, 486.7)">!</text><text xml:space="preserve" font-family="Inkpen2Script" font-size="152.0" fill="#FEFFFF" transform="matrix(0.99, -0.17, -0.17, -0.99, 1205.6, 706.0)">Q</text><text xml:space="preserve" font-family="Inkpen2Script" font-size="152.0" fill="#FEFFFF" transform="matrix(0.99, -0.17, -0.17, -0.99, 1266.9, 695.4)">u</text><text xml:space="preserve" font-family="Inkpen2Script" font-size="152.0" fill="#FEFFFF" transform="matrix(0.99, -0.17, -0.17, -0.99, 1326.5, 685.0)">i</text><text xml:space="preserve" font-family="Inkpen2Script" font-size="152.0" fill="#FEFFFF" transform="matrix(0.99, -0.17, -0.17, -0.99, 1348.5, 681.1)">c</text><text xml:space="preserve" font-family="Inkpen2Script" font-size="152.0" fill="#FEFFFF" transform="matrix(0.99, -0.17, -0.17, -0.99, 1404.9, 671.3)">k</text><text xml:space="preserve" font-family="Inkpen2Script" font-size="152.0" fill="#FEFFFF" transform="matrix(0.99, -0.17, -0.17, -0.99, 1456.0, 662.4)">T</text><text xml:space="preserve" font-family="Inkpen2Script" font-size="152.0" fill="#FEFFFF" transform="matrix(0.99, -0.17, -0.17, -0.99, 1517.4, 651.6)">i</text><text xml:space="preserve" font-family="Inkpen2Script" font-size="152.0" fill="#FEFFFF" transform="matrix(0.99, -0.17, -0.17, -0.99, 1539.4, 647.8)">m</text><text xml:space="preserve" font-family="Inkpen2Script" font-size="152.0" fill="#FEFFFF" transform="matrix(0.99, -0.17, -0.17, -0.99, 1608.6, 635.7)">e</text><text xml:space="preserve" font-family="Inkpen2Script" font-size="152.0" fill="#FEFFFF" transform="matrix(0.99, -0.17, -0.17, -0.99, 1659.6, 626.8)"> </text><text xml:space="preserve" font-family="Inkpen2Script" font-size="152.0" fill="#FEFFFF" transform="matrix(0.99, -0.17, -0.17, -0.99, 1707.7, 618.4)">V</text><text xml:space="preserve" font-family="Inkpen2Script" font-size="152.0" fill="#FEFFFF" transform="matrix(0.99, -0.17, -0.17, -0.99, 1767.1, 608.1)">R</text><text xml:space="preserve" font-family="Inkpen2Script" font-size="152.0" fill="#FEFFFF" transform="matrix(0.99, -0.17, -0.17, -0.99, 1825.4, 597.9)">!</text></g></svg>