<?xml version="1.0" encoding="UTF-8" standalone="no"?><svg xmlns="http://www.w3.org/2000/svg" xmlns:xlink="http://www.w3.org/1999/xlink" clip-rule="evenodd" stroke-miterlimit="4.00" viewBox="0 0 1920 1080"><desc>SVG generated by Keynote</desc><defs></defs><g transform="matrix(1.00, 0.00, -0.00, -1.00, 0.0, 1080.0)"><path d="M 0.0 1080.0 L 1920.0 1080.0 L 1920.0 0.0 L 0.0 0.0 Z M 0.0 1080.0 " fill="#000000"></path><image xlink:href="../../C74F88DF-C1C1-407A-A7C0-63A11F0E44E9/assets/CE9D8B4C7A309CE055E2AE6E1F6AC022.jpeg" width="1280.00" height="720.00" transform="matrix(1.59, 0.00, -0.00, -1.59, -1.0, 1113.0)"></image><path d="M 1057.1 1032.1 C 912.8 1032.1 795.7 972.7 795.7 899.5 C 795.7 862.4 825.8 828.9 874.1 804.8 L 797.5 738.5 L 915.7 788.0 C 956.5 774.6 1005.0 766.8 1057.1 766.8 C 1201.5 766.8 1318.5 826.2 1318.5 899.5 C 1318.5 972.7 1201.5 1032.1 1057.1 1032.1 Z M 1057.1 1032.1 " fill="#FEFFFE"></path><path d="M 261.4 0.0 C 117.0 0.0 0.0 59.4 0.0 132.7 C -0.0 169.7 30.1 203.2 78.4 227.3 L 1.8 293.6 L 120.0 244.1 C 160.8 257.5 209.2 265.3 261.4 265.3 C 405.8 265.3 522.8 205.9 522.8 132.7 C 522.8 59.4 405.8 0.0 261.4 0.0 Z M 261.4 0.0 " fill="none" stroke="#000000" stroke-width="4.00" transform="matrix(1.00, 0.00, 0.00, -1.00, 795.7, 1032.1)"></path><text xml:space="preserve" font-family="HelveticaNeue" font-size="84.0" fill="#000000" transform="matrix(1.00, 0.00, -0.00, -1.00, 948.0, 871.0)">j</text><text xml:space="preserve" font-family="HelveticaNeue" font-size="84.0" fill="#000000" transform="matrix(1.00, 0.00, -0.00, -1.00, 966.6, 871.0)">k</text><text xml:space="preserve" font-family="HelveticaNeue" font-size="84.0" fill="#000000" transform="matrix(1.00, 0.00, -0.00, -1.00, 1010.2, 871.0)"> </text><text xml:space="preserve" font-family="HelveticaNeue" font-size="84.0" fill="#000000" transform="matrix(1.00, 0.00, -0.00, -1.00, 1033.6, 871.0)">#</text><text xml:space="preserve" font-family="HelveticaNeue" font-size="84.0" fill="#000000" transform="matrix(1.00, 0.00, -0.00, -1.00, 1080.3, 871.0)">l</text><text xml:space="preserve" font-family="HelveticaNeue" font-size="84.0" fill="#000000" transform="matrix(1.00, 0.00, -0.00, -1.00, 1098.9, 871.0)">o</text><text xml:space="preserve" font-family="HelveticaNeue" font-size="84.0" fill="#000000" transform="matrix(1.00, 0.00, -0.00, -1.00, 1147.2, 871.0)">l</text></g></svg>