<?xml version="1.0" encoding="UTF-8" standalone="no"?><svg xmlns="http://www.w3.org/2000/svg" xmlns:xlink="http://www.w3.org/1999/xlink" clip-rule="evenodd" stroke-miterlimit="4.00" viewBox="0 0 1920 1080"><desc>SVG generated by Keynote</desc><defs></defs><g transform="matrix(1.00, 0.00, -0.00, -1.00, 0.0, 1080.0)"><path d="M 0.0 1080.0 L 1920.0 1080.0 L 1920.0 0.0 L 0.0 0.0 Z M 0.0 1080.0 " fill="#FEFFFE"></path><text xml:space="preserve" font-family="HelveticaNeue-Thin" font-size="173.0" fill="#000000" transform="matrix(1.00, 0.00, -0.00, -1.00, 613.0, 475.0)">F</text><text xml:space="preserve" font-family="HelveticaNeue-Thin" font-size="173.0" fill="#000000" transform="matrix(1.00, 0.00, -0.00, -1.00, 697.8, 475.0)">u</text><text xml:space="preserve" font-family="HelveticaNeue-Thin" font-size="173.0" fill="#000000" transform="matrix(1.00, 0.00, -0.00, -1.00, 787.6, 475.0)">n</text><text xml:space="preserve" font-family="HelveticaNeue-Thin" font-size="173.0" fill="#000000" transform="matrix(1.00, 0.00, -0.00, -1.00, 877.3, 475.0)">c</text><text xml:space="preserve" font-family="HelveticaNeue-Thin" font-size="173.0" fill="#000000" transform="matrix(1.00, 0.00, -0.00, -1.00, 967.1, 475.0)">t</text><text xml:space="preserve" font-family="HelveticaNeue-Thin" font-size="173.0" fill="#000000" transform="matrix(1.00, 0.00, -0.00, -1.00, 1011.9, 475.0)">i</text><text xml:space="preserve" font-family="HelveticaNeue-Thin" font-size="173.0" fill="#000000" transform="matrix(1.00, 0.00, -0.00, -1.00, 1041.0, 475.0)">o</text><text xml:space="preserve" font-family="HelveticaNeue-Thin" font-size="173.0" fill="#000000" transform="matrix(1.00, 0.00, -0.00, -1.00, 1133.9, 475.0)">n</text><text xml:space="preserve" font-family="HelveticaNeue-Thin" font-size="173.0" fill="#000000" transform="matrix(1.00, 0.00, -0.00, -1.00, 1223.7, 475.0)">s</text></g></svg>