<?xml version="1.0" encoding="UTF-8" standalone="no"?><svg xmlns="http://www.w3.org/2000/svg" xmlns:xlink="http://www.w3.org/1999/xlink" clip-rule="evenodd" stroke-miterlimit="4.00" viewBox="0 0 1920 1080"><desc>SVG generated by Keynote</desc><defs></defs><g transform="matrix(1.00, 0.00, -0.00, -1.00, 0.0, 1080.0)"><path d="M 0.0 1080.0 L 1920.0 1080.0 L 1920.0 0.0 L 0.0 0.0 Z M 0.0 1080.0 " fill="#000000"></path><image xlink:href="30C56D1E4D2EFA6ED51343DCE357CCA8.png" width="796.00" height="540.00" transform="matrix(1.63, 0.00, -0.00, -1.63, 313.0, 979.0)"></image><image xlink:href="7A2C77F33167F71A2541465E8BE46147.png" width="532.00" height="215.00" transform="matrix(1.00, 0.00, -0.00, -1.00, 31.0, 904.0)"></image><text xml:space="preserve" font-family="Inkpen2Script" font-size="108.0" fill="#FEFFFF" transform="matrix(0.96, 0.27, 0.27, -0.96, 49.2, 695.6)">N</text><text xml:space="preserve" font-family="Inkpen2Script" font-size="108.0" fill="#FEFFFF" transform="matrix(0.96, 0.27, 0.27, -0.96, 98.2, 709.3)">e</text><text xml:space="preserve" font-family="Inkpen2Script" font-size="108.0" fill="#FEFFFF" transform="matrix(0.96, 0.27, 0.27, -0.96, 133.6, 719.3)">s</text><text xml:space="preserve" font-family="Inkpen2Script" font-size="108.0" fill="#FEFFFF" transform="matrix(0.96, 0.27, 0.27, -0.96, 174.8, 730.8)">t</text><text xml:space="preserve" font-family="Inkpen2Script" font-size="108.0" fill="#FEFFFF" transform="matrix(0.96, 0.27, 0.27, -0.96, 215.5, 742.2)">e</text><text xml:space="preserve" font-family="Inkpen2Script" font-size="108.0" fill="#FEFFFF" transform="matrix(0.96, 0.27, 0.27, -0.96, 250.9, 752.1)">d</text><text xml:space="preserve" font-family="Inkpen2Script" font-size="108.0" fill="#FEFFFF" transform="matrix(0.96, 0.27, 0.27, -0.96, 294.0, 764.2)"> </text><text xml:space="preserve" font-family="Inkpen2Script" font-size="108.0" fill="#FEFFFF" transform="matrix(0.96, 0.27, 0.27, -0.96, 327.4, 773.6)">t</text><text xml:space="preserve" font-family="Inkpen2Script" font-size="108.0" fill="#FEFFFF" transform="matrix(0.96, 0.27, 0.27, -0.96, 368.0, 785.0)">a</text><text xml:space="preserve" font-family="Inkpen2Script" font-size="108.0" fill="#FEFFFF" transform="matrix(0.96, 0.27, 0.27, -0.96, 399.6, 793.8)">b</text><text xml:space="preserve" font-family="Inkpen2Script" font-size="108.0" fill="#FEFFFF" transform="matrix(0.96, 0.27, 0.27, -0.96, 435.4, 803.8)">l</text><text xml:space="preserve" font-family="Inkpen2Script" font-size="108.0" fill="#FEFFFF" transform="matrix(0.96, 0.27, 0.27, -0.96, 468.7, 813.2)">e</text><text xml:space="preserve" font-family="Inkpen2Script" font-size="108.0" fill="#FEFFFF" transform="matrix(0.96, 0.27, 0.27, -0.96, 504.1, 823.1)">s</text><text xml:space="preserve" font-family="Inkpen2Script" font-size="108.0" fill="#FEFFFF" transform="matrix(0.96, 0.27, 0.27, -0.96, 545.3, 834.6)">!</text><image xlink:href="1A6F40BE94887C9D12EC128EBEA49D5B.png" width="866.00" height="245.00" transform="matrix(1.00, 0.00, -0.00, -1.00, 994.0, 1038.0)"></image><text xml:space="preserve" font-family="Inkpen2Script" font-size="138.0" fill="#FEFFFF" transform="matrix(0.99, -0.17, -0.17, -0.99, 998.4, 946.3)">M</text><text xml:space="preserve" font-family="Inkpen2Script" font-size="138.0" fill="#FEFFFF" transform="matrix(0.99, -0.17, -0.17, -0.99, 1070.7, 933.8)">o</text><text xml:space="preserve" font-family="Inkpen2Script" font-size="138.0" fill="#FEFFFF" transform="matrix(0.99, -0.17, -0.17, -0.99, 1117.9, 925.6)">u</text><text xml:space="preserve" font-family="Inkpen2Script" font-size="138.0" fill="#FEFFFF" transform="matrix(0.99, -0.17, -0.17, -0.99, 1172.0, 916.2)">s</text><text xml:space="preserve" font-family="Inkpen2Script" font-size="138.0" fill="#FEFFFF" transform="matrix(0.99, -0.17, -0.17, -0.99, 1225.9, 906.9)">e</text><text xml:space="preserve" font-family="Inkpen2Script" font-size="138.0" fill="#FEFFFF" transform="matrix(0.99, -0.17, -0.17, -0.99, 1272.3, 898.9)">o</text><text xml:space="preserve" font-family="Inkpen2Script" font-size="138.0" fill="#FEFFFF" transform="matrix(0.99, -0.17, -0.17, -0.99, 1319.4, 890.7)">v</text><text xml:space="preserve" font-family="Inkpen2Script" font-size="138.0" fill="#FEFFFF" transform="matrix(0.99, -0.17, -0.17, -0.99, 1367.0, 882.4)">e</text><text xml:space="preserve" font-family="Inkpen2Script" font-size="138.0" fill="#FEFFFF" transform="matrix(0.99, -0.17, -0.17, -0.99, 1413.4, 874.4)">r</text><text xml:space="preserve" font-family="Inkpen2Script" font-size="138.0" fill="#FEFFFF" transform="matrix(0.99, -0.17, -0.17, -0.99, 1459.9, 866.3)"> </text><text xml:space="preserve" font-family="Inkpen2Script" font-size="138.0" fill="#FEFFFF" transform="matrix(0.99, -0.17, -0.17, -0.99, 1503.5, 858.8)">e</text><text xml:space="preserve" font-family="Inkpen2Script" font-size="138.0" fill="#FEFFFF" transform="matrix(0.99, -0.17, -0.17, -0.99, 1549.9, 850.7)">v</text><text xml:space="preserve" font-family="Inkpen2Script" font-size="138.0" fill="#FEFFFF" transform="matrix(0.99, -0.17, -0.17, -0.99, 1597.5, 842.5)">e</text><text xml:space="preserve" font-family="Inkpen2Script" font-size="138.0" fill="#FEFFFF" transform="matrix(0.99, -0.17, -0.17, -0.99, 1643.9, 834.5)">n</text><text xml:space="preserve" font-family="Inkpen2Script" font-size="138.0" fill="#FEFFFF" transform="matrix(0.99, -0.17, -0.17, -0.99, 1700.3, 824.7)">t</text><text xml:space="preserve" font-family="Inkpen2Script" font-size="138.0" fill="#FEFFFF" transform="matrix(0.99, -0.17, -0.17, -0.99, 1753.5, 815.5)">s</text><text xml:space="preserve" font-family="Inkpen2Script" font-size="138.0" fill="#FEFFFF" transform="matrix(0.99, -0.17, -0.17, -0.99, 1807.3, 806.1)">!</text><text xml:space="preserve" font-family="Inkpen2Script" font-size="138.0" fill="#FEFFFF" transform="matrix(0.99, -0.17, -0.17, -0.99, 1828.1, 802.5)">!</text></g></svg>