<?xml version="1.0" encoding="UTF-8" standalone="no"?><svg xmlns="http://www.w3.org/2000/svg" xmlns:xlink="http://www.w3.org/1999/xlink" clip-rule="evenodd" stroke-miterlimit="4.00" viewBox="0 0 1920 1080"><desc>SVG generated by Keynote</desc><defs></defs><g transform="matrix(1.00, 0.00, -0.00, -1.00, 0.0, 1080.0)"><path d="M 0.0 1080.0 L 1920.0 1080.0 L 1920.0 0.0 L 0.0 0.0 Z M 0.0 1080.0 " fill="#FEFFFE"></path><text xml:space="preserve" font-family="CourierNewPSMT" font-size="84.0" fill="#94A4A6" transform="matrix(1.00, 0.00, -0.00, -1.00, 153.0, 518.0)">l</text><text xml:space="preserve" font-family="CourierNewPSMT" font-size="84.0" fill="#94A4A6" transform="matrix(1.00, 0.00, -0.00, -1.00, 203.4, 518.0)">o</text><text xml:space="preserve" font-family="CourierNewPSMT" font-size="84.0" fill="#94A4A6" transform="matrix(1.00, 0.00, -0.00, -1.00, 253.8, 518.0)">c</text><text xml:space="preserve" font-family="CourierNewPSMT" font-size="84.0" fill="#94A4A6" transform="matrix(1.00, 0.00, -0.00, -1.00, 304.2, 518.0)">a</text><text xml:space="preserve" font-family="CourierNewPSMT" font-size="84.0" fill="#94A4A6" transform="matrix(1.00, 0.00, -0.00, -1.00, 354.7, 518.0)">l</text><text xml:space="preserve" font-family="CourierNewPSMT" font-size="84.0" fill="#94A4A6" transform="matrix(1.00, 0.00, -0.00, -1.00, 405.1, 518.0)">S</text><text xml:space="preserve" font-family="CourierNewPSMT" font-size="84.0" fill="#94A4A6" transform="matrix(1.00, 0.00, -0.00, -1.00, 455.5, 518.0)">t</text><text xml:space="preserve" font-family="CourierNewPSMT" font-size="84.0" fill="#94A4A6" transform="matrix(1.00, 0.00, -0.00, -1.00, 505.9, 518.0)">o</text><text xml:space="preserve" font-family="CourierNewPSMT" font-size="84.0" fill="#94A4A6" transform="matrix(1.00, 0.00, -0.00, -1.00, 556.3, 518.0)">r</text><text xml:space="preserve" font-family="CourierNewPSMT" font-size="84.0" fill="#94A4A6" transform="matrix(1.00, 0.00, -0.00, -1.00, 606.7, 518.0)">a</text><text xml:space="preserve" font-family="CourierNewPSMT" font-size="84.0" fill="#94A4A6" transform="matrix(1.00, 0.00, -0.00, -1.00, 657.2, 518.0)">g</text><text xml:space="preserve" font-family="CourierNewPSMT" font-size="84.0" fill="#94A4A6" transform="matrix(1.00, 0.00, -0.00, -1.00, 707.6, 518.0)">e</text><text xml:space="preserve" font-family="CourierNewPSMT" font-size="84.0" fill="#A3B0B0" transform="matrix(1.00, 0.00, -0.00, -1.00, 757.9, 518.0)">.</text><text xml:space="preserve" font-family="CourierNewPSMT" font-size="84.0" fill="#94A4A6" transform="matrix(1.00, 0.00, -0.00, -1.00, 808.3, 518.0)">f</text><text xml:space="preserve" font-family="CourierNewPSMT" font-size="84.0" fill="#94A4A6" transform="matrix(1.00, 0.00, -0.00, -1.00, 858.7, 518.0)">i</text><text xml:space="preserve" font-family="CourierNewPSMT" font-size="84.0" fill="#94A4A6" transform="matrix(1.00, 0.00, -0.00, -1.00, 909.1, 518.0)">r</text><text xml:space="preserve" font-family="CourierNewPSMT" font-size="84.0" fill="#94A4A6" transform="matrix(1.00, 0.00, -0.00, -1.00, 959.6, 518.0)">s</text><text xml:space="preserve" font-family="CourierNewPSMT" font-size="84.0" fill="#94A4A6" transform="matrix(1.00, 0.00, -0.00, -1.00, 1010.0, 518.0)">t</text><text xml:space="preserve" font-family="CourierNewPSMT" font-size="84.0" fill="#94A4A6" transform="matrix(1.00, 0.00, -0.00, -1.00, 1060.4, 518.0)">N</text><text xml:space="preserve" font-family="CourierNewPSMT" font-size="84.0" fill="#94A4A6" transform="matrix(1.00, 0.00, -0.00, -1.00, 1110.8, 518.0)">a</text><text xml:space="preserve" font-family="CourierNewPSMT" font-size="84.0" fill="#94A4A6" transform="matrix(1.00, 0.00, -0.00, -1.00, 1161.2, 518.0)">m</text><text xml:space="preserve" font-family="CourierNewPSMT" font-size="84.0" fill="#94A4A6" transform="matrix(1.00, 0.00, -0.00, -1.00, 1211.6, 518.0)">e</text><text xml:space="preserve" font-family="CourierNewPSMT" font-size="84.0" fill="#000000" transform="matrix(1.00, 0.00, -0.00, -1.00, 1262.0, 518.0)"> </text><text xml:space="preserve" font-family="CourierNewPSMT" font-size="84.0" fill="#A3B0B0" transform="matrix(1.00, 0.00, -0.00, -1.00, 1312.4, 518.0)">=</text><text xml:space="preserve" font-family="CourierNewPSMT" font-size="84.0" fill="#000000" transform="matrix(1.00, 0.00, -0.00, -1.00, 1362.8, 518.0)"> </text><text xml:space="preserve" font-family="CourierNewPSMT" font-size="84.0" fill="#E5493C" transform="matrix(1.00, 0.00, -0.00, -1.00, 1413.2, 518.0)">'</text><text xml:space="preserve" font-family="CourierNewPSMT" font-size="84.0" fill="#E5493C" transform="matrix(1.00, 0.00, -0.00, -1.00, 1463.6, 518.0)">D</text><text xml:space="preserve" font-family="CourierNewPSMT" font-size="84.0" fill="#E5493C" transform="matrix(1.00, 0.00, -0.00, -1.00, 1514.0, 518.0)">a</text><text xml:space="preserve" font-family="CourierNewPSMT" font-size="84.0" fill="#E5493C" transform="matrix(1.00, 0.00, -0.00, -1.00, 1564.5, 518.0)">v</text><text xml:space="preserve" font-family="CourierNewPSMT" font-size="84.0" fill="#E5493C" transform="matrix(1.00, 0.00, -0.00, -1.00, 1614.9, 518.0)">e</text><text xml:space="preserve" font-family="CourierNewPSMT" font-size="84.0" fill="#E5493C" transform="matrix(1.00, 0.00, -0.00, -1.00, 1665.3, 518.0)">'</text><text xml:space="preserve" font-family="CourierNewPSMT" font-size="84.0" fill="#A3B0B0" transform="matrix(1.00, 0.00, -0.00, -1.00, 1715.7, 518.0)">;</text><text xml:space="preserve" font-family="HelveticaNeue-Thin" font-size="132.7" fill="#000000" transform="matrix(1.00, 0.00, -0.00, -1.00, 410.0, 853.0)">S</text><text xml:space="preserve" font-family="HelveticaNeue-Thin" font-size="132.7" fill="#000000" transform="matrix(1.00, 0.00, -0.00, -1.00, 493.6, 853.0)">e</text><text xml:space="preserve" font-family="HelveticaNeue-Thin" font-size="132.7" fill="#000000" transform="matrix(1.00, 0.00, -0.00, -1.00, 562.5, 853.0)">t</text><text xml:space="preserve" font-family="HelveticaNeue-Thin" font-size="132.7" fill="#000000" transform="matrix(1.00, 0.00, -0.00, -1.00, 596.9, 853.0)">t</text><text xml:space="preserve" font-family="HelveticaNeue-Thin" font-size="132.7" fill="#000000" transform="matrix(1.00, 0.00, -0.00, -1.00, 631.2, 853.0)">i</text><text xml:space="preserve" font-family="HelveticaNeue-Thin" font-size="132.7" fill="#000000" transform="matrix(1.00, 0.00, -0.00, -1.00, 653.5, 853.0)">n</text><text xml:space="preserve" font-family="HelveticaNeue-Thin" font-size="132.7" fill="#000000" transform="matrix(1.00, 0.00, -0.00, -1.00, 722.4, 853.0)">g</text><text xml:space="preserve" font-family="HelveticaNeue-Thin" font-size="132.7" fill="#000000" transform="matrix(1.00, 0.00, -0.00, -1.00, 793.7, 853.0)"> </text><text xml:space="preserve" font-family="HelveticaNeue-Thin" font-size="132.7" fill="#000000" transform="matrix(1.00, 0.00, -0.00, -1.00, 830.6, 853.0)">l</text><text xml:space="preserve" font-family="HelveticaNeue-Thin" font-size="132.7" fill="#000000" transform="matrix(1.00, 0.00, -0.00, -1.00, 852.9, 853.0)">o</text><text xml:space="preserve" font-family="HelveticaNeue-Thin" font-size="132.7" fill="#000000" transform="matrix(1.00, 0.00, -0.00, -1.00, 924.2, 853.0)">c</text><text xml:space="preserve" font-family="HelveticaNeue-Thin" font-size="132.7" fill="#000000" transform="matrix(1.00, 0.00, -0.00, -1.00, 993.0, 853.0)">a</text><text xml:space="preserve" font-family="HelveticaNeue-Thin" font-size="132.7" fill="#000000" transform="matrix(1.00, 0.00, -0.00, -1.00, 1059.4, 853.0)">l</text><text xml:space="preserve" font-family="HelveticaNeue-Thin" font-size="132.7" fill="#000000" transform="matrix(1.00, 0.00, -0.00, -1.00, 1081.7, 853.0)">S</text><text xml:space="preserve" font-family="HelveticaNeue-Thin" font-size="132.7" fill="#000000" transform="matrix(1.00, 0.00, -0.00, -1.00, 1164.8, 853.0)">t</text><text xml:space="preserve" font-family="HelveticaNeue-Thin" font-size="132.7" fill="#000000" transform="matrix(1.00, 0.00, -0.00, -1.00, 1197.3, 853.0)">o</text><text xml:space="preserve" font-family="HelveticaNeue-Thin" font-size="132.7" fill="#000000" transform="matrix(1.00, 0.00, -0.00, -1.00, 1268.6, 853.0)">r</text><text xml:space="preserve" font-family="HelveticaNeue-Thin" font-size="132.7" fill="#000000" transform="matrix(1.00, 0.00, -0.00, -1.00, 1302.8, 853.0)">a</text><text xml:space="preserve" font-family="HelveticaNeue-Thin" font-size="132.7" fill="#000000" transform="matrix(1.00, 0.00, -0.00, -1.00, 1369.2, 853.0)">g</text><text xml:space="preserve" font-family="HelveticaNeue-Thin" font-size="132.7" fill="#000000" transform="matrix(1.00, 0.00, -0.00, -1.00, 1440.4, 853.0)">e</text></g></svg>