<?xml version="1.0" encoding="UTF-8" standalone="no"?><svg xmlns="http://www.w3.org/2000/svg" xmlns:xlink="http://www.w3.org/1999/xlink" clip-rule="evenodd" stroke-miterlimit="4.00" viewBox="0 0 1920 1080"><desc>SVG generated by Keynote</desc><defs></defs><g transform="matrix(1.00, 0.00, -0.00, -1.00, 0.0, 1080.0)"><path d="M 0.0 1080.0 L 1920.0 1080.0 L 1920.0 0.0 L 0.0 0.0 Z M 0.0 1080.0 " fill="#000000"></path><text xml:space="preserve" font-family="HelveticaNeue-Thin" font-size="191.0" fill="#FEFFFF" transform="matrix(1.00, 0.00, -0.00, -1.00, 748.0, 861.0)">1</text><text xml:space="preserve" font-family="HelveticaNeue-Thin" font-size="191.0" fill="#FEFFFF" transform="matrix(1.00, 0.00, -0.00, -1.00, 854.2, 861.0)">9</text><text xml:space="preserve" font-family="HelveticaNeue-Thin" font-size="191.0" fill="#FEFFFF" transform="matrix(1.00, 0.00, -0.00, -1.00, 960.4, 861.0)">9</text><text xml:space="preserve" font-family="HelveticaNeue-Thin" font-size="191.0" fill="#FEFFFF" transform="matrix(1.00, 0.00, -0.00, -1.00, 1066.6, 861.0)">2</text><image xlink:href="E2567B4373E8E4FD140CD918C5FB00F1.jpeg" width="497.00" height="665.00" transform="matrix(1.00, 0.00, -0.00, -1.00, 130.0, 809.0)"></image><image xlink:href="07CE0F7CD4A56A221AA944A8B3C549E0.jpeg" width="400.00" height="527.00" transform="matrix(1.26, 0.00, -0.00, -1.26, 1293.0, 809.0)"></image><image xlink:href="68EC0940BC1F2860F457EA5C030B4AC1.png" width="200.00" height="216.00" transform="matrix(2.01, 0.00, -0.00, -2.00, 759.0, 694.0)"></image></g></svg>