<?xml version="1.0" encoding="UTF-8" standalone="no"?><svg xmlns="http://www.w3.org/2000/svg" xmlns:xlink="http://www.w3.org/1999/xlink" clip-rule="evenodd" stroke-miterlimit="4.00" viewBox="0 0 1920 1080"><desc>SVG generated by Keynote</desc><defs></defs><g transform="matrix(1.00, 0.00, -0.00, -1.00, 0.0, 1080.0)"><path d="M 0.0 1080.0 L 1920.0 1080.0 L 1920.0 0.0 L 0.0 0.0 Z M 0.0 1080.0 " fill="#FEFFFE"></path><text xml:space="preserve" font-family="HelveticaNeue-Thin" font-size="86.0" fill="#000000" transform="matrix(1.00, 0.00, -0.00, -1.00, 438.0, 769.0)">S</text><text xml:space="preserve" font-family="HelveticaNeue-Thin" font-size="86.0" fill="#000000" transform="matrix(1.00, 0.00, -0.00, -1.00, 492.2, 769.0)">e</text><text xml:space="preserve" font-family="HelveticaNeue-Thin" font-size="86.0" fill="#000000" transform="matrix(1.00, 0.00, -0.00, -1.00, 536.8, 769.0)">l</text><text xml:space="preserve" font-family="HelveticaNeue-Thin" font-size="86.0" fill="#000000" transform="matrix(1.00, 0.00, -0.00, -1.00, 551.3, 769.0)">e</text><text xml:space="preserve" font-family="HelveticaNeue-Thin" font-size="86.0" fill="#000000" transform="matrix(1.00, 0.00, -0.00, -1.00, 595.9, 769.0)">c</text><text xml:space="preserve" font-family="HelveticaNeue-Thin" font-size="86.0" fill="#000000" transform="matrix(1.00, 0.00, -0.00, -1.00, 640.5, 769.0)">t</text><text xml:space="preserve" font-family="HelveticaNeue-Thin" font-size="86.0" fill="#000000" transform="matrix(1.00, 0.00, -0.00, -1.00, 662.8, 769.0)"> </text><text xml:space="preserve" font-family="HelveticaNeue-Thin" font-size="86.0" fill="#000000" transform="matrix(1.00, 0.00, -0.00, -1.00, 686.7, 769.0)">o</text><text xml:space="preserve" font-family="HelveticaNeue-Thin" font-size="86.0" fill="#000000" transform="matrix(1.00, 0.00, -0.00, -1.00, 732.9, 769.0)">n</text><text xml:space="preserve" font-family="HelveticaNeue-Thin" font-size="86.0" fill="#000000" transform="matrix(1.00, 0.00, -0.00, -1.00, 777.5, 769.0)">e</text><text xml:space="preserve" font-family="HelveticaNeue-Thin" font-size="86.0" fill="#000000" transform="matrix(1.00, 0.00, -0.00, -1.00, 822.2, 769.0)"> </text><text xml:space="preserve" font-family="HelveticaNeue-Thin" font-size="86.0" fill="#000000" transform="matrix(1.00, 0.00, -0.00, -1.00, 846.1, 769.0)">m</text><text xml:space="preserve" font-family="HelveticaNeue-Thin" font-size="86.0" fill="#000000" transform="matrix(1.00, 0.00, -0.00, -1.00, 914.5, 769.0)">a</text><text xml:space="preserve" font-family="HelveticaNeue-Thin" font-size="86.0" fill="#000000" transform="matrix(1.00, 0.00, -0.00, -1.00, 957.5, 769.0)">t</text><text xml:space="preserve" font-family="HelveticaNeue-Thin" font-size="86.0" fill="#000000" transform="matrix(1.00, 0.00, -0.00, -1.00, 979.8, 769.0)">c</text><text xml:space="preserve" font-family="HelveticaNeue-Thin" font-size="86.0" fill="#000000" transform="matrix(1.00, 0.00, -0.00, -1.00, 1024.4, 769.0)">h</text><text xml:space="preserve" font-family="HelveticaNeue-Thin" font-size="86.0" fill="#000000" transform="matrix(1.00, 0.00, -0.00, -1.00, 1069.1, 769.0)">i</text><text xml:space="preserve" font-family="HelveticaNeue-Thin" font-size="86.0" fill="#000000" transform="matrix(1.00, 0.00, -0.00, -1.00, 1083.5, 769.0)">n</text><text xml:space="preserve" font-family="HelveticaNeue-Thin" font-size="86.0" fill="#000000" transform="matrix(1.00, 0.00, -0.00, -1.00, 1128.2, 769.0)">g</text><text xml:space="preserve" font-family="HelveticaNeue-Thin" font-size="86.0" fill="#000000" transform="matrix(1.00, 0.00, -0.00, -1.00, 1174.3, 769.0)"> </text><text xml:space="preserve" font-family="HelveticaNeue-Thin" font-size="86.0" fill="#000000" transform="matrix(1.00, 0.00, -0.00, -1.00, 1198.2, 769.0)">e</text><text xml:space="preserve" font-family="HelveticaNeue-Thin" font-size="86.0" fill="#000000" transform="matrix(1.00, 0.00, -0.00, -1.00, 1242.9, 769.0)">l</text><text xml:space="preserve" font-family="HelveticaNeue-Thin" font-size="86.0" fill="#000000" transform="matrix(1.00, 0.00, -0.00, -1.00, 1257.3, 769.0)">e</text><text xml:space="preserve" font-family="HelveticaNeue-Thin" font-size="86.0" fill="#000000" transform="matrix(1.00, 0.00, -0.00, -1.00, 1302.0, 769.0)">m</text><text xml:space="preserve" font-family="HelveticaNeue-Thin" font-size="86.0" fill="#000000" transform="matrix(1.00, 0.00, -0.00, -1.00, 1370.4, 769.0)">e</text><text xml:space="preserve" font-family="HelveticaNeue-Thin" font-size="86.0" fill="#000000" transform="matrix(1.00, 0.00, -0.00, -1.00, 1415.0, 769.0)">n</text><text xml:space="preserve" font-family="HelveticaNeue-Thin" font-size="86.0" fill="#000000" transform="matrix(1.00, 0.00, -0.00, -1.00, 1459.7, 769.0)">t</text><text xml:space="preserve" font-family="SourceCodePro-Regular" font-size="88.0" fill="#000000" transform="matrix(1.00, 0.00, -0.00, -1.00, 141.0, 509.0)">d</text><text xml:space="preserve" font-family="SourceCodePro-Regular" font-size="88.0" fill="#000000" transform="matrix(1.00, 0.00, -0.00, -1.00, 193.8, 509.0)">o</text><text xml:space="preserve" font-family="SourceCodePro-Regular" font-size="88.0" fill="#000000" transform="matrix(1.00, 0.00, -0.00, -1.00, 246.6, 509.0)">c</text><text xml:space="preserve" font-family="SourceCodePro-Regular" font-size="88.0" fill="#000000" transform="matrix(1.00, 0.00, -0.00, -1.00, 299.4, 509.0)">u</text><text xml:space="preserve" font-family="SourceCodePro-Regular" font-size="88.0" fill="#000000" transform="matrix(1.00, 0.00, -0.00, -1.00, 352.2, 509.0)">m</text><text xml:space="preserve" font-family="SourceCodePro-Regular" font-size="88.0" fill="#000000" transform="matrix(1.00, 0.00, -0.00, -1.00, 405.0, 509.0)">e</text><text xml:space="preserve" font-family="SourceCodePro-Regular" font-size="88.0" fill="#000000" transform="matrix(1.00, 0.00, -0.00, -1.00, 457.8, 509.0)">n</text><text xml:space="preserve" font-family="SourceCodePro-Regular" font-size="88.0" fill="#000000" transform="matrix(1.00, 0.00, -0.00, -1.00, 510.6, 509.0)">t</text><text xml:space="preserve" font-family="SourceCodePro-Regular" font-size="88.0" fill="#000000" transform="matrix(1.00, 0.00, -0.00, -1.00, 563.4, 509.0)">.</text><text xml:space="preserve" font-family="SourceCodePro-Regular" font-size="88.0" fill="#000000" transform="matrix(1.00, 0.00, -0.00, -1.00, 616.2, 509.0)">q</text><text xml:space="preserve" font-family="SourceCodePro-Regular" font-size="88.0" fill="#000000" transform="matrix(1.00, 0.00, -0.00, -1.00, 669.0, 509.0)">u</text><text xml:space="preserve" font-family="SourceCodePro-Regular" font-size="88.0" fill="#000000" transform="matrix(1.00, 0.00, -0.00, -1.00, 721.8, 509.0)">e</text><text xml:space="preserve" font-family="SourceCodePro-Regular" font-size="88.0" fill="#000000" transform="matrix(1.00, 0.00, -0.00, -1.00, 774.6, 509.0)">r</text><text xml:space="preserve" font-family="SourceCodePro-Regular" font-size="88.0" fill="#000000" transform="matrix(1.00, 0.00, -0.00, -1.00, 827.4, 509.0)">y</text><text xml:space="preserve" font-family="SourceCodePro-Regular" font-size="88.0" fill="#000000" transform="matrix(1.00, 0.00, -0.00, -1.00, 880.2, 509.0)">S</text><text xml:space="preserve" font-family="SourceCodePro-Regular" font-size="88.0" fill="#000000" transform="matrix(1.00, 0.00, -0.00, -1.00, 933.0, 509.0)">e</text><text xml:space="preserve" font-family="SourceCodePro-Regular" font-size="88.0" fill="#000000" transform="matrix(1.00, 0.00, -0.00, -1.00, 985.8, 509.0)">l</text><text xml:space="preserve" font-family="SourceCodePro-Regular" font-size="88.0" fill="#000000" transform="matrix(1.00, 0.00, -0.00, -1.00, 1038.6, 509.0)">e</text><text xml:space="preserve" font-family="SourceCodePro-Regular" font-size="88.0" fill="#000000" transform="matrix(1.00, 0.00, -0.00, -1.00, 1091.4, 509.0)">c</text><text xml:space="preserve" font-family="SourceCodePro-Regular" font-size="88.0" fill="#000000" transform="matrix(1.00, 0.00, -0.00, -1.00, 1144.2, 509.0)">t</text><text xml:space="preserve" font-family="SourceCodePro-Regular" font-size="88.0" fill="#000000" transform="matrix(1.00, 0.00, -0.00, -1.00, 1197.0, 509.0)">o</text><text xml:space="preserve" font-family="SourceCodePro-Regular" font-size="88.0" fill="#000000" transform="matrix(1.00, 0.00, -0.00, -1.00, 1249.8, 509.0)">r</text><text xml:space="preserve" font-family="SourceCodePro-Regular" font-size="88.0" fill="#000000" transform="matrix(1.00, 0.00, -0.00, -1.00, 1302.6, 509.0)">(</text><text xml:space="preserve" font-family="SourceCodePro-Regular" font-size="88.0" fill="#000000" transform="matrix(1.00, 0.00, -0.00, -1.00, 1355.4, 509.0)">"</text><text xml:space="preserve" font-family="SourceCodePro-Regular" font-size="88.0" fill="#000000" transform="matrix(1.00, 0.00, -0.00, -1.00, 1408.2, 509.0)">#</text><text xml:space="preserve" font-family="SourceCodePro-Regular" font-size="88.0" fill="#000000" transform="matrix(1.00, 0.00, -0.00, -1.00, 1461.0, 509.0)">m</text><text xml:space="preserve" font-family="SourceCodePro-Regular" font-size="88.0" fill="#000000" transform="matrix(1.00, 0.00, -0.00, -1.00, 1513.8, 509.0)">a</text><text xml:space="preserve" font-family="SourceCodePro-Regular" font-size="88.0" fill="#000000" transform="matrix(1.00, 0.00, -0.00, -1.00, 1566.6, 509.0)">i</text><text xml:space="preserve" font-family="SourceCodePro-Regular" font-size="88.0" fill="#000000" transform="matrix(1.00, 0.00, -0.00, -1.00, 1619.4, 509.0)">n</text><text xml:space="preserve" font-family="SourceCodePro-Regular" font-size="88.0" fill="#000000" transform="matrix(1.00, 0.00, -0.00, -1.00, 1672.2, 509.0)">"</text><text xml:space="preserve" font-family="SourceCodePro-Regular" font-size="88.0" fill="#000000" transform="matrix(1.00, 0.00, -0.00, -1.00, 1725.0, 509.0)">)</text></g></svg>