<?xml version="1.0" encoding="UTF-8" standalone="no"?><svg xmlns="http://www.w3.org/2000/svg" xmlns:xlink="http://www.w3.org/1999/xlink" clip-rule="evenodd" stroke-miterlimit="4.00" viewBox="0 0 1920 1080"><desc>SVG generated by Keynote</desc><defs></defs><g transform="matrix(1.00, 0.00, -0.00, -1.00, 0.0, 1080.0)"><path d="M 0.0 1080.0 L 1920.0 1080.0 L 1920.0 0.0 L 0.0 0.0 Z M 0.0 1080.0 " fill="#000000"></path><image xlink:href="../../1AD86214-3E38-4F72-901F-4B39B3C8FF7D/assets/71AF9243B4842DD5884609FC36B19893.jpeg" width="1153.00" height="768.00" transform="matrix(1.67, 0.00, -0.00, -1.67, 0.0, 1122.0)"></image><path d="M 652.6 1033.9 C 508.3 1033.9 391.2 974.6 391.2 901.3 C 391.2 864.2 421.3 830.7 469.6 806.6 L 393.0 740.3 L 511.2 789.8 C 552.0 776.5 600.5 768.6 652.6 768.6 C 797.0 768.6 914.0 828.0 914.0 901.3 C 914.0 974.6 797.0 1033.9 652.6 1033.9 Z M 652.6 1033.9 " fill="#FEFFFE"></path><path d="M 261.4 0.0 C 117.0 0.0 0.0 59.4 0.0 132.7 C -0.0 169.7 30.1 203.2 78.4 227.3 L 1.8 293.6 L 120.0 244.1 C 160.8 257.5 209.2 265.3 261.4 265.3 C 405.8 265.3 522.8 205.9 522.8 132.7 C 522.8 59.4 405.8 0.0 261.4 0.0 Z M 261.4 0.0 " fill="none" stroke="#000000" stroke-width="4.00" transform="matrix(1.00, 0.00, 0.00, -1.00, 391.2, 1033.9)"></path><text xml:space="preserve" font-family="Helvetica-Light" font-size="107.0" fill="#000000" transform="matrix(1.00, 0.00, -0.00, -1.00, 538.0, 865.0)">h</text><text xml:space="preserve" font-family="Helvetica-Light" font-size="107.0" fill="#000000" transform="matrix(1.00, 0.00, -0.00, -1.00, 597.5, 865.0)">y</text><text xml:space="preserve" font-family="Helvetica-Light" font-size="107.0" fill="#000000" transform="matrix(1.00, 0.00, -0.00, -1.00, 651.0, 865.0)">p</text><text xml:space="preserve" font-family="Helvetica-Light" font-size="107.0" fill="#000000" transform="matrix(1.00, 0.00, -0.00, -1.00, 716.4, 865.0)">e</text></g></svg>