<?xml version="1.0" encoding="UTF-8" standalone="no"?><svg xmlns="http://www.w3.org/2000/svg" xmlns:xlink="http://www.w3.org/1999/xlink" clip-rule="evenodd" stroke-miterlimit="4.00" viewBox="0 0 1920 1080"><desc>SVG generated by Keynote</desc><defs></defs><g transform="matrix(1.00, 0.00, -0.00, -1.00, 0.0, 1080.0)"><path d="M 0.0 1080.0 L 1920.0 1080.0 L 1920.0 0.0 L 0.0 0.0 Z M 0.0 1080.0 " fill="#FEFFFE"></path><text xml:space="preserve" font-family="SourceCodePro-Regular" font-size="56.0" fill="#D6601A" transform="matrix(1.00, 0.00, -0.00, -1.00, 103.0, 783.0)">v</text><text xml:space="preserve" font-family="SourceCodePro-Regular" font-size="56.0" fill="#D6601A" transform="matrix(1.00, 0.00, -0.00, -1.00, 136.6, 783.0)">a</text><text xml:space="preserve" font-family="SourceCodePro-Regular" font-size="56.0" fill="#D6601A" transform="matrix(1.00, 0.00, -0.00, -1.00, 170.2, 783.0)">r</text><text xml:space="preserve" font-family="SourceCodePro-Regular" font-size="56.0" fill="#000000" transform="matrix(1.00, 0.00, -0.00, -1.00, 203.8, 783.0)"> </text><text xml:space="preserve" font-family="SourceCodePro-Regular" font-size="56.0" fill="#94A4A6" transform="matrix(1.00, 0.00, -0.00, -1.00, 237.4, 783.0)">s</text><text xml:space="preserve" font-family="SourceCodePro-Regular" font-size="56.0" fill="#94A4A6" transform="matrix(1.00, 0.00, -0.00, -1.00, 271.0, 783.0)">t</text><text xml:space="preserve" font-family="SourceCodePro-Regular" font-size="56.0" fill="#94A4A6" transform="matrix(1.00, 0.00, -0.00, -1.00, 304.6, 783.0)">o</text><text xml:space="preserve" font-family="SourceCodePro-Regular" font-size="56.0" fill="#94A4A6" transform="matrix(1.00, 0.00, -0.00, -1.00, 338.2, 783.0)">r</text><text xml:space="preserve" font-family="SourceCodePro-Regular" font-size="56.0" fill="#94A4A6" transform="matrix(1.00, 0.00, -0.00, -1.00, 371.8, 783.0)">e</text><text xml:space="preserve" font-family="SourceCodePro-Regular" font-size="56.0" fill="#94A4A6" transform="matrix(1.00, 0.00, -0.00, -1.00, 405.4, 783.0)">d</text><text xml:space="preserve" font-family="SourceCodePro-Regular" font-size="56.0" fill="#94A4A6" transform="matrix(1.00, 0.00, -0.00, -1.00, 439.0, 783.0)">R</text><text xml:space="preserve" font-family="SourceCodePro-Regular" font-size="56.0" fill="#94A4A6" transform="matrix(1.00, 0.00, -0.00, -1.00, 472.6, 783.0)">o</text><text xml:space="preserve" font-family="SourceCodePro-Regular" font-size="56.0" fill="#94A4A6" transform="matrix(1.00, 0.00, -0.00, -1.00, 506.2, 783.0)">s</text><text xml:space="preserve" font-family="SourceCodePro-Regular" font-size="56.0" fill="#94A4A6" transform="matrix(1.00, 0.00, -0.00, -1.00, 539.8, 783.0)">t</text><text xml:space="preserve" font-family="SourceCodePro-Regular" font-size="56.0" fill="#94A4A6" transform="matrix(1.00, 0.00, -0.00, -1.00, 573.4, 783.0)">e</text><text xml:space="preserve" font-family="SourceCodePro-Regular" font-size="56.0" fill="#94A4A6" transform="matrix(1.00, 0.00, -0.00, -1.00, 607.0, 783.0)">r</text><text xml:space="preserve" font-family="SourceCodePro-Regular" font-size="56.0" fill="#000000" transform="matrix(1.00, 0.00, -0.00, -1.00, 640.6, 783.0)"> </text><text xml:space="preserve" font-family="SourceCodePro-Regular" font-size="56.0" fill="#A3B0B0" transform="matrix(1.00, 0.00, -0.00, -1.00, 674.2, 783.0)">=</text><text xml:space="preserve" font-family="SourceCodePro-Regular" font-size="56.0" fill="#000000" transform="matrix(1.00, 0.00, -0.00, -1.00, 707.8, 783.0)"> </text><text xml:space="preserve" font-family="SourceCodePro-Regular" font-size="56.0" fill="#94A4A6" transform="matrix(1.00, 0.00, -0.00, -1.00, 741.4, 783.0)">l</text><text xml:space="preserve" font-family="SourceCodePro-Regular" font-size="56.0" fill="#94A4A6" transform="matrix(1.00, 0.00, -0.00, -1.00, 775.0, 783.0)">o</text><text xml:space="preserve" font-family="SourceCodePro-Regular" font-size="56.0" fill="#94A4A6" transform="matrix(1.00, 0.00, -0.00, -1.00, 808.6, 783.0)">c</text><text xml:space="preserve" font-family="SourceCodePro-Regular" font-size="56.0" fill="#94A4A6" transform="matrix(1.00, 0.00, -0.00, -1.00, 842.2, 783.0)">a</text><text xml:space="preserve" font-family="SourceCodePro-Regular" font-size="56.0" fill="#94A4A6" transform="matrix(1.00, 0.00, -0.00, -1.00, 875.8, 783.0)">l</text><text xml:space="preserve" font-family="SourceCodePro-Regular" font-size="56.0" fill="#94A4A6" transform="matrix(1.00, 0.00, -0.00, -1.00, 909.4, 783.0)">S</text><text xml:space="preserve" font-family="SourceCodePro-Regular" font-size="56.0" fill="#94A4A6" transform="matrix(1.00, 0.00, -0.00, -1.00, 943.0, 783.0)">t</text><text xml:space="preserve" font-family="SourceCodePro-Regular" font-size="56.0" fill="#94A4A6" transform="matrix(1.00, 0.00, -0.00, -1.00, 976.6, 783.0)">o</text><text xml:space="preserve" font-family="SourceCodePro-Regular" font-size="56.0" fill="#94A4A6" transform="matrix(1.00, 0.00, -0.00, -1.00, 1010.2, 783.0)">r</text><text xml:space="preserve" font-family="SourceCodePro-Regular" font-size="56.0" fill="#94A4A6" transform="matrix(1.00, 0.00, -0.00, -1.00, 1043.8, 783.0)">a</text><text xml:space="preserve" font-family="SourceCodePro-Regular" font-size="56.0" fill="#94A4A6" transform="matrix(1.00, 0.00, -0.00, -1.00, 1077.4, 783.0)">g</text><text xml:space="preserve" font-family="SourceCodePro-Regular" font-size="56.0" fill="#94A4A6" transform="matrix(1.00, 0.00, -0.00, -1.00, 1111.0, 783.0)">e</text><text xml:space="preserve" font-family="SourceCodePro-Regular" font-size="56.0" fill="#A3B0B0" transform="matrix(1.00, 0.00, -0.00, -1.00, 1144.6, 783.0)">.</text><text xml:space="preserve" font-family="SourceCodePro-Regular" font-size="56.0" fill="#A3B0B0" transform="matrix(1.00, 0.00, -0.00, -1.00, 1178.2, 783.0)">g</text><text xml:space="preserve" font-family="SourceCodePro-Regular" font-size="56.0" fill="#A3B0B0" transform="matrix(1.00, 0.00, -0.00, -1.00, 1211.8, 783.0)">e</text><text xml:space="preserve" font-family="SourceCodePro-Regular" font-size="56.0" fill="#A3B0B0" transform="matrix(1.00, 0.00, -0.00, -1.00, 1245.4, 783.0)">t</text><text xml:space="preserve" font-family="SourceCodePro-Regular" font-size="56.0" fill="#A3B0B0" transform="matrix(1.00, 0.00, -0.00, -1.00, 1279.0, 783.0)">I</text><text xml:space="preserve" font-family="SourceCodePro-Regular" font-size="56.0" fill="#A3B0B0" transform="matrix(1.00, 0.00, -0.00, -1.00, 1312.6, 783.0)">t</text><text xml:space="preserve" font-family="SourceCodePro-Regular" font-size="56.0" fill="#A3B0B0" transform="matrix(1.00, 0.00, -0.00, -1.00, 1346.2, 783.0)">e</text><text xml:space="preserve" font-family="SourceCodePro-Regular" font-size="56.0" fill="#A3B0B0" transform="matrix(1.00, 0.00, -0.00, -1.00, 1379.8, 783.0)">m</text><text xml:space="preserve" font-family="SourceCodePro-Regular" font-size="56.0" fill="#A3B0B0" transform="matrix(1.00, 0.00, -0.00, -1.00, 1413.4, 783.0)">(</text><text xml:space="preserve" font-family="SourceCodePro-Regular" font-size="56.0" fill="#E5493C" transform="matrix(1.00, 0.00, -0.00, -1.00, 1447.0, 783.0)">'</text><text xml:space="preserve" font-family="SourceCodePro-Regular" font-size="56.0" fill="#E5493C" transform="matrix(1.00, 0.00, -0.00, -1.00, 1480.6, 783.0)">r</text><text xml:space="preserve" font-family="SourceCodePro-Regular" font-size="56.0" fill="#E5493C" transform="matrix(1.00, 0.00, -0.00, -1.00, 1514.2, 783.0)">o</text><text xml:space="preserve" font-family="SourceCodePro-Regular" font-size="56.0" fill="#E5493C" transform="matrix(1.00, 0.00, -0.00, -1.00, 1547.8, 783.0)">s</text><text xml:space="preserve" font-family="SourceCodePro-Regular" font-size="56.0" fill="#E5493C" transform="matrix(1.00, 0.00, -0.00, -1.00, 1581.4, 783.0)">t</text><text xml:space="preserve" font-family="SourceCodePro-Regular" font-size="56.0" fill="#E5493C" transform="matrix(1.00, 0.00, -0.00, -1.00, 1615.0, 783.0)">e</text><text xml:space="preserve" font-family="SourceCodePro-Regular" font-size="56.0" fill="#E5493C" transform="matrix(1.00, 0.00, -0.00, -1.00, 1648.6, 783.0)">r</text><text xml:space="preserve" font-family="SourceCodePro-Regular" font-size="56.0" fill="#E5493C" transform="matrix(1.00, 0.00, -0.00, -1.00, 1682.2, 783.0)">'</text><text xml:space="preserve" font-family="SourceCodePro-Regular" font-size="56.0" fill="#A3B0B0" transform="matrix(1.00, 0.00, -0.00, -1.00, 1715.8, 783.0)">)</text><text xml:space="preserve" font-family="SourceCodePro-Regular" font-size="56.0" fill="#A3B0B0" transform="matrix(1.00, 0.00, -0.00, -1.00, 1749.4, 783.0)">;</text><text xml:space="preserve" font-family="SourceCodePro-Regular" font-size="56.0" fill="#000000" transform="matrix(1.00, 0.00, -0.00, -1.00, 1783.0, 783.0)"> </text><text xml:space="preserve" font-family="SourceCodePro-Regular" font-size="56.0" fill="#D6601A" transform="matrix(1.00, 0.00, -0.00, -1.00, 103.0, 713.0)">i</text><text xml:space="preserve" font-family="SourceCodePro-Regular" font-size="56.0" fill="#D6601A" transform="matrix(1.00, 0.00, -0.00, -1.00, 136.6, 713.0)">f</text><text xml:space="preserve" font-family="SourceCodePro-Regular" font-size="56.0" fill="#000000" transform="matrix(1.00, 0.00, -0.00, -1.00, 170.2, 713.0)"> </text><text xml:space="preserve" font-family="SourceCodePro-Regular" font-size="56.0" fill="#A3B0B0" transform="matrix(1.00, 0.00, -0.00, -1.00, 203.8, 713.0)">(</text><text xml:space="preserve" font-family="SourceCodePro-Regular" font-size="56.0" fill="#94A4A6" transform="matrix(1.00, 0.00, -0.00, -1.00, 237.4, 713.0)">s</text><text xml:space="preserve" font-family="SourceCodePro-Regular" font-size="56.0" fill="#94A4A6" transform="matrix(1.00, 0.00, -0.00, -1.00, 271.0, 713.0)">t</text><text xml:space="preserve" font-family="SourceCodePro-Regular" font-size="56.0" fill="#94A4A6" transform="matrix(1.00, 0.00, -0.00, -1.00, 304.6, 713.0)">o</text><text xml:space="preserve" font-family="SourceCodePro-Regular" font-size="56.0" fill="#94A4A6" transform="matrix(1.00, 0.00, -0.00, -1.00, 338.2, 713.0)">r</text><text xml:space="preserve" font-family="SourceCodePro-Regular" font-size="56.0" fill="#94A4A6" transform="matrix(1.00, 0.00, -0.00, -1.00, 371.8, 713.0)">e</text><text xml:space="preserve" font-family="SourceCodePro-Regular" font-size="56.0" fill="#94A4A6" transform="matrix(1.00, 0.00, -0.00, -1.00, 405.4, 713.0)">d</text><text xml:space="preserve" font-family="SourceCodePro-Regular" font-size="56.0" fill="#94A4A6" transform="matrix(1.00, 0.00, -0.00, -1.00, 439.0, 713.0)">R</text><text xml:space="preserve" font-family="SourceCodePro-Regular" font-size="56.0" fill="#94A4A6" transform="matrix(1.00, 0.00, -0.00, -1.00, 472.6, 713.0)">o</text><text xml:space="preserve" font-family="SourceCodePro-Regular" font-size="56.0" fill="#94A4A6" transform="matrix(1.00, 0.00, -0.00, -1.00, 506.2, 713.0)">s</text><text xml:space="preserve" font-family="SourceCodePro-Regular" font-size="56.0" fill="#94A4A6" transform="matrix(1.00, 0.00, -0.00, -1.00, 539.8, 713.0)">t</text><text xml:space="preserve" font-family="SourceCodePro-Regular" font-size="56.0" fill="#94A4A6" transform="matrix(1.00, 0.00, -0.00, -1.00, 573.4, 713.0)">e</text><text xml:space="preserve" font-family="SourceCodePro-Regular" font-size="56.0" fill="#94A4A6" transform="matrix(1.00, 0.00, -0.00, -1.00, 607.0, 713.0)">r</text><text xml:space="preserve" font-family="SourceCodePro-Regular" font-size="56.0" fill="#A3B0B0" transform="matrix(1.00, 0.00, -0.00, -1.00, 640.6, 713.0)">)</text><text xml:space="preserve" font-family="SourceCodePro-Regular" font-size="56.0" fill="#A3B0B0" transform="matrix(1.00, 0.00, -0.00, -1.00, 674.2, 713.0)"> </text><text xml:space="preserve" font-family="SourceCodePro-Regular" font-size="56.0" fill="#A3B0B0" transform="matrix(1.00, 0.00, -0.00, -1.00, 707.8, 713.0)">{</text><text xml:space="preserve" font-family="SourceCodePro-Regular" font-size="56.0" fill="#000000" transform="matrix(1.00, 0.00, -0.00, -1.00, 741.4, 713.0)"> </text><text xml:space="preserve" font-family="SourceCodePro-Regular" font-size="56.0" fill="#94A4A6" transform="matrix(1.00, 0.00, -0.00, -1.00, 103.0, 643.0)"> </text><text xml:space="preserve" font-family="SourceCodePro-Regular" font-size="56.0" fill="#94A4A6" transform="matrix(1.00, 0.00, -0.00, -1.00, 136.6, 643.0)"> </text><text xml:space="preserve" font-family="SourceCodePro-Regular" font-size="56.0" fill="#94A4A6" transform="matrix(1.00, 0.00, -0.00, -1.00, 170.2, 643.0)">J</text><text xml:space="preserve" font-family="SourceCodePro-Regular" font-size="56.0" fill="#94A4A6" transform="matrix(1.00, 0.00, -0.00, -1.00, 203.8, 643.0)">S</text><text xml:space="preserve" font-family="SourceCodePro-Regular" font-size="56.0" fill="#94A4A6" transform="matrix(1.00, 0.00, -0.00, -1.00, 237.4, 643.0)">O</text><text xml:space="preserve" font-family="SourceCodePro-Regular" font-size="56.0" fill="#94A4A6" transform="matrix(1.00, 0.00, -0.00, -1.00, 271.0, 643.0)">N</text><text xml:space="preserve" font-family="SourceCodePro-Regular" font-size="56.0" fill="#A3B0B0" transform="matrix(1.00, 0.00, -0.00, -1.00, 304.6, 643.0)">.</text><text xml:space="preserve" font-family="SourceCodePro-Regular" font-size="56.0" fill="#A3B0B0" transform="matrix(1.00, 0.00, -0.00, -1.00, 338.2, 643.0)">p</text><text xml:space="preserve" font-family="SourceCodePro-Regular" font-size="56.0" fill="#A3B0B0" transform="matrix(1.00, 0.00, -0.00, -1.00, 371.8, 643.0)">a</text><text xml:space="preserve" font-family="SourceCodePro-Regular" font-size="56.0" fill="#A3B0B0" transform="matrix(1.00, 0.00, -0.00, -1.00, 405.4, 643.0)">r</text><text xml:space="preserve" font-family="SourceCodePro-Regular" font-size="56.0" fill="#A3B0B0" transform="matrix(1.00, 0.00, -0.00, -1.00, 439.0, 643.0)">s</text><text xml:space="preserve" font-family="SourceCodePro-Regular" font-size="56.0" fill="#A3B0B0" transform="matrix(1.00, 0.00, -0.00, -1.00, 472.6, 643.0)">e</text><text xml:space="preserve" font-family="SourceCodePro-Regular" font-size="56.0" fill="#A3B0B0" transform="matrix(1.00, 0.00, -0.00, -1.00, 506.2, 643.0)">(</text><text xml:space="preserve" font-family="SourceCodePro-Regular" font-size="56.0" fill="#94A4A6" transform="matrix(1.00, 0.00, -0.00, -1.00, 539.8, 643.0)">s</text><text xml:space="preserve" font-family="SourceCodePro-Regular" font-size="56.0" fill="#94A4A6" transform="matrix(1.00, 0.00, -0.00, -1.00, 573.4, 643.0)">t</text><text xml:space="preserve" font-family="SourceCodePro-Regular" font-size="56.0" fill="#94A4A6" transform="matrix(1.00, 0.00, -0.00, -1.00, 607.0, 643.0)">o</text><text xml:space="preserve" font-family="SourceCodePro-Regular" font-size="56.0" fill="#94A4A6" transform="matrix(1.00, 0.00, -0.00, -1.00, 640.6, 643.0)">r</text><text xml:space="preserve" font-family="SourceCodePro-Regular" font-size="56.0" fill="#94A4A6" transform="matrix(1.00, 0.00, -0.00, -1.00, 674.2, 643.0)">e</text><text xml:space="preserve" font-family="SourceCodePro-Regular" font-size="56.0" fill="#94A4A6" transform="matrix(1.00, 0.00, -0.00, -1.00, 707.8, 643.0)">d</text><text xml:space="preserve" font-family="SourceCodePro-Regular" font-size="56.0" fill="#94A4A6" transform="matrix(1.00, 0.00, -0.00, -1.00, 741.4, 643.0)">R</text><text xml:space="preserve" font-family="SourceCodePro-Regular" font-size="56.0" fill="#94A4A6" transform="matrix(1.00, 0.00, -0.00, -1.00, 775.0, 643.0)">o</text><text xml:space="preserve" font-family="SourceCodePro-Regular" font-size="56.0" fill="#94A4A6" transform="matrix(1.00, 0.00, -0.00, -1.00, 808.6, 643.0)">s</text><text xml:space="preserve" font-family="SourceCodePro-Regular" font-size="56.0" fill="#94A4A6" transform="matrix(1.00, 0.00, -0.00, -1.00, 842.2, 643.0)">t</text><text xml:space="preserve" font-family="SourceCodePro-Regular" font-size="56.0" fill="#94A4A6" transform="matrix(1.00, 0.00, -0.00, -1.00, 875.8, 643.0)">e</text><text xml:space="preserve" font-family="SourceCodePro-Regular" font-size="56.0" fill="#94A4A6" transform="matrix(1.00, 0.00, -0.00, -1.00, 909.4, 643.0)">r</text><text xml:space="preserve" font-family="SourceCodePro-Regular" font-size="56.0" fill="#A3B0B0" transform="matrix(1.00, 0.00, -0.00, -1.00, 943.0, 643.0)">)</text><text xml:space="preserve" font-family="SourceCodePro-Regular" font-size="56.0" fill="#A3B0B0" transform="matrix(1.00, 0.00, -0.00, -1.00, 976.6, 643.0)">.</text><text xml:space="preserve" font-family="SourceCodePro-Regular" font-size="56.0" fill="#A3B0B0" transform="matrix(1.00, 0.00, -0.00, -1.00, 1010.2, 643.0)">m</text><text xml:space="preserve" font-family="SourceCodePro-Regular" font-size="56.0" fill="#A3B0B0" transform="matrix(1.00, 0.00, -0.00, -1.00, 1043.8, 643.0)">a</text><text xml:space="preserve" font-family="SourceCodePro-Regular" font-size="56.0" fill="#A3B0B0" transform="matrix(1.00, 0.00, -0.00, -1.00, 1077.4, 643.0)">p</text><text xml:space="preserve" font-family="SourceCodePro-Regular" font-size="56.0" fill="#A3B0B0" transform="matrix(1.00, 0.00, -0.00, -1.00, 1111.0, 643.0)">(</text><text xml:space="preserve" font-family="SourceCodePro-Regular" font-size="56.0" fill="#D6601A" transform="matrix(1.00, 0.00, -0.00, -1.00, 1144.6, 643.0)">f</text><text xml:space="preserve" font-family="SourceCodePro-Regular" font-size="56.0" fill="#D6601A" transform="matrix(1.00, 0.00, -0.00, -1.00, 1178.2, 643.0)">u</text><text xml:space="preserve" font-family="SourceCodePro-Regular" font-size="56.0" fill="#D6601A" transform="matrix(1.00, 0.00, -0.00, -1.00, 1211.8, 643.0)">n</text><text xml:space="preserve" font-family="SourceCodePro-Regular" font-size="56.0" fill="#D6601A" transform="matrix(1.00, 0.00, -0.00, -1.00, 1245.4, 643.0)">c</text><text xml:space="preserve" font-family="SourceCodePro-Regular" font-size="56.0" fill="#D6601A" transform="matrix(1.00, 0.00, -0.00, -1.00, 1279.0, 643.0)">t</text><text xml:space="preserve" font-family="SourceCodePro-Regular" font-size="56.0" fill="#D6601A" transform="matrix(1.00, 0.00, -0.00, -1.00, 1312.6, 643.0)">i</text><text xml:space="preserve" font-family="SourceCodePro-Regular" font-size="56.0" fill="#D6601A" transform="matrix(1.00, 0.00, -0.00, -1.00, 1346.2, 643.0)">o</text><text xml:space="preserve" font-family="SourceCodePro-Regular" font-size="56.0" fill="#D6601A" transform="matrix(1.00, 0.00, -0.00, -1.00, 1379.8, 643.0)">n</text><text xml:space="preserve" font-family="SourceCodePro-Regular" font-size="56.0" fill="#A3B0B0" transform="matrix(1.00, 0.00, -0.00, -1.00, 1413.4, 643.0)">(</text><text xml:space="preserve" font-family="SourceCodePro-Regular" font-size="56.0" fill="#94A4A6" transform="matrix(1.00, 0.00, -0.00, -1.00, 1447.0, 643.0)">s</text><text xml:space="preserve" font-family="SourceCodePro-Regular" font-size="56.0" fill="#94A4A6" transform="matrix(1.00, 0.00, -0.00, -1.00, 1480.6, 643.0)">t</text><text xml:space="preserve" font-family="SourceCodePro-Regular" font-size="56.0" fill="#94A4A6" transform="matrix(1.00, 0.00, -0.00, -1.00, 1514.2, 643.0)">u</text><text xml:space="preserve" font-family="SourceCodePro-Regular" font-size="56.0" fill="#94A4A6" transform="matrix(1.00, 0.00, -0.00, -1.00, 1547.8, 643.0)">d</text><text xml:space="preserve" font-family="SourceCodePro-Regular" font-size="56.0" fill="#94A4A6" transform="matrix(1.00, 0.00, -0.00, -1.00, 1581.4, 643.0)">e</text><text xml:space="preserve" font-family="SourceCodePro-Regular" font-size="56.0" fill="#94A4A6" transform="matrix(1.00, 0.00, -0.00, -1.00, 1615.0, 643.0)">n</text><text xml:space="preserve" font-family="SourceCodePro-Regular" font-size="56.0" fill="#94A4A6" transform="matrix(1.00, 0.00, -0.00, -1.00, 1648.6, 643.0)">t</text><text xml:space="preserve" font-family="SourceCodePro-Regular" font-size="56.0" fill="#A3B0B0" transform="matrix(1.00, 0.00, -0.00, -1.00, 1682.2, 643.0)">)</text><text xml:space="preserve" font-family="SourceCodePro-Regular" font-size="56.0" fill="#A3B0B0" transform="matrix(1.00, 0.00, -0.00, -1.00, 1715.8, 643.0)"> </text><text xml:space="preserve" font-family="SourceCodePro-Regular" font-size="56.0" fill="#A3B0B0" transform="matrix(1.00, 0.00, -0.00, -1.00, 1749.4, 643.0)">{</text><text xml:space="preserve" font-family="SourceCodePro-Regular" font-size="56.0" fill="#000000" transform="matrix(1.00, 0.00, -0.00, -1.00, 1783.0, 643.0)"> </text><text xml:space="preserve" font-family="SourceCodePro-Regular" font-size="56.0" fill="#000000" transform="matrix(1.00, 0.00, -0.00, -1.00, 103.0, 573.0)"> </text><text xml:space="preserve" font-family="SourceCodePro-Regular" font-size="56.0" fill="#000000" transform="matrix(1.00, 0.00, -0.00, -1.00, 136.6, 573.0)"> </text><text xml:space="preserve" font-family="SourceCodePro-Regular" font-size="56.0" fill="#000000" transform="matrix(1.00, 0.00, -0.00, -1.00, 170.2, 573.0)"> </text><text xml:space="preserve" font-family="SourceCodePro-Regular" font-size="56.0" fill="#000000" transform="matrix(1.00, 0.00, -0.00, -1.00, 203.8, 573.0)"> </text><text xml:space="preserve" font-family="SourceCodePro-Regular" font-size="56.0" fill="#D6601A" transform="matrix(1.00, 0.00, -0.00, -1.00, 237.4, 573.0)">t</text><text xml:space="preserve" font-family="SourceCodePro-Regular" font-size="56.0" fill="#D6601A" transform="matrix(1.00, 0.00, -0.00, -1.00, 271.0, 573.0)">h</text><text xml:space="preserve" font-family="SourceCodePro-Regular" font-size="56.0" fill="#D6601A" transform="matrix(1.00, 0.00, -0.00, -1.00, 304.6, 573.0)">i</text><text xml:space="preserve" font-family="SourceCodePro-Regular" font-size="56.0" fill="#D6601A" transform="matrix(1.00, 0.00, -0.00, -1.00, 338.2, 573.0)">s</text><text xml:space="preserve" font-family="SourceCodePro-Regular" font-size="56.0" fill="#A3B0B0" transform="matrix(1.00, 0.00, -0.00, -1.00, 371.8, 573.0)">.</text><text xml:space="preserve" font-family="SourceCodePro-Regular" font-size="56.0" fill="#A3B0B0" transform="matrix(1.00, 0.00, -0.00, -1.00, 405.4, 573.0)">a</text><text xml:space="preserve" font-family="SourceCodePro-Regular" font-size="56.0" fill="#A3B0B0" transform="matrix(1.00, 0.00, -0.00, -1.00, 439.0, 573.0)">d</text><text xml:space="preserve" font-family="SourceCodePro-Regular" font-size="56.0" fill="#A3B0B0" transform="matrix(1.00, 0.00, -0.00, -1.00, 472.6, 573.0)">d</text><text xml:space="preserve" font-family="SourceCodePro-Regular" font-size="56.0" fill="#A3B0B0" transform="matrix(1.00, 0.00, -0.00, -1.00, 506.2, 573.0)">S</text><text xml:space="preserve" font-family="SourceCodePro-Regular" font-size="56.0" fill="#A3B0B0" transform="matrix(1.00, 0.00, -0.00, -1.00, 539.8, 573.0)">t</text><text xml:space="preserve" font-family="SourceCodePro-Regular" font-size="56.0" fill="#A3B0B0" transform="matrix(1.00, 0.00, -0.00, -1.00, 573.4, 573.0)">u</text><text xml:space="preserve" font-family="SourceCodePro-Regular" font-size="56.0" fill="#A3B0B0" transform="matrix(1.00, 0.00, -0.00, -1.00, 607.0, 573.0)">d</text><text xml:space="preserve" font-family="SourceCodePro-Regular" font-size="56.0" fill="#A3B0B0" transform="matrix(1.00, 0.00, -0.00, -1.00, 640.6, 573.0)">e</text><text xml:space="preserve" font-family="SourceCodePro-Regular" font-size="56.0" fill="#A3B0B0" transform="matrix(1.00, 0.00, -0.00, -1.00, 674.2, 573.0)">n</text><text xml:space="preserve" font-family="SourceCodePro-Regular" font-size="56.0" fill="#A3B0B0" transform="matrix(1.00, 0.00, -0.00, -1.00, 707.8, 573.0)">t</text><text xml:space="preserve" font-family="SourceCodePro-Regular" font-size="56.0" fill="#A3B0B0" transform="matrix(1.00, 0.00, -0.00, -1.00, 741.4, 573.0)">(</text><text xml:space="preserve" font-family="SourceCodePro-Regular" font-size="56.0" fill="#94A4A6" transform="matrix(1.00, 0.00, -0.00, -1.00, 775.0, 573.0)">s</text><text xml:space="preserve" font-family="SourceCodePro-Regular" font-size="56.0" fill="#94A4A6" transform="matrix(1.00, 0.00, -0.00, -1.00, 808.6, 573.0)">t</text><text xml:space="preserve" font-family="SourceCodePro-Regular" font-size="56.0" fill="#94A4A6" transform="matrix(1.00, 0.00, -0.00, -1.00, 842.2, 573.0)">u</text><text xml:space="preserve" font-family="SourceCodePro-Regular" font-size="56.0" fill="#94A4A6" transform="matrix(1.00, 0.00, -0.00, -1.00, 875.8, 573.0)">d</text><text xml:space="preserve" font-family="SourceCodePro-Regular" font-size="56.0" fill="#94A4A6" transform="matrix(1.00, 0.00, -0.00, -1.00, 909.4, 573.0)">e</text><text xml:space="preserve" font-family="SourceCodePro-Regular" font-size="56.0" fill="#94A4A6" transform="matrix(1.00, 0.00, -0.00, -1.00, 943.0, 573.0)">n</text><text xml:space="preserve" font-family="SourceCodePro-Regular" font-size="56.0" fill="#94A4A6" transform="matrix(1.00, 0.00, -0.00, -1.00, 976.6, 573.0)">t</text><text xml:space="preserve" font-family="SourceCodePro-Regular" font-size="56.0" fill="#A3B0B0" transform="matrix(1.00, 0.00, -0.00, -1.00, 1010.2, 573.0)">,</text><text xml:space="preserve" font-family="SourceCodePro-Regular" font-size="56.0" fill="#000000" transform="matrix(1.00, 0.00, -0.00, -1.00, 1043.8, 573.0)"> </text><text xml:space="preserve" font-family="SourceCodePro-Regular" font-size="56.0" fill="#D6601A" transform="matrix(1.00, 0.00, -0.00, -1.00, 1077.4, 573.0)">t</text><text xml:space="preserve" font-family="SourceCodePro-Regular" font-size="56.0" fill="#D6601A" transform="matrix(1.00, 0.00, -0.00, -1.00, 1111.0, 573.0)">r</text><text xml:space="preserve" font-family="SourceCodePro-Regular" font-size="56.0" fill="#D6601A" transform="matrix(1.00, 0.00, -0.00, -1.00, 1144.6, 573.0)">u</text><text xml:space="preserve" font-family="SourceCodePro-Regular" font-size="56.0" fill="#D6601A" transform="matrix(1.00, 0.00, -0.00, -1.00, 1178.2, 573.0)">e</text><text xml:space="preserve" font-family="SourceCodePro-Regular" font-size="56.0" fill="#A3B0B0" transform="matrix(1.00, 0.00, -0.00, -1.00, 1211.8, 573.0)">)</text><text xml:space="preserve" font-family="SourceCodePro-Regular" font-size="56.0" fill="#A3B0B0" transform="matrix(1.00, 0.00, -0.00, -1.00, 1245.4, 573.0)">;</text><text xml:space="preserve" font-family="SourceCodePro-Regular" font-size="56.0" fill="#000000" transform="matrix(1.00, 0.00, -0.00, -1.00, 1279.0, 573.0)"> </text><text xml:space="preserve" font-family="SourceCodePro-Regular" font-size="56.0" fill="#000000" transform="matrix(1.00, 0.00, -0.00, -1.00, 103.0, 503.0)"> </text><text xml:space="preserve" font-family="SourceCodePro-Regular" font-size="56.0" fill="#000000" transform="matrix(1.00, 0.00, -0.00, -1.00, 136.6, 503.0)"> </text><text xml:space="preserve" font-family="SourceCodePro-Regular" font-size="56.0" fill="#A3B0B0" transform="matrix(1.00, 0.00, -0.00, -1.00, 170.2, 503.0)">}</text><text xml:space="preserve" font-family="SourceCodePro-Regular" font-size="56.0" fill="#A3B0B0" transform="matrix(1.00, 0.00, -0.00, -1.00, 203.8, 503.0)">.</text><text xml:space="preserve" font-family="SourceCodePro-Regular" font-size="56.0" fill="#A3B0B0" transform="matrix(1.00, 0.00, -0.00, -1.00, 237.4, 503.0)">b</text><text xml:space="preserve" font-family="SourceCodePro-Regular" font-size="56.0" fill="#A3B0B0" transform="matrix(1.00, 0.00, -0.00, -1.00, 271.0, 503.0)">i</text><text xml:space="preserve" font-family="SourceCodePro-Regular" font-size="56.0" fill="#A3B0B0" transform="matrix(1.00, 0.00, -0.00, -1.00, 304.6, 503.0)">n</text><text xml:space="preserve" font-family="SourceCodePro-Regular" font-size="56.0" fill="#A3B0B0" transform="matrix(1.00, 0.00, -0.00, -1.00, 338.2, 503.0)">d</text><text xml:space="preserve" font-family="SourceCodePro-Regular" font-size="56.0" fill="#A3B0B0" transform="matrix(1.00, 0.00, -0.00, -1.00, 371.8, 503.0)">(</text><text xml:space="preserve" font-family="SourceCodePro-Regular" font-size="56.0" fill="#D6601A" transform="matrix(1.00, 0.00, -0.00, -1.00, 405.4, 503.0)">t</text><text xml:space="preserve" font-family="SourceCodePro-Regular" font-size="56.0" fill="#D6601A" transform="matrix(1.00, 0.00, -0.00, -1.00, 439.0, 503.0)">h</text><text xml:space="preserve" font-family="SourceCodePro-Regular" font-size="56.0" fill="#D6601A" transform="matrix(1.00, 0.00, -0.00, -1.00, 472.6, 503.0)">i</text><text xml:space="preserve" font-family="SourceCodePro-Regular" font-size="56.0" fill="#D6601A" transform="matrix(1.00, 0.00, -0.00, -1.00, 506.2, 503.0)">s</text><text xml:space="preserve" font-family="SourceCodePro-Regular" font-size="56.0" fill="#A3B0B0" transform="matrix(1.00, 0.00, -0.00, -1.00, 539.8, 503.0)">)</text><text xml:space="preserve" font-family="SourceCodePro-Regular" font-size="56.0" fill="#A3B0B0" transform="matrix(1.00, 0.00, -0.00, -1.00, 573.4, 503.0)">)</text><text xml:space="preserve" font-family="SourceCodePro-Regular" font-size="56.0" fill="#A3B0B0" transform="matrix(1.00, 0.00, -0.00, -1.00, 607.0, 503.0)">;</text><text xml:space="preserve" font-family="SourceCodePro-Regular" font-size="56.0" fill="#000000" transform="matrix(1.00, 0.00, -0.00, -1.00, 640.6, 503.0)"> </text><text xml:space="preserve" font-family="SourceCodePro-Regular" font-size="56.0" fill="#A3B0B0" transform="matrix(1.00, 0.00, -0.00, -1.00, 103.0, 433.0)">}</text><text xml:space="preserve" font-family="CourierNewPSMT" font-size="65.0" fill="#A3B0B0" transform="matrix(1.00, 0.00, -0.00, -1.00, 101.0, 272.0)">a</text><text xml:space="preserve" font-family="CourierNewPSMT" font-size="65.0" fill="#A3B0B0" transform="matrix(1.00, 0.00, -0.00, -1.00, 140.0, 272.0)">d</text><text xml:space="preserve" font-family="CourierNewPSMT" font-size="65.0" fill="#A3B0B0" transform="matrix(1.00, 0.00, -0.00, -1.00, 179.0, 272.0)">d</text><text xml:space="preserve" font-family="CourierNewPSMT" font-size="65.0" fill="#A3B0B0" transform="matrix(1.00, 0.00, -0.00, -1.00, 218.0, 272.0)">S</text><text xml:space="preserve" font-family="CourierNewPSMT" font-size="65.0" fill="#A3B0B0" transform="matrix(1.00, 0.00, -0.00, -1.00, 257.1, 272.0)">t</text><text xml:space="preserve" font-family="CourierNewPSMT" font-size="65.0" fill="#A3B0B0" transform="matrix(1.00, 0.00, -0.00, -1.00, 296.1, 272.0)">u</text><text xml:space="preserve" font-family="CourierNewPSMT" font-size="65.0" fill="#A3B0B0" transform="matrix(1.00, 0.00, -0.00, -1.00, 335.1, 272.0)">d</text><text xml:space="preserve" font-family="CourierNewPSMT" font-size="65.0" fill="#A3B0B0" transform="matrix(1.00, 0.00, -0.00, -1.00, 374.1, 272.0)">e</text><text xml:space="preserve" font-family="CourierNewPSMT" font-size="65.0" fill="#A3B0B0" transform="matrix(1.00, 0.00, -0.00, -1.00, 413.1, 272.0)">n</text><text xml:space="preserve" font-family="CourierNewPSMT" font-size="65.0" fill="#A3B0B0" transform="matrix(1.00, 0.00, -0.00, -1.00, 452.1, 272.0)">t</text><text xml:space="preserve" font-family="CourierNewPSMT" font-size="65.0" fill="#A3B0B0" transform="matrix(1.00, 0.00, -0.00, -1.00, 491.1, 272.0)">:</text><text xml:space="preserve" font-family="CourierNewPSMT" font-size="65.0" fill="#000000" transform="matrix(1.00, 0.00, -0.00, -1.00, 530.1, 272.0)"> </text><text xml:space="preserve" font-family="CourierNewPSMT" font-size="65.0" fill="#D6601A" transform="matrix(1.00, 0.00, -0.00, -1.00, 569.1, 272.0)">f</text><text xml:space="preserve" font-family="CourierNewPSMT" font-size="65.0" fill="#D6601A" transform="matrix(1.00, 0.00, -0.00, -1.00, 608.1, 272.0)">u</text><text xml:space="preserve" font-family="CourierNewPSMT" font-size="65.0" fill="#D6601A" transform="matrix(1.00, 0.00, -0.00, -1.00, 647.1, 272.0)">n</text><text xml:space="preserve" font-family="CourierNewPSMT" font-size="65.0" fill="#D6601A" transform="matrix(1.00, 0.00, -0.00, -1.00, 686.1, 272.0)">c</text><text xml:space="preserve" font-family="CourierNewPSMT" font-size="65.0" fill="#D6601A" transform="matrix(1.00, 0.00, -0.00, -1.00, 725.1, 272.0)">t</text><text xml:space="preserve" font-family="CourierNewPSMT" font-size="65.0" fill="#D6601A" transform="matrix(1.00, 0.00, -0.00, -1.00, 764.1, 272.0)">i</text><text xml:space="preserve" font-family="CourierNewPSMT" font-size="65.0" fill="#D6601A" transform="matrix(1.00, 0.00, -0.00, -1.00, 803.2, 272.0)">o</text><text xml:space="preserve" font-family="CourierNewPSMT" font-size="65.0" fill="#D6601A" transform="matrix(1.00, 0.00, -0.00, -1.00, 842.2, 272.0)">n</text><text xml:space="preserve" font-family="CourierNewPSMT" font-size="65.0" fill="#A3B0B0" transform="matrix(1.00, 0.00, -0.00, -1.00, 881.1, 272.0)">(</text><text xml:space="preserve" font-family="CourierNewPSMT" font-size="65.0" fill="#94A4A6" transform="matrix(1.00, 0.00, -0.00, -1.00, 920.1, 272.0)">s</text><text xml:space="preserve" font-family="CourierNewPSMT" font-size="65.0" fill="#94A4A6" transform="matrix(1.00, 0.00, -0.00, -1.00, 959.1, 272.0)">t</text><text xml:space="preserve" font-family="CourierNewPSMT" font-size="65.0" fill="#94A4A6" transform="matrix(1.00, 0.00, -0.00, -1.00, 998.2, 272.0)">u</text><text xml:space="preserve" font-family="CourierNewPSMT" font-size="65.0" fill="#94A4A6" transform="matrix(1.00, 0.00, -0.00, -1.00, 1037.2, 272.0)">d</text><text xml:space="preserve" font-family="CourierNewPSMT" font-size="65.0" fill="#94A4A6" transform="matrix(1.00, 0.00, -0.00, -1.00, 1076.2, 272.0)">e</text><text xml:space="preserve" font-family="CourierNewPSMT" font-size="65.0" fill="#94A4A6" transform="matrix(1.00, 0.00, -0.00, -1.00, 1115.2, 272.0)">n</text><text xml:space="preserve" font-family="CourierNewPSMT" font-size="65.0" fill="#94A4A6" transform="matrix(1.00, 0.00, -0.00, -1.00, 1154.2, 272.0)">t</text><text xml:space="preserve" font-family="CourierNewPSMT" font-size="65.0" fill="#A3B0B0" transform="matrix(1.00, 0.00, -0.00, -1.00, 1193.2, 272.0)">,</text><text xml:space="preserve" font-family="CourierNewPSMT" font-size="65.0" fill="#000000" transform="matrix(1.00, 0.00, -0.00, -1.00, 1232.2, 272.0)"> </text><text xml:space="preserve" font-family="CourierNewPSMT" font-size="65.0" fill="#94A4A6" transform="matrix(1.00, 0.00, -0.00, -1.00, 1271.2, 272.0)">a</text><text xml:space="preserve" font-family="CourierNewPSMT" font-size="65.0" fill="#94A4A6" transform="matrix(1.00, 0.00, -0.00, -1.00, 1310.2, 272.0)">p</text><text xml:space="preserve" font-family="CourierNewPSMT" font-size="65.0" fill="#94A4A6" transform="matrix(1.00, 0.00, -0.00, -1.00, 1349.2, 272.0)">p</text><text xml:space="preserve" font-family="CourierNewPSMT" font-size="65.0" fill="#94A4A6" transform="matrix(1.00, 0.00, -0.00, -1.00, 1388.2, 272.0)">e</text><text xml:space="preserve" font-family="CourierNewPSMT" font-size="65.0" fill="#94A4A6" transform="matrix(1.00, 0.00, -0.00, -1.00, 1427.2, 272.0)">n</text><text xml:space="preserve" font-family="CourierNewPSMT" font-size="65.0" fill="#94A4A6" transform="matrix(1.00, 0.00, -0.00, -1.00, 1466.3, 272.0)">d</text><text xml:space="preserve" font-family="CourierNewPSMT" font-size="65.0" fill="#A3B0B0" transform="matrix(1.00, 0.00, -0.00, -1.00, 1505.2, 272.0)">)</text><text xml:space="preserve" font-family="CourierNewPSMT" font-size="65.0" fill="#000000" transform="matrix(1.00, 0.00, -0.00, -1.00, 1544.2, 272.0)"> </text></g></svg>