<?xml version="1.0" encoding="UTF-8" standalone="no"?><svg xmlns="http://www.w3.org/2000/svg" xmlns:xlink="http://www.w3.org/1999/xlink" clip-rule="evenodd" stroke-miterlimit="4.00" viewBox="0 0 1920 1080"><desc>SVG generated by Keynote</desc><defs></defs><g transform="matrix(1.00, 0.00, -0.00, -1.00, 0.0, 1080.0)"><path d="M 0.0 1080.0 L 1920.0 1080.0 L 1920.0 0.0 L 0.0 0.0 Z M 0.0 1080.0 " fill="#FEFFFE"></path><text xml:space="preserve" font-family="HelveticaNeue-Thin" font-size="86.0" fill="#000000" transform="matrix(1.00, 0.00, -0.00, -1.00, 617.0, 870.0)">F</text><text xml:space="preserve" font-family="HelveticaNeue-Thin" font-size="86.0" fill="#000000" transform="matrix(1.00, 0.00, -0.00, -1.00, 659.1, 870.0)">u</text><text xml:space="preserve" font-family="HelveticaNeue-Thin" font-size="86.0" fill="#000000" transform="matrix(1.00, 0.00, -0.00, -1.00, 703.8, 870.0)">n</text><text xml:space="preserve" font-family="HelveticaNeue-Thin" font-size="86.0" fill="#000000" transform="matrix(1.00, 0.00, -0.00, -1.00, 748.4, 870.0)">c</text><text xml:space="preserve" font-family="HelveticaNeue-Thin" font-size="86.0" fill="#000000" transform="matrix(1.00, 0.00, -0.00, -1.00, 793.0, 870.0)">t</text><text xml:space="preserve" font-family="HelveticaNeue-Thin" font-size="86.0" fill="#000000" transform="matrix(1.00, 0.00, -0.00, -1.00, 815.3, 870.0)">i</text><text xml:space="preserve" font-family="HelveticaNeue-Thin" font-size="86.0" fill="#000000" transform="matrix(1.00, 0.00, -0.00, -1.00, 829.8, 870.0)">o</text><text xml:space="preserve" font-family="HelveticaNeue-Thin" font-size="86.0" fill="#000000" transform="matrix(1.00, 0.00, -0.00, -1.00, 875.9, 870.0)">n</text><text xml:space="preserve" font-family="HelveticaNeue-Thin" font-size="86.0" fill="#000000" transform="matrix(1.00, 0.00, -0.00, -1.00, 920.6, 870.0)"> </text><text xml:space="preserve" font-family="HelveticaNeue-Thin" font-size="86.0" fill="#000000" transform="matrix(1.00, 0.00, -0.00, -1.00, 944.5, 870.0)">i</text><text xml:space="preserve" font-family="HelveticaNeue-Thin" font-size="86.0" fill="#000000" transform="matrix(1.00, 0.00, -0.00, -1.00, 958.9, 870.0)">n</text><text xml:space="preserve" font-family="HelveticaNeue-Thin" font-size="86.0" fill="#000000" transform="matrix(1.00, 0.00, -0.00, -1.00, 1003.6, 870.0)">v</text><text xml:space="preserve" font-family="HelveticaNeue-Thin" font-size="86.0" fill="#000000" transform="matrix(1.00, 0.00, -0.00, -1.00, 1041.8, 870.0)">o</text><text xml:space="preserve" font-family="HelveticaNeue-Thin" font-size="86.0" fill="#000000" transform="matrix(1.00, 0.00, -0.00, -1.00, 1087.9, 870.0)">c</text><text xml:space="preserve" font-family="HelveticaNeue-Thin" font-size="86.0" fill="#000000" transform="matrix(1.00, 0.00, -0.00, -1.00, 1132.6, 870.0)">a</text><text xml:space="preserve" font-family="HelveticaNeue-Thin" font-size="86.0" fill="#000000" transform="matrix(1.00, 0.00, -0.00, -1.00, 1175.6, 870.0)">t</text><text xml:space="preserve" font-family="HelveticaNeue-Thin" font-size="86.0" fill="#000000" transform="matrix(1.00, 0.00, -0.00, -1.00, 1197.8, 870.0)">i</text><text xml:space="preserve" font-family="HelveticaNeue-Thin" font-size="86.0" fill="#000000" transform="matrix(1.00, 0.00, -0.00, -1.00, 1212.3, 870.0)">o</text><text xml:space="preserve" font-family="HelveticaNeue-Thin" font-size="86.0" fill="#000000" transform="matrix(1.00, 0.00, -0.00, -1.00, 1258.5, 870.0)">n</text><text xml:space="preserve" font-family="CourierNewPSMT" font-size="66.0" fill="#2C9DDA" transform="matrix(1.00, 0.00, -0.00, -1.00, 425.0, 672.0)"> </text><text xml:space="preserve" font-family="CourierNewPSMT" font-size="66.0" fill="#2C9DDA" transform="matrix(1.00, 0.00, -0.00, -1.00, 464.6, 672.0)"> </text><text xml:space="preserve" font-family="CourierNewPSMT" font-size="66.0" fill="#2C9DDA" transform="matrix(1.00, 0.00, -0.00, -1.00, 504.2, 672.0)"> </text><text xml:space="preserve" font-family="CourierNewPSMT" font-size="66.0" fill="#2C9DDA" transform="matrix(1.00, 0.00, -0.00, -1.00, 543.8, 672.0)"> </text><text xml:space="preserve" font-family="CourierNewPSMT" font-size="66.0" fill="#2C9DDA" transform="matrix(1.00, 0.00, -0.00, -1.00, 583.5, 672.0)">1</text><text xml:space="preserve" font-family="CourierNewPSMT" font-size="66.0" fill="#2C9DDA" transform="matrix(1.00, 0.00, -0.00, -1.00, 623.1, 672.0)"> </text><text xml:space="preserve" font-family="CourierNewPSMT" font-size="66.0" fill="#D6601A" transform="matrix(1.00, 0.00, -0.00, -1.00, 662.6, 672.0)">v</text><text xml:space="preserve" font-family="CourierNewPSMT" font-size="66.0" fill="#D6601A" transform="matrix(1.00, 0.00, -0.00, -1.00, 702.3, 672.0)">a</text><text xml:space="preserve" font-family="CourierNewPSMT" font-size="66.0" fill="#D6601A" transform="matrix(1.00, 0.00, -0.00, -1.00, 741.9, 672.0)">r</text><text xml:space="preserve" font-family="CourierNewPSMT" font-size="66.0" fill="#000000" transform="matrix(1.00, 0.00, -0.00, -1.00, 781.5, 672.0)"> </text><text xml:space="preserve" font-family="CourierNewPSMT" font-size="66.0" fill="#94A4A6" transform="matrix(1.00, 0.00, -0.00, -1.00, 821.1, 672.0)">s</text><text xml:space="preserve" font-family="CourierNewPSMT" font-size="66.0" fill="#94A4A6" transform="matrix(1.00, 0.00, -0.00, -1.00, 860.7, 672.0)">u</text><text xml:space="preserve" font-family="CourierNewPSMT" font-size="66.0" fill="#94A4A6" transform="matrix(1.00, 0.00, -0.00, -1.00, 900.3, 672.0)">m</text><text xml:space="preserve" font-family="CourierNewPSMT" font-size="66.0" fill="#000000" transform="matrix(1.00, 0.00, -0.00, -1.00, 939.9, 672.0)"> </text><text xml:space="preserve" font-family="CourierNewPSMT" font-size="66.0" fill="#A3B0B0" transform="matrix(1.00, 0.00, -0.00, -1.00, 979.5, 672.0)">=</text><text xml:space="preserve" font-family="CourierNewPSMT" font-size="66.0" fill="#A3B0B0" transform="matrix(1.00, 0.00, -0.00, -1.00, 1019.1, 672.0)"> </text><text xml:space="preserve" font-family="CourierNewPSMT" font-size="66.0" fill="#A3B0B0" transform="matrix(1.00, 0.00, -0.00, -1.00, 1058.7, 672.0)">(</text><text xml:space="preserve" font-family="CourierNewPSMT" font-size="66.0" fill="#94A4A6" transform="matrix(1.00, 0.00, -0.00, -1.00, 1098.3, 672.0)">a</text><text xml:space="preserve" font-family="CourierNewPSMT" font-size="66.0" fill="#A3B0B0" transform="matrix(1.00, 0.00, -0.00, -1.00, 1137.9, 672.0)">,</text><text xml:space="preserve" font-family="CourierNewPSMT" font-size="66.0" fill="#000000" transform="matrix(1.00, 0.00, -0.00, -1.00, 1177.5, 672.0)"> </text><text xml:space="preserve" font-family="CourierNewPSMT" font-size="66.0" fill="#94A4A6" transform="matrix(1.00, 0.00, -0.00, -1.00, 1217.1, 672.0)">b</text><text xml:space="preserve" font-family="CourierNewPSMT" font-size="66.0" fill="#A3B0B0" transform="matrix(1.00, 0.00, -0.00, -1.00, 1256.7, 672.0)">)</text><text xml:space="preserve" font-family="CourierNewPSMT" font-size="66.0" fill="#A3B0B0" transform="matrix(1.00, 0.00, -0.00, -1.00, 1296.3, 672.0)"> </text><text xml:space="preserve" font-family="CourierNewPSMT" font-size="66.0" fill="#A3B0B0" transform="matrix(1.00, 0.00, -0.00, -1.00, 1336.0, 672.0)">{</text><text xml:space="preserve" font-family="CourierNewPSMT" font-size="66.0" fill="#000000" transform="matrix(1.00, 0.00, -0.00, -1.00, 1375.6, 672.0)"> </text><text xml:space="preserve" font-family="CourierNewPSMT" font-size="66.0" fill="#2C9DDA" transform="matrix(1.00, 0.00, -0.00, -1.00, 425.0, 597.0)"> </text><text xml:space="preserve" font-family="CourierNewPSMT" font-size="66.0" fill="#2C9DDA" transform="matrix(1.00, 0.00, -0.00, -1.00, 464.6, 597.0)"> </text><text xml:space="preserve" font-family="CourierNewPSMT" font-size="66.0" fill="#2C9DDA" transform="matrix(1.00, 0.00, -0.00, -1.00, 504.2, 597.0)"> </text><text xml:space="preserve" font-family="CourierNewPSMT" font-size="66.0" fill="#2C9DDA" transform="matrix(1.00, 0.00, -0.00, -1.00, 543.8, 597.0)"> </text><text xml:space="preserve" font-family="CourierNewPSMT" font-size="66.0" fill="#2C9DDA" transform="matrix(1.00, 0.00, -0.00, -1.00, 583.5, 597.0)">2</text><text xml:space="preserve" font-family="CourierNewPSMT" font-size="66.0" fill="#2C9DDA" transform="matrix(1.00, 0.00, -0.00, -1.00, 623.1, 597.0)"> </text><text xml:space="preserve" font-family="CourierNewPSMT" font-size="66.0" fill="#000000" transform="matrix(1.00, 0.00, -0.00, -1.00, 662.6, 597.0)"> </text><text xml:space="preserve" font-family="CourierNewPSMT" font-size="66.0" fill="#000000" transform="matrix(1.00, 0.00, -0.00, -1.00, 702.3, 597.0)"> </text><text xml:space="preserve" font-family="CourierNewPSMT" font-size="66.0" fill="#6A8188" transform="matrix(1.00, 0.00, -0.00, -1.00, 741.9, 597.0)">/</text><text xml:space="preserve" font-family="CourierNewPSMT" font-size="66.0" fill="#6A8188" transform="matrix(1.00, 0.00, -0.00, -1.00, 781.5, 597.0)">/</text><text xml:space="preserve" font-family="CourierNewPSMT" font-size="66.0" fill="#6A8188" transform="matrix(1.00, 0.00, -0.00, -1.00, 821.1, 597.0)"> </text><text xml:space="preserve" font-family="CourierNewPSMT" font-size="66.0" fill="#6A8188" transform="matrix(1.00, 0.00, -0.00, -1.00, 860.7, 597.0)">t</text><text xml:space="preserve" font-family="CourierNewPSMT" font-size="66.0" fill="#6A8188" transform="matrix(1.00, 0.00, -0.00, -1.00, 900.3, 597.0)">h</text><text xml:space="preserve" font-family="CourierNewPSMT" font-size="66.0" fill="#6A8188" transform="matrix(1.00, 0.00, -0.00, -1.00, 939.9, 597.0)">i</text><text xml:space="preserve" font-family="CourierNewPSMT" font-size="66.0" fill="#6A8188" transform="matrix(1.00, 0.00, -0.00, -1.00, 979.5, 597.0)">s</text><text xml:space="preserve" font-family="CourierNewPSMT" font-size="66.0" fill="#6A8188" transform="matrix(1.00, 0.00, -0.00, -1.00, 1019.1, 597.0)"> </text><text xml:space="preserve" font-family="CourierNewPSMT" font-size="66.0" fill="#6A8188" transform="matrix(1.00, 0.00, -0.00, -1.00, 1058.8, 597.0)">=</text><text xml:space="preserve" font-family="CourierNewPSMT" font-size="66.0" fill="#6A8188" transform="matrix(1.00, 0.00, -0.00, -1.00, 1098.4, 597.0)">=</text><text xml:space="preserve" font-family="CourierNewPSMT" font-size="66.0" fill="#6A8188" transform="matrix(1.00, 0.00, -0.00, -1.00, 1138.0, 597.0)">=</text><text xml:space="preserve" font-family="CourierNewPSMT" font-size="66.0" fill="#6A8188" transform="matrix(1.00, 0.00, -0.00, -1.00, 1177.6, 597.0)"> </text><text xml:space="preserve" font-family="CourierNewPSMT" font-size="66.0" fill="#6A8188" transform="matrix(1.00, 0.00, -0.00, -1.00, 1217.2, 597.0)">w</text><text xml:space="preserve" font-family="CourierNewPSMT" font-size="66.0" fill="#6A8188" transform="matrix(1.00, 0.00, -0.00, -1.00, 1256.8, 597.0)">i</text><text xml:space="preserve" font-family="CourierNewPSMT" font-size="66.0" fill="#6A8188" transform="matrix(1.00, 0.00, -0.00, -1.00, 1296.4, 597.0)">n</text><text xml:space="preserve" font-family="CourierNewPSMT" font-size="66.0" fill="#6A8188" transform="matrix(1.00, 0.00, -0.00, -1.00, 1336.0, 597.0)">d</text><text xml:space="preserve" font-family="CourierNewPSMT" font-size="66.0" fill="#6A8188" transform="matrix(1.00, 0.00, -0.00, -1.00, 1375.7, 597.0)">o</text><text xml:space="preserve" font-family="CourierNewPSMT" font-size="66.0" fill="#6A8188" transform="matrix(1.00, 0.00, -0.00, -1.00, 1415.3, 597.0)">w</text><text xml:space="preserve" font-family="CourierNewPSMT" font-size="66.0" fill="#000000" transform="matrix(1.00, 0.00, -0.00, -1.00, 1454.8, 597.0)"> </text><text xml:space="preserve" font-family="CourierNewPSMT" font-size="66.0" fill="#2C9DDA" transform="matrix(1.00, 0.00, -0.00, -1.00, 425.0, 522.0)"> </text><text xml:space="preserve" font-family="CourierNewPSMT" font-size="66.0" fill="#2C9DDA" transform="matrix(1.00, 0.00, -0.00, -1.00, 464.6, 522.0)"> </text><text xml:space="preserve" font-family="CourierNewPSMT" font-size="66.0" fill="#2C9DDA" transform="matrix(1.00, 0.00, -0.00, -1.00, 504.2, 522.0)"> </text><text xml:space="preserve" font-family="CourierNewPSMT" font-size="66.0" fill="#2C9DDA" transform="matrix(1.00, 0.00, -0.00, -1.00, 543.8, 522.0)"> </text><text xml:space="preserve" font-family="CourierNewPSMT" font-size="66.0" fill="#2C9DDA" transform="matrix(1.00, 0.00, -0.00, -1.00, 583.5, 522.0)">3</text><text xml:space="preserve" font-family="CourierNewPSMT" font-size="66.0" fill="#2C9DDA" transform="matrix(1.00, 0.00, -0.00, -1.00, 623.1, 522.0)"> </text><text xml:space="preserve" font-family="CourierNewPSMT" font-size="66.0" fill="#000000" transform="matrix(1.00, 0.00, -0.00, -1.00, 662.6, 522.0)"> </text><text xml:space="preserve" font-family="CourierNewPSMT" font-size="66.0" fill="#000000" transform="matrix(1.00, 0.00, -0.00, -1.00, 702.3, 522.0)"> </text><text xml:space="preserve" font-family="CourierNewPSMT" font-size="66.0" fill="#D6601A" transform="matrix(1.00, 0.00, -0.00, -1.00, 741.9, 522.0)">r</text><text xml:space="preserve" font-family="CourierNewPSMT" font-size="66.0" fill="#D6601A" transform="matrix(1.00, 0.00, -0.00, -1.00, 781.5, 522.0)">e</text><text xml:space="preserve" font-family="CourierNewPSMT" font-size="66.0" fill="#D6601A" transform="matrix(1.00, 0.00, -0.00, -1.00, 821.1, 522.0)">t</text><text xml:space="preserve" font-family="CourierNewPSMT" font-size="66.0" fill="#D6601A" transform="matrix(1.00, 0.00, -0.00, -1.00, 860.7, 522.0)">u</text><text xml:space="preserve" font-family="CourierNewPSMT" font-size="66.0" fill="#D6601A" transform="matrix(1.00, 0.00, -0.00, -1.00, 900.3, 522.0)">r</text><text xml:space="preserve" font-family="CourierNewPSMT" font-size="66.0" fill="#D6601A" transform="matrix(1.00, 0.00, -0.00, -1.00, 939.9, 522.0)">n</text><text xml:space="preserve" font-family="CourierNewPSMT" font-size="66.0" fill="#000000" transform="matrix(1.00, 0.00, -0.00, -1.00, 979.5, 522.0)"> </text><text xml:space="preserve" font-family="CourierNewPSMT" font-size="66.0" fill="#94A4A6" transform="matrix(1.00, 0.00, -0.00, -1.00, 1019.1, 522.0)">a</text><text xml:space="preserve" font-family="CourierNewPSMT" font-size="66.0" fill="#000000" transform="matrix(1.00, 0.00, -0.00, -1.00, 1058.7, 522.0)"> </text><text xml:space="preserve" font-family="CourierNewPSMT" font-size="66.0" fill="#A3B0B0" transform="matrix(1.00, 0.00, -0.00, -1.00, 1098.3, 522.0)">+</text><text xml:space="preserve" font-family="CourierNewPSMT" font-size="66.0" fill="#000000" transform="matrix(1.00, 0.00, -0.00, -1.00, 1137.9, 522.0)"> </text><text xml:space="preserve" font-family="CourierNewPSMT" font-size="66.0" fill="#94A4A6" transform="matrix(1.00, 0.00, -0.00, -1.00, 1177.5, 522.0)">b</text><text xml:space="preserve" font-family="CourierNewPSMT" font-size="66.0" fill="#A3B0B0" transform="matrix(1.00, 0.00, -0.00, -1.00, 1217.1, 522.0)">;</text><text xml:space="preserve" font-family="CourierNewPSMT" font-size="66.0" fill="#000000" transform="matrix(1.00, 0.00, -0.00, -1.00, 1256.7, 522.0)"> </text><text xml:space="preserve" font-family="CourierNewPSMT" font-size="66.0" fill="#2C9DDA" transform="matrix(1.00, 0.00, -0.00, -1.00, 425.0, 447.0)"> </text><text xml:space="preserve" font-family="CourierNewPSMT" font-size="66.0" fill="#2C9DDA" transform="matrix(1.00, 0.00, -0.00, -1.00, 464.6, 447.0)"> </text><text xml:space="preserve" font-family="CourierNewPSMT" font-size="66.0" fill="#2C9DDA" transform="matrix(1.00, 0.00, -0.00, -1.00, 504.2, 447.0)"> </text><text xml:space="preserve" font-family="CourierNewPSMT" font-size="66.0" fill="#2C9DDA" transform="matrix(1.00, 0.00, -0.00, -1.00, 543.8, 447.0)"> </text><text xml:space="preserve" font-family="CourierNewPSMT" font-size="66.0" fill="#2C9DDA" transform="matrix(1.00, 0.00, -0.00, -1.00, 583.5, 447.0)">4</text><text xml:space="preserve" font-family="CourierNewPSMT" font-size="66.0" fill="#2C9DDA" transform="matrix(1.00, 0.00, -0.00, -1.00, 623.1, 447.0)"> </text><text xml:space="preserve" font-family="CourierNewPSMT" font-size="66.0" fill="#A3B0B0" transform="matrix(1.00, 0.00, -0.00, -1.00, 662.6, 447.0)">}</text><text xml:space="preserve" font-family="CourierNewPSMT" font-size="66.0" fill="#A3B0B0" transform="matrix(1.00, 0.00, -0.00, -1.00, 702.3, 447.0)">;</text><text xml:space="preserve" font-family="CourierNewPSMT" font-size="66.0" fill="#000000" transform="matrix(1.00, 0.00, -0.00, -1.00, 741.9, 447.0)"> </text><text xml:space="preserve" font-family="CourierNewPSMT" font-size="66.0" fill="#2C9DDA" transform="matrix(1.00, 0.00, -0.00, -1.00, 425.0, 372.0)"> </text><text xml:space="preserve" font-family="CourierNewPSMT" font-size="66.0" fill="#2C9DDA" transform="matrix(1.00, 0.00, -0.00, -1.00, 464.6, 372.0)"> </text><text xml:space="preserve" font-family="CourierNewPSMT" font-size="66.0" fill="#2C9DDA" transform="matrix(1.00, 0.00, -0.00, -1.00, 504.2, 372.0)"> </text><text xml:space="preserve" font-family="CourierNewPSMT" font-size="66.0" fill="#2C9DDA" transform="matrix(1.00, 0.00, -0.00, -1.00, 543.8, 372.0)"> </text><text xml:space="preserve" font-family="CourierNewPSMT" font-size="66.0" fill="#2C9DDA" transform="matrix(1.00, 0.00, -0.00, -1.00, 583.5, 372.0)">5</text><text xml:space="preserve" font-family="CourierNewPSMT" font-size="66.0" fill="#2C9DDA" transform="matrix(1.00, 0.00, -0.00, -1.00, 623.1, 372.0)"> </text><text xml:space="preserve" font-family="CourierNewPSMT" font-size="66.0" fill="#A3B0B0" transform="matrix(1.00, 0.00, -0.00, -1.00, 662.6, 372.0)">s</text><text xml:space="preserve" font-family="CourierNewPSMT" font-size="66.0" fill="#A3B0B0" transform="matrix(1.00, 0.00, -0.00, -1.00, 702.3, 372.0)">u</text><text xml:space="preserve" font-family="CourierNewPSMT" font-size="66.0" fill="#A3B0B0" transform="matrix(1.00, 0.00, -0.00, -1.00, 741.9, 372.0)">m</text><text xml:space="preserve" font-family="CourierNewPSMT" font-size="66.0" fill="#A3B0B0" transform="matrix(1.00, 0.00, -0.00, -1.00, 781.5, 372.0)">(</text><text xml:space="preserve" font-family="CourierNewPSMT" font-size="66.0" fill="#E5493C" transform="matrix(1.00, 0.00, -0.00, -1.00, 821.1, 372.0)">2</text><text xml:space="preserve" font-family="CourierNewPSMT" font-size="66.0" fill="#A3B0B0" transform="matrix(1.00, 0.00, -0.00, -1.00, 860.7, 372.0)">,</text><text xml:space="preserve" font-family="CourierNewPSMT" font-size="66.0" fill="#000000" transform="matrix(1.00, 0.00, -0.00, -1.00, 900.3, 372.0)"> </text><text xml:space="preserve" font-family="CourierNewPSMT" font-size="66.0" fill="#E5493C" transform="matrix(1.00, 0.00, -0.00, -1.00, 939.9, 372.0)">3</text><text xml:space="preserve" font-family="CourierNewPSMT" font-size="66.0" fill="#A3B0B0" transform="matrix(1.00, 0.00, -0.00, -1.00, 979.5, 372.0)">)</text><text xml:space="preserve" font-family="CourierNewPSMT" font-size="66.0" fill="#A3B0B0" transform="matrix(1.00, 0.00, -0.00, -1.00, 1019.1, 372.0)">;</text></g></svg>