<?xml version="1.0" encoding="UTF-8" standalone="no"?><svg xmlns="http://www.w3.org/2000/svg" xmlns:xlink="http://www.w3.org/1999/xlink" clip-rule="evenodd" stroke-miterlimit="4.00" viewBox="0 0 1920 1080"><desc>SVG generated by Keynote</desc><defs></defs><g transform="matrix(1.00, 0.00, -0.00, -1.00, 0.0, 1080.0)"><path d="M 0.0 1080.0 L 1920.0 1080.0 L 1920.0 0.0 L 0.0 0.0 Z M 0.0 1080.0 " fill="#000000"></path><text xml:space="preserve" font-family="HelveticaNeue-Thin" font-size="133.0" fill="#FEFFFF" transform="matrix(1.00, 0.00, -0.00, -1.00, 803.0, 871.0)">C</text><text xml:space="preserve" font-family="HelveticaNeue-Thin" font-size="133.0" fill="#FEFFFF" transform="matrix(1.00, 0.00, -0.00, -1.00, 896.6, 871.0)">e</text><text xml:space="preserve" font-family="HelveticaNeue-Thin" font-size="133.0" fill="#FEFFFF" transform="matrix(1.00, 0.00, -0.00, -1.00, 965.7, 871.0)">l</text><text xml:space="preserve" font-family="HelveticaNeue-Thin" font-size="133.0" fill="#FEFFFF" transform="matrix(1.00, 0.00, -0.00, -1.00, 988.0, 871.0)">l</text><text xml:space="preserve" font-family="HelveticaNeue-Thin" font-size="133.0" fill="#FEFFFF" transform="matrix(1.00, 0.00, -0.00, -1.00, 1010.3, 871.0)">o</text><text xml:space="preserve" font-family="HelveticaNeue-Thin" font-size="133.0" fill="#FEFFFF" transform="matrix(1.00, 0.00, -0.00, -1.00, 1081.8, 871.0)">!</text><text xml:space="preserve" font-family="HelveticaNeue-Thin" font-size="133.0" fill="#FEFFFF" transform="matrix(1.00, 0.00, -0.00, -1.00, 1116.2, 871.0)"> </text><image xlink:href="336C3DA6A932B9FE43D15A5F720DAA0B.png" width="241.00" height="186.00" transform="matrix(3.39, 0.00, -0.00, -3.40, 551.0, 793.0)"></image></g></svg>