<?xml version="1.0" encoding="UTF-8" standalone="no"?><svg xmlns="http://www.w3.org/2000/svg" xmlns:xlink="http://www.w3.org/1999/xlink" clip-rule="evenodd" stroke-miterlimit="4.00" viewBox="0 0 1920 1080"><desc>SVG generated by Keynote</desc><defs></defs><g transform="matrix(1.00, 0.00, -0.00, -1.00, 0.0, 1080.0)"><path d="M 0.0 1080.0 L 1920.0 1080.0 L 1920.0 0.0 L 0.0 0.0 Z M 0.0 1080.0 " fill="#FEFFFE"></path><text xml:space="preserve" font-family="SourceCodePro-Regular" font-size="57.0" fill="#D6601A" transform="matrix(1.00, 0.00, -0.00, -1.00, 122.0, 875.0)">v</text><text xml:space="preserve" font-family="SourceCodePro-Regular" font-size="57.0" fill="#D6601A" transform="matrix(1.00, 0.00, -0.00, -1.00, 156.2, 875.0)">a</text><text xml:space="preserve" font-family="SourceCodePro-Regular" font-size="57.0" fill="#D6601A" transform="matrix(1.00, 0.00, -0.00, -1.00, 190.4, 875.0)">r</text><text xml:space="preserve" font-family="SourceCodePro-Regular" font-size="57.0" fill="#000000" transform="matrix(1.00, 0.00, -0.00, -1.00, 224.6, 875.0)"> </text><text xml:space="preserve" font-family="SourceCodePro-Regular" font-size="57.0" fill="#94A4A6" transform="matrix(1.00, 0.00, -0.00, -1.00, 258.8, 875.0)">u</text><text xml:space="preserve" font-family="SourceCodePro-Regular" font-size="57.0" fill="#94A4A6" transform="matrix(1.00, 0.00, -0.00, -1.00, 293.0, 875.0)">r</text><text xml:space="preserve" font-family="SourceCodePro-Regular" font-size="57.0" fill="#94A4A6" transform="matrix(1.00, 0.00, -0.00, -1.00, 327.2, 875.0)">l</text><text xml:space="preserve" font-family="SourceCodePro-Regular" font-size="57.0" fill="#000000" transform="matrix(1.00, 0.00, -0.00, -1.00, 361.4, 875.0)"> </text><text xml:space="preserve" font-family="SourceCodePro-Regular" font-size="57.0" fill="#A3B0B0" transform="matrix(1.00, 0.00, -0.00, -1.00, 395.6, 875.0)">=</text><text xml:space="preserve" font-family="SourceCodePro-Regular" font-size="57.0" fill="#000000" transform="matrix(1.00, 0.00, -0.00, -1.00, 429.8, 875.0)"> </text><text xml:space="preserve" font-family="SourceCodePro-Regular" font-size="57.0" fill="#E5493C" transform="matrix(1.00, 0.00, -0.00, -1.00, 464.0, 875.0)">'</text><text xml:space="preserve" font-family="SourceCodePro-Regular" font-size="57.0" fill="#E5493C" transform="matrix(1.00, 0.00, -0.00, -1.00, 498.2, 875.0)">h</text><text xml:space="preserve" font-family="SourceCodePro-Regular" font-size="57.0" fill="#E5493C" transform="matrix(1.00, 0.00, -0.00, -1.00, 532.4, 875.0)">t</text><text xml:space="preserve" font-family="SourceCodePro-Regular" font-size="57.0" fill="#E5493C" transform="matrix(1.00, 0.00, -0.00, -1.00, 566.6, 875.0)">t</text><text xml:space="preserve" font-family="SourceCodePro-Regular" font-size="57.0" fill="#E5493C" transform="matrix(1.00, 0.00, -0.00, -1.00, 600.8, 875.0)">p</text><text xml:space="preserve" font-family="SourceCodePro-Regular" font-size="57.0" fill="#E5493C" transform="matrix(1.00, 0.00, -0.00, -1.00, 635.0, 875.0)">s</text><text xml:space="preserve" font-family="SourceCodePro-Regular" font-size="57.0" fill="#E5493C" transform="matrix(1.00, 0.00, -0.00, -1.00, 669.2, 875.0)">:</text><text xml:space="preserve" font-family="SourceCodePro-Regular" font-size="57.0" fill="#E5493C" transform="matrix(1.00, 0.00, -0.00, -1.00, 703.4, 875.0)">/</text><text xml:space="preserve" font-family="SourceCodePro-Regular" font-size="57.0" fill="#E5493C" transform="matrix(1.00, 0.00, -0.00, -1.00, 737.6, 875.0)">/</text><text xml:space="preserve" font-family="SourceCodePro-Regular" font-size="57.0" fill="#E5493C" transform="matrix(1.00, 0.00, -0.00, -1.00, 771.8, 875.0)">a</text><text xml:space="preserve" font-family="SourceCodePro-Regular" font-size="57.0" fill="#E5493C" transform="matrix(1.00, 0.00, -0.00, -1.00, 806.0, 875.0)">p</text><text xml:space="preserve" font-family="SourceCodePro-Regular" font-size="57.0" fill="#E5493C" transform="matrix(1.00, 0.00, -0.00, -1.00, 840.2, 875.0)">i</text><text xml:space="preserve" font-family="SourceCodePro-Regular" font-size="57.0" fill="#E5493C" transform="matrix(1.00, 0.00, -0.00, -1.00, 874.4, 875.0)">.</text><text xml:space="preserve" font-family="SourceCodePro-Regular" font-size="57.0" fill="#E5493C" transform="matrix(1.00, 0.00, -0.00, -1.00, 908.6, 875.0)">n</text><text xml:space="preserve" font-family="SourceCodePro-Regular" font-size="57.0" fill="#E5493C" transform="matrix(1.00, 0.00, -0.00, -1.00, 942.8, 875.0)">a</text><text xml:space="preserve" font-family="SourceCodePro-Regular" font-size="57.0" fill="#E5493C" transform="matrix(1.00, 0.00, -0.00, -1.00, 977.0, 875.0)">s</text><text xml:space="preserve" font-family="SourceCodePro-Regular" font-size="57.0" fill="#E5493C" transform="matrix(1.00, 0.00, -0.00, -1.00, 1011.2, 875.0)">a</text><text xml:space="preserve" font-family="SourceCodePro-Regular" font-size="57.0" fill="#E5493C" transform="matrix(1.00, 0.00, -0.00, -1.00, 1045.4, 875.0)">.</text><text xml:space="preserve" font-family="SourceCodePro-Regular" font-size="57.0" fill="#E5493C" transform="matrix(1.00, 0.00, -0.00, -1.00, 1079.6, 875.0)">g</text><text xml:space="preserve" font-family="SourceCodePro-Regular" font-size="57.0" fill="#E5493C" transform="matrix(1.00, 0.00, -0.00, -1.00, 1113.8, 875.0)">o</text><text xml:space="preserve" font-family="SourceCodePro-Regular" font-size="57.0" fill="#E5493C" transform="matrix(1.00, 0.00, -0.00, -1.00, 1148.0, 875.0)">v</text><text xml:space="preserve" font-family="SourceCodePro-Regular" font-size="57.0" fill="#E5493C" transform="matrix(1.00, 0.00, -0.00, -1.00, 1182.2, 875.0)">/</text><text xml:space="preserve" font-family="SourceCodePro-Regular" font-size="57.0" fill="#E5493C" transform="matrix(1.00, 0.00, -0.00, -1.00, 1216.4, 875.0)">p</text><text xml:space="preserve" font-family="SourceCodePro-Regular" font-size="57.0" fill="#E5493C" transform="matrix(1.00, 0.00, -0.00, -1.00, 1250.6, 875.0)">l</text><text xml:space="preserve" font-family="SourceCodePro-Regular" font-size="57.0" fill="#E5493C" transform="matrix(1.00, 0.00, -0.00, -1.00, 1284.8, 875.0)">a</text><text xml:space="preserve" font-family="SourceCodePro-Regular" font-size="57.0" fill="#E5493C" transform="matrix(1.00, 0.00, -0.00, -1.00, 1319.0, 875.0)">n</text><text xml:space="preserve" font-family="SourceCodePro-Regular" font-size="57.0" fill="#E5493C" transform="matrix(1.00, 0.00, -0.00, -1.00, 1353.2, 875.0)">e</text><text xml:space="preserve" font-family="SourceCodePro-Regular" font-size="57.0" fill="#E5493C" transform="matrix(1.00, 0.00, -0.00, -1.00, 1387.4, 875.0)">t</text><text xml:space="preserve" font-family="SourceCodePro-Regular" font-size="57.0" fill="#E5493C" transform="matrix(1.00, 0.00, -0.00, -1.00, 1421.6, 875.0)">a</text><text xml:space="preserve" font-family="SourceCodePro-Regular" font-size="57.0" fill="#E5493C" transform="matrix(1.00, 0.00, -0.00, -1.00, 1455.8, 875.0)">r</text><text xml:space="preserve" font-family="SourceCodePro-Regular" font-size="57.0" fill="#E5493C" transform="matrix(1.00, 0.00, -0.00, -1.00, 1490.0, 875.0)">y</text><text xml:space="preserve" font-family="SourceCodePro-Regular" font-size="57.0" fill="#E5493C" transform="matrix(1.00, 0.00, -0.00, -1.00, 1524.2, 875.0)">/</text><text xml:space="preserve" font-family="SourceCodePro-Regular" font-size="57.0" fill="#E5493C" transform="matrix(1.00, 0.00, -0.00, -1.00, 1558.4, 875.0)">a</text><text xml:space="preserve" font-family="SourceCodePro-Regular" font-size="57.0" fill="#E5493C" transform="matrix(1.00, 0.00, -0.00, -1.00, 1592.6, 875.0)">p</text><text xml:space="preserve" font-family="SourceCodePro-Regular" font-size="57.0" fill="#E5493C" transform="matrix(1.00, 0.00, -0.00, -1.00, 1626.8, 875.0)">o</text><text xml:space="preserve" font-family="SourceCodePro-Regular" font-size="57.0" fill="#E5493C" transform="matrix(1.00, 0.00, -0.00, -1.00, 1661.0, 875.0)">d</text><text xml:space="preserve" font-family="SourceCodePro-Regular" font-size="57.0" fill="#E5493C" transform="matrix(1.00, 0.00, -0.00, -1.00, 1695.2, 875.0)">'</text><text xml:space="preserve" font-family="SourceCodePro-Regular" font-size="57.0" fill="#A3B0B0" transform="matrix(1.00, 0.00, -0.00, -1.00, 1729.4, 875.0)">;</text><text xml:space="preserve" font-family="SourceCodePro-Regular" font-size="57.0" fill="#A3B0B0" transform="matrix(1.00, 0.00, -0.00, -1.00, 1763.6, 875.0)"> </text><text xml:space="preserve" font-family="SourceCodePro-Regular" font-size="59.0" fill="#D6601A" transform="matrix(1.00, 0.00, -0.00, -1.00, 122.0, 729.0)">v</text><text xml:space="preserve" font-family="SourceCodePro-Regular" font-size="59.0" fill="#D6601A" transform="matrix(1.00, 0.00, -0.00, -1.00, 157.4, 729.0)">a</text><text xml:space="preserve" font-family="SourceCodePro-Regular" font-size="59.0" fill="#D6601A" transform="matrix(1.00, 0.00, -0.00, -1.00, 192.8, 729.0)">r</text><text xml:space="preserve" font-family="SourceCodePro-Regular" font-size="59.0" fill="#000000" transform="matrix(1.00, 0.00, -0.00, -1.00, 228.2, 729.0)"> </text><text xml:space="preserve" font-family="SourceCodePro-Regular" font-size="59.0" fill="#94A4A6" transform="matrix(1.00, 0.00, -0.00, -1.00, 263.6, 729.0)">d</text><text xml:space="preserve" font-family="SourceCodePro-Regular" font-size="59.0" fill="#94A4A6" transform="matrix(1.00, 0.00, -0.00, -1.00, 299.0, 729.0)">a</text><text xml:space="preserve" font-family="SourceCodePro-Regular" font-size="59.0" fill="#94A4A6" transform="matrix(1.00, 0.00, -0.00, -1.00, 334.4, 729.0)">t</text><text xml:space="preserve" font-family="SourceCodePro-Regular" font-size="59.0" fill="#94A4A6" transform="matrix(1.00, 0.00, -0.00, -1.00, 369.8, 729.0)">a</text><text xml:space="preserve" font-family="SourceCodePro-Regular" font-size="59.0" fill="#000000" transform="matrix(1.00, 0.00, -0.00, -1.00, 405.2, 729.0)"> </text><text xml:space="preserve" font-family="SourceCodePro-Regular" font-size="59.0" fill="#A3B0B0" transform="matrix(1.00, 0.00, -0.00, -1.00, 440.6, 729.0)">=</text><text xml:space="preserve" font-family="SourceCodePro-Regular" font-size="59.0" fill="#A3B0B0" transform="matrix(1.00, 0.00, -0.00, -1.00, 476.0, 729.0)"> </text><text xml:space="preserve" font-family="SourceCodePro-Regular" font-size="59.0" fill="#A3B0B0" transform="matrix(1.00, 0.00, -0.00, -1.00, 511.4, 729.0)">{</text><text xml:space="preserve" font-family="SourceCodePro-Regular" font-size="59.0" fill="#000000" transform="matrix(1.00, 0.00, -0.00, -1.00, 546.8, 729.0)"> </text><text xml:space="preserve" font-family="SourceCodePro-Regular" font-size="59.0" fill="#94A4A6" transform="matrix(1.00, 0.00, -0.00, -1.00, 122.0, 655.0)"> </text><text xml:space="preserve" font-family="SourceCodePro-Regular" font-size="59.0" fill="#94A4A6" transform="matrix(1.00, 0.00, -0.00, -1.00, 157.4, 655.0)"> </text><text xml:space="preserve" font-family="SourceCodePro-Regular" font-size="59.0" fill="#94A4A6" transform="matrix(1.00, 0.00, -0.00, -1.00, 192.8, 655.0)">a</text><text xml:space="preserve" font-family="SourceCodePro-Regular" font-size="59.0" fill="#94A4A6" transform="matrix(1.00, 0.00, -0.00, -1.00, 228.2, 655.0)">p</text><text xml:space="preserve" font-family="SourceCodePro-Regular" font-size="59.0" fill="#94A4A6" transform="matrix(1.00, 0.00, -0.00, -1.00, 263.6, 655.0)">i</text><text xml:space="preserve" font-family="SourceCodePro-Regular" font-size="59.0" fill="#94A4A6" transform="matrix(1.00, 0.00, -0.00, -1.00, 299.0, 655.0)">_</text><text xml:space="preserve" font-family="SourceCodePro-Regular" font-size="59.0" fill="#94A4A6" transform="matrix(1.00, 0.00, -0.00, -1.00, 334.4, 655.0)">k</text><text xml:space="preserve" font-family="SourceCodePro-Regular" font-size="59.0" fill="#94A4A6" transform="matrix(1.00, 0.00, -0.00, -1.00, 369.8, 655.0)">e</text><text xml:space="preserve" font-family="SourceCodePro-Regular" font-size="59.0" fill="#94A4A6" transform="matrix(1.00, 0.00, -0.00, -1.00, 405.2, 655.0)">y</text><text xml:space="preserve" font-family="SourceCodePro-Regular" font-size="59.0" fill="#A3B0B0" transform="matrix(1.00, 0.00, -0.00, -1.00, 440.6, 655.0)">:</text><text xml:space="preserve" font-family="SourceCodePro-Regular" font-size="59.0" fill="#000000" transform="matrix(1.00, 0.00, -0.00, -1.00, 476.0, 655.0)"> </text><text xml:space="preserve" font-family="SourceCodePro-Regular" font-size="59.0" fill="#E5493C" transform="matrix(1.00, 0.00, -0.00, -1.00, 511.4, 655.0)">'</text><text xml:space="preserve" font-family="SourceCodePro-Regular" font-size="59.0" fill="#E5493C" transform="matrix(1.00, 0.00, -0.00, -1.00, 546.8, 655.0)">D</text><text xml:space="preserve" font-family="SourceCodePro-Regular" font-size="59.0" fill="#E5493C" transform="matrix(1.00, 0.00, -0.00, -1.00, 582.2, 655.0)">E</text><text xml:space="preserve" font-family="SourceCodePro-Regular" font-size="59.0" fill="#E5493C" transform="matrix(1.00, 0.00, -0.00, -1.00, 617.6, 655.0)">M</text><text xml:space="preserve" font-family="SourceCodePro-Regular" font-size="59.0" fill="#E5493C" transform="matrix(1.00, 0.00, -0.00, -1.00, 653.0, 655.0)">O</text><text xml:space="preserve" font-family="SourceCodePro-Regular" font-size="59.0" fill="#E5493C" transform="matrix(1.00, 0.00, -0.00, -1.00, 688.4, 655.0)">_</text><text xml:space="preserve" font-family="SourceCodePro-Regular" font-size="59.0" fill="#E5493C" transform="matrix(1.00, 0.00, -0.00, -1.00, 723.8, 655.0)">K</text><text xml:space="preserve" font-family="SourceCodePro-Regular" font-size="59.0" fill="#E5493C" transform="matrix(1.00, 0.00, -0.00, -1.00, 759.2, 655.0)">E</text><text xml:space="preserve" font-family="SourceCodePro-Regular" font-size="59.0" fill="#E5493C" transform="matrix(1.00, 0.00, -0.00, -1.00, 794.6, 655.0)">Y</text><text xml:space="preserve" font-family="SourceCodePro-Regular" font-size="59.0" fill="#E5493C" transform="matrix(1.00, 0.00, -0.00, -1.00, 830.0, 655.0)">'</text><text xml:space="preserve" font-family="SourceCodePro-Regular" font-size="59.0" fill="#A3B0B0" transform="matrix(1.00, 0.00, -0.00, -1.00, 865.4, 655.0)">,</text><text xml:space="preserve" font-family="SourceCodePro-Regular" font-size="59.0" fill="#000000" transform="matrix(1.00, 0.00, -0.00, -1.00, 900.8, 655.0)"> </text><text xml:space="preserve" font-family="SourceCodePro-Regular" font-size="59.0" fill="#94A4A6" transform="matrix(1.00, 0.00, -0.00, -1.00, 122.0, 581.0)"> </text><text xml:space="preserve" font-family="SourceCodePro-Regular" font-size="59.0" fill="#94A4A6" transform="matrix(1.00, 0.00, -0.00, -1.00, 157.4, 581.0)"> </text><text xml:space="preserve" font-family="SourceCodePro-Regular" font-size="59.0" fill="#94A4A6" transform="matrix(1.00, 0.00, -0.00, -1.00, 192.8, 581.0)">d</text><text xml:space="preserve" font-family="SourceCodePro-Regular" font-size="59.0" fill="#94A4A6" transform="matrix(1.00, 0.00, -0.00, -1.00, 228.2, 581.0)">a</text><text xml:space="preserve" font-family="SourceCodePro-Regular" font-size="59.0" fill="#94A4A6" transform="matrix(1.00, 0.00, -0.00, -1.00, 263.6, 581.0)">t</text><text xml:space="preserve" font-family="SourceCodePro-Regular" font-size="59.0" fill="#94A4A6" transform="matrix(1.00, 0.00, -0.00, -1.00, 299.0, 581.0)">e</text><text xml:space="preserve" font-family="SourceCodePro-Regular" font-size="59.0" fill="#A3B0B0" transform="matrix(1.00, 0.00, -0.00, -1.00, 334.4, 581.0)">:</text><text xml:space="preserve" font-family="SourceCodePro-Regular" font-size="59.0" fill="#000000" transform="matrix(1.00, 0.00, -0.00, -1.00, 369.8, 581.0)"> </text><text xml:space="preserve" font-family="SourceCodePro-Regular" font-size="59.0" fill="#E5493C" transform="matrix(1.00, 0.00, -0.00, -1.00, 405.2, 581.0)">'</text><text xml:space="preserve" font-family="SourceCodePro-Regular" font-size="59.0" fill="#E5493C" transform="matrix(1.00, 0.00, -0.00, -1.00, 440.6, 581.0)">2</text><text xml:space="preserve" font-family="SourceCodePro-Regular" font-size="59.0" fill="#E5493C" transform="matrix(1.00, 0.00, -0.00, -1.00, 476.0, 581.0)">0</text><text xml:space="preserve" font-family="SourceCodePro-Regular" font-size="59.0" fill="#E5493C" transform="matrix(1.00, 0.00, -0.00, -1.00, 511.4, 581.0)">1</text><text xml:space="preserve" font-family="SourceCodePro-Regular" font-size="59.0" fill="#E5493C" transform="matrix(1.00, 0.00, -0.00, -1.00, 546.8, 581.0)">5</text><text xml:space="preserve" font-family="SourceCodePro-Regular" font-size="59.0" fill="#E5493C" transform="matrix(1.00, 0.00, -0.00, -1.00, 582.2, 581.0)">-</text><text xml:space="preserve" font-family="SourceCodePro-Regular" font-size="59.0" fill="#E5493C" transform="matrix(1.00, 0.00, -0.00, -1.00, 617.6, 581.0)">1</text><text xml:space="preserve" font-family="SourceCodePro-Regular" font-size="59.0" fill="#E5493C" transform="matrix(1.00, 0.00, -0.00, -1.00, 653.0, 581.0)">1</text><text xml:space="preserve" font-family="SourceCodePro-Regular" font-size="59.0" fill="#E5493C" transform="matrix(1.00, 0.00, -0.00, -1.00, 688.4, 581.0)">-</text><text xml:space="preserve" font-family="SourceCodePro-Regular" font-size="59.0" fill="#E5493C" transform="matrix(1.00, 0.00, -0.00, -1.00, 723.8, 581.0)">2</text><text xml:space="preserve" font-family="SourceCodePro-Regular" font-size="59.0" fill="#E5493C" transform="matrix(1.00, 0.00, -0.00, -1.00, 759.2, 581.0)">7</text><text xml:space="preserve" font-family="SourceCodePro-Regular" font-size="59.0" fill="#E5493C" transform="matrix(1.00, 0.00, -0.00, -1.00, 794.6, 581.0)">'</text><text xml:space="preserve" font-family="SourceCodePro-Regular" font-size="59.0" fill="#000000" transform="matrix(1.00, 0.00, -0.00, -1.00, 830.0, 581.0)"> </text><text xml:space="preserve" font-family="SourceCodePro-Regular" font-size="59.0" fill="#A3B0B0" transform="matrix(1.00, 0.00, -0.00, -1.00, 122.0, 507.0)">}</text><text xml:space="preserve" font-family="SourceCodePro-Regular" font-size="59.0" fill="#A3B0B0" transform="matrix(1.00, 0.00, -0.00, -1.00, 157.4, 507.0)">;</text><text xml:space="preserve" font-family="SourceCodePro-Regular" font-size="59.0" fill="#D6601A" transform="matrix(1.00, 0.00, -0.00, -1.00, 192.8, 507.0)"> </text><text xml:space="preserve" font-family="SourceCodePro-Regular" font-size="57.0" fill="#94A4A6" transform="matrix(1.00, 0.00, -0.00, -1.00, 122.0, 363.0)">$</text><text xml:space="preserve" font-family="SourceCodePro-Regular" font-size="57.0" fill="#94A4A6" transform="matrix(1.00, 0.00, -0.00, -1.00, 156.2, 363.0)">.</text><text xml:space="preserve" font-family="SourceCodePro-Regular" font-size="57.0" fill="#D6601A" transform="matrix(1.00, 0.00, -0.00, -1.00, 190.4, 363.0)">g</text><text xml:space="preserve" font-family="SourceCodePro-Regular" font-size="57.0" fill="#D6601A" transform="matrix(1.00, 0.00, -0.00, -1.00, 224.6, 363.0)">e</text><text xml:space="preserve" font-family="SourceCodePro-Regular" font-size="57.0" fill="#D6601A" transform="matrix(1.00, 0.00, -0.00, -1.00, 258.8, 363.0)">t</text><text xml:space="preserve" font-family="SourceCodePro-Regular" font-size="57.0" fill="#94A4A6" transform="matrix(1.00, 0.00, -0.00, -1.00, 293.0, 363.0)">(</text><text xml:space="preserve" font-family="SourceCodePro-Regular" font-size="57.0" fill="#94A4A6" transform="matrix(1.00, 0.00, -0.00, -1.00, 327.2, 363.0)">u</text><text xml:space="preserve" font-family="SourceCodePro-Regular" font-size="57.0" fill="#94A4A6" transform="matrix(1.00, 0.00, -0.00, -1.00, 361.4, 363.0)">r</text><text xml:space="preserve" font-family="SourceCodePro-Regular" font-size="57.0" fill="#94A4A6" transform="matrix(1.00, 0.00, -0.00, -1.00, 395.6, 363.0)">l</text><text xml:space="preserve" font-family="SourceCodePro-Regular" font-size="57.0" fill="#94A4A6" transform="matrix(1.00, 0.00, -0.00, -1.00, 429.8, 363.0)">,</text><text xml:space="preserve" font-family="SourceCodePro-Regular" font-size="57.0" fill="#94A4A6" transform="matrix(1.00, 0.00, -0.00, -1.00, 464.0, 363.0)"> </text><text xml:space="preserve" font-family="SourceCodePro-Regular" font-size="57.0" fill="#94A4A6" transform="matrix(1.00, 0.00, -0.00, -1.00, 498.2, 363.0)">d</text><text xml:space="preserve" font-family="SourceCodePro-Regular" font-size="57.0" fill="#94A4A6" transform="matrix(1.00, 0.00, -0.00, -1.00, 532.4, 363.0)">a</text><text xml:space="preserve" font-family="SourceCodePro-Regular" font-size="57.0" fill="#94A4A6" transform="matrix(1.00, 0.00, -0.00, -1.00, 566.6, 363.0)">t</text><text xml:space="preserve" font-family="SourceCodePro-Regular" font-size="57.0" fill="#94A4A6" transform="matrix(1.00, 0.00, -0.00, -1.00, 600.8, 363.0)">a</text><text xml:space="preserve" font-family="SourceCodePro-Regular" font-size="57.0" fill="#94A4A6" transform="matrix(1.00, 0.00, -0.00, -1.00, 635.0, 363.0)">)</text><text xml:space="preserve" font-family="SourceCodePro-Regular" font-size="57.0" fill="#94A4A6" transform="matrix(1.00, 0.00, -0.00, -1.00, 669.2, 363.0)">;</text></g></svg>