<?xml version="1.0" encoding="UTF-8" standalone="no"?><svg xmlns="http://www.w3.org/2000/svg" xmlns:xlink="http://www.w3.org/1999/xlink" clip-rule="evenodd" stroke-miterlimit="4.00" viewBox="0 0 1920 1080"><desc>SVG generated by Keynote</desc><defs></defs><g transform="matrix(1.00, 0.00, -0.00, -1.00, 0.0, 1080.0)"><path d="M 0.0 1080.0 L 1920.0 1080.0 L 1920.0 0.0 L 0.0 0.0 Z M 0.0 1080.0 " fill="#000000"></path><image xlink:href="../../50AAA5EC-025E-48AE-8DCE-D576F928EC57/assets/C00AA22F8D5B7847CFEE437F0B5146C4.png" width="732.00" height="408.00" transform="matrix(1.00, 0.00, -0.00, -1.00, 124.0, 793.0)"></image><path d="M 0.0 38.2 C 90.4 -8.3 179.7 -12.3 267.8 26.1 L 273.1 28.8 " fill="none" stroke="#FEFFFE" stroke-width="12.00" transform="matrix(1.00, 0.00, 0.00, -1.00, 884.1, 855.4)"></path><path d="M 1141.5 809.0 L 1192.5 808.5 L 1162.2 849.6 Z M 1141.5 809.0 " fill="#FEFFFE"></path><text xml:space="preserve" font-family="HelveticaNeue-Light" font-size="50.0" fill="#FEFFFF" transform="matrix(1.00, 0.00, -0.00, -1.00, 956.0, 891.0)">r</text><text xml:space="preserve" font-family="HelveticaNeue-Light" font-size="50.0" fill="#FEFFFF" transform="matrix(1.00, 0.00, -0.00, -1.00, 970.9, 891.0)">e</text><text xml:space="preserve" font-family="HelveticaNeue-Light" font-size="50.0" fill="#FEFFFF" transform="matrix(1.00, 0.00, -0.00, -1.00, 996.8, 891.0)">q</text><text xml:space="preserve" font-family="HelveticaNeue-Light" font-size="50.0" fill="#FEFFFF" transform="matrix(1.00, 0.00, -0.00, -1.00, 1025.5, 891.0)">u</text><text xml:space="preserve" font-family="HelveticaNeue-Light" font-size="50.0" fill="#FEFFFF" transform="matrix(1.00, 0.00, -0.00, -1.00, 1052.3, 891.0)">e</text><text xml:space="preserve" font-family="HelveticaNeue-Light" font-size="50.0" fill="#FEFFFF" transform="matrix(1.00, 0.00, -0.00, -1.00, 1078.3, 891.0)">s</text><text xml:space="preserve" font-family="HelveticaNeue-Light" font-size="50.0" fill="#FEFFFF" transform="matrix(1.00, 0.00, -0.00, -1.00, 1102.3, 891.0)">t</text><image xlink:href="../../79C0C1B7-9E43-41E5-9C35-F41614A23BCD/assets/2C002C6FB80EEC8EF67BC0576CD00A5B.png" width="145.00" height="363.00" transform="matrix(1.91, 0.00, -0.00, -1.92, 1291.0, 937.0)"></image></g></svg>