<?xml version="1.0" encoding="UTF-8" standalone="no"?><svg xmlns="http://www.w3.org/2000/svg" xmlns:xlink="http://www.w3.org/1999/xlink" clip-rule="evenodd" stroke-miterlimit="4.00" viewBox="0 0 1920 1080"><desc>SVG generated by Keynote</desc><defs></defs><g transform="matrix(1.00, 0.00, -0.00, -1.00, 0.0, 1080.0)"><path d="M 0.0 1080.0 L 1920.0 1080.0 L 1920.0 0.0 L 0.0 0.0 Z M 0.0 1080.0 " fill="#FEFFFE"></path><text xml:space="preserve" font-family="HelveticaNeue-Thin" font-size="141.1" fill="#000000" transform="matrix(1.00, 0.00, -0.00, -1.00, 400.0, 846.0)">S</text><text xml:space="preserve" font-family="HelveticaNeue-Thin" font-size="141.1" fill="#000000" transform="matrix(1.00, 0.00, -0.00, -1.00, 488.9, 846.0)">e</text><text xml:space="preserve" font-family="HelveticaNeue-Thin" font-size="141.1" fill="#000000" transform="matrix(1.00, 0.00, -0.00, -1.00, 562.1, 846.0)">l</text><text xml:space="preserve" font-family="HelveticaNeue-Thin" font-size="141.1" fill="#000000" transform="matrix(1.00, 0.00, -0.00, -1.00, 585.9, 846.0)">e</text><text xml:space="preserve" font-family="HelveticaNeue-Thin" font-size="141.1" fill="#000000" transform="matrix(1.00, 0.00, -0.00, -1.00, 659.1, 846.0)">c</text><text xml:space="preserve" font-family="HelveticaNeue-Thin" font-size="141.1" fill="#000000" transform="matrix(1.00, 0.00, -0.00, -1.00, 732.3, 846.0)">t</text><text xml:space="preserve" font-family="HelveticaNeue-Thin" font-size="141.1" fill="#000000" transform="matrix(1.00, 0.00, -0.00, -1.00, 768.9, 846.0)">i</text><text xml:space="preserve" font-family="HelveticaNeue-Thin" font-size="141.1" fill="#000000" transform="matrix(1.00, 0.00, -0.00, -1.00, 792.6, 846.0)">n</text><text xml:space="preserve" font-family="HelveticaNeue-Thin" font-size="141.1" fill="#000000" transform="matrix(1.00, 0.00, -0.00, -1.00, 865.8, 846.0)">g</text><text xml:space="preserve" font-family="HelveticaNeue-Thin" font-size="141.1" fill="#000000" transform="matrix(1.00, 0.00, -0.00, -1.00, 941.6, 846.0)"> </text><text xml:space="preserve" font-family="HelveticaNeue-Thin" font-size="141.1" fill="#000000" transform="matrix(1.00, 0.00, -0.00, -1.00, 980.8, 846.0)">E</text><text xml:space="preserve" font-family="HelveticaNeue-Thin" font-size="141.1" fill="#000000" transform="matrix(1.00, 0.00, -0.00, -1.00, 1059.9, 846.0)">l</text><text xml:space="preserve" font-family="HelveticaNeue-Thin" font-size="141.1" fill="#000000" transform="matrix(1.00, 0.00, -0.00, -1.00, 1083.6, 846.0)">e</text><text xml:space="preserve" font-family="HelveticaNeue-Thin" font-size="141.1" fill="#000000" transform="matrix(1.00, 0.00, -0.00, -1.00, 1156.8, 846.0)">m</text><text xml:space="preserve" font-family="HelveticaNeue-Thin" font-size="141.1" fill="#000000" transform="matrix(1.00, 0.00, -0.00, -1.00, 1269.2, 846.0)">e</text><text xml:space="preserve" font-family="HelveticaNeue-Thin" font-size="141.1" fill="#000000" transform="matrix(1.00, 0.00, -0.00, -1.00, 1342.4, 846.0)">n</text><text xml:space="preserve" font-family="HelveticaNeue-Thin" font-size="141.1" fill="#000000" transform="matrix(1.00, 0.00, -0.00, -1.00, 1415.6, 846.0)">t</text><text xml:space="preserve" font-family="HelveticaNeue-Thin" font-size="141.1" fill="#000000" transform="matrix(1.00, 0.00, -0.00, -1.00, 1452.2, 846.0)">s</text><text xml:space="preserve" font-family="CourierNewPSMT" font-size="120.0" fill="#A3B0B0" transform="matrix(1.00, 0.00, -0.00, -1.00, 491.0, 631.0)">$</text><text xml:space="preserve" font-family="CourierNewPSMT" font-size="120.0" fill="#A3B0B0" transform="matrix(1.00, 0.00, -0.00, -1.00, 563.0, 631.0)">(</text><text xml:space="preserve" font-family="CourierNewPSMT" font-size="120.0" fill="#E5493C" transform="matrix(1.00, 0.00, -0.00, -1.00, 635.0, 631.0)">'</text><text xml:space="preserve" font-family="CourierNewPSMT" font-size="120.0" fill="#E5493C" transform="matrix(1.00, 0.00, -0.00, -1.00, 707.0, 631.0)">.</text><text xml:space="preserve" font-family="CourierNewPSMT" font-size="120.0" fill="#E5493C" transform="matrix(1.00, 0.00, -0.00, -1.00, 779.1, 631.0)">s</text><text xml:space="preserve" font-family="CourierNewPSMT" font-size="120.0" fill="#E5493C" transform="matrix(1.00, 0.00, -0.00, -1.00, 851.1, 631.0)">t</text><text xml:space="preserve" font-family="CourierNewPSMT" font-size="120.0" fill="#E5493C" transform="matrix(1.00, 0.00, -0.00, -1.00, 923.1, 631.0)">u</text><text xml:space="preserve" font-family="CourierNewPSMT" font-size="120.0" fill="#E5493C" transform="matrix(1.00, 0.00, -0.00, -1.00, 995.1, 631.0)">d</text><text xml:space="preserve" font-family="CourierNewPSMT" font-size="120.0" fill="#E5493C" transform="matrix(1.00, 0.00, -0.00, -1.00, 1067.2, 631.0)">e</text><text xml:space="preserve" font-family="CourierNewPSMT" font-size="120.0" fill="#E5493C" transform="matrix(1.00, 0.00, -0.00, -1.00, 1139.2, 631.0)">n</text><text xml:space="preserve" font-family="CourierNewPSMT" font-size="120.0" fill="#E5493C" transform="matrix(1.00, 0.00, -0.00, -1.00, 1211.2, 631.0)">t</text><text xml:space="preserve" font-family="CourierNewPSMT" font-size="120.0" fill="#E5493C" transform="matrix(1.00, 0.00, -0.00, -1.00, 1283.2, 631.0)">'</text><text xml:space="preserve" font-family="CourierNewPSMT" font-size="120.0" fill="#A3B0B0" transform="matrix(1.00, 0.00, -0.00, -1.00, 1355.1, 631.0)">)</text></g></svg>