<?xml version="1.0" encoding="UTF-8" standalone="no"?><svg xmlns="http://www.w3.org/2000/svg" xmlns:xlink="http://www.w3.org/1999/xlink" clip-rule="evenodd" stroke-miterlimit="4.00" viewBox="0 0 1920 1080"><desc>SVG generated by Keynote</desc><defs></defs><g transform="matrix(1.00, 0.00, -0.00, -1.00, 0.0, 1080.0)"><path d="M 0.0 1080.0 L 1920.0 1080.0 L 1920.0 0.0 L 0.0 0.0 Z M 0.0 1080.0 " fill="#FEFFFE"></path><text xml:space="preserve" font-family="SourceCodePro-Regular" font-size="59.0" fill="#D6601A" transform="matrix(1.00, 0.00, -0.00, -1.00, 181.0, 951.0)">f</text><text xml:space="preserve" font-family="SourceCodePro-Regular" font-size="59.0" fill="#D6601A" transform="matrix(1.00, 0.00, -0.00, -1.00, 216.4, 951.0)">u</text><text xml:space="preserve" font-family="SourceCodePro-Regular" font-size="59.0" fill="#D6601A" transform="matrix(1.00, 0.00, -0.00, -1.00, 251.8, 951.0)">n</text><text xml:space="preserve" font-family="SourceCodePro-Regular" font-size="59.0" fill="#D6601A" transform="matrix(1.00, 0.00, -0.00, -1.00, 287.2, 951.0)">c</text><text xml:space="preserve" font-family="SourceCodePro-Regular" font-size="59.0" fill="#D6601A" transform="matrix(1.00, 0.00, -0.00, -1.00, 322.6, 951.0)">t</text><text xml:space="preserve" font-family="SourceCodePro-Regular" font-size="59.0" fill="#D6601A" transform="matrix(1.00, 0.00, -0.00, -1.00, 358.0, 951.0)">i</text><text xml:space="preserve" font-family="SourceCodePro-Regular" font-size="59.0" fill="#D6601A" transform="matrix(1.00, 0.00, -0.00, -1.00, 393.4, 951.0)">o</text><text xml:space="preserve" font-family="SourceCodePro-Regular" font-size="59.0" fill="#D6601A" transform="matrix(1.00, 0.00, -0.00, -1.00, 428.8, 951.0)">n</text><text xml:space="preserve" font-family="SourceCodePro-Regular" font-size="59.0" fill="#000000" transform="matrix(1.00, 0.00, -0.00, -1.00, 464.2, 951.0)"> </text><text xml:space="preserve" font-family="SourceCodePro-Regular" font-size="59.0" fill="#A3B0B0" transform="matrix(1.00, 0.00, -0.00, -1.00, 499.6, 951.0)">d</text><text xml:space="preserve" font-family="SourceCodePro-Regular" font-size="59.0" fill="#A3B0B0" transform="matrix(1.00, 0.00, -0.00, -1.00, 535.0, 951.0)">o</text><text xml:space="preserve" font-family="SourceCodePro-Regular" font-size="59.0" fill="#A3B0B0" transform="matrix(1.00, 0.00, -0.00, -1.00, 570.4, 951.0)">T</text><text xml:space="preserve" font-family="SourceCodePro-Regular" font-size="59.0" fill="#A3B0B0" transform="matrix(1.00, 0.00, -0.00, -1.00, 605.8, 951.0)">h</text><text xml:space="preserve" font-family="SourceCodePro-Regular" font-size="59.0" fill="#A3B0B0" transform="matrix(1.00, 0.00, -0.00, -1.00, 641.2, 951.0)">e</text><text xml:space="preserve" font-family="SourceCodePro-Regular" font-size="59.0" fill="#A3B0B0" transform="matrix(1.00, 0.00, -0.00, -1.00, 676.6, 951.0)">T</text><text xml:space="preserve" font-family="SourceCodePro-Regular" font-size="59.0" fill="#A3B0B0" transform="matrix(1.00, 0.00, -0.00, -1.00, 712.0, 951.0)">h</text><text xml:space="preserve" font-family="SourceCodePro-Regular" font-size="59.0" fill="#A3B0B0" transform="matrix(1.00, 0.00, -0.00, -1.00, 747.4, 951.0)">i</text><text xml:space="preserve" font-family="SourceCodePro-Regular" font-size="59.0" fill="#A3B0B0" transform="matrix(1.00, 0.00, -0.00, -1.00, 782.8, 951.0)">n</text><text xml:space="preserve" font-family="SourceCodePro-Regular" font-size="59.0" fill="#A3B0B0" transform="matrix(1.00, 0.00, -0.00, -1.00, 818.2, 951.0)">g</text><text xml:space="preserve" font-family="SourceCodePro-Regular" font-size="59.0" fill="#A3B0B0" transform="matrix(1.00, 0.00, -0.00, -1.00, 853.6, 951.0)">(</text><text xml:space="preserve" font-family="SourceCodePro-Regular" font-size="59.0" fill="#94A4A6" transform="matrix(1.00, 0.00, -0.00, -1.00, 889.0, 951.0)">a</text><text xml:space="preserve" font-family="SourceCodePro-Regular" font-size="59.0" fill="#94A4A6" transform="matrix(1.00, 0.00, -0.00, -1.00, 924.4, 951.0)">j</text><text xml:space="preserve" font-family="SourceCodePro-Regular" font-size="59.0" fill="#94A4A6" transform="matrix(1.00, 0.00, -0.00, -1.00, 959.8, 951.0)">a</text><text xml:space="preserve" font-family="SourceCodePro-Regular" font-size="59.0" fill="#94A4A6" transform="matrix(1.00, 0.00, -0.00, -1.00, 995.2, 951.0)">x</text><text xml:space="preserve" font-family="SourceCodePro-Regular" font-size="59.0" fill="#94A4A6" transform="matrix(1.00, 0.00, -0.00, -1.00, 1030.6, 951.0)">R</text><text xml:space="preserve" font-family="SourceCodePro-Regular" font-size="59.0" fill="#94A4A6" transform="matrix(1.00, 0.00, -0.00, -1.00, 1066.0, 951.0)">e</text><text xml:space="preserve" font-family="SourceCodePro-Regular" font-size="59.0" fill="#94A4A6" transform="matrix(1.00, 0.00, -0.00, -1.00, 1101.4, 951.0)">s</text><text xml:space="preserve" font-family="SourceCodePro-Regular" font-size="59.0" fill="#94A4A6" transform="matrix(1.00, 0.00, -0.00, -1.00, 1136.8, 951.0)">u</text><text xml:space="preserve" font-family="SourceCodePro-Regular" font-size="59.0" fill="#94A4A6" transform="matrix(1.00, 0.00, -0.00, -1.00, 1172.2, 951.0)">l</text><text xml:space="preserve" font-family="SourceCodePro-Regular" font-size="59.0" fill="#94A4A6" transform="matrix(1.00, 0.00, -0.00, -1.00, 1207.6, 951.0)">t</text><text xml:space="preserve" font-family="SourceCodePro-Regular" font-size="59.0" fill="#94A4A6" transform="matrix(1.00, 0.00, -0.00, -1.00, 1243.0, 951.0)">s</text><text xml:space="preserve" font-family="SourceCodePro-Regular" font-size="59.0" fill="#A3B0B0" transform="matrix(1.00, 0.00, -0.00, -1.00, 1278.4, 951.0)">)</text><text xml:space="preserve" font-family="SourceCodePro-Regular" font-size="59.0" fill="#A3B0B0" transform="matrix(1.00, 0.00, -0.00, -1.00, 1313.8, 951.0)"> </text><text xml:space="preserve" font-family="SourceCodePro-Regular" font-size="59.0" fill="#A3B0B0" transform="matrix(1.00, 0.00, -0.00, -1.00, 1349.2, 951.0)">{</text><text xml:space="preserve" font-family="SourceCodePro-Regular" font-size="59.0" fill="#000000" transform="matrix(1.00, 0.00, -0.00, -1.00, 1384.6, 951.0)"> </text><text xml:space="preserve" font-family="SourceCodePro-Regular" font-size="59.0" fill="#000000" transform="matrix(1.00, 0.00, -0.00, -1.00, 181.0, 877.0)"> </text><text xml:space="preserve" font-family="SourceCodePro-Regular" font-size="59.0" fill="#000000" transform="matrix(1.00, 0.00, -0.00, -1.00, 216.4, 877.0)"> </text><text xml:space="preserve" font-family="SourceCodePro-Regular" font-size="59.0" fill="#A3B0B0" transform="matrix(1.00, 0.00, -0.00, -1.00, 251.8, 877.0)">$</text><text xml:space="preserve" font-family="SourceCodePro-Regular" font-size="59.0" fill="#A3B0B0" transform="matrix(1.00, 0.00, -0.00, -1.00, 287.2, 877.0)">.</text><text xml:space="preserve" font-family="SourceCodePro-Regular" font-size="59.0" fill="#A3B0B0" transform="matrix(1.00, 0.00, -0.00, -1.00, 322.6, 877.0)">e</text><text xml:space="preserve" font-family="SourceCodePro-Regular" font-size="59.0" fill="#A3B0B0" transform="matrix(1.00, 0.00, -0.00, -1.00, 358.0, 877.0)">a</text><text xml:space="preserve" font-family="SourceCodePro-Regular" font-size="59.0" fill="#A3B0B0" transform="matrix(1.00, 0.00, -0.00, -1.00, 393.4, 877.0)">c</text><text xml:space="preserve" font-family="SourceCodePro-Regular" font-size="59.0" fill="#A3B0B0" transform="matrix(1.00, 0.00, -0.00, -1.00, 428.8, 877.0)">h</text><text xml:space="preserve" font-family="SourceCodePro-Regular" font-size="59.0" fill="#A3B0B0" transform="matrix(1.00, 0.00, -0.00, -1.00, 464.2, 877.0)">(</text><text xml:space="preserve" font-family="SourceCodePro-Regular" font-size="59.0" fill="#94A4A6" transform="matrix(1.00, 0.00, -0.00, -1.00, 499.6, 877.0)">a</text><text xml:space="preserve" font-family="SourceCodePro-Regular" font-size="59.0" fill="#94A4A6" transform="matrix(1.00, 0.00, -0.00, -1.00, 535.0, 877.0)">j</text><text xml:space="preserve" font-family="SourceCodePro-Regular" font-size="59.0" fill="#94A4A6" transform="matrix(1.00, 0.00, -0.00, -1.00, 570.4, 877.0)">a</text><text xml:space="preserve" font-family="SourceCodePro-Regular" font-size="59.0" fill="#94A4A6" transform="matrix(1.00, 0.00, -0.00, -1.00, 605.8, 877.0)">x</text><text xml:space="preserve" font-family="SourceCodePro-Regular" font-size="59.0" fill="#94A4A6" transform="matrix(1.00, 0.00, -0.00, -1.00, 641.2, 877.0)">R</text><text xml:space="preserve" font-family="SourceCodePro-Regular" font-size="59.0" fill="#94A4A6" transform="matrix(1.00, 0.00, -0.00, -1.00, 676.6, 877.0)">e</text><text xml:space="preserve" font-family="SourceCodePro-Regular" font-size="59.0" fill="#94A4A6" transform="matrix(1.00, 0.00, -0.00, -1.00, 712.0, 877.0)">s</text><text xml:space="preserve" font-family="SourceCodePro-Regular" font-size="59.0" fill="#94A4A6" transform="matrix(1.00, 0.00, -0.00, -1.00, 747.4, 877.0)">u</text><text xml:space="preserve" font-family="SourceCodePro-Regular" font-size="59.0" fill="#94A4A6" transform="matrix(1.00, 0.00, -0.00, -1.00, 782.8, 877.0)">l</text><text xml:space="preserve" font-family="SourceCodePro-Regular" font-size="59.0" fill="#94A4A6" transform="matrix(1.00, 0.00, -0.00, -1.00, 818.2, 877.0)">t</text><text xml:space="preserve" font-family="SourceCodePro-Regular" font-size="59.0" fill="#94A4A6" transform="matrix(1.00, 0.00, -0.00, -1.00, 853.6, 877.0)">s</text><text xml:space="preserve" font-family="SourceCodePro-Regular" font-size="59.0" fill="#A3B0B0" transform="matrix(1.00, 0.00, -0.00, -1.00, 889.0, 877.0)">,</text><text xml:space="preserve" font-family="SourceCodePro-Regular" font-size="59.0" fill="#000000" transform="matrix(1.00, 0.00, -0.00, -1.00, 924.4, 877.0)"> </text><text xml:space="preserve" font-family="SourceCodePro-Regular" font-size="59.0" fill="#D6601A" transform="matrix(1.00, 0.00, -0.00, -1.00, 959.8, 877.0)">f</text><text xml:space="preserve" font-family="SourceCodePro-Regular" font-size="59.0" fill="#D6601A" transform="matrix(1.00, 0.00, -0.00, -1.00, 995.2, 877.0)">u</text><text xml:space="preserve" font-family="SourceCodePro-Regular" font-size="59.0" fill="#D6601A" transform="matrix(1.00, 0.00, -0.00, -1.00, 1030.6, 877.0)">n</text><text xml:space="preserve" font-family="SourceCodePro-Regular" font-size="59.0" fill="#D6601A" transform="matrix(1.00, 0.00, -0.00, -1.00, 1066.0, 877.0)">c</text><text xml:space="preserve" font-family="SourceCodePro-Regular" font-size="59.0" fill="#D6601A" transform="matrix(1.00, 0.00, -0.00, -1.00, 1101.4, 877.0)">t</text><text xml:space="preserve" font-family="SourceCodePro-Regular" font-size="59.0" fill="#D6601A" transform="matrix(1.00, 0.00, -0.00, -1.00, 1136.8, 877.0)">i</text><text xml:space="preserve" font-family="SourceCodePro-Regular" font-size="59.0" fill="#D6601A" transform="matrix(1.00, 0.00, -0.00, -1.00, 1172.2, 877.0)">o</text><text xml:space="preserve" font-family="SourceCodePro-Regular" font-size="59.0" fill="#D6601A" transform="matrix(1.00, 0.00, -0.00, -1.00, 1207.6, 877.0)">n</text><text xml:space="preserve" font-family="SourceCodePro-Regular" font-size="59.0" fill="#A3B0B0" transform="matrix(1.00, 0.00, -0.00, -1.00, 1243.0, 877.0)">(</text><text xml:space="preserve" font-family="SourceCodePro-Regular" font-size="59.0" fill="#94A4A6" transform="matrix(1.00, 0.00, -0.00, -1.00, 1278.4, 877.0)">i</text><text xml:space="preserve" font-family="SourceCodePro-Regular" font-size="59.0" fill="#A3B0B0" transform="matrix(1.00, 0.00, -0.00, -1.00, 1313.8, 877.0)">,</text><text xml:space="preserve" font-family="SourceCodePro-Regular" font-size="59.0" fill="#000000" transform="matrix(1.00, 0.00, -0.00, -1.00, 1349.2, 877.0)"> </text><text xml:space="preserve" font-family="SourceCodePro-Regular" font-size="59.0" fill="#94A4A6" transform="matrix(1.00, 0.00, -0.00, -1.00, 1384.6, 877.0)">m</text><text xml:space="preserve" font-family="SourceCodePro-Regular" font-size="59.0" fill="#94A4A6" transform="matrix(1.00, 0.00, -0.00, -1.00, 1420.0, 877.0)">u</text><text xml:space="preserve" font-family="SourceCodePro-Regular" font-size="59.0" fill="#94A4A6" transform="matrix(1.00, 0.00, -0.00, -1.00, 1455.4, 877.0)">t</text><text xml:space="preserve" font-family="SourceCodePro-Regular" font-size="59.0" fill="#94A4A6" transform="matrix(1.00, 0.00, -0.00, -1.00, 1490.8, 877.0)">a</text><text xml:space="preserve" font-family="SourceCodePro-Regular" font-size="59.0" fill="#94A4A6" transform="matrix(1.00, 0.00, -0.00, -1.00, 1526.2, 877.0)">n</text><text xml:space="preserve" font-family="SourceCodePro-Regular" font-size="59.0" fill="#94A4A6" transform="matrix(1.00, 0.00, -0.00, -1.00, 1561.6, 877.0)">t</text><text xml:space="preserve" font-family="SourceCodePro-Regular" font-size="59.0" fill="#A3B0B0" transform="matrix(1.00, 0.00, -0.00, -1.00, 1597.0, 877.0)">)</text><text xml:space="preserve" font-family="SourceCodePro-Regular" font-size="59.0" fill="#A3B0B0" transform="matrix(1.00, 0.00, -0.00, -1.00, 1632.4, 877.0)"> </text><text xml:space="preserve" font-family="SourceCodePro-Regular" font-size="59.0" fill="#A3B0B0" transform="matrix(1.00, 0.00, -0.00, -1.00, 1667.8, 877.0)">{</text><text xml:space="preserve" font-family="SourceCodePro-Regular" font-size="59.0" fill="#000000" transform="matrix(1.00, 0.00, -0.00, -1.00, 1703.2, 877.0)"> </text><text xml:space="preserve" font-family="SourceCodePro-Regular" font-size="59.0" fill="#94A4A6" transform="matrix(1.00, 0.00, -0.00, -1.00, 181.0, 803.0)"> </text><text xml:space="preserve" font-family="SourceCodePro-Regular" font-size="59.0" fill="#94A4A6" transform="matrix(1.00, 0.00, -0.00, -1.00, 216.4, 803.0)"> </text><text xml:space="preserve" font-family="SourceCodePro-Regular" font-size="59.0" fill="#94A4A6" transform="matrix(1.00, 0.00, -0.00, -1.00, 251.8, 803.0)"> </text><text xml:space="preserve" font-family="SourceCodePro-Regular" font-size="59.0" fill="#94A4A6" transform="matrix(1.00, 0.00, -0.00, -1.00, 287.2, 803.0)"> </text><text xml:space="preserve" font-family="SourceCodePro-Regular" font-size="59.0" fill="#94A4A6" transform="matrix(1.00, 0.00, -0.00, -1.00, 322.6, 803.0)">c</text><text xml:space="preserve" font-family="SourceCodePro-Regular" font-size="59.0" fill="#94A4A6" transform="matrix(1.00, 0.00, -0.00, -1.00, 358.0, 803.0)">o</text><text xml:space="preserve" font-family="SourceCodePro-Regular" font-size="59.0" fill="#94A4A6" transform="matrix(1.00, 0.00, -0.00, -1.00, 393.4, 803.0)">n</text><text xml:space="preserve" font-family="SourceCodePro-Regular" font-size="59.0" fill="#94A4A6" transform="matrix(1.00, 0.00, -0.00, -1.00, 428.8, 803.0)">s</text><text xml:space="preserve" font-family="SourceCodePro-Regular" font-size="59.0" fill="#94A4A6" transform="matrix(1.00, 0.00, -0.00, -1.00, 464.2, 803.0)">o</text><text xml:space="preserve" font-family="SourceCodePro-Regular" font-size="59.0" fill="#94A4A6" transform="matrix(1.00, 0.00, -0.00, -1.00, 499.6, 803.0)">l</text><text xml:space="preserve" font-family="SourceCodePro-Regular" font-size="59.0" fill="#94A4A6" transform="matrix(1.00, 0.00, -0.00, -1.00, 535.0, 803.0)">e</text><text xml:space="preserve" font-family="SourceCodePro-Regular" font-size="59.0" fill="#A3B0B0" transform="matrix(1.00, 0.00, -0.00, -1.00, 570.4, 803.0)">.</text><text xml:space="preserve" font-family="SourceCodePro-Regular" font-size="59.0" fill="#A3B0B0" transform="matrix(1.00, 0.00, -0.00, -1.00, 605.8, 803.0)">l</text><text xml:space="preserve" font-family="SourceCodePro-Regular" font-size="59.0" fill="#A3B0B0" transform="matrix(1.00, 0.00, -0.00, -1.00, 641.2, 803.0)">o</text><text xml:space="preserve" font-family="SourceCodePro-Regular" font-size="59.0" fill="#A3B0B0" transform="matrix(1.00, 0.00, -0.00, -1.00, 676.6, 803.0)">g</text><text xml:space="preserve" font-family="SourceCodePro-Regular" font-size="59.0" fill="#A3B0B0" transform="matrix(1.00, 0.00, -0.00, -1.00, 712.0, 803.0)">(</text><text xml:space="preserve" font-family="SourceCodePro-Regular" font-size="59.0" fill="#94A4A6" transform="matrix(1.00, 0.00, -0.00, -1.00, 747.4, 803.0)">m</text><text xml:space="preserve" font-family="SourceCodePro-Regular" font-size="59.0" fill="#94A4A6" transform="matrix(1.00, 0.00, -0.00, -1.00, 782.8, 803.0)">u</text><text xml:space="preserve" font-family="SourceCodePro-Regular" font-size="59.0" fill="#94A4A6" transform="matrix(1.00, 0.00, -0.00, -1.00, 818.2, 803.0)">t</text><text xml:space="preserve" font-family="SourceCodePro-Regular" font-size="59.0" fill="#94A4A6" transform="matrix(1.00, 0.00, -0.00, -1.00, 853.6, 803.0)">a</text><text xml:space="preserve" font-family="SourceCodePro-Regular" font-size="59.0" fill="#94A4A6" transform="matrix(1.00, 0.00, -0.00, -1.00, 889.0, 803.0)">n</text><text xml:space="preserve" font-family="SourceCodePro-Regular" font-size="59.0" fill="#94A4A6" transform="matrix(1.00, 0.00, -0.00, -1.00, 924.4, 803.0)">t</text><text xml:space="preserve" font-family="SourceCodePro-Regular" font-size="59.0" fill="#A3B0B0" transform="matrix(1.00, 0.00, -0.00, -1.00, 959.8, 803.0)">.</text><text xml:space="preserve" font-family="SourceCodePro-Regular" font-size="59.0" fill="#94A4A6" transform="matrix(1.00, 0.00, -0.00, -1.00, 995.2, 803.0)">m</text><text xml:space="preserve" font-family="SourceCodePro-Regular" font-size="59.0" fill="#94A4A6" transform="matrix(1.00, 0.00, -0.00, -1.00, 1030.6, 803.0)">u</text><text xml:space="preserve" font-family="SourceCodePro-Regular" font-size="59.0" fill="#94A4A6" transform="matrix(1.00, 0.00, -0.00, -1.00, 1066.0, 803.0)">t</text><text xml:space="preserve" font-family="SourceCodePro-Regular" font-size="59.0" fill="#94A4A6" transform="matrix(1.00, 0.00, -0.00, -1.00, 1101.4, 803.0)">a</text><text xml:space="preserve" font-family="SourceCodePro-Regular" font-size="59.0" fill="#94A4A6" transform="matrix(1.00, 0.00, -0.00, -1.00, 1136.8, 803.0)">n</text><text xml:space="preserve" font-family="SourceCodePro-Regular" font-size="59.0" fill="#94A4A6" transform="matrix(1.00, 0.00, -0.00, -1.00, 1172.2, 803.0)">t</text><text xml:space="preserve" font-family="SourceCodePro-Regular" font-size="59.0" fill="#94A4A6" transform="matrix(1.00, 0.00, -0.00, -1.00, 1207.6, 803.0)">_</text><text xml:space="preserve" font-family="SourceCodePro-Regular" font-size="59.0" fill="#94A4A6" transform="matrix(1.00, 0.00, -0.00, -1.00, 1243.0, 803.0)">n</text><text xml:space="preserve" font-family="SourceCodePro-Regular" font-size="59.0" fill="#94A4A6" transform="matrix(1.00, 0.00, -0.00, -1.00, 1278.4, 803.0)">a</text><text xml:space="preserve" font-family="SourceCodePro-Regular" font-size="59.0" fill="#94A4A6" transform="matrix(1.00, 0.00, -0.00, -1.00, 1313.8, 803.0)">m</text><text xml:space="preserve" font-family="SourceCodePro-Regular" font-size="59.0" fill="#94A4A6" transform="matrix(1.00, 0.00, -0.00, -1.00, 1349.2, 803.0)">e</text><text xml:space="preserve" font-family="SourceCodePro-Regular" font-size="59.0" fill="#A3B0B0" transform="matrix(1.00, 0.00, -0.00, -1.00, 1384.6, 803.0)">)</text><text xml:space="preserve" font-family="SourceCodePro-Regular" font-size="59.0" fill="#A3B0B0" transform="matrix(1.00, 0.00, -0.00, -1.00, 1420.0, 803.0)">;</text><text xml:space="preserve" font-family="SourceCodePro-Regular" font-size="59.0" fill="#000000" transform="matrix(1.00, 0.00, -0.00, -1.00, 1455.4, 803.0)"> </text><text xml:space="preserve" font-family="SourceCodePro-Regular" font-size="59.0" fill="#000000" transform="matrix(1.00, 0.00, -0.00, -1.00, 181.0, 729.0)"> </text><text xml:space="preserve" font-family="SourceCodePro-Regular" font-size="59.0" fill="#000000" transform="matrix(1.00, 0.00, -0.00, -1.00, 216.4, 729.0)"> </text><text xml:space="preserve" font-family="SourceCodePro-Regular" font-size="59.0" fill="#A3B0B0" transform="matrix(1.00, 0.00, -0.00, -1.00, 251.8, 729.0)">}</text><text xml:space="preserve" font-family="SourceCodePro-Regular" font-size="59.0" fill="#A3B0B0" transform="matrix(1.00, 0.00, -0.00, -1.00, 287.2, 729.0)">)</text><text xml:space="preserve" font-family="SourceCodePro-Regular" font-size="59.0" fill="#A3B0B0" transform="matrix(1.00, 0.00, -0.00, -1.00, 322.6, 729.0)">;</text><text xml:space="preserve" font-family="SourceCodePro-Regular" font-size="59.0" fill="#000000" transform="matrix(1.00, 0.00, -0.00, -1.00, 358.0, 729.0)"> </text><text xml:space="preserve" font-family="SourceCodePro-Regular" font-size="59.0" fill="#A3B0B0" transform="matrix(1.00, 0.00, -0.00, -1.00, 181.0, 655.0)">}</text><text xml:space="preserve" font-family="SourceCodePro-Regular" font-size="59.0" fill="#000000" transform="matrix(1.00, 0.00, -0.00, -1.00, 216.4, 655.0)"> </text><text xml:space="preserve" font-family="SourceCodePro-Regular" font-size="59.0" fill="#A3B0B0" transform="matrix(1.00, 0.00, -0.00, -1.00, 181.0, 507.0)">$</text><text xml:space="preserve" font-family="SourceCodePro-Regular" font-size="59.0" fill="#A3B0B0" transform="matrix(1.00, 0.00, -0.00, -1.00, 216.4, 507.0)">.</text><text xml:space="preserve" font-family="SourceCodePro-Regular" font-size="59.0" fill="#D6601A" transform="matrix(1.00, 0.00, -0.00, -1.00, 251.8, 507.0)">g</text><text xml:space="preserve" font-family="SourceCodePro-Regular" font-size="59.0" fill="#D6601A" transform="matrix(1.00, 0.00, -0.00, -1.00, 287.2, 507.0)">e</text><text xml:space="preserve" font-family="SourceCodePro-Regular" font-size="59.0" fill="#D6601A" transform="matrix(1.00, 0.00, -0.00, -1.00, 322.6, 507.0)">t</text><text xml:space="preserve" font-family="SourceCodePro-Regular" font-size="59.0" fill="#A3B0B0" transform="matrix(1.00, 0.00, -0.00, -1.00, 358.0, 507.0)">(</text><text xml:space="preserve" font-family="SourceCodePro-Regular" font-size="59.0" fill="#A3B0B0" transform="matrix(1.00, 0.00, -0.00, -1.00, 393.4, 507.0)">{</text><text xml:space="preserve" font-family="SourceCodePro-Regular" font-size="59.0" fill="#000000" transform="matrix(1.00, 0.00, -0.00, -1.00, 428.8, 507.0)"> </text><text xml:space="preserve" font-family="SourceCodePro-Regular" font-size="59.0" fill="#94A4A6" transform="matrix(1.00, 0.00, -0.00, -1.00, 181.0, 433.0)"> </text><text xml:space="preserve" font-family="SourceCodePro-Regular" font-size="59.0" fill="#94A4A6" transform="matrix(1.00, 0.00, -0.00, -1.00, 216.4, 433.0)"> </text><text xml:space="preserve" font-family="SourceCodePro-Regular" font-size="59.0" fill="#94A4A6" transform="matrix(1.00, 0.00, -0.00, -1.00, 251.8, 433.0)">u</text><text xml:space="preserve" font-family="SourceCodePro-Regular" font-size="59.0" fill="#94A4A6" transform="matrix(1.00, 0.00, -0.00, -1.00, 287.2, 433.0)">r</text><text xml:space="preserve" font-family="SourceCodePro-Regular" font-size="59.0" fill="#94A4A6" transform="matrix(1.00, 0.00, -0.00, -1.00, 322.6, 433.0)">l</text><text xml:space="preserve" font-family="SourceCodePro-Regular" font-size="59.0" fill="#A3B0B0" transform="matrix(1.00, 0.00, -0.00, -1.00, 358.0, 433.0)">:</text><text xml:space="preserve" font-family="SourceCodePro-Regular" font-size="59.0" fill="#000000" transform="matrix(1.00, 0.00, -0.00, -1.00, 393.4, 433.0)"> </text><text xml:space="preserve" font-family="SourceCodePro-Regular" font-size="59.0" fill="#E5493C" transform="matrix(1.00, 0.00, -0.00, -1.00, 428.8, 433.0)">'</text><text xml:space="preserve" font-family="SourceCodePro-Regular" font-size="59.0" fill="#E5493C" transform="matrix(1.00, 0.00, -0.00, -1.00, 464.2, 433.0)">h</text><text xml:space="preserve" font-family="SourceCodePro-Regular" font-size="59.0" fill="#E5493C" transform="matrix(1.00, 0.00, -0.00, -1.00, 499.6, 433.0)">t</text><text xml:space="preserve" font-family="SourceCodePro-Regular" font-size="59.0" fill="#E5493C" transform="matrix(1.00, 0.00, -0.00, -1.00, 535.0, 433.0)">t</text><text xml:space="preserve" font-family="SourceCodePro-Regular" font-size="59.0" fill="#E5493C" transform="matrix(1.00, 0.00, -0.00, -1.00, 570.4, 433.0)">p</text><text xml:space="preserve" font-family="SourceCodePro-Regular" font-size="59.0" fill="#E5493C" transform="matrix(1.00, 0.00, -0.00, -1.00, 605.8, 433.0)">s</text><text xml:space="preserve" font-family="SourceCodePro-Regular" font-size="59.0" fill="#E5493C" transform="matrix(1.00, 0.00, -0.00, -1.00, 641.2, 433.0)">:</text><text xml:space="preserve" font-family="SourceCodePro-Regular" font-size="59.0" fill="#E5493C" transform="matrix(1.00, 0.00, -0.00, -1.00, 676.6, 433.0)">/</text><text xml:space="preserve" font-family="SourceCodePro-Regular" font-size="59.0" fill="#E5493C" transform="matrix(1.00, 0.00, -0.00, -1.00, 712.0, 433.0)">/</text><text xml:space="preserve" font-family="SourceCodePro-Regular" font-size="59.0" fill="#E5493C" transform="matrix(1.00, 0.00, -0.00, -1.00, 747.4, 433.0)">m</text><text xml:space="preserve" font-family="SourceCodePro-Regular" font-size="59.0" fill="#E5493C" transform="matrix(1.00, 0.00, -0.00, -1.00, 782.8, 433.0)">u</text><text xml:space="preserve" font-family="SourceCodePro-Regular" font-size="59.0" fill="#E5493C" transform="matrix(1.00, 0.00, -0.00, -1.00, 818.2, 433.0)">t</text><text xml:space="preserve" font-family="SourceCodePro-Regular" font-size="59.0" fill="#E5493C" transform="matrix(1.00, 0.00, -0.00, -1.00, 853.6, 433.0)">a</text><text xml:space="preserve" font-family="SourceCodePro-Regular" font-size="59.0" fill="#E5493C" transform="matrix(1.00, 0.00, -0.00, -1.00, 889.0, 433.0)">n</text><text xml:space="preserve" font-family="SourceCodePro-Regular" font-size="59.0" fill="#E5493C" transform="matrix(1.00, 0.00, -0.00, -1.00, 924.4, 433.0)">t</text><text xml:space="preserve" font-family="SourceCodePro-Regular" font-size="59.0" fill="#E5493C" transform="matrix(1.00, 0.00, -0.00, -1.00, 959.8, 433.0)">-</text><text xml:space="preserve" font-family="SourceCodePro-Regular" font-size="59.0" fill="#E5493C" transform="matrix(1.00, 0.00, -0.00, -1.00, 995.2, 433.0)">s</text><text xml:space="preserve" font-family="SourceCodePro-Regular" font-size="59.0" fill="#E5493C" transform="matrix(1.00, 0.00, -0.00, -1.00, 1030.6, 433.0)">c</text><text xml:space="preserve" font-family="SourceCodePro-Regular" font-size="59.0" fill="#E5493C" transform="matrix(1.00, 0.00, -0.00, -1.00, 1066.0, 433.0)">h</text><text xml:space="preserve" font-family="SourceCodePro-Regular" font-size="59.0" fill="#E5493C" transform="matrix(1.00, 0.00, -0.00, -1.00, 1101.4, 433.0)">o</text><text xml:space="preserve" font-family="SourceCodePro-Regular" font-size="59.0" fill="#E5493C" transform="matrix(1.00, 0.00, -0.00, -1.00, 1136.8, 433.0)">o</text><text xml:space="preserve" font-family="SourceCodePro-Regular" font-size="59.0" fill="#E5493C" transform="matrix(1.00, 0.00, -0.00, -1.00, 1172.2, 433.0)">l</text><text xml:space="preserve" font-family="SourceCodePro-Regular" font-size="59.0" fill="#E5493C" transform="matrix(1.00, 0.00, -0.00, -1.00, 1207.6, 433.0)">.</text><text xml:space="preserve" font-family="SourceCodePro-Regular" font-size="59.0" fill="#E5493C" transform="matrix(1.00, 0.00, -0.00, -1.00, 1243.0, 433.0)">.</text><text xml:space="preserve" font-family="SourceCodePro-Regular" font-size="59.0" fill="#E5493C" transform="matrix(1.00, 0.00, -0.00, -1.00, 1278.4, 433.0)">.</text><text xml:space="preserve" font-family="SourceCodePro-Regular" font-size="59.0" fill="#E5493C" transform="matrix(1.00, 0.00, -0.00, -1.00, 1313.8, 433.0)">m</text><text xml:space="preserve" font-family="SourceCodePro-Regular" font-size="59.0" fill="#E5493C" transform="matrix(1.00, 0.00, -0.00, -1.00, 1349.2, 433.0)">u</text><text xml:space="preserve" font-family="SourceCodePro-Regular" font-size="59.0" fill="#E5493C" transform="matrix(1.00, 0.00, -0.00, -1.00, 1384.6, 433.0)">t</text><text xml:space="preserve" font-family="SourceCodePro-Regular" font-size="59.0" fill="#E5493C" transform="matrix(1.00, 0.00, -0.00, -1.00, 1420.0, 433.0)">a</text><text xml:space="preserve" font-family="SourceCodePro-Regular" font-size="59.0" fill="#E5493C" transform="matrix(1.00, 0.00, -0.00, -1.00, 1455.4, 433.0)">n</text><text xml:space="preserve" font-family="SourceCodePro-Regular" font-size="59.0" fill="#E5493C" transform="matrix(1.00, 0.00, -0.00, -1.00, 1490.8, 433.0)">t</text><text xml:space="preserve" font-family="SourceCodePro-Regular" font-size="59.0" fill="#E5493C" transform="matrix(1.00, 0.00, -0.00, -1.00, 1526.2, 433.0)">s</text><text xml:space="preserve" font-family="SourceCodePro-Regular" font-size="59.0" fill="#E5493C" transform="matrix(1.00, 0.00, -0.00, -1.00, 1561.6, 433.0)">'</text><text xml:space="preserve" font-family="SourceCodePro-Regular" font-size="59.0" fill="#A3B0B0" transform="matrix(1.00, 0.00, -0.00, -1.00, 1597.0, 433.0)">,</text><text xml:space="preserve" font-family="SourceCodePro-Regular" font-size="59.0" fill="#000000" transform="matrix(1.00, 0.00, -0.00, -1.00, 1632.4, 433.0)"> </text><text xml:space="preserve" font-family="SourceCodePro-Regular" font-size="59.0" fill="#94A4A6" transform="matrix(1.00, 0.00, -0.00, -1.00, 181.0, 359.0)"> </text><text xml:space="preserve" font-family="SourceCodePro-Regular" font-size="59.0" fill="#94A4A6" transform="matrix(1.00, 0.00, -0.00, -1.00, 216.4, 359.0)"> </text><text xml:space="preserve" font-family="SourceCodePro-Regular" font-size="59.0" fill="#94A4A6" transform="matrix(1.00, 0.00, -0.00, -1.00, 251.8, 359.0)">s</text><text xml:space="preserve" font-family="SourceCodePro-Regular" font-size="59.0" fill="#94A4A6" transform="matrix(1.00, 0.00, -0.00, -1.00, 287.2, 359.0)">u</text><text xml:space="preserve" font-family="SourceCodePro-Regular" font-size="59.0" fill="#94A4A6" transform="matrix(1.00, 0.00, -0.00, -1.00, 322.6, 359.0)">c</text><text xml:space="preserve" font-family="SourceCodePro-Regular" font-size="59.0" fill="#94A4A6" transform="matrix(1.00, 0.00, -0.00, -1.00, 358.0, 359.0)">c</text><text xml:space="preserve" font-family="SourceCodePro-Regular" font-size="59.0" fill="#94A4A6" transform="matrix(1.00, 0.00, -0.00, -1.00, 393.4, 359.0)">e</text><text xml:space="preserve" font-family="SourceCodePro-Regular" font-size="59.0" fill="#94A4A6" transform="matrix(1.00, 0.00, -0.00, -1.00, 428.8, 359.0)">s</text><text xml:space="preserve" font-family="SourceCodePro-Regular" font-size="59.0" fill="#94A4A6" transform="matrix(1.00, 0.00, -0.00, -1.00, 464.2, 359.0)">s</text><text xml:space="preserve" font-family="SourceCodePro-Regular" font-size="59.0" fill="#A3B0B0" transform="matrix(1.00, 0.00, -0.00, -1.00, 499.6, 359.0)">:</text><text xml:space="preserve" font-family="SourceCodePro-Regular" font-size="59.0" fill="#000000" transform="matrix(1.00, 0.00, -0.00, -1.00, 535.0, 359.0)"> </text><text xml:space="preserve" font-family="SourceCodePro-Regular" font-size="59.0" fill="#94A4A6" transform="matrix(1.00, 0.00, -0.00, -1.00, 570.4, 359.0)">d</text><text xml:space="preserve" font-family="SourceCodePro-Regular" font-size="59.0" fill="#94A4A6" transform="matrix(1.00, 0.00, -0.00, -1.00, 605.8, 359.0)">o</text><text xml:space="preserve" font-family="SourceCodePro-Regular" font-size="59.0" fill="#94A4A6" transform="matrix(1.00, 0.00, -0.00, -1.00, 641.2, 359.0)">T</text><text xml:space="preserve" font-family="SourceCodePro-Regular" font-size="59.0" fill="#94A4A6" transform="matrix(1.00, 0.00, -0.00, -1.00, 676.6, 359.0)">h</text><text xml:space="preserve" font-family="SourceCodePro-Regular" font-size="59.0" fill="#94A4A6" transform="matrix(1.00, 0.00, -0.00, -1.00, 712.0, 359.0)">e</text><text xml:space="preserve" font-family="SourceCodePro-Regular" font-size="59.0" fill="#94A4A6" transform="matrix(1.00, 0.00, -0.00, -1.00, 747.4, 359.0)">T</text><text xml:space="preserve" font-family="SourceCodePro-Regular" font-size="59.0" fill="#94A4A6" transform="matrix(1.00, 0.00, -0.00, -1.00, 782.8, 359.0)">h</text><text xml:space="preserve" font-family="SourceCodePro-Regular" font-size="59.0" fill="#94A4A6" transform="matrix(1.00, 0.00, -0.00, -1.00, 818.2, 359.0)">i</text><text xml:space="preserve" font-family="SourceCodePro-Regular" font-size="59.0" fill="#94A4A6" transform="matrix(1.00, 0.00, -0.00, -1.00, 853.6, 359.0)">n</text><text xml:space="preserve" font-family="SourceCodePro-Regular" font-size="59.0" fill="#94A4A6" transform="matrix(1.00, 0.00, -0.00, -1.00, 889.0, 359.0)">g</text><text xml:space="preserve" font-family="SourceCodePro-Regular" font-size="59.0" fill="#000000" transform="matrix(1.00, 0.00, -0.00, -1.00, 924.4, 359.0)"> </text><text xml:space="preserve" font-family="SourceCodePro-Regular" font-size="59.0" fill="#A3B0B0" transform="matrix(1.00, 0.00, -0.00, -1.00, 181.0, 285.0)">}</text><text xml:space="preserve" font-family="SourceCodePro-Regular" font-size="59.0" fill="#A3B0B0" transform="matrix(1.00, 0.00, -0.00, -1.00, 216.4, 285.0)">)</text><text xml:space="preserve" font-family="SourceCodePro-Regular" font-size="59.0" fill="#A3B0B0" transform="matrix(1.00, 0.00, -0.00, -1.00, 251.8, 285.0)">;</text></g></svg>