<?xml version="1.0" encoding="UTF-8" standalone="no"?><svg xmlns="http://www.w3.org/2000/svg" xmlns:xlink="http://www.w3.org/1999/xlink" clip-rule="evenodd" stroke-miterlimit="4.00" viewBox="0 0 1920 1080"><desc>SVG generated by Keynote</desc><defs></defs><g transform="matrix(1.00, 0.00, -0.00, -1.00, 0.0, 1080.0)"><path d="M 0.0 1080.0 L 1920.0 1080.0 L 1920.0 0.0 L 0.0 0.0 Z M 0.0 1080.0 " fill="#000000"></path><text xml:space="preserve" font-family="SourceCodePro-Regular" font-size="93.0" fill="#FEFFFF" transform="matrix(1.00, 0.00, -0.00, -1.00, 95.0, 507.0)">M</text><text xml:space="preserve" font-family="SourceCodePro-Regular" font-size="93.0" fill="#FEFFFF" transform="matrix(1.00, 0.00, -0.00, -1.00, 150.8, 507.0)">o</text><text xml:space="preserve" font-family="SourceCodePro-Regular" font-size="93.0" fill="#FEFFFF" transform="matrix(1.00, 0.00, -0.00, -1.00, 206.6, 507.0)">z</text><text xml:space="preserve" font-family="SourceCodePro-Regular" font-size="93.0" fill="#FEFFFF" transform="matrix(1.00, 0.00, -0.00, -1.00, 262.4, 507.0)">i</text><text xml:space="preserve" font-family="SourceCodePro-Regular" font-size="93.0" fill="#FEFFFF" transform="matrix(1.00, 0.00, -0.00, -1.00, 318.2, 507.0)">l</text><text xml:space="preserve" font-family="SourceCodePro-Regular" font-size="93.0" fill="#FEFFFF" transform="matrix(1.00, 0.00, -0.00, -1.00, 374.0, 507.0)">l</text><text xml:space="preserve" font-family="SourceCodePro-Regular" font-size="93.0" fill="#FEFFFF" transform="matrix(1.00, 0.00, -0.00, -1.00, 429.8, 507.0)">a</text><text xml:space="preserve" font-family="SourceCodePro-Regular" font-size="93.0" fill="#FEFFFF" transform="matrix(1.00, 0.00, -0.00, -1.00, 485.6, 507.0)">/</text><text xml:space="preserve" font-family="SourceCodePro-Regular" font-size="93.0" fill="#FEFFFF" transform="matrix(1.00, 0.00, -0.00, -1.00, 541.4, 507.0)">1</text><text xml:space="preserve" font-family="SourceCodePro-Regular" font-size="93.0" fill="#FEFFFF" transform="matrix(1.00, 0.00, -0.00, -1.00, 597.2, 507.0)">.</text><text xml:space="preserve" font-family="SourceCodePro-Regular" font-size="93.0" fill="#FEFFFF" transform="matrix(1.00, 0.00, -0.00, -1.00, 653.0, 507.0)">0</text><text xml:space="preserve" font-family="SourceCodePro-Regular" font-size="93.0" fill="#FEFFFF" transform="matrix(1.00, 0.00, -0.00, -1.00, 708.8, 507.0)"> </text><text xml:space="preserve" font-family="SourceCodePro-Regular" font-size="93.0" fill="#FEFFFF" transform="matrix(1.00, 0.00, -0.00, -1.00, 764.6, 507.0)">(</text><text xml:space="preserve" font-family="SourceCodePro-Regular" font-size="93.0" fill="#FEFFFF" transform="matrix(1.00, 0.00, -0.00, -1.00, 820.4, 507.0)">M</text><text xml:space="preserve" font-family="SourceCodePro-Regular" font-size="93.0" fill="#FEFFFF" transform="matrix(1.00, 0.00, -0.00, -1.00, 876.2, 507.0)">a</text><text xml:space="preserve" font-family="SourceCodePro-Regular" font-size="93.0" fill="#FEFFFF" transform="matrix(1.00, 0.00, -0.00, -1.00, 932.0, 507.0)">c</text><text xml:space="preserve" font-family="SourceCodePro-Regular" font-size="93.0" fill="#FEFFFF" transform="matrix(1.00, 0.00, -0.00, -1.00, 987.8, 507.0)">i</text><text xml:space="preserve" font-family="SourceCodePro-Regular" font-size="93.0" fill="#FEFFFF" transform="matrix(1.00, 0.00, -0.00, -1.00, 1043.6, 507.0)">n</text><text xml:space="preserve" font-family="SourceCodePro-Regular" font-size="93.0" fill="#FEFFFF" transform="matrix(1.00, 0.00, -0.00, -1.00, 1099.4, 507.0)">t</text><text xml:space="preserve" font-family="SourceCodePro-Regular" font-size="93.0" fill="#FEFFFF" transform="matrix(1.00, 0.00, -0.00, -1.00, 1155.2, 507.0)">o</text><text xml:space="preserve" font-family="SourceCodePro-Regular" font-size="93.0" fill="#FEFFFF" transform="matrix(1.00, 0.00, -0.00, -1.00, 1211.0, 507.0)">s</text><text xml:space="preserve" font-family="SourceCodePro-Regular" font-size="93.0" fill="#FEFFFF" transform="matrix(1.00, 0.00, -0.00, -1.00, 1266.8, 507.0)">h</text><text xml:space="preserve" font-family="SourceCodePro-Regular" font-size="93.0" fill="#FEFFFF" transform="matrix(1.00, 0.00, -0.00, -1.00, 1322.6, 507.0)">;</text><text xml:space="preserve" font-family="SourceCodePro-Regular" font-size="93.0" fill="#FEFFFF" transform="matrix(1.00, 0.00, -0.00, -1.00, 1378.4, 507.0)"> </text><text xml:space="preserve" font-family="SourceCodePro-Regular" font-size="93.0" fill="#FEFFFF" transform="matrix(1.00, 0.00, -0.00, -1.00, 1434.2, 507.0)">I</text><text xml:space="preserve" font-family="SourceCodePro-Regular" font-size="93.0" fill="#FEFFFF" transform="matrix(1.00, 0.00, -0.00, -1.00, 1490.0, 507.0)">;</text><text xml:space="preserve" font-family="SourceCodePro-Regular" font-size="93.0" fill="#FEFFFF" transform="matrix(1.00, 0.00, -0.00, -1.00, 1545.8, 507.0)"> </text><text xml:space="preserve" font-family="SourceCodePro-Regular" font-size="93.0" fill="#FEFFFF" transform="matrix(1.00, 0.00, -0.00, -1.00, 1601.6, 507.0)">6</text><text xml:space="preserve" font-family="SourceCodePro-Regular" font-size="93.0" fill="#FEFFFF" transform="matrix(1.00, 0.00, -0.00, -1.00, 1657.4, 507.0)">8</text><text xml:space="preserve" font-family="SourceCodePro-Regular" font-size="93.0" fill="#FEFFFF" transform="matrix(1.00, 0.00, -0.00, -1.00, 1713.2, 507.0)">K</text><text xml:space="preserve" font-family="SourceCodePro-Regular" font-size="93.0" fill="#FEFFFF" transform="matrix(1.00, 0.00, -0.00, -1.00, 1769.0, 507.0)">)</text></g></svg>