<?xml version="1.0" encoding="UTF-8" standalone="no"?><svg xmlns="http://www.w3.org/2000/svg" xmlns:xlink="http://www.w3.org/1999/xlink" clip-rule="evenodd" stroke-miterlimit="4.00" viewBox="0 0 378 98"><desc>SVG generated by Keynote</desc><defs></defs><g transform="matrix(1.00, 0.00, -0.00, -1.00, 0.0, 98.0)"><text xml:space="preserve" font-family="Helvetica-Light" font-size="21.0" fill="#FEFFFF" transform="matrix(1.00, 0.00, -0.00, -1.00, 0.0, 78.3)">•</text><text xml:space="preserve" font-family="Helvetica-Light" font-size="28.0" fill="#FEFFFF" transform="matrix(1.00, 0.00, -0.00, -1.00, 27.0, 75.0)">C</text><text xml:space="preserve" font-family="Helvetica-Light" font-size="28.0" fill="#FEFFFF" transform="matrix(1.00, 0.00, -0.00, -1.00, 47.2, 75.0)">a</text><text xml:space="preserve" font-family="Helvetica-Light" font-size="28.0" fill="#FEFFFF" transform="matrix(1.00, 0.00, -0.00, -1.00, 62.8, 75.0)">n</text><text xml:space="preserve" font-family="Helvetica-Light" font-size="28.0" fill="#FEFFFF" transform="matrix(1.00, 0.00, -0.00, -1.00, 78.4, 75.0)"> </text><text xml:space="preserve" font-family="Helvetica-Light" font-size="28.0" fill="#FEFFFF" transform="matrix(1.00, 0.00, -0.00, -1.00, 86.1, 75.0)">b</text><text xml:space="preserve" font-family="Helvetica-Light" font-size="28.0" fill="#FEFFFF" transform="matrix(1.00, 0.00, -0.00, -1.00, 103.2, 75.0)">e</text><text xml:space="preserve" font-family="Helvetica-Light" font-size="28.0" fill="#FEFFFF" transform="matrix(1.00, 0.00, -0.00, -1.00, 118.8, 75.0)"> </text><text xml:space="preserve" font-family="Helvetica-Light" font-size="28.0" fill="#FEFFFF" transform="matrix(1.00, 0.00, -0.00, -1.00, 126.6, 75.0)">v</text><text xml:space="preserve" font-family="Helvetica-Light" font-size="28.0" fill="#FEFFFF" transform="matrix(1.00, 0.00, -0.00, -1.00, 140.6, 75.0)">e</text><text xml:space="preserve" font-family="Helvetica-Light" font-size="28.0" fill="#FEFFFF" transform="matrix(1.00, 0.00, -0.00, -1.00, 156.2, 75.0)">r</text><text xml:space="preserve" font-family="Helvetica-Light" font-size="28.0" fill="#FEFFFF" transform="matrix(1.00, 0.00, -0.00, -1.00, 166.0, 75.0)">y</text><text xml:space="preserve" font-family="Helvetica-Light" font-size="28.0" fill="#FEFFFF" transform="matrix(1.00, 0.00, -0.00, -1.00, 180.0, 75.0)"> </text><text xml:space="preserve" font-family="Helvetica-Light" font-size="28.0" fill="#FEFFFF" transform="matrix(1.00, 0.00, -0.00, -1.00, 187.8, 75.0)">u</text><text xml:space="preserve" font-family="Helvetica-Light" font-size="28.0" fill="#FEFFFF" transform="matrix(1.00, 0.00, -0.00, -1.00, 203.3, 75.0)">n</text><text xml:space="preserve" font-family="Helvetica-Light" font-size="28.0" fill="#FEFFFF" transform="matrix(1.00, 0.00, -0.00, -1.00, 218.9, 75.0)">c</text><text xml:space="preserve" font-family="Helvetica-Light" font-size="28.0" fill="#FEFFFF" transform="matrix(1.00, 0.00, -0.00, -1.00, 234.5, 75.0)">o</text><text xml:space="preserve" font-family="Helvetica-Light" font-size="28.0" fill="#FEFFFF" transform="matrix(1.00, 0.00, -0.00, -1.00, 250.0, 75.0)">m</text><text xml:space="preserve" font-family="Helvetica-Light" font-size="28.0" fill="#FEFFFF" transform="matrix(1.00, 0.00, -0.00, -1.00, 273.4, 75.0)">f</text><text xml:space="preserve" font-family="Helvetica-Light" font-size="28.0" fill="#FEFFFF" transform="matrix(1.00, 0.00, -0.00, -1.00, 281.2, 75.0)">o</text><text xml:space="preserve" font-family="Helvetica-Light" font-size="28.0" fill="#FEFFFF" transform="matrix(1.00, 0.00, -0.00, -1.00, 296.7, 75.0)">r</text><text xml:space="preserve" font-family="Helvetica-Light" font-size="28.0" fill="#FEFFFF" transform="matrix(1.00, 0.00, -0.00, -1.00, 306.6, 75.0)">t</text><text xml:space="preserve" font-family="Helvetica-Light" font-size="28.0" fill="#FEFFFF" transform="matrix(1.00, 0.00, -0.00, -1.00, 314.3, 75.0)">a</text><text xml:space="preserve" font-family="Helvetica-Light" font-size="28.0" fill="#FEFFFF" transform="matrix(1.00, 0.00, -0.00, -1.00, 329.9, 75.0)">b</text><text xml:space="preserve" font-family="Helvetica-Light" font-size="28.0" fill="#FEFFFF" transform="matrix(1.00, 0.00, -0.00, -1.00, 347.0, 75.0)">l</text><text xml:space="preserve" font-family="Helvetica-Light" font-size="28.0" fill="#FEFFFF" transform="matrix(1.00, 0.00, -0.00, -1.00, 353.2, 75.0)">e</text><text xml:space="preserve" font-family="Helvetica-Light" font-size="28.0" fill="#FEFFFF" transform="matrix(1.00, 0.00, -0.00, -1.00, 368.8, 75.0)">,</text><text xml:space="preserve" font-family="Helvetica-Light" font-size="28.0" fill="#FEFFFF" transform="matrix(1.00, 0.00, -0.00, -1.00, 376.6, 75.0)"> </text><text xml:space="preserve" font-family="Helvetica-Light" font-size="28.0" fill="#FEFFFF" transform="matrix(1.00, 0.00, -0.00, -1.00, 27.0, 41.0)">b</text><text xml:space="preserve" font-family="Helvetica-Light" font-size="28.0" fill="#FEFFFF" transform="matrix(1.00, 0.00, -0.00, -1.00, 44.1, 41.0)">u</text><text xml:space="preserve" font-family="Helvetica-Light" font-size="28.0" fill="#FEFFFF" transform="matrix(1.00, 0.00, -0.00, -1.00, 59.7, 41.0)">t</text><text xml:space="preserve" font-family="Helvetica-Light" font-size="28.0" fill="#FEFFFF" transform="matrix(1.00, 0.00, -0.00, -1.00, 67.5, 41.0)"> </text><text xml:space="preserve" font-family="Helvetica-Light" font-size="28.0" fill="#FEFFFF" transform="matrix(1.00, 0.00, -0.00, -1.00, 75.2, 41.0)">t</text><text xml:space="preserve" font-family="Helvetica-Light" font-size="28.0" fill="#FEFFFF" transform="matrix(1.00, 0.00, -0.00, -1.00, 83.0, 41.0)">h</text><text xml:space="preserve" font-family="Helvetica-Light" font-size="28.0" fill="#FEFFFF" transform="matrix(1.00, 0.00, -0.00, -1.00, 98.6, 41.0)">i</text><text xml:space="preserve" font-family="Helvetica-Light" font-size="28.0" fill="#FEFFFF" transform="matrix(1.00, 0.00, -0.00, -1.00, 104.8, 41.0)">s</text><text xml:space="preserve" font-family="Helvetica-Light" font-size="28.0" fill="#FEFFFF" transform="matrix(1.00, 0.00, -0.00, -1.00, 118.8, 41.0)"> </text><text xml:space="preserve" font-family="Helvetica-Light" font-size="28.0" fill="#FEFFFF" transform="matrix(1.00, 0.00, -0.00, -1.00, 126.6, 41.0)">i</text><text xml:space="preserve" font-family="Helvetica-Light" font-size="28.0" fill="#FEFFFF" transform="matrix(1.00, 0.00, -0.00, -1.00, 132.8, 41.0)">s</text><text xml:space="preserve" font-family="Helvetica-Light" font-size="28.0" fill="#FEFFFF" transform="matrix(1.00, 0.00, -0.00, -1.00, 146.8, 41.0)"> </text><text xml:space="preserve" font-family="Helvetica-Light" font-size="28.0" fill="#FEFFFF" transform="matrix(1.00, 0.00, -0.00, -1.00, 154.6, 41.0)">w</text><text xml:space="preserve" font-family="Helvetica-Light" font-size="28.0" fill="#FEFFFF" transform="matrix(1.00, 0.00, -0.00, -1.00, 174.8, 41.0)">h</text><text xml:space="preserve" font-family="Helvetica-Light" font-size="28.0" fill="#FEFFFF" transform="matrix(1.00, 0.00, -0.00, -1.00, 190.4, 41.0)">e</text><text xml:space="preserve" font-family="Helvetica-Light" font-size="28.0" fill="#FEFFFF" transform="matrix(1.00, 0.00, -0.00, -1.00, 205.9, 41.0)">r</text><text xml:space="preserve" font-family="Helvetica-Light" font-size="28.0" fill="#FEFFFF" transform="matrix(1.00, 0.00, -0.00, -1.00, 214.8, 41.0)">e</text><text xml:space="preserve" font-family="Helvetica-Light" font-size="28.0" fill="#FEFFFF" transform="matrix(1.00, 0.00, -0.00, -1.00, 230.3, 41.0)"> </text><text xml:space="preserve" font-family="Helvetica-Light" font-size="28.0" fill="#FEFFFF" transform="matrix(1.00, 0.00, -0.00, -1.00, 238.1, 41.0)">g</text><text xml:space="preserve" font-family="Helvetica-Light" font-size="28.0" fill="#FEFFFF" transform="matrix(1.00, 0.00, -0.00, -1.00, 255.2, 41.0)">r</text><text xml:space="preserve" font-family="Helvetica-Light" font-size="28.0" fill="#FEFFFF" transform="matrix(1.00, 0.00, -0.00, -1.00, 264.0, 41.0)">o</text><text xml:space="preserve" font-family="Helvetica-Light" font-size="28.0" fill="#FEFFFF" transform="matrix(1.00, 0.00, -0.00, -1.00, 279.6, 41.0)">w</text><text xml:space="preserve" font-family="Helvetica-Light" font-size="28.0" fill="#FEFFFF" transform="matrix(1.00, 0.00, -0.00, -1.00, 299.8, 41.0)">t</text><text xml:space="preserve" font-family="Helvetica-Light" font-size="28.0" fill="#FEFFFF" transform="matrix(1.00, 0.00, -0.00, -1.00, 307.6, 41.0)">h</text><text xml:space="preserve" font-family="Helvetica-Light" font-size="28.0" fill="#FEFFFF" transform="matrix(1.00, 0.00, -0.00, -1.00, 323.2, 41.0)"> </text><text xml:space="preserve" font-family="Helvetica-Light" font-size="28.0" fill="#FEFFFF" transform="matrix(1.00, 0.00, -0.00, -1.00, 27.0, 7.0)">h</text><text xml:space="preserve" font-family="Helvetica-Light" font-size="28.0" fill="#FEFFFF" transform="matrix(1.00, 0.00, -0.00, -1.00, 42.6, 7.0)">a</text><text xml:space="preserve" font-family="Helvetica-Light" font-size="28.0" fill="#FEFFFF" transform="matrix(1.00, 0.00, -0.00, -1.00, 58.1, 7.0)">p</text><text xml:space="preserve" font-family="Helvetica-Light" font-size="28.0" fill="#FEFFFF" transform="matrix(1.00, 0.00, -0.00, -1.00, 75.2, 7.0)">p</text><text xml:space="preserve" font-family="Helvetica-Light" font-size="28.0" fill="#FEFFFF" transform="matrix(1.00, 0.00, -0.00, -1.00, 92.4, 7.0)">e</text><text xml:space="preserve" font-family="Helvetica-Light" font-size="28.0" fill="#FEFFFF" transform="matrix(1.00, 0.00, -0.00, -1.00, 107.9, 7.0)">n</text><text xml:space="preserve" font-family="Helvetica-Light" font-size="28.0" fill="#FEFFFF" transform="matrix(1.00, 0.00, -0.00, -1.00, 123.5, 7.0)">s</text></g></svg>