<?xml version="1.0" encoding="UTF-8" standalone="no"?><svg xmlns="http://www.w3.org/2000/svg" xmlns:xlink="http://www.w3.org/1999/xlink" clip-rule="evenodd" stroke-miterlimit="4.00" viewBox="0 0 1920 1080"><desc>SVG generated by Keynote</desc><defs></defs><g transform="matrix(1.00, 0.00, -0.00, -1.00, 0.0, 1080.0)"><path d="M 0.0 1080.0 L 1920.0 1080.0 L 1920.0 0.0 L 0.0 0.0 Z M 0.0 1080.0 " fill="#FEFFFE"></path><text xml:space="preserve" font-family="CourierNewPSMT" font-size="116.0" fill="#94A4A6" transform="matrix(1.00, 0.00, -0.00, -1.00, 194.0, 509.0)">J</text><text xml:space="preserve" font-family="CourierNewPSMT" font-size="116.0" fill="#94A4A6" transform="matrix(1.00, 0.00, -0.00, -1.00, 263.6, 509.0)">S</text><text xml:space="preserve" font-family="CourierNewPSMT" font-size="116.0" fill="#94A4A6" transform="matrix(1.00, 0.00, -0.00, -1.00, 333.2, 509.0)">O</text><text xml:space="preserve" font-family="CourierNewPSMT" font-size="116.0" fill="#94A4A6" transform="matrix(1.00, 0.00, -0.00, -1.00, 402.9, 509.0)">N</text><text xml:space="preserve" font-family="CourierNewPSMT" font-size="116.0" fill="#A3B0B0" transform="matrix(1.00, 0.00, -0.00, -1.00, 472.4, 509.0)">.</text><text xml:space="preserve" font-family="CourierNewPSMT" font-size="116.0" fill="#A3B0B0" transform="matrix(1.00, 0.00, -0.00, -1.00, 542.1, 509.0)">s</text><text xml:space="preserve" font-family="CourierNewPSMT" font-size="116.0" fill="#A3B0B0" transform="matrix(1.00, 0.00, -0.00, -1.00, 611.7, 509.0)">t</text><text xml:space="preserve" font-family="CourierNewPSMT" font-size="116.0" fill="#A3B0B0" transform="matrix(1.00, 0.00, -0.00, -1.00, 681.3, 509.0)">r</text><text xml:space="preserve" font-family="CourierNewPSMT" font-size="116.0" fill="#A3B0B0" transform="matrix(1.00, 0.00, -0.00, -1.00, 750.9, 509.0)">i</text><text xml:space="preserve" font-family="CourierNewPSMT" font-size="116.0" fill="#A3B0B0" transform="matrix(1.00, 0.00, -0.00, -1.00, 820.6, 509.0)">n</text><text xml:space="preserve" font-family="CourierNewPSMT" font-size="116.0" fill="#A3B0B0" transform="matrix(1.00, 0.00, -0.00, -1.00, 890.2, 509.0)">g</text><text xml:space="preserve" font-family="CourierNewPSMT" font-size="116.0" fill="#A3B0B0" transform="matrix(1.00, 0.00, -0.00, -1.00, 959.8, 509.0)">i</text><text xml:space="preserve" font-family="CourierNewPSMT" font-size="116.0" fill="#A3B0B0" transform="matrix(1.00, 0.00, -0.00, -1.00, 1029.4, 509.0)">f</text><text xml:space="preserve" font-family="CourierNewPSMT" font-size="116.0" fill="#A3B0B0" transform="matrix(1.00, 0.00, -0.00, -1.00, 1099.1, 509.0)">y</text><text xml:space="preserve" font-family="CourierNewPSMT" font-size="116.0" fill="#A3B0B0" transform="matrix(1.00, 0.00, -0.00, -1.00, 1168.7, 509.0)">(</text><text xml:space="preserve" font-family="CourierNewPSMT" font-size="116.0" fill="#94A4A6" transform="matrix(1.00, 0.00, -0.00, -1.00, 1238.2, 509.0)">m</text><text xml:space="preserve" font-family="CourierNewPSMT" font-size="116.0" fill="#94A4A6" transform="matrix(1.00, 0.00, -0.00, -1.00, 1307.8, 509.0)">y</text><text xml:space="preserve" font-family="CourierNewPSMT" font-size="116.0" fill="#94A4A6" transform="matrix(1.00, 0.00, -0.00, -1.00, 1377.4, 509.0)">D</text><text xml:space="preserve" font-family="CourierNewPSMT" font-size="116.0" fill="#94A4A6" transform="matrix(1.00, 0.00, -0.00, -1.00, 1447.0, 509.0)">a</text><text xml:space="preserve" font-family="CourierNewPSMT" font-size="116.0" fill="#94A4A6" transform="matrix(1.00, 0.00, -0.00, -1.00, 1516.7, 509.0)">t</text><text xml:space="preserve" font-family="CourierNewPSMT" font-size="116.0" fill="#94A4A6" transform="matrix(1.00, 0.00, -0.00, -1.00, 1586.3, 509.0)">a</text><text xml:space="preserve" font-family="CourierNewPSMT" font-size="116.0" fill="#A3B0B0" transform="matrix(1.00, 0.00, -0.00, -1.00, 1655.8, 509.0)">)</text><text xml:space="preserve" font-family="HelveticaNeue-Thin" font-size="112.6" fill="#000000" transform="matrix(1.00, 0.00, -0.00, -1.00, 411.0, 860.0)">S</text><text xml:space="preserve" font-family="HelveticaNeue-Thin" font-size="112.6" fill="#000000" transform="matrix(1.00, 0.00, -0.00, -1.00, 481.9, 860.0)">a</text><text xml:space="preserve" font-family="HelveticaNeue-Thin" font-size="112.6" fill="#000000" transform="matrix(1.00, 0.00, -0.00, -1.00, 538.2, 860.0)">v</text><text xml:space="preserve" font-family="HelveticaNeue-Thin" font-size="112.6" fill="#000000" transform="matrix(1.00, 0.00, -0.00, -1.00, 588.2, 860.0)">i</text><text xml:space="preserve" font-family="HelveticaNeue-Thin" font-size="112.6" fill="#000000" transform="matrix(1.00, 0.00, -0.00, -1.00, 607.1, 860.0)">n</text><text xml:space="preserve" font-family="HelveticaNeue-Thin" font-size="112.6" fill="#000000" transform="matrix(1.00, 0.00, -0.00, -1.00, 665.5, 860.0)">g</text><text xml:space="preserve" font-family="HelveticaNeue-Thin" font-size="112.6" fill="#000000" transform="matrix(1.00, 0.00, -0.00, -1.00, 725.9, 860.0)"> </text><text xml:space="preserve" font-family="HelveticaNeue-Thin" font-size="112.6" fill="#000000" transform="matrix(1.00, 0.00, -0.00, -1.00, 757.2, 860.0)">N</text><text xml:space="preserve" font-family="HelveticaNeue-Thin" font-size="112.6" fill="#000000" transform="matrix(1.00, 0.00, -0.00, -1.00, 833.6, 860.0)">o</text><text xml:space="preserve" font-family="HelveticaNeue-Thin" font-size="112.6" fill="#000000" transform="matrix(1.00, 0.00, -0.00, -1.00, 894.0, 860.0)">n</text><text xml:space="preserve" font-family="HelveticaNeue-Thin" font-size="112.6" fill="#000000" transform="matrix(1.00, 0.00, -0.00, -1.00, 952.4, 860.0)">-</text><text xml:space="preserve" font-family="HelveticaNeue-Thin" font-size="112.6" fill="#000000" transform="matrix(1.00, 0.00, -0.00, -1.00, 992.0, 860.0)">S</text><text xml:space="preserve" font-family="HelveticaNeue-Thin" font-size="112.6" fill="#000000" transform="matrix(1.00, 0.00, -0.00, -1.00, 1062.5, 860.0)">t</text><text xml:space="preserve" font-family="HelveticaNeue-Thin" font-size="112.6" fill="#000000" transform="matrix(1.00, 0.00, -0.00, -1.00, 1091.7, 860.0)">r</text><text xml:space="preserve" font-family="HelveticaNeue-Thin" font-size="112.6" fill="#000000" transform="matrix(1.00, 0.00, -0.00, -1.00, 1122.9, 860.0)">i</text><text xml:space="preserve" font-family="HelveticaNeue-Thin" font-size="112.6" fill="#000000" transform="matrix(1.00, 0.00, -0.00, -1.00, 1141.9, 860.0)">n</text><text xml:space="preserve" font-family="HelveticaNeue-Thin" font-size="112.6" fill="#000000" transform="matrix(1.00, 0.00, -0.00, -1.00, 1200.3, 860.0)">g</text><text xml:space="preserve" font-family="HelveticaNeue-Thin" font-size="112.6" fill="#000000" transform="matrix(1.00, 0.00, -0.00, -1.00, 1260.7, 860.0)"> </text><text xml:space="preserve" font-family="HelveticaNeue-Thin" font-size="112.6" fill="#000000" transform="matrix(1.00, 0.00, -0.00, -1.00, 1292.0, 860.0)">D</text><text xml:space="preserve" font-family="HelveticaNeue-Thin" font-size="112.6" fill="#000000" transform="matrix(1.00, 0.00, -0.00, -1.00, 1367.1, 860.0)">a</text><text xml:space="preserve" font-family="HelveticaNeue-Thin" font-size="112.6" fill="#000000" transform="matrix(1.00, 0.00, -0.00, -1.00, 1423.4, 860.0)">t</text><text xml:space="preserve" font-family="HelveticaNeue-Thin" font-size="112.6" fill="#000000" transform="matrix(1.00, 0.00, -0.00, -1.00, 1452.5, 860.0)">a</text></g></svg>