<?xml version="1.0" encoding="UTF-8" standalone="no"?><svg xmlns="http://www.w3.org/2000/svg" xmlns:xlink="http://www.w3.org/1999/xlink" clip-rule="evenodd" stroke-miterlimit="4.00" viewBox="0 0 1920 1080"><desc>SVG generated by Keynote</desc><defs><pattern id="11713F7C-B9D8-456E-97D8-53C63255B704" patternUnits="userSpaceOnUse" width="128" height="128" viewBox="0 0 128 128" patternTransform="matrix(-1.000000, 0.000000, 0.000000, -1.000000, 435.005900, 877.359400)"><image xlink:href="../../C1159B2F-A943-4A0F-9FA6-374A67E20FCF/assets/161283A943846B493D1C05430B672F4B.jpeg" width="128.00" height="128.00"></image></pattern></defs><g transform="matrix(1.00, 0.00, -0.00, -1.00, 0.0, 1080.0)"><path d="M 0.0 1080.0 L 1920.0 1080.0 L 1920.0 0.0 L 0.0 0.0 Z M 0.0 1080.0 " fill="#000000"></path><text xml:space="preserve" font-family="HelveticaNeue-Thin" font-size="191.0" fill="#FEFFFF" transform="matrix(1.00, 0.00, -0.00, -1.00, 219.0, 305.0)">1</text><text xml:space="preserve" font-family="HelveticaNeue-Thin" font-size="191.0" fill="#FEFFFF" transform="matrix(1.00, 0.00, -0.00, -1.00, 325.2, 305.0)">9</text><text xml:space="preserve" font-family="HelveticaNeue-Thin" font-size="191.0" fill="#FEFFFF" transform="matrix(1.00, 0.00, -0.00, -1.00, 431.4, 305.0)">9</text><text xml:space="preserve" font-family="HelveticaNeue-Thin" font-size="191.0" fill="#FEFFFF" transform="matrix(1.00, 0.00, -0.00, -1.00, 537.6, 305.0)">5</text><image xlink:href="../../6197FE91-BED8-4DC2-B56A-33F7983AA672/assets/6C7D128710584A50B85273913BC0E2F9.png" width="375.00" height="500.00" transform="matrix(1.11, 0.00, -0.00, -1.11, 751.0, 993.0)"></image><image xlink:href="../../6197FE91-BED8-4DC2-B56A-33F7983AA672/assets/B8FB145D47C777EDB2FF5664C5DD1E21.jpeg" width="240.00" height="295.00" transform="matrix(2.19, 0.00, -0.00, -2.19, 1284.0, 1037.0)"></image><image xlink:href="../../6197FE91-BED8-4DC2-B56A-33F7983AA672/assets/8AB3DD106A049ED128339770F89B88BD.jpeg" width="400.00" height="527.00" transform="matrix(1.31, 0.00, -0.00, -1.31, 983.0, 735.0)"></image><image xlink:href="../../6197FE91-BED8-4DC2-B56A-33F7983AA672/assets/7F01D112F32F65792B5B18F6EE6F2F23.png" width="224.00" height="96.00" transform="matrix(1.34, 0.00, -0.00, -1.34, 281.0, 260.0)"></image><image xlink:href="../../6197FE91-BED8-4DC2-B56A-33F7983AA672/assets/2DEF0545E722E10FB3460DE8E7354596.jpeg" width="630.00" height="319.00" transform="matrix(1.00, 0.00, -0.00, -1.00, 157.0, 944.0)"></image><g><clipPath id="clip-17"><path d="M 410.0 877.4 C 412.8 877.4 415.0 875.1 415.0 872.4 L 415.0 837.4 L 435.0 827.4 L 415.0 817.4 L 415.0 782.4 C 415.0 779.6 412.8 777.4 410.0 777.4 L 147.1 777.4 C 144.3 777.4 142.1 779.6 142.1 782.4 L 142.1 872.4 C 142.1 875.1 144.3 877.4 147.1 877.4 L 410.0 877.4 Z M 410.0 877.4 "></path></clipPath><g clip-path="url(#clip-17)"><path d="M 435.0 777.4 L 142.1 777.4 L 142.1 877.4 L 435.0 877.4 Z M 435.0 777.4 " fill="url(#11713F7C-B9D8-456E-97D8-53C63255B704)"></path><path d="M 142.1 777.4 L 435.0 777.4 L 435.0 877.4 L 142.1 877.4 Z M 142.1 777.4 " fill="#04599E" fill-opacity="0.85"></path></g></g><text xml:space="preserve" font-family="HelveticaNeue-Light" font-size="50.0" fill="#FEFFFF" transform="matrix(1.00, 0.00, -0.00, -1.00, 195.0, 809.0)">t</text><text xml:space="preserve" font-family="HelveticaNeue-Light" font-size="50.0" fill="#FEFFFF" transform="matrix(1.00, 0.00, -0.00, -1.00, 209.8, 809.0)">h</text><text xml:space="preserve" font-family="HelveticaNeue-Light" font-size="50.0" fill="#FEFFFF" transform="matrix(1.00, 0.00, -0.00, -1.00, 236.7, 809.0)">i</text><text xml:space="preserve" font-family="HelveticaNeue-Light" font-size="50.0" fill="#FEFFFF" transform="matrix(1.00, 0.00, -0.00, -1.00, 245.9, 809.0)">s</text><text xml:space="preserve" font-family="HelveticaNeue-Light" font-size="50.0" fill="#FEFFFF" transform="matrix(1.00, 0.00, -0.00, -1.00, 269.9, 809.0)"> </text><text xml:space="preserve" font-family="HelveticaNeue-Light" font-size="50.0" fill="#FEFFFF" transform="matrix(1.00, 0.00, -0.00, -1.00, 283.9, 809.0)">g</text><text xml:space="preserve" font-family="HelveticaNeue-Light" font-size="50.0" fill="#FEFFFF" transform="matrix(1.00, 0.00, -0.00, -1.00, 311.6, 809.0)">u</text><text xml:space="preserve" font-family="HelveticaNeue-Light" font-size="50.0" fill="#FEFFFF" transform="matrix(1.00, 0.00, -0.00, -1.00, 338.5, 809.0)">y</text></g></svg>