<?xml version="1.0" encoding="UTF-8" standalone="no"?><svg xmlns="http://www.w3.org/2000/svg" xmlns:xlink="http://www.w3.org/1999/xlink" clip-rule="evenodd" stroke-miterlimit="4.00" viewBox="0 0 1920 1080"><desc>SVG generated by Keynote</desc><defs></defs><g transform="matrix(1.00, 0.00, -0.00, -1.00, 0.0, 1080.0)"><path d="M 0.0 1080.0 L 1920.0 1080.0 L 1920.0 0.0 L 0.0 0.0 Z M 0.0 1080.0 " fill="#FEFFFE"></path><path d="M 175.3 614.3 L 1782.0 614.3 L 1782.0 514.3 L 175.3 514.3 Z M 175.3 614.3 " fill="#FEFC78"></path><text xml:space="preserve" font-family="SourceCodePro-Regular" font-size="70.0" fill="#2C9DDA" transform="matrix(1.00, 0.00, -0.00, -1.00, 104.0, 625.0)">1</text><text xml:space="preserve" font-family="SourceCodePro-Regular" font-size="70.0" fill="#2C9DDA" transform="matrix(1.00, 0.00, -0.00, -1.00, 146.0, 625.0)"> </text><text xml:space="preserve" font-family="SourceCodePro-Regular" font-size="70.0" fill="#D6601A" transform="matrix(1.00, 0.00, -0.00, -1.00, 188.0, 625.0)">v</text><text xml:space="preserve" font-family="SourceCodePro-Regular" font-size="70.0" fill="#D6601A" transform="matrix(1.00, 0.00, -0.00, -1.00, 230.0, 625.0)">a</text><text xml:space="preserve" font-family="SourceCodePro-Regular" font-size="70.0" fill="#D6601A" transform="matrix(1.00, 0.00, -0.00, -1.00, 272.0, 625.0)">r</text><text xml:space="preserve" font-family="SourceCodePro-Regular" font-size="70.0" fill="#000000" transform="matrix(1.00, 0.00, -0.00, -1.00, 314.0, 625.0)"> </text><text xml:space="preserve" font-family="SourceCodePro-Regular" font-size="70.0" fill="#94A4A6" transform="matrix(1.00, 0.00, -0.00, -1.00, 356.0, 625.0)">e</text><text xml:space="preserve" font-family="SourceCodePro-Regular" font-size="70.0" fill="#94A4A6" transform="matrix(1.00, 0.00, -0.00, -1.00, 398.0, 625.0)">l</text><text xml:space="preserve" font-family="SourceCodePro-Regular" font-size="70.0" fill="#000000" transform="matrix(1.00, 0.00, -0.00, -1.00, 440.0, 625.0)"> </text><text xml:space="preserve" font-family="SourceCodePro-Regular" font-size="70.0" fill="#A3B0B0" transform="matrix(1.00, 0.00, -0.00, -1.00, 482.0, 625.0)">=</text><text xml:space="preserve" font-family="SourceCodePro-Regular" font-size="70.0" fill="#A3B0B0" transform="matrix(1.00, 0.00, -0.00, -1.00, 524.0, 625.0)"> </text><text xml:space="preserve" font-family="SourceCodePro-Regular" font-size="70.0" fill="#A3B0B0" transform="matrix(1.00, 0.00, -0.00, -1.00, 566.0, 625.0)">$</text><text xml:space="preserve" font-family="SourceCodePro-Regular" font-size="70.0" fill="#A3B0B0" transform="matrix(1.00, 0.00, -0.00, -1.00, 608.0, 625.0)">(</text><text xml:space="preserve" font-family="SourceCodePro-Regular" font-size="70.0" fill="#E5493C" transform="matrix(1.00, 0.00, -0.00, -1.00, 650.0, 625.0)">'</text><text xml:space="preserve" font-family="SourceCodePro-Regular" font-size="70.0" fill="#E5493C" transform="matrix(1.00, 0.00, -0.00, -1.00, 692.0, 625.0)">.</text><text xml:space="preserve" font-family="SourceCodePro-Regular" font-size="70.0" fill="#E5493C" transform="matrix(1.00, 0.00, -0.00, -1.00, 734.0, 625.0)">s</text><text xml:space="preserve" font-family="SourceCodePro-Regular" font-size="70.0" fill="#E5493C" transform="matrix(1.00, 0.00, -0.00, -1.00, 776.0, 625.0)">t</text><text xml:space="preserve" font-family="SourceCodePro-Regular" font-size="70.0" fill="#E5493C" transform="matrix(1.00, 0.00, -0.00, -1.00, 818.0, 625.0)">u</text><text xml:space="preserve" font-family="SourceCodePro-Regular" font-size="70.0" fill="#E5493C" transform="matrix(1.00, 0.00, -0.00, -1.00, 860.0, 625.0)">d</text><text xml:space="preserve" font-family="SourceCodePro-Regular" font-size="70.0" fill="#E5493C" transform="matrix(1.00, 0.00, -0.00, -1.00, 902.0, 625.0)">e</text><text xml:space="preserve" font-family="SourceCodePro-Regular" font-size="70.0" fill="#E5493C" transform="matrix(1.00, 0.00, -0.00, -1.00, 944.0, 625.0)">n</text><text xml:space="preserve" font-family="SourceCodePro-Regular" font-size="70.0" fill="#E5493C" transform="matrix(1.00, 0.00, -0.00, -1.00, 986.0, 625.0)">t</text><text xml:space="preserve" font-family="SourceCodePro-Regular" font-size="70.0" fill="#E5493C" transform="matrix(1.00, 0.00, -0.00, -1.00, 1028.0, 625.0)">'</text><text xml:space="preserve" font-family="SourceCodePro-Regular" font-size="70.0" fill="#A3B0B0" transform="matrix(1.00, 0.00, -0.00, -1.00, 1070.0, 625.0)">)</text><text xml:space="preserve" font-family="SourceCodePro-Regular" font-size="70.0" fill="#A3B0B0" transform="matrix(1.00, 0.00, -0.00, -1.00, 1112.0, 625.0)">;</text><text xml:space="preserve" font-family="SourceCodePro-Regular" font-size="70.0" fill="#000000" transform="matrix(1.00, 0.00, -0.00, -1.00, 1154.0, 625.0)"> </text><text xml:space="preserve" font-family="SourceCodePro-Regular" font-size="70.0" fill="#2C9DDA" transform="matrix(1.00, 0.00, -0.00, -1.00, 104.0, 537.0)">2</text><text xml:space="preserve" font-family="SourceCodePro-Regular" font-size="70.0" fill="#2C9DDA" transform="matrix(1.00, 0.00, -0.00, -1.00, 146.0, 537.0)"> </text><text xml:space="preserve" font-family="SourceCodePro-Regular" font-size="70.0" fill="#94A4A6" transform="matrix(1.00, 0.00, -0.00, -1.00, 188.0, 537.0)">e</text><text xml:space="preserve" font-family="SourceCodePro-Regular" font-size="70.0" fill="#94A4A6" transform="matrix(1.00, 0.00, -0.00, -1.00, 230.0, 537.0)">l</text><text xml:space="preserve" font-family="SourceCodePro-Regular" font-size="70.0" fill="#E5493C" transform="matrix(1.00, 0.00, -0.00, -1.00, 272.0, 537.0)">.</text><text xml:space="preserve" font-family="SourceCodePro-Regular" font-size="70.0" fill="#E5493C" transform="matrix(1.00, 0.00, -0.00, -1.00, 314.0, 537.0)">g</text><text xml:space="preserve" font-family="SourceCodePro-Regular" font-size="70.0" fill="#E5493C" transform="matrix(1.00, 0.00, -0.00, -1.00, 356.0, 537.0)">e</text><text xml:space="preserve" font-family="SourceCodePro-Regular" font-size="70.0" fill="#E5493C" transform="matrix(1.00, 0.00, -0.00, -1.00, 398.0, 537.0)">t</text><text xml:space="preserve" font-family="SourceCodePro-Regular" font-size="70.0" fill="#E5493C" transform="matrix(1.00, 0.00, -0.00, -1.00, 440.0, 537.0)">(</text><text xml:space="preserve" font-family="SourceCodePro-Regular" font-size="70.0" fill="#E5493C" transform="matrix(1.00, 0.00, -0.00, -1.00, 482.0, 537.0)">0</text><text xml:space="preserve" font-family="SourceCodePro-Regular" font-size="70.0" fill="#E5493C" transform="matrix(1.00, 0.00, -0.00, -1.00, 524.0, 537.0)">)</text><text xml:space="preserve" font-family="SourceCodePro-Regular" font-size="70.0" fill="#E5493C" transform="matrix(1.00, 0.00, -0.00, -1.00, 566.0, 537.0)">;</text><text xml:space="preserve" font-family="HelveticaNeue-Thin" font-size="126.0" fill="#000000" transform="matrix(1.00, 0.00, -0.00, -1.00, 599.0, 851.0)">j</text><text xml:space="preserve" font-family="HelveticaNeue-Thin" font-size="126.0" fill="#000000" transform="matrix(1.00, 0.00, -0.00, -1.00, 620.2, 851.0)">Q</text><text xml:space="preserve" font-family="HelveticaNeue-Thin" font-size="126.0" fill="#000000" transform="matrix(1.00, 0.00, -0.00, -1.00, 713.5, 851.0)">u</text><text xml:space="preserve" font-family="HelveticaNeue-Thin" font-size="126.0" fill="#000000" transform="matrix(1.00, 0.00, -0.00, -1.00, 778.9, 851.0)">e</text><text xml:space="preserve" font-family="HelveticaNeue-Thin" font-size="126.0" fill="#000000" transform="matrix(1.00, 0.00, -0.00, -1.00, 844.3, 851.0)">r</text><text xml:space="preserve" font-family="HelveticaNeue-Thin" font-size="126.0" fill="#000000" transform="matrix(1.00, 0.00, -0.00, -1.00, 881.6, 851.0)">y</text><text xml:space="preserve" font-family="HelveticaNeue-Thin" font-size="126.0" fill="#000000" transform="matrix(1.00, 0.00, -0.00, -1.00, 937.6, 851.0)"> </text><text xml:space="preserve" font-family="HelveticaNeue-Thin" font-size="126.0" fill="#000000" transform="matrix(1.00, 0.00, -0.00, -1.00, 972.6, 851.0)">O</text><text xml:space="preserve" font-family="HelveticaNeue-Thin" font-size="126.0" fill="#000000" transform="matrix(1.00, 0.00, -0.00, -1.00, 1066.0, 851.0)">b</text><text xml:space="preserve" font-family="HelveticaNeue-Thin" font-size="126.0" fill="#000000" transform="matrix(1.00, 0.00, -0.00, -1.00, 1136.0, 851.0)">j</text><text xml:space="preserve" font-family="HelveticaNeue-Thin" font-size="126.0" fill="#000000" transform="matrix(1.00, 0.00, -0.00, -1.00, 1157.2, 851.0)">e</text><text xml:space="preserve" font-family="HelveticaNeue-Thin" font-size="126.0" fill="#000000" transform="matrix(1.00, 0.00, -0.00, -1.00, 1222.6, 851.0)">c</text><text xml:space="preserve" font-family="HelveticaNeue-Thin" font-size="126.0" fill="#000000" transform="matrix(1.00, 0.00, -0.00, -1.00, 1288.0, 851.0)">t</text><text xml:space="preserve" font-family="HelveticaNeue-Thin" font-size="84.0" fill="#000000" transform="matrix(1.00, 0.00, -0.00, -1.00, 194.0, 386.0)">g</text><text xml:space="preserve" font-family="HelveticaNeue-Thin" font-size="84.0" fill="#000000" transform="matrix(1.00, 0.00, -0.00, -1.00, 239.1, 386.0)">e</text><text xml:space="preserve" font-family="HelveticaNeue-Thin" font-size="84.0" fill="#000000" transform="matrix(1.00, 0.00, -0.00, -1.00, 282.7, 386.0)">t</text><text xml:space="preserve" font-family="HelveticaNeue-Thin" font-size="84.0" fill="#000000" transform="matrix(1.00, 0.00, -0.00, -1.00, 304.5, 386.0)">s</text><text xml:space="preserve" font-family="HelveticaNeue-Thin" font-size="84.0" fill="#000000" transform="matrix(1.00, 0.00, -0.00, -1.00, 344.9, 386.0)"> </text><text xml:space="preserve" font-family="HelveticaNeue-Thin" font-size="84.0" fill="#000000" transform="matrix(1.00, 0.00, -0.00, -1.00, 368.2, 386.0)">t</text><text xml:space="preserve" font-family="HelveticaNeue-Thin" font-size="84.0" fill="#000000" transform="matrix(1.00, 0.00, -0.00, -1.00, 390.0, 386.0)">h</text><text xml:space="preserve" font-family="HelveticaNeue-Thin" font-size="84.0" fill="#000000" transform="matrix(1.00, 0.00, -0.00, -1.00, 433.6, 386.0)">e</text><text xml:space="preserve" font-family="HelveticaNeue-Thin" font-size="84.0" fill="#000000" transform="matrix(1.00, 0.00, -0.00, -1.00, 477.2, 386.0)"> </text><text xml:space="preserve" font-family="HelveticaNeue-Thin" font-size="84.0" fill="#000000" transform="matrix(1.00, 0.00, -0.00, -1.00, 500.5, 386.0)">ﬁ</text><text xml:space="preserve" font-family="HelveticaNeue-Thin" font-size="84.0" fill="#000000" transform="matrix(1.00, 0.00, -0.00, -1.00, 533.2, 386.0)">r</text><text xml:space="preserve" font-family="HelveticaNeue-Thin" font-size="84.0" fill="#000000" transform="matrix(1.00, 0.00, -0.00, -1.00, 556.5, 386.0)">s</text><text xml:space="preserve" font-family="HelveticaNeue-Thin" font-size="84.0" fill="#000000" transform="matrix(1.00, 0.00, -0.00, -1.00, 596.9, 386.0)">t</text><text xml:space="preserve" font-family="HelveticaNeue-Thin" font-size="84.0" fill="#000000" transform="matrix(1.00, 0.00, -0.00, -1.00, 618.7, 386.0)"> </text><text xml:space="preserve" font-family="HelveticaNeue-Thin" font-size="84.0" fill="#000000" transform="matrix(1.00, 0.00, -0.00, -1.00, 642.1, 386.0)">e</text><text xml:space="preserve" font-family="HelveticaNeue-Thin" font-size="84.0" fill="#000000" transform="matrix(1.00, 0.00, -0.00, -1.00, 685.7, 386.0)">l</text><text xml:space="preserve" font-family="HelveticaNeue-Thin" font-size="84.0" fill="#000000" transform="matrix(1.00, 0.00, -0.00, -1.00, 699.8, 386.0)">e</text><text xml:space="preserve" font-family="HelveticaNeue-Thin" font-size="84.0" fill="#000000" transform="matrix(1.00, 0.00, -0.00, -1.00, 743.4, 386.0)">m</text><text xml:space="preserve" font-family="HelveticaNeue-Thin" font-size="84.0" fill="#000000" transform="matrix(1.00, 0.00, -0.00, -1.00, 810.2, 386.0)">e</text><text xml:space="preserve" font-family="HelveticaNeue-Thin" font-size="84.0" fill="#000000" transform="matrix(1.00, 0.00, -0.00, -1.00, 853.8, 386.0)">n</text><text xml:space="preserve" font-family="HelveticaNeue-Thin" font-size="84.0" fill="#000000" transform="matrix(1.00, 0.00, -0.00, -1.00, 897.4, 386.0)">t</text><text xml:space="preserve" font-family="HelveticaNeue-Thin" font-size="84.0" fill="#000000" transform="matrix(1.00, 0.00, -0.00, -1.00, 919.2, 386.0)"> </text><text xml:space="preserve" font-family="HelveticaNeue-Thin" font-size="84.0" fill="#000000" transform="matrix(1.00, 0.00, -0.00, -1.00, 942.5, 386.0)">a</text><text xml:space="preserve" font-family="HelveticaNeue-Thin" font-size="84.0" fill="#000000" transform="matrix(1.00, 0.00, -0.00, -1.00, 984.5, 386.0)">s</text><text xml:space="preserve" font-family="HelveticaNeue-Thin" font-size="84.0" fill="#000000" transform="matrix(1.00, 0.00, -0.00, -1.00, 1024.9, 386.0)"> </text><text xml:space="preserve" font-family="HelveticaNeue-Thin" font-size="84.0" fill="#000000" transform="matrix(1.00, 0.00, -0.00, -1.00, 1048.3, 386.0)">a</text><text xml:space="preserve" font-family="HelveticaNeue-Thin" font-size="84.0" fill="#000000" transform="matrix(1.00, 0.00, -0.00, -1.00, 1090.3, 386.0)"> </text><text xml:space="preserve" font-family="HelveticaNeue-Thin" font-size="84.0" fill="#000000" transform="matrix(1.00, 0.00, -0.00, -1.00, 1113.6, 386.0)">D</text><text xml:space="preserve" font-family="HelveticaNeue-Thin" font-size="84.0" fill="#000000" transform="matrix(1.00, 0.00, -0.00, -1.00, 1169.7, 386.0)">O</text><text xml:space="preserve" font-family="HelveticaNeue-Thin" font-size="84.0" fill="#000000" transform="matrix(1.00, 0.00, -0.00, -1.00, 1231.9, 386.0)">M</text><text xml:space="preserve" font-family="HelveticaNeue-Thin" font-size="84.0" fill="#000000" transform="matrix(1.00, 0.00, -0.00, -1.00, 1299.9, 386.0)"> </text><text xml:space="preserve" font-family="HelveticaNeue-Thin" font-size="84.0" fill="#000000" transform="matrix(1.00, 0.00, -0.00, -1.00, 1323.2, 386.0)">e</text><text xml:space="preserve" font-family="HelveticaNeue-Thin" font-size="84.0" fill="#000000" transform="matrix(1.00, 0.00, -0.00, -1.00, 1366.8, 386.0)">l</text><text xml:space="preserve" font-family="HelveticaNeue-Thin" font-size="84.0" fill="#000000" transform="matrix(1.00, 0.00, -0.00, -1.00, 1380.9, 386.0)">e</text><text xml:space="preserve" font-family="HelveticaNeue-Thin" font-size="84.0" fill="#000000" transform="matrix(1.00, 0.00, -0.00, -1.00, 1424.5, 386.0)">m</text><text xml:space="preserve" font-family="HelveticaNeue-Thin" font-size="84.0" fill="#000000" transform="matrix(1.00, 0.00, -0.00, -1.00, 1491.4, 386.0)">e</text><text xml:space="preserve" font-family="HelveticaNeue-Thin" font-size="84.0" fill="#000000" transform="matrix(1.00, 0.00, -0.00, -1.00, 1535.0, 386.0)">n</text><text xml:space="preserve" font-family="HelveticaNeue-Thin" font-size="84.0" fill="#000000" transform="matrix(1.00, 0.00, -0.00, -1.00, 1578.6, 386.0)">t</text></g></svg>