<?xml version="1.0" encoding="UTF-8" standalone="no"?><svg xmlns="http://www.w3.org/2000/svg" xmlns:xlink="http://www.w3.org/1999/xlink" clip-rule="evenodd" stroke-miterlimit="4.00" viewBox="0 0 1920 1080"><desc>SVG generated by Keynote</desc><defs></defs><g transform="matrix(1.00, 0.00, -0.00, -1.00, 0.0, 1080.0)"><path d="M 0.0 1080.0 L 1920.0 1080.0 L 1920.0 0.0 L 0.0 0.0 Z M 0.0 1080.0 " fill="#FEFFFE"></path><text xml:space="preserve" font-family="SourceCodePro-Regular" font-size="59.0" fill="#D6601A" transform="matrix(1.00, 0.00, -0.00, -1.00, 234.0, 803.0)">f</text><text xml:space="preserve" font-family="SourceCodePro-Regular" font-size="59.0" fill="#D6601A" transform="matrix(1.00, 0.00, -0.00, -1.00, 269.4, 803.0)">u</text><text xml:space="preserve" font-family="SourceCodePro-Regular" font-size="59.0" fill="#D6601A" transform="matrix(1.00, 0.00, -0.00, -1.00, 304.8, 803.0)">n</text><text xml:space="preserve" font-family="SourceCodePro-Regular" font-size="59.0" fill="#D6601A" transform="matrix(1.00, 0.00, -0.00, -1.00, 340.2, 803.0)">c</text><text xml:space="preserve" font-family="SourceCodePro-Regular" font-size="59.0" fill="#D6601A" transform="matrix(1.00, 0.00, -0.00, -1.00, 375.6, 803.0)">t</text><text xml:space="preserve" font-family="SourceCodePro-Regular" font-size="59.0" fill="#D6601A" transform="matrix(1.00, 0.00, -0.00, -1.00, 411.0, 803.0)">i</text><text xml:space="preserve" font-family="SourceCodePro-Regular" font-size="59.0" fill="#D6601A" transform="matrix(1.00, 0.00, -0.00, -1.00, 446.4, 803.0)">o</text><text xml:space="preserve" font-family="SourceCodePro-Regular" font-size="59.0" fill="#D6601A" transform="matrix(1.00, 0.00, -0.00, -1.00, 481.8, 803.0)">n</text><text xml:space="preserve" font-family="SourceCodePro-Regular" font-size="59.0" fill="#000000" transform="matrix(1.00, 0.00, -0.00, -1.00, 517.2, 803.0)"> </text><text xml:space="preserve" font-family="SourceCodePro-Regular" font-size="59.0" fill="#A3B0B0" transform="matrix(1.00, 0.00, -0.00, -1.00, 552.6, 803.0)">p</text><text xml:space="preserve" font-family="SourceCodePro-Regular" font-size="59.0" fill="#A3B0B0" transform="matrix(1.00, 0.00, -0.00, -1.00, 588.0, 803.0)">r</text><text xml:space="preserve" font-family="SourceCodePro-Regular" font-size="59.0" fill="#A3B0B0" transform="matrix(1.00, 0.00, -0.00, -1.00, 623.4, 803.0)">o</text><text xml:space="preserve" font-family="SourceCodePro-Regular" font-size="59.0" fill="#A3B0B0" transform="matrix(1.00, 0.00, -0.00, -1.00, 658.8, 803.0)">c</text><text xml:space="preserve" font-family="SourceCodePro-Regular" font-size="59.0" fill="#A3B0B0" transform="matrix(1.00, 0.00, -0.00, -1.00, 694.2, 803.0)">e</text><text xml:space="preserve" font-family="SourceCodePro-Regular" font-size="59.0" fill="#A3B0B0" transform="matrix(1.00, 0.00, -0.00, -1.00, 729.6, 803.0)">s</text><text xml:space="preserve" font-family="SourceCodePro-Regular" font-size="59.0" fill="#A3B0B0" transform="matrix(1.00, 0.00, -0.00, -1.00, 765.0, 803.0)">s</text><text xml:space="preserve" font-family="SourceCodePro-Regular" font-size="59.0" fill="#A3B0B0" transform="matrix(1.00, 0.00, -0.00, -1.00, 800.4, 803.0)">M</text><text xml:space="preserve" font-family="SourceCodePro-Regular" font-size="59.0" fill="#A3B0B0" transform="matrix(1.00, 0.00, -0.00, -1.00, 835.8, 803.0)">u</text><text xml:space="preserve" font-family="SourceCodePro-Regular" font-size="59.0" fill="#A3B0B0" transform="matrix(1.00, 0.00, -0.00, -1.00, 871.2, 803.0)">t</text><text xml:space="preserve" font-family="SourceCodePro-Regular" font-size="59.0" fill="#A3B0B0" transform="matrix(1.00, 0.00, -0.00, -1.00, 906.6, 803.0)">a</text><text xml:space="preserve" font-family="SourceCodePro-Regular" font-size="59.0" fill="#A3B0B0" transform="matrix(1.00, 0.00, -0.00, -1.00, 942.0, 803.0)">n</text><text xml:space="preserve" font-family="SourceCodePro-Regular" font-size="59.0" fill="#A3B0B0" transform="matrix(1.00, 0.00, -0.00, -1.00, 977.4, 803.0)">t</text><text xml:space="preserve" font-family="SourceCodePro-Regular" font-size="59.0" fill="#A3B0B0" transform="matrix(1.00, 0.00, -0.00, -1.00, 1012.8, 803.0)">s</text><text xml:space="preserve" font-family="SourceCodePro-Regular" font-size="59.0" fill="#A3B0B0" transform="matrix(1.00, 0.00, -0.00, -1.00, 1048.2, 803.0)">(</text><text xml:space="preserve" font-family="SourceCodePro-Regular" font-size="59.0" fill="#94A4A6" transform="matrix(1.00, 0.00, -0.00, -1.00, 1083.6, 803.0)">a</text><text xml:space="preserve" font-family="SourceCodePro-Regular" font-size="59.0" fill="#94A4A6" transform="matrix(1.00, 0.00, -0.00, -1.00, 1119.0, 803.0)">j</text><text xml:space="preserve" font-family="SourceCodePro-Regular" font-size="59.0" fill="#94A4A6" transform="matrix(1.00, 0.00, -0.00, -1.00, 1154.4, 803.0)">a</text><text xml:space="preserve" font-family="SourceCodePro-Regular" font-size="59.0" fill="#94A4A6" transform="matrix(1.00, 0.00, -0.00, -1.00, 1189.8, 803.0)">x</text><text xml:space="preserve" font-family="SourceCodePro-Regular" font-size="59.0" fill="#94A4A6" transform="matrix(1.00, 0.00, -0.00, -1.00, 1225.2, 803.0)">R</text><text xml:space="preserve" font-family="SourceCodePro-Regular" font-size="59.0" fill="#94A4A6" transform="matrix(1.00, 0.00, -0.00, -1.00, 1260.6, 803.0)">e</text><text xml:space="preserve" font-family="SourceCodePro-Regular" font-size="59.0" fill="#94A4A6" transform="matrix(1.00, 0.00, -0.00, -1.00, 1296.0, 803.0)">s</text><text xml:space="preserve" font-family="SourceCodePro-Regular" font-size="59.0" fill="#94A4A6" transform="matrix(1.00, 0.00, -0.00, -1.00, 1331.4, 803.0)">u</text><text xml:space="preserve" font-family="SourceCodePro-Regular" font-size="59.0" fill="#94A4A6" transform="matrix(1.00, 0.00, -0.00, -1.00, 1366.8, 803.0)">l</text><text xml:space="preserve" font-family="SourceCodePro-Regular" font-size="59.0" fill="#94A4A6" transform="matrix(1.00, 0.00, -0.00, -1.00, 1402.2, 803.0)">t</text><text xml:space="preserve" font-family="SourceCodePro-Regular" font-size="59.0" fill="#94A4A6" transform="matrix(1.00, 0.00, -0.00, -1.00, 1437.6, 803.0)">s</text><text xml:space="preserve" font-family="SourceCodePro-Regular" font-size="59.0" fill="#A3B0B0" transform="matrix(1.00, 0.00, -0.00, -1.00, 1473.0, 803.0)">)</text><text xml:space="preserve" font-family="SourceCodePro-Regular" font-size="59.0" fill="#A3B0B0" transform="matrix(1.00, 0.00, -0.00, -1.00, 1508.4, 803.0)"> </text><text xml:space="preserve" font-family="SourceCodePro-Regular" font-size="59.0" fill="#A3B0B0" transform="matrix(1.00, 0.00, -0.00, -1.00, 1543.8, 803.0)">{</text><text xml:space="preserve" font-family="SourceCodePro-Regular" font-size="59.0" fill="#000000" transform="matrix(1.00, 0.00, -0.00, -1.00, 1579.2, 803.0)"> </text><text xml:space="preserve" font-family="SourceCodePro-Regular" font-size="59.0" fill="#94A4A6" transform="matrix(1.00, 0.00, -0.00, -1.00, 234.0, 729.0)"> </text><text xml:space="preserve" font-family="SourceCodePro-Regular" font-size="59.0" fill="#94A4A6" transform="matrix(1.00, 0.00, -0.00, -1.00, 269.4, 729.0)"> </text><text xml:space="preserve" font-family="SourceCodePro-Regular" font-size="59.0" fill="#94A4A6" transform="matrix(1.00, 0.00, -0.00, -1.00, 304.8, 729.0)">c</text><text xml:space="preserve" font-family="SourceCodePro-Regular" font-size="59.0" fill="#94A4A6" transform="matrix(1.00, 0.00, -0.00, -1.00, 340.2, 729.0)">o</text><text xml:space="preserve" font-family="SourceCodePro-Regular" font-size="59.0" fill="#94A4A6" transform="matrix(1.00, 0.00, -0.00, -1.00, 375.6, 729.0)">n</text><text xml:space="preserve" font-family="SourceCodePro-Regular" font-size="59.0" fill="#94A4A6" transform="matrix(1.00, 0.00, -0.00, -1.00, 411.0, 729.0)">s</text><text xml:space="preserve" font-family="SourceCodePro-Regular" font-size="59.0" fill="#94A4A6" transform="matrix(1.00, 0.00, -0.00, -1.00, 446.4, 729.0)">o</text><text xml:space="preserve" font-family="SourceCodePro-Regular" font-size="59.0" fill="#94A4A6" transform="matrix(1.00, 0.00, -0.00, -1.00, 481.8, 729.0)">l</text><text xml:space="preserve" font-family="SourceCodePro-Regular" font-size="59.0" fill="#94A4A6" transform="matrix(1.00, 0.00, -0.00, -1.00, 517.2, 729.0)">e</text><text xml:space="preserve" font-family="SourceCodePro-Regular" font-size="59.0" fill="#A3B0B0" transform="matrix(1.00, 0.00, -0.00, -1.00, 552.6, 729.0)">.</text><text xml:space="preserve" font-family="SourceCodePro-Regular" font-size="59.0" fill="#A3B0B0" transform="matrix(1.00, 0.00, -0.00, -1.00, 588.0, 729.0)">l</text><text xml:space="preserve" font-family="SourceCodePro-Regular" font-size="59.0" fill="#A3B0B0" transform="matrix(1.00, 0.00, -0.00, -1.00, 623.4, 729.0)">o</text><text xml:space="preserve" font-family="SourceCodePro-Regular" font-size="59.0" fill="#A3B0B0" transform="matrix(1.00, 0.00, -0.00, -1.00, 658.8, 729.0)">g</text><text xml:space="preserve" font-family="SourceCodePro-Regular" font-size="59.0" fill="#A3B0B0" transform="matrix(1.00, 0.00, -0.00, -1.00, 694.2, 729.0)">(</text><text xml:space="preserve" font-family="SourceCodePro-Regular" font-size="59.0" fill="#94A4A6" transform="matrix(1.00, 0.00, -0.00, -1.00, 729.6, 729.0)">a</text><text xml:space="preserve" font-family="SourceCodePro-Regular" font-size="59.0" fill="#94A4A6" transform="matrix(1.00, 0.00, -0.00, -1.00, 765.0, 729.0)">j</text><text xml:space="preserve" font-family="SourceCodePro-Regular" font-size="59.0" fill="#94A4A6" transform="matrix(1.00, 0.00, -0.00, -1.00, 800.4, 729.0)">a</text><text xml:space="preserve" font-family="SourceCodePro-Regular" font-size="59.0" fill="#94A4A6" transform="matrix(1.00, 0.00, -0.00, -1.00, 835.8, 729.0)">x</text><text xml:space="preserve" font-family="SourceCodePro-Regular" font-size="59.0" fill="#94A4A6" transform="matrix(1.00, 0.00, -0.00, -1.00, 871.2, 729.0)">R</text><text xml:space="preserve" font-family="SourceCodePro-Regular" font-size="59.0" fill="#94A4A6" transform="matrix(1.00, 0.00, -0.00, -1.00, 906.6, 729.0)">e</text><text xml:space="preserve" font-family="SourceCodePro-Regular" font-size="59.0" fill="#94A4A6" transform="matrix(1.00, 0.00, -0.00, -1.00, 942.0, 729.0)">s</text><text xml:space="preserve" font-family="SourceCodePro-Regular" font-size="59.0" fill="#94A4A6" transform="matrix(1.00, 0.00, -0.00, -1.00, 977.4, 729.0)">u</text><text xml:space="preserve" font-family="SourceCodePro-Regular" font-size="59.0" fill="#94A4A6" transform="matrix(1.00, 0.00, -0.00, -1.00, 1012.8, 729.0)">l</text><text xml:space="preserve" font-family="SourceCodePro-Regular" font-size="59.0" fill="#94A4A6" transform="matrix(1.00, 0.00, -0.00, -1.00, 1048.2, 729.0)">t</text><text xml:space="preserve" font-family="SourceCodePro-Regular" font-size="59.0" fill="#94A4A6" transform="matrix(1.00, 0.00, -0.00, -1.00, 1083.6, 729.0)">s</text><text xml:space="preserve" font-family="SourceCodePro-Regular" font-size="59.0" fill="#A3B0B0" transform="matrix(1.00, 0.00, -0.00, -1.00, 1119.0, 729.0)">)</text><text xml:space="preserve" font-family="SourceCodePro-Regular" font-size="59.0" fill="#A3B0B0" transform="matrix(1.00, 0.00, -0.00, -1.00, 1154.4, 729.0)">;</text><text xml:space="preserve" font-family="SourceCodePro-Regular" font-size="59.0" fill="#000000" transform="matrix(1.00, 0.00, -0.00, -1.00, 1189.8, 729.0)"> </text><text xml:space="preserve" font-family="SourceCodePro-Regular" font-size="59.0" fill="#A3B0B0" transform="matrix(1.00, 0.00, -0.00, -1.00, 234.0, 655.0)">}</text><text xml:space="preserve" font-family="SourceCodePro-Regular" font-size="59.0" fill="#000000" transform="matrix(1.00, 0.00, -0.00, -1.00, 269.4, 655.0)"> </text><text xml:space="preserve" font-family="SourceCodePro-Regular" font-size="59.0" fill="#A3B0B0" transform="matrix(1.00, 0.00, -0.00, -1.00, 234.0, 507.0)">$</text><text xml:space="preserve" font-family="SourceCodePro-Regular" font-size="59.0" fill="#A3B0B0" transform="matrix(1.00, 0.00, -0.00, -1.00, 269.4, 507.0)">.</text><text xml:space="preserve" font-family="SourceCodePro-Regular" font-size="59.0" fill="#D6601A" transform="matrix(1.00, 0.00, -0.00, -1.00, 304.8, 507.0)">g</text><text xml:space="preserve" font-family="SourceCodePro-Regular" font-size="59.0" fill="#D6601A" transform="matrix(1.00, 0.00, -0.00, -1.00, 340.2, 507.0)">e</text><text xml:space="preserve" font-family="SourceCodePro-Regular" font-size="59.0" fill="#D6601A" transform="matrix(1.00, 0.00, -0.00, -1.00, 375.6, 507.0)">t</text><text xml:space="preserve" font-family="SourceCodePro-Regular" font-size="59.0" fill="#A3B0B0" transform="matrix(1.00, 0.00, -0.00, -1.00, 411.0, 507.0)">(</text><text xml:space="preserve" font-family="SourceCodePro-Regular" font-size="59.0" fill="#E5493C" transform="matrix(1.00, 0.00, -0.00, -1.00, 446.4, 507.0)">'</text><text xml:space="preserve" font-family="SourceCodePro-Regular" font-size="59.0" fill="#E5493C" transform="matrix(1.00, 0.00, -0.00, -1.00, 481.8, 507.0)">h</text><text xml:space="preserve" font-family="SourceCodePro-Regular" font-size="59.0" fill="#E5493C" transform="matrix(1.00, 0.00, -0.00, -1.00, 517.2, 507.0)">t</text><text xml:space="preserve" font-family="SourceCodePro-Regular" font-size="59.0" fill="#E5493C" transform="matrix(1.00, 0.00, -0.00, -1.00, 552.6, 507.0)">t</text><text xml:space="preserve" font-family="SourceCodePro-Regular" font-size="59.0" fill="#E5493C" transform="matrix(1.00, 0.00, -0.00, -1.00, 588.0, 507.0)">p</text><text xml:space="preserve" font-family="SourceCodePro-Regular" font-size="59.0" fill="#E5493C" transform="matrix(1.00, 0.00, -0.00, -1.00, 623.4, 507.0)">s</text><text xml:space="preserve" font-family="SourceCodePro-Regular" font-size="59.0" fill="#E5493C" transform="matrix(1.00, 0.00, -0.00, -1.00, 658.8, 507.0)">:</text><text xml:space="preserve" font-family="SourceCodePro-Regular" font-size="59.0" fill="#E5493C" transform="matrix(1.00, 0.00, -0.00, -1.00, 694.2, 507.0)">/</text><text xml:space="preserve" font-family="SourceCodePro-Regular" font-size="59.0" fill="#E5493C" transform="matrix(1.00, 0.00, -0.00, -1.00, 729.6, 507.0)">/</text><text xml:space="preserve" font-family="SourceCodePro-Regular" font-size="59.0" fill="#E5493C" transform="matrix(1.00, 0.00, -0.00, -1.00, 765.0, 507.0)">m</text><text xml:space="preserve" font-family="SourceCodePro-Regular" font-size="59.0" fill="#E5493C" transform="matrix(1.00, 0.00, -0.00, -1.00, 800.4, 507.0)">u</text><text xml:space="preserve" font-family="SourceCodePro-Regular" font-size="59.0" fill="#E5493C" transform="matrix(1.00, 0.00, -0.00, -1.00, 835.8, 507.0)">t</text><text xml:space="preserve" font-family="SourceCodePro-Regular" font-size="59.0" fill="#E5493C" transform="matrix(1.00, 0.00, -0.00, -1.00, 871.2, 507.0)">a</text><text xml:space="preserve" font-family="SourceCodePro-Regular" font-size="59.0" fill="#E5493C" transform="matrix(1.00, 0.00, -0.00, -1.00, 906.6, 507.0)">n</text><text xml:space="preserve" font-family="SourceCodePro-Regular" font-size="59.0" fill="#E5493C" transform="matrix(1.00, 0.00, -0.00, -1.00, 942.0, 507.0)">t</text><text xml:space="preserve" font-family="SourceCodePro-Regular" font-size="59.0" fill="#E5493C" transform="matrix(1.00, 0.00, -0.00, -1.00, 977.4, 507.0)">-</text><text xml:space="preserve" font-family="SourceCodePro-Regular" font-size="59.0" fill="#E5493C" transform="matrix(1.00, 0.00, -0.00, -1.00, 1012.8, 507.0)">s</text><text xml:space="preserve" font-family="SourceCodePro-Regular" font-size="59.0" fill="#E5493C" transform="matrix(1.00, 0.00, -0.00, -1.00, 1048.2, 507.0)">c</text><text xml:space="preserve" font-family="SourceCodePro-Regular" font-size="59.0" fill="#E5493C" transform="matrix(1.00, 0.00, -0.00, -1.00, 1083.6, 507.0)">h</text><text xml:space="preserve" font-family="SourceCodePro-Regular" font-size="59.0" fill="#E5493C" transform="matrix(1.00, 0.00, -0.00, -1.00, 1119.0, 507.0)">o</text><text xml:space="preserve" font-family="SourceCodePro-Regular" font-size="59.0" fill="#E5493C" transform="matrix(1.00, 0.00, -0.00, -1.00, 1154.4, 507.0)">o</text><text xml:space="preserve" font-family="SourceCodePro-Regular" font-size="59.0" fill="#E5493C" transform="matrix(1.00, 0.00, -0.00, -1.00, 1189.8, 507.0)">l</text><text xml:space="preserve" font-family="SourceCodePro-Regular" font-size="59.0" fill="#E5493C" transform="matrix(1.00, 0.00, -0.00, -1.00, 1225.2, 507.0)">.</text><text xml:space="preserve" font-family="SourceCodePro-Regular" font-size="59.0" fill="#E5493C" transform="matrix(1.00, 0.00, -0.00, -1.00, 1260.6, 507.0)">.</text><text xml:space="preserve" font-family="SourceCodePro-Regular" font-size="59.0" fill="#E5493C" transform="matrix(1.00, 0.00, -0.00, -1.00, 1296.0, 507.0)">.</text><text xml:space="preserve" font-family="SourceCodePro-Regular" font-size="59.0" fill="#E5493C" transform="matrix(1.00, 0.00, -0.00, -1.00, 1331.4, 507.0)">m</text><text xml:space="preserve" font-family="SourceCodePro-Regular" font-size="59.0" fill="#E5493C" transform="matrix(1.00, 0.00, -0.00, -1.00, 1366.8, 507.0)">u</text><text xml:space="preserve" font-family="SourceCodePro-Regular" font-size="59.0" fill="#E5493C" transform="matrix(1.00, 0.00, -0.00, -1.00, 1402.2, 507.0)">t</text><text xml:space="preserve" font-family="SourceCodePro-Regular" font-size="59.0" fill="#E5493C" transform="matrix(1.00, 0.00, -0.00, -1.00, 1437.6, 507.0)">a</text><text xml:space="preserve" font-family="SourceCodePro-Regular" font-size="59.0" fill="#E5493C" transform="matrix(1.00, 0.00, -0.00, -1.00, 1473.0, 507.0)">n</text><text xml:space="preserve" font-family="SourceCodePro-Regular" font-size="59.0" fill="#E5493C" transform="matrix(1.00, 0.00, -0.00, -1.00, 1508.4, 507.0)">t</text><text xml:space="preserve" font-family="SourceCodePro-Regular" font-size="59.0" fill="#E5493C" transform="matrix(1.00, 0.00, -0.00, -1.00, 1543.8, 507.0)">s</text><text xml:space="preserve" font-family="SourceCodePro-Regular" font-size="59.0" fill="#E5493C" transform="matrix(1.00, 0.00, -0.00, -1.00, 1579.2, 507.0)">'</text><text xml:space="preserve" font-family="SourceCodePro-Regular" font-size="59.0" fill="#A3B0B0" transform="matrix(1.00, 0.00, -0.00, -1.00, 1614.6, 507.0)">,</text><text xml:space="preserve" font-family="SourceCodePro-Regular" font-size="59.0" fill="#000000" transform="matrix(1.00, 0.00, -0.00, -1.00, 1650.0, 507.0)"> </text><text xml:space="preserve" font-family="SourceCodePro-Regular" font-size="59.0" fill="#000000" transform="matrix(1.00, 0.00, -0.00, -1.00, 234.0, 433.0)"> </text><text xml:space="preserve" font-family="SourceCodePro-Regular" font-size="59.0" fill="#000000" transform="matrix(1.00, 0.00, -0.00, -1.00, 269.4, 433.0)"> </text><text xml:space="preserve" font-family="SourceCodePro-Regular" font-size="59.0" fill="#000000" transform="matrix(1.00, 0.00, -0.00, -1.00, 304.8, 433.0)"> </text><text xml:space="preserve" font-family="SourceCodePro-Regular" font-size="59.0" fill="#000000" transform="matrix(1.00, 0.00, -0.00, -1.00, 340.2, 433.0)"> </text><text xml:space="preserve" font-family="SourceCodePro-Regular" font-size="59.0" fill="#000000" transform="matrix(1.00, 0.00, -0.00, -1.00, 375.6, 433.0)"> </text><text xml:space="preserve" font-family="SourceCodePro-Regular" font-size="59.0" fill="#000000" transform="matrix(1.00, 0.00, -0.00, -1.00, 411.0, 433.0)"> </text><text xml:space="preserve" font-family="SourceCodePro-Regular" font-size="59.0" fill="#94A4A6" transform="matrix(1.00, 0.00, -0.00, -1.00, 446.4, 433.0)">p</text><text xml:space="preserve" font-family="SourceCodePro-Regular" font-size="59.0" fill="#94A4A6" transform="matrix(1.00, 0.00, -0.00, -1.00, 481.8, 433.0)">r</text><text xml:space="preserve" font-family="SourceCodePro-Regular" font-size="59.0" fill="#94A4A6" transform="matrix(1.00, 0.00, -0.00, -1.00, 517.2, 433.0)">o</text><text xml:space="preserve" font-family="SourceCodePro-Regular" font-size="59.0" fill="#94A4A6" transform="matrix(1.00, 0.00, -0.00, -1.00, 552.6, 433.0)">c</text><text xml:space="preserve" font-family="SourceCodePro-Regular" font-size="59.0" fill="#94A4A6" transform="matrix(1.00, 0.00, -0.00, -1.00, 588.0, 433.0)">e</text><text xml:space="preserve" font-family="SourceCodePro-Regular" font-size="59.0" fill="#94A4A6" transform="matrix(1.00, 0.00, -0.00, -1.00, 623.4, 433.0)">s</text><text xml:space="preserve" font-family="SourceCodePro-Regular" font-size="59.0" fill="#94A4A6" transform="matrix(1.00, 0.00, -0.00, -1.00, 658.8, 433.0)">s</text><text xml:space="preserve" font-family="SourceCodePro-Regular" font-size="59.0" fill="#94A4A6" transform="matrix(1.00, 0.00, -0.00, -1.00, 694.2, 433.0)">M</text><text xml:space="preserve" font-family="SourceCodePro-Regular" font-size="59.0" fill="#94A4A6" transform="matrix(1.00, 0.00, -0.00, -1.00, 729.6, 433.0)">u</text><text xml:space="preserve" font-family="SourceCodePro-Regular" font-size="59.0" fill="#94A4A6" transform="matrix(1.00, 0.00, -0.00, -1.00, 765.0, 433.0)">t</text><text xml:space="preserve" font-family="SourceCodePro-Regular" font-size="59.0" fill="#94A4A6" transform="matrix(1.00, 0.00, -0.00, -1.00, 800.4, 433.0)">a</text><text xml:space="preserve" font-family="SourceCodePro-Regular" font-size="59.0" fill="#94A4A6" transform="matrix(1.00, 0.00, -0.00, -1.00, 835.8, 433.0)">n</text><text xml:space="preserve" font-family="SourceCodePro-Regular" font-size="59.0" fill="#94A4A6" transform="matrix(1.00, 0.00, -0.00, -1.00, 871.2, 433.0)">t</text><text xml:space="preserve" font-family="SourceCodePro-Regular" font-size="59.0" fill="#94A4A6" transform="matrix(1.00, 0.00, -0.00, -1.00, 906.6, 433.0)">s</text><text xml:space="preserve" font-family="SourceCodePro-Regular" font-size="59.0" fill="#A3B0B0" transform="matrix(1.00, 0.00, -0.00, -1.00, 942.0, 433.0)">)</text><text xml:space="preserve" font-family="SourceCodePro-Regular" font-size="59.0" fill="#A3B0B0" transform="matrix(1.00, 0.00, -0.00, -1.00, 977.4, 433.0)">;</text></g></svg>