<?xml version="1.0" encoding="UTF-8" standalone="no"?><svg xmlns="http://www.w3.org/2000/svg" xmlns:xlink="http://www.w3.org/1999/xlink" clip-rule="evenodd" stroke-miterlimit="4.00" viewBox="0 0 1920 1080"><desc>SVG generated by Keynote</desc><defs></defs><g transform="matrix(1.00, 0.00, -0.00, -1.00, 0.0, 1080.0)"><path d="M 0.0 1080.0 L 1920.0 1080.0 L 1920.0 0.0 L 0.0 0.0 Z M 0.0 1080.0 " fill="#000000"></path><text xml:space="preserve" font-family="HelveticaNeue-Thin" font-size="160.0" fill="#FEFFFF" transform="matrix(1.00, 0.00, -0.00, -1.00, 554.0, 790.0)">E</text><text xml:space="preserve" font-family="HelveticaNeue-Thin" font-size="160.0" fill="#FEFFFF" transform="matrix(1.00, 0.00, -0.00, -1.00, 643.6, 790.0)">C</text><text xml:space="preserve" font-family="HelveticaNeue-Thin" font-size="160.0" fill="#FEFFFF" transform="matrix(1.00, 0.00, -0.00, -1.00, 756.2, 790.0)">M</text><text xml:space="preserve" font-family="HelveticaNeue-Thin" font-size="160.0" fill="#FEFFFF" transform="matrix(1.00, 0.00, -0.00, -1.00, 885.7, 790.0)">A</text><text xml:space="preserve" font-family="HelveticaNeue-Thin" font-size="160.0" fill="#FEFFFF" transform="matrix(1.00, 0.00, -0.00, -1.00, 980.6, 790.0)">S</text><text xml:space="preserve" font-family="HelveticaNeue-Thin" font-size="160.0" fill="#FEFFFF" transform="matrix(1.00, 0.00, -0.00, -1.00, 1081.4, 790.0)">c</text><text xml:space="preserve" font-family="HelveticaNeue-Thin" font-size="160.0" fill="#FEFFFF" transform="matrix(1.00, 0.00, -0.00, -1.00, 1164.4, 790.0)">r</text><text xml:space="preserve" font-family="HelveticaNeue-Thin" font-size="160.0" fill="#FEFFFF" transform="matrix(1.00, 0.00, -0.00, -1.00, 1208.9, 790.0)">i</text><text xml:space="preserve" font-family="HelveticaNeue-Thin" font-size="160.0" fill="#FEFFFF" transform="matrix(1.00, 0.00, -0.00, -1.00, 1235.8, 790.0)">p</text><text xml:space="preserve" font-family="HelveticaNeue-Thin" font-size="160.0" fill="#FEFFFF" transform="matrix(1.00, 0.00, -0.00, -1.00, 1324.7, 790.0)">t</text><image xlink:href="1C4A5B21A92DB7A05972594CFB9468DA.png" width="500.00" height="284.00" transform="matrix(2.02, 0.00, -0.00, -2.02, 456.0, 708.0)"></image></g></svg>