<?xml version="1.0" encoding="UTF-8" standalone="no"?><svg xmlns="http://www.w3.org/2000/svg" xmlns:xlink="http://www.w3.org/1999/xlink" clip-rule="evenodd" stroke-miterlimit="4.00" viewBox="0 0 1920 1080"><desc>SVG generated by Keynote</desc><defs></defs><g transform="matrix(1.00, 0.00, -0.00, -1.00, 0.0, 1080.0)"><path d="M 0.0 1080.0 L 1920.0 1080.0 L 1920.0 0.0 L 0.0 0.0 Z M 0.0 1080.0 " fill="#FEFFFE"></path><text xml:space="preserve" font-family="SourceCodePro-Regular" font-size="50.0" fill="#52575F" transform="matrix(1.00, 0.00, -0.00, -1.00, 270.0, 869.0)">{</text><text xml:space="preserve" font-family="SourceCodePro-Regular" font-size="50.0" fill="#52575F" transform="matrix(1.00, 0.00, -0.00, -1.00, 300.0, 869.0)"> </text><text xml:space="preserve" font-family="SourceCodePro-Regular" font-size="50.0" fill="#52575F" transform="matrix(1.00, 0.00, -0.00, -1.00, 330.0, 869.0)"> </text><text xml:space="preserve" font-family="SourceCodePro-Regular" font-size="50.0" fill="#52575F" transform="matrix(1.00, 0.00, -0.00, -1.00, 360.0, 869.0)"> </text><text xml:space="preserve" font-family="SourceCodePro-Regular" font-size="50.0" fill="#52575F" transform="matrix(1.00, 0.00, -0.00, -1.00, 270.0, 806.0)"> </text><text xml:space="preserve" font-family="SourceCodePro-Regular" font-size="50.0" fill="#52575F" transform="matrix(1.00, 0.00, -0.00, -1.00, 300.0, 806.0)"> </text><text xml:space="preserve" font-family="SourceCodePro-Regular" font-size="50.0" fill="#52575F" transform="matrix(1.00, 0.00, -0.00, -1.00, 330.0, 806.0)"> </text><text xml:space="preserve" font-family="SourceCodePro-Regular" font-size="50.0" fill="#52575F" transform="matrix(1.00, 0.00, -0.00, -1.00, 360.0, 806.0)">"</text><text xml:space="preserve" font-family="SourceCodePro-Regular" font-size="50.0" fill="#52575F" transform="matrix(1.00, 0.00, -0.00, -1.00, 390.0, 806.0)">m</text><text xml:space="preserve" font-family="SourceCodePro-Regular" font-size="50.0" fill="#52575F" transform="matrix(1.00, 0.00, -0.00, -1.00, 420.0, 806.0)">e</text><text xml:space="preserve" font-family="SourceCodePro-Regular" font-size="50.0" fill="#52575F" transform="matrix(1.00, 0.00, -0.00, -1.00, 450.0, 806.0)">s</text><text xml:space="preserve" font-family="SourceCodePro-Regular" font-size="50.0" fill="#52575F" transform="matrix(1.00, 0.00, -0.00, -1.00, 480.0, 806.0)">s</text><text xml:space="preserve" font-family="SourceCodePro-Regular" font-size="50.0" fill="#52575F" transform="matrix(1.00, 0.00, -0.00, -1.00, 510.0, 806.0)">a</text><text xml:space="preserve" font-family="SourceCodePro-Regular" font-size="50.0" fill="#52575F" transform="matrix(1.00, 0.00, -0.00, -1.00, 540.0, 806.0)">g</text><text xml:space="preserve" font-family="SourceCodePro-Regular" font-size="50.0" fill="#52575F" transform="matrix(1.00, 0.00, -0.00, -1.00, 570.0, 806.0)">e</text><text xml:space="preserve" font-family="SourceCodePro-Regular" font-size="50.0" fill="#52575F" transform="matrix(1.00, 0.00, -0.00, -1.00, 600.0, 806.0)">"</text><text xml:space="preserve" font-family="SourceCodePro-Regular" font-size="50.0" fill="#52575F" transform="matrix(1.00, 0.00, -0.00, -1.00, 630.0, 806.0)">:</text><text xml:space="preserve" font-family="SourceCodePro-Regular" font-size="50.0" fill="#52575F" transform="matrix(1.00, 0.00, -0.00, -1.00, 660.0, 806.0)">"</text><text xml:space="preserve" font-family="SourceCodePro-Regular" font-size="50.0" fill="#52575F" transform="matrix(1.00, 0.00, -0.00, -1.00, 690.0, 806.0)">S</text><text xml:space="preserve" font-family="SourceCodePro-Regular" font-size="50.0" fill="#52575F" transform="matrix(1.00, 0.00, -0.00, -1.00, 720.0, 806.0)">a</text><text xml:space="preserve" font-family="SourceCodePro-Regular" font-size="50.0" fill="#52575F" transform="matrix(1.00, 0.00, -0.00, -1.00, 750.0, 806.0)">v</text><text xml:space="preserve" font-family="SourceCodePro-Regular" font-size="50.0" fill="#52575F" transform="matrix(1.00, 0.00, -0.00, -1.00, 780.0, 806.0)">e</text><text xml:space="preserve" font-family="SourceCodePro-Regular" font-size="50.0" fill="#52575F" transform="matrix(1.00, 0.00, -0.00, -1.00, 810.0, 806.0)">d</text><text xml:space="preserve" font-family="SourceCodePro-Regular" font-size="50.0" fill="#52575F" transform="matrix(1.00, 0.00, -0.00, -1.00, 840.0, 806.0)">!</text><text xml:space="preserve" font-family="SourceCodePro-Regular" font-size="50.0" fill="#52575F" transform="matrix(1.00, 0.00, -0.00, -1.00, 870.0, 806.0)">"</text><text xml:space="preserve" font-family="SourceCodePro-Regular" font-size="50.0" fill="#52575F" transform="matrix(1.00, 0.00, -0.00, -1.00, 900.0, 806.0)">,</text><text xml:space="preserve" font-family="SourceCodePro-Regular" font-size="50.0" fill="#52575F" transform="matrix(1.00, 0.00, -0.00, -1.00, 930.0, 806.0)"> </text><text xml:space="preserve" font-family="SourceCodePro-Regular" font-size="50.0" fill="#52575F" transform="matrix(1.00, 0.00, -0.00, -1.00, 270.0, 743.0)"> </text><text xml:space="preserve" font-family="SourceCodePro-Regular" font-size="50.0" fill="#52575F" transform="matrix(1.00, 0.00, -0.00, -1.00, 300.0, 743.0)"> </text><text xml:space="preserve" font-family="SourceCodePro-Regular" font-size="50.0" fill="#52575F" transform="matrix(1.00, 0.00, -0.00, -1.00, 330.0, 743.0)"> </text><text xml:space="preserve" font-family="SourceCodePro-Regular" font-size="50.0" fill="#52575F" transform="matrix(1.00, 0.00, -0.00, -1.00, 360.0, 743.0)">"</text><text xml:space="preserve" font-family="SourceCodePro-Regular" font-size="50.0" fill="#52575F" transform="matrix(1.00, 0.00, -0.00, -1.00, 390.0, 743.0)">n</text><text xml:space="preserve" font-family="SourceCodePro-Regular" font-size="50.0" fill="#52575F" transform="matrix(1.00, 0.00, -0.00, -1.00, 420.0, 743.0)">o</text><text xml:space="preserve" font-family="SourceCodePro-Regular" font-size="50.0" fill="#52575F" transform="matrix(1.00, 0.00, -0.00, -1.00, 450.0, 743.0)">t</text><text xml:space="preserve" font-family="SourceCodePro-Regular" font-size="50.0" fill="#52575F" transform="matrix(1.00, 0.00, -0.00, -1.00, 480.0, 743.0)">e</text><text xml:space="preserve" font-family="SourceCodePro-Regular" font-size="50.0" fill="#52575F" transform="matrix(1.00, 0.00, -0.00, -1.00, 510.0, 743.0)">"</text><text xml:space="preserve" font-family="SourceCodePro-Regular" font-size="50.0" fill="#52575F" transform="matrix(1.00, 0.00, -0.00, -1.00, 540.0, 743.0)">:</text><text xml:space="preserve" font-family="SourceCodePro-Regular" font-size="50.0" fill="#52575F" transform="matrix(1.00, 0.00, -0.00, -1.00, 570.0, 743.0)">{</text><text xml:space="preserve" font-family="SourceCodePro-Regular" font-size="50.0" fill="#52575F" transform="matrix(1.00, 0.00, -0.00, -1.00, 600.0, 743.0)"> </text><text xml:space="preserve" font-family="SourceCodePro-Regular" font-size="50.0" fill="#52575F" transform="matrix(1.00, 0.00, -0.00, -1.00, 630.0, 743.0)"> </text><text xml:space="preserve" font-family="SourceCodePro-Regular" font-size="50.0" fill="#52575F" transform="matrix(1.00, 0.00, -0.00, -1.00, 660.0, 743.0)"> </text><text xml:space="preserve" font-family="SourceCodePro-Regular" font-size="50.0" fill="#52575F" transform="matrix(1.00, 0.00, -0.00, -1.00, 270.0, 680.0)"> </text><text xml:space="preserve" font-family="SourceCodePro-Regular" font-size="50.0" fill="#52575F" transform="matrix(1.00, 0.00, -0.00, -1.00, 300.0, 680.0)"> </text><text xml:space="preserve" font-family="SourceCodePro-Regular" font-size="50.0" fill="#52575F" transform="matrix(1.00, 0.00, -0.00, -1.00, 330.0, 680.0)"> </text><text xml:space="preserve" font-family="SourceCodePro-Regular" font-size="50.0" fill="#52575F" transform="matrix(1.00, 0.00, -0.00, -1.00, 360.0, 680.0)"> </text><text xml:space="preserve" font-family="SourceCodePro-Regular" font-size="50.0" fill="#52575F" transform="matrix(1.00, 0.00, -0.00, -1.00, 390.0, 680.0)"> </text><text xml:space="preserve" font-family="SourceCodePro-Regular" font-size="50.0" fill="#52575F" transform="matrix(1.00, 0.00, -0.00, -1.00, 420.0, 680.0)"> </text><text xml:space="preserve" font-family="SourceCodePro-Regular" font-size="50.0" fill="#52575F" transform="matrix(1.00, 0.00, -0.00, -1.00, 450.0, 680.0)">"</text><text xml:space="preserve" font-family="SourceCodePro-Regular" font-size="50.0" fill="#52575F" transform="matrix(1.00, 0.00, -0.00, -1.00, 480.0, 680.0)">_</text><text xml:space="preserve" font-family="SourceCodePro-Regular" font-size="50.0" fill="#52575F" transform="matrix(1.00, 0.00, -0.00, -1.00, 510.0, 680.0)">i</text><text xml:space="preserve" font-family="SourceCodePro-Regular" font-size="50.0" fill="#52575F" transform="matrix(1.00, 0.00, -0.00, -1.00, 540.0, 680.0)">d</text><text xml:space="preserve" font-family="SourceCodePro-Regular" font-size="50.0" fill="#52575F" transform="matrix(1.00, 0.00, -0.00, -1.00, 570.0, 680.0)">"</text><text xml:space="preserve" font-family="SourceCodePro-Regular" font-size="50.0" fill="#52575F" transform="matrix(1.00, 0.00, -0.00, -1.00, 600.0, 680.0)">:</text><text xml:space="preserve" font-family="SourceCodePro-Regular" font-size="50.0" fill="#52575F" transform="matrix(1.00, 0.00, -0.00, -1.00, 630.0, 680.0)">"</text><text xml:space="preserve" font-family="SourceCodePro-Regular" font-size="50.0" fill="#52575F" transform="matrix(1.00, 0.00, -0.00, -1.00, 660.0, 680.0)">5</text><text xml:space="preserve" font-family="SourceCodePro-Regular" font-size="50.0" fill="#52575F" transform="matrix(1.00, 0.00, -0.00, -1.00, 690.0, 680.0)">7</text><text xml:space="preserve" font-family="SourceCodePro-Regular" font-size="50.0" fill="#52575F" transform="matrix(1.00, 0.00, -0.00, -1.00, 720.0, 680.0)">5</text><text xml:space="preserve" font-family="SourceCodePro-Regular" font-size="50.0" fill="#52575F" transform="matrix(1.00, 0.00, -0.00, -1.00, 750.0, 680.0)">4</text><text xml:space="preserve" font-family="SourceCodePro-Regular" font-size="50.0" fill="#52575F" transform="matrix(1.00, 0.00, -0.00, -1.00, 780.0, 680.0)">8</text><text xml:space="preserve" font-family="SourceCodePro-Regular" font-size="50.0" fill="#52575F" transform="matrix(1.00, 0.00, -0.00, -1.00, 810.0, 680.0)">2</text><text xml:space="preserve" font-family="SourceCodePro-Regular" font-size="50.0" fill="#52575F" transform="matrix(1.00, 0.00, -0.00, -1.00, 840.0, 680.0)">5</text><text xml:space="preserve" font-family="SourceCodePro-Regular" font-size="50.0" fill="#52575F" transform="matrix(1.00, 0.00, -0.00, -1.00, 870.0, 680.0)">6</text><text xml:space="preserve" font-family="SourceCodePro-Regular" font-size="50.0" fill="#52575F" transform="matrix(1.00, 0.00, -0.00, -1.00, 900.0, 680.0)">5</text><text xml:space="preserve" font-family="SourceCodePro-Regular" font-size="50.0" fill="#52575F" transform="matrix(1.00, 0.00, -0.00, -1.00, 930.0, 680.0)">0</text><text xml:space="preserve" font-family="SourceCodePro-Regular" font-size="50.0" fill="#52575F" transform="matrix(1.00, 0.00, -0.00, -1.00, 960.0, 680.0)">4</text><text xml:space="preserve" font-family="SourceCodePro-Regular" font-size="50.0" fill="#52575F" transform="matrix(1.00, 0.00, -0.00, -1.00, 990.0, 680.0)">5</text><text xml:space="preserve" font-family="SourceCodePro-Regular" font-size="50.0" fill="#52575F" transform="matrix(1.00, 0.00, -0.00, -1.00, 1020.0, 680.0)">c</text><text xml:space="preserve" font-family="SourceCodePro-Regular" font-size="50.0" fill="#52575F" transform="matrix(1.00, 0.00, -0.00, -1.00, 1050.0, 680.0)">e</text><text xml:space="preserve" font-family="SourceCodePro-Regular" font-size="50.0" fill="#52575F" transform="matrix(1.00, 0.00, -0.00, -1.00, 1080.0, 680.0)">8</text><text xml:space="preserve" font-family="SourceCodePro-Regular" font-size="50.0" fill="#52575F" transform="matrix(1.00, 0.00, -0.00, -1.00, 1110.0, 680.0)">5</text><text xml:space="preserve" font-family="SourceCodePro-Regular" font-size="50.0" fill="#52575F" transform="matrix(1.00, 0.00, -0.00, -1.00, 1140.0, 680.0)">8</text><text xml:space="preserve" font-family="SourceCodePro-Regular" font-size="50.0" fill="#52575F" transform="matrix(1.00, 0.00, -0.00, -1.00, 1170.0, 680.0)">8</text><text xml:space="preserve" font-family="SourceCodePro-Regular" font-size="50.0" fill="#52575F" transform="matrix(1.00, 0.00, -0.00, -1.00, 1200.0, 680.0)">a</text><text xml:space="preserve" font-family="SourceCodePro-Regular" font-size="50.0" fill="#52575F" transform="matrix(1.00, 0.00, -0.00, -1.00, 1230.0, 680.0)">e</text><text xml:space="preserve" font-family="SourceCodePro-Regular" font-size="50.0" fill="#52575F" transform="matrix(1.00, 0.00, -0.00, -1.00, 1260.0, 680.0)">d</text><text xml:space="preserve" font-family="SourceCodePro-Regular" font-size="50.0" fill="#52575F" transform="matrix(1.00, 0.00, -0.00, -1.00, 1290.0, 680.0)">f</text><text xml:space="preserve" font-family="SourceCodePro-Regular" font-size="50.0" fill="#52575F" transform="matrix(1.00, 0.00, -0.00, -1.00, 1320.0, 680.0)">9</text><text xml:space="preserve" font-family="SourceCodePro-Regular" font-size="50.0" fill="#52575F" transform="matrix(1.00, 0.00, -0.00, -1.00, 1350.0, 680.0)">a</text><text xml:space="preserve" font-family="SourceCodePro-Regular" font-size="50.0" fill="#52575F" transform="matrix(1.00, 0.00, -0.00, -1.00, 1380.0, 680.0)">"</text><text xml:space="preserve" font-family="SourceCodePro-Regular" font-size="50.0" fill="#52575F" transform="matrix(1.00, 0.00, -0.00, -1.00, 1410.0, 680.0)">,</text><text xml:space="preserve" font-family="SourceCodePro-Regular" font-size="50.0" fill="#52575F" transform="matrix(1.00, 0.00, -0.00, -1.00, 1440.0, 680.0)"> </text><text xml:space="preserve" font-family="SourceCodePro-Regular" font-size="50.0" fill="#52575F" transform="matrix(1.00, 0.00, -0.00, -1.00, 270.0, 617.0)"> </text><text xml:space="preserve" font-family="SourceCodePro-Regular" font-size="50.0" fill="#52575F" transform="matrix(1.00, 0.00, -0.00, -1.00, 300.0, 617.0)"> </text><text xml:space="preserve" font-family="SourceCodePro-Regular" font-size="50.0" fill="#52575F" transform="matrix(1.00, 0.00, -0.00, -1.00, 330.0, 617.0)"> </text><text xml:space="preserve" font-family="SourceCodePro-Regular" font-size="50.0" fill="#52575F" transform="matrix(1.00, 0.00, -0.00, -1.00, 360.0, 617.0)"> </text><text xml:space="preserve" font-family="SourceCodePro-Regular" font-size="50.0" fill="#52575F" transform="matrix(1.00, 0.00, -0.00, -1.00, 390.0, 617.0)"> </text><text xml:space="preserve" font-family="SourceCodePro-Regular" font-size="50.0" fill="#52575F" transform="matrix(1.00, 0.00, -0.00, -1.00, 420.0, 617.0)"> </text><text xml:space="preserve" font-family="SourceCodePro-Regular" font-size="50.0" fill="#52575F" transform="matrix(1.00, 0.00, -0.00, -1.00, 450.0, 617.0)">"</text><text xml:space="preserve" font-family="SourceCodePro-Regular" font-size="50.0" fill="#52575F" transform="matrix(1.00, 0.00, -0.00, -1.00, 480.0, 617.0)">b</text><text xml:space="preserve" font-family="SourceCodePro-Regular" font-size="50.0" fill="#52575F" transform="matrix(1.00, 0.00, -0.00, -1.00, 510.0, 617.0)">o</text><text xml:space="preserve" font-family="SourceCodePro-Regular" font-size="50.0" fill="#52575F" transform="matrix(1.00, 0.00, -0.00, -1.00, 540.0, 617.0)">d</text><text xml:space="preserve" font-family="SourceCodePro-Regular" font-size="50.0" fill="#52575F" transform="matrix(1.00, 0.00, -0.00, -1.00, 570.0, 617.0)">y</text><text xml:space="preserve" font-family="SourceCodePro-Regular" font-size="50.0" fill="#52575F" transform="matrix(1.00, 0.00, -0.00, -1.00, 600.0, 617.0)">_</text><text xml:space="preserve" font-family="SourceCodePro-Regular" font-size="50.0" fill="#52575F" transform="matrix(1.00, 0.00, -0.00, -1.00, 630.0, 617.0)">t</text><text xml:space="preserve" font-family="SourceCodePro-Regular" font-size="50.0" fill="#52575F" transform="matrix(1.00, 0.00, -0.00, -1.00, 660.0, 617.0)">e</text><text xml:space="preserve" font-family="SourceCodePro-Regular" font-size="50.0" fill="#52575F" transform="matrix(1.00, 0.00, -0.00, -1.00, 690.0, 617.0)">x</text><text xml:space="preserve" font-family="SourceCodePro-Regular" font-size="50.0" fill="#52575F" transform="matrix(1.00, 0.00, -0.00, -1.00, 720.0, 617.0)">t</text><text xml:space="preserve" font-family="SourceCodePro-Regular" font-size="50.0" fill="#52575F" transform="matrix(1.00, 0.00, -0.00, -1.00, 750.0, 617.0)">"</text><text xml:space="preserve" font-family="SourceCodePro-Regular" font-size="50.0" fill="#52575F" transform="matrix(1.00, 0.00, -0.00, -1.00, 780.0, 617.0)">:</text><text xml:space="preserve" font-family="SourceCodePro-Regular" font-size="50.0" fill="#52575F" transform="matrix(1.00, 0.00, -0.00, -1.00, 810.0, 617.0)">"</text><text xml:space="preserve" font-family="SourceCodePro-Regular" font-size="50.0" fill="#52575F" transform="matrix(1.00, 0.00, -0.00, -1.00, 840.0, 617.0)">T</text><text xml:space="preserve" font-family="SourceCodePro-Regular" font-size="50.0" fill="#52575F" transform="matrix(1.00, 0.00, -0.00, -1.00, 870.0, 617.0)">h</text><text xml:space="preserve" font-family="SourceCodePro-Regular" font-size="50.0" fill="#52575F" transform="matrix(1.00, 0.00, -0.00, -1.00, 900.0, 617.0)">i</text><text xml:space="preserve" font-family="SourceCodePro-Regular" font-size="50.0" fill="#52575F" transform="matrix(1.00, 0.00, -0.00, -1.00, 930.0, 617.0)">s</text><text xml:space="preserve" font-family="SourceCodePro-Regular" font-size="50.0" fill="#52575F" transform="matrix(1.00, 0.00, -0.00, -1.00, 960.0, 617.0)"> </text><text xml:space="preserve" font-family="SourceCodePro-Regular" font-size="50.0" fill="#52575F" transform="matrix(1.00, 0.00, -0.00, -1.00, 990.0, 617.0)">i</text><text xml:space="preserve" font-family="SourceCodePro-Regular" font-size="50.0" fill="#52575F" transform="matrix(1.00, 0.00, -0.00, -1.00, 1020.0, 617.0)">s</text><text xml:space="preserve" font-family="SourceCodePro-Regular" font-size="50.0" fill="#52575F" transform="matrix(1.00, 0.00, -0.00, -1.00, 1050.0, 617.0)"> </text><text xml:space="preserve" font-family="SourceCodePro-Regular" font-size="50.0" fill="#52575F" transform="matrix(1.00, 0.00, -0.00, -1.00, 1080.0, 617.0)">a</text><text xml:space="preserve" font-family="SourceCodePro-Regular" font-size="50.0" fill="#52575F" transform="matrix(1.00, 0.00, -0.00, -1.00, 1110.0, 617.0)"> </text><text xml:space="preserve" font-family="SourceCodePro-Regular" font-size="50.0" fill="#52575F" transform="matrix(1.00, 0.00, -0.00, -1.00, 1140.0, 617.0)">n</text><text xml:space="preserve" font-family="SourceCodePro-Regular" font-size="50.0" fill="#52575F" transform="matrix(1.00, 0.00, -0.00, -1.00, 1170.0, 617.0)">o</text><text xml:space="preserve" font-family="SourceCodePro-Regular" font-size="50.0" fill="#52575F" transform="matrix(1.00, 0.00, -0.00, -1.00, 1200.0, 617.0)">t</text><text xml:space="preserve" font-family="SourceCodePro-Regular" font-size="50.0" fill="#52575F" transform="matrix(1.00, 0.00, -0.00, -1.00, 1230.0, 617.0)">e</text><text xml:space="preserve" font-family="SourceCodePro-Regular" font-size="50.0" fill="#52575F" transform="matrix(1.00, 0.00, -0.00, -1.00, 1260.0, 617.0)">!</text><text xml:space="preserve" font-family="SourceCodePro-Regular" font-size="50.0" fill="#52575F" transform="matrix(1.00, 0.00, -0.00, -1.00, 1290.0, 617.0)">"</text><text xml:space="preserve" font-family="SourceCodePro-Regular" font-size="50.0" fill="#52575F" transform="matrix(1.00, 0.00, -0.00, -1.00, 1320.0, 617.0)">,</text><text xml:space="preserve" font-family="SourceCodePro-Regular" font-size="50.0" fill="#52575F" transform="matrix(1.00, 0.00, -0.00, -1.00, 1350.0, 617.0)"> </text><text xml:space="preserve" font-family="SourceCodePro-Regular" font-size="50.0" fill="#52575F" transform="matrix(1.00, 0.00, -0.00, -1.00, 270.0, 554.0)"> </text><text xml:space="preserve" font-family="SourceCodePro-Regular" font-size="50.0" fill="#52575F" transform="matrix(1.00, 0.00, -0.00, -1.00, 300.0, 554.0)"> </text><text xml:space="preserve" font-family="SourceCodePro-Regular" font-size="50.0" fill="#52575F" transform="matrix(1.00, 0.00, -0.00, -1.00, 330.0, 554.0)"> </text><text xml:space="preserve" font-family="SourceCodePro-Regular" font-size="50.0" fill="#52575F" transform="matrix(1.00, 0.00, -0.00, -1.00, 360.0, 554.0)"> </text><text xml:space="preserve" font-family="SourceCodePro-Regular" font-size="50.0" fill="#52575F" transform="matrix(1.00, 0.00, -0.00, -1.00, 390.0, 554.0)"> </text><text xml:space="preserve" font-family="SourceCodePro-Regular" font-size="50.0" fill="#52575F" transform="matrix(1.00, 0.00, -0.00, -1.00, 420.0, 554.0)"> </text><text xml:space="preserve" font-family="SourceCodePro-Regular" font-size="50.0" fill="#52575F" transform="matrix(1.00, 0.00, -0.00, -1.00, 450.0, 554.0)">"</text><text xml:space="preserve" font-family="SourceCodePro-Regular" font-size="50.0" fill="#52575F" transform="matrix(1.00, 0.00, -0.00, -1.00, 480.0, 554.0)">t</text><text xml:space="preserve" font-family="SourceCodePro-Regular" font-size="50.0" fill="#52575F" transform="matrix(1.00, 0.00, -0.00, -1.00, 510.0, 554.0)">i</text><text xml:space="preserve" font-family="SourceCodePro-Regular" font-size="50.0" fill="#52575F" transform="matrix(1.00, 0.00, -0.00, -1.00, 540.0, 554.0)">t</text><text xml:space="preserve" font-family="SourceCodePro-Regular" font-size="50.0" fill="#52575F" transform="matrix(1.00, 0.00, -0.00, -1.00, 570.0, 554.0)">l</text><text xml:space="preserve" font-family="SourceCodePro-Regular" font-size="50.0" fill="#52575F" transform="matrix(1.00, 0.00, -0.00, -1.00, 600.0, 554.0)">e</text><text xml:space="preserve" font-family="SourceCodePro-Regular" font-size="50.0" fill="#52575F" transform="matrix(1.00, 0.00, -0.00, -1.00, 630.0, 554.0)">"</text><text xml:space="preserve" font-family="SourceCodePro-Regular" font-size="50.0" fill="#52575F" transform="matrix(1.00, 0.00, -0.00, -1.00, 660.0, 554.0)">:</text><text xml:space="preserve" font-family="SourceCodePro-Regular" font-size="50.0" fill="#52575F" transform="matrix(1.00, 0.00, -0.00, -1.00, 690.0, 554.0)">"</text><text xml:space="preserve" font-family="SourceCodePro-Regular" font-size="50.0" fill="#52575F" transform="matrix(1.00, 0.00, -0.00, -1.00, 720.0, 554.0)">M</text><text xml:space="preserve" font-family="SourceCodePro-Regular" font-size="50.0" fill="#52575F" transform="matrix(1.00, 0.00, -0.00, -1.00, 750.0, 554.0)">y</text><text xml:space="preserve" font-family="SourceCodePro-Regular" font-size="50.0" fill="#52575F" transform="matrix(1.00, 0.00, -0.00, -1.00, 780.0, 554.0)"> </text><text xml:space="preserve" font-family="SourceCodePro-Regular" font-size="50.0" fill="#52575F" transform="matrix(1.00, 0.00, -0.00, -1.00, 810.0, 554.0)">n</text><text xml:space="preserve" font-family="SourceCodePro-Regular" font-size="50.0" fill="#52575F" transform="matrix(1.00, 0.00, -0.00, -1.00, 840.0, 554.0)">o</text><text xml:space="preserve" font-family="SourceCodePro-Regular" font-size="50.0" fill="#52575F" transform="matrix(1.00, 0.00, -0.00, -1.00, 870.0, 554.0)">t</text><text xml:space="preserve" font-family="SourceCodePro-Regular" font-size="50.0" fill="#52575F" transform="matrix(1.00, 0.00, -0.00, -1.00, 900.0, 554.0)">e</text><text xml:space="preserve" font-family="SourceCodePro-Regular" font-size="50.0" fill="#52575F" transform="matrix(1.00, 0.00, -0.00, -1.00, 930.0, 554.0)">"</text><text xml:space="preserve" font-family="SourceCodePro-Regular" font-size="50.0" fill="#52575F" transform="matrix(1.00, 0.00, -0.00, -1.00, 960.0, 554.0)">,</text><text xml:space="preserve" font-family="SourceCodePro-Regular" font-size="50.0" fill="#52575F" transform="matrix(1.00, 0.00, -0.00, -1.00, 990.0, 554.0)"> </text><text xml:space="preserve" font-family="SourceCodePro-Regular" font-size="50.0" fill="#52575F" transform="matrix(1.00, 0.00, -0.00, -1.00, 270.0, 491.0)"> </text><text xml:space="preserve" font-family="SourceCodePro-Regular" font-size="50.0" fill="#52575F" transform="matrix(1.00, 0.00, -0.00, -1.00, 300.0, 491.0)"> </text><text xml:space="preserve" font-family="SourceCodePro-Regular" font-size="50.0" fill="#52575F" transform="matrix(1.00, 0.00, -0.00, -1.00, 330.0, 491.0)"> </text><text xml:space="preserve" font-family="SourceCodePro-Regular" font-size="50.0" fill="#52575F" transform="matrix(1.00, 0.00, -0.00, -1.00, 360.0, 491.0)"> </text><text xml:space="preserve" font-family="SourceCodePro-Regular" font-size="50.0" fill="#52575F" transform="matrix(1.00, 0.00, -0.00, -1.00, 390.0, 491.0)"> </text><text xml:space="preserve" font-family="SourceCodePro-Regular" font-size="50.0" fill="#52575F" transform="matrix(1.00, 0.00, -0.00, -1.00, 420.0, 491.0)"> </text><text xml:space="preserve" font-family="SourceCodePro-Regular" font-size="50.0" fill="#52575F" transform="matrix(1.00, 0.00, -0.00, -1.00, 450.0, 491.0)">"</text><text xml:space="preserve" font-family="SourceCodePro-Regular" font-size="50.0" fill="#52575F" transform="matrix(1.00, 0.00, -0.00, -1.00, 480.0, 491.0)">b</text><text xml:space="preserve" font-family="SourceCodePro-Regular" font-size="50.0" fill="#52575F" transform="matrix(1.00, 0.00, -0.00, -1.00, 510.0, 491.0)">o</text><text xml:space="preserve" font-family="SourceCodePro-Regular" font-size="50.0" fill="#52575F" transform="matrix(1.00, 0.00, -0.00, -1.00, 540.0, 491.0)">d</text><text xml:space="preserve" font-family="SourceCodePro-Regular" font-size="50.0" fill="#52575F" transform="matrix(1.00, 0.00, -0.00, -1.00, 570.0, 491.0)">y</text><text xml:space="preserve" font-family="SourceCodePro-Regular" font-size="50.0" fill="#52575F" transform="matrix(1.00, 0.00, -0.00, -1.00, 600.0, 491.0)">_</text><text xml:space="preserve" font-family="SourceCodePro-Regular" font-size="50.0" fill="#52575F" transform="matrix(1.00, 0.00, -0.00, -1.00, 630.0, 491.0)">h</text><text xml:space="preserve" font-family="SourceCodePro-Regular" font-size="50.0" fill="#52575F" transform="matrix(1.00, 0.00, -0.00, -1.00, 660.0, 491.0)">t</text><text xml:space="preserve" font-family="SourceCodePro-Regular" font-size="50.0" fill="#52575F" transform="matrix(1.00, 0.00, -0.00, -1.00, 690.0, 491.0)">m</text><text xml:space="preserve" font-family="SourceCodePro-Regular" font-size="50.0" fill="#52575F" transform="matrix(1.00, 0.00, -0.00, -1.00, 720.0, 491.0)">l</text><text xml:space="preserve" font-family="SourceCodePro-Regular" font-size="50.0" fill="#52575F" transform="matrix(1.00, 0.00, -0.00, -1.00, 750.0, 491.0)">"</text><text xml:space="preserve" font-family="SourceCodePro-Regular" font-size="50.0" fill="#52575F" transform="matrix(1.00, 0.00, -0.00, -1.00, 780.0, 491.0)">:</text><text xml:space="preserve" font-family="SourceCodePro-Regular" font-size="50.0" fill="#52575F" transform="matrix(1.00, 0.00, -0.00, -1.00, 810.0, 491.0)">"</text><text xml:space="preserve" font-family="SourceCodePro-Regular" font-size="50.0" fill="#52575F" transform="matrix(1.00, 0.00, -0.00, -1.00, 840.0, 491.0)">&lt;</text><text xml:space="preserve" font-family="SourceCodePro-Regular" font-size="50.0" fill="#52575F" transform="matrix(1.00, 0.00, -0.00, -1.00, 870.0, 491.0)">p</text><text xml:space="preserve" font-family="SourceCodePro-Regular" font-size="50.0" fill="#52575F" transform="matrix(1.00, 0.00, -0.00, -1.00, 900.0, 491.0)">&gt;</text><text xml:space="preserve" font-family="SourceCodePro-Regular" font-size="50.0" fill="#52575F" transform="matrix(1.00, 0.00, -0.00, -1.00, 930.0, 491.0)">T</text><text xml:space="preserve" font-family="SourceCodePro-Regular" font-size="50.0" fill="#52575F" transform="matrix(1.00, 0.00, -0.00, -1.00, 960.0, 491.0)">h</text><text xml:space="preserve" font-family="SourceCodePro-Regular" font-size="50.0" fill="#52575F" transform="matrix(1.00, 0.00, -0.00, -1.00, 990.0, 491.0)">i</text><text xml:space="preserve" font-family="SourceCodePro-Regular" font-size="50.0" fill="#52575F" transform="matrix(1.00, 0.00, -0.00, -1.00, 1020.0, 491.0)">s</text><text xml:space="preserve" font-family="SourceCodePro-Regular" font-size="50.0" fill="#52575F" transform="matrix(1.00, 0.00, -0.00, -1.00, 1050.0, 491.0)"> </text><text xml:space="preserve" font-family="SourceCodePro-Regular" font-size="50.0" fill="#52575F" transform="matrix(1.00, 0.00, -0.00, -1.00, 1080.0, 491.0)">i</text><text xml:space="preserve" font-family="SourceCodePro-Regular" font-size="50.0" fill="#52575F" transform="matrix(1.00, 0.00, -0.00, -1.00, 1110.0, 491.0)">s</text><text xml:space="preserve" font-family="SourceCodePro-Regular" font-size="50.0" fill="#52575F" transform="matrix(1.00, 0.00, -0.00, -1.00, 1140.0, 491.0)"> </text><text xml:space="preserve" font-family="SourceCodePro-Regular" font-size="50.0" fill="#52575F" transform="matrix(1.00, 0.00, -0.00, -1.00, 1170.0, 491.0)">a</text><text xml:space="preserve" font-family="SourceCodePro-Regular" font-size="50.0" fill="#52575F" transform="matrix(1.00, 0.00, -0.00, -1.00, 1200.0, 491.0)"> </text><text xml:space="preserve" font-family="SourceCodePro-Regular" font-size="50.0" fill="#52575F" transform="matrix(1.00, 0.00, -0.00, -1.00, 1230.0, 491.0)">n</text><text xml:space="preserve" font-family="SourceCodePro-Regular" font-size="50.0" fill="#52575F" transform="matrix(1.00, 0.00, -0.00, -1.00, 1260.0, 491.0)">o</text><text xml:space="preserve" font-family="SourceCodePro-Regular" font-size="50.0" fill="#52575F" transform="matrix(1.00, 0.00, -0.00, -1.00, 1290.0, 491.0)">t</text><text xml:space="preserve" font-family="SourceCodePro-Regular" font-size="50.0" fill="#52575F" transform="matrix(1.00, 0.00, -0.00, -1.00, 1320.0, 491.0)">e</text><text xml:space="preserve" font-family="SourceCodePro-Regular" font-size="50.0" fill="#52575F" transform="matrix(1.00, 0.00, -0.00, -1.00, 1350.0, 491.0)">!</text><text xml:space="preserve" font-family="SourceCodePro-Regular" font-size="50.0" fill="#52575F" transform="matrix(1.00, 0.00, -0.00, -1.00, 1380.0, 491.0)">&lt;</text><text xml:space="preserve" font-family="SourceCodePro-Regular" font-size="50.0" fill="#52575F" transform="matrix(1.00, 0.00, -0.00, -1.00, 1410.0, 491.0)">/</text><text xml:space="preserve" font-family="SourceCodePro-Regular" font-size="50.0" fill="#52575F" transform="matrix(1.00, 0.00, -0.00, -1.00, 1440.0, 491.0)">p</text><text xml:space="preserve" font-family="SourceCodePro-Regular" font-size="50.0" fill="#52575F" transform="matrix(1.00, 0.00, -0.00, -1.00, 1470.0, 491.0)">&gt;</text><text xml:space="preserve" font-family="SourceCodePro-Regular" font-size="50.0" fill="#52575F" transform="matrix(1.00, 0.00, -0.00, -1.00, 1500.0, 491.0)">"</text><text xml:space="preserve" font-family="SourceCodePro-Regular" font-size="50.0" fill="#52575F" transform="matrix(1.00, 0.00, -0.00, -1.00, 1530.0, 491.0)">,</text><text xml:space="preserve" font-family="SourceCodePro-Regular" font-size="50.0" fill="#52575F" transform="matrix(1.00, 0.00, -0.00, -1.00, 1560.0, 491.0)"> </text><text xml:space="preserve" font-family="SourceCodePro-Regular" font-size="50.0" fill="#52575F" transform="matrix(1.00, 0.00, -0.00, -1.00, 270.0, 428.0)"> </text><text xml:space="preserve" font-family="SourceCodePro-Regular" font-size="50.0" fill="#52575F" transform="matrix(1.00, 0.00, -0.00, -1.00, 300.0, 428.0)"> </text><text xml:space="preserve" font-family="SourceCodePro-Regular" font-size="50.0" fill="#52575F" transform="matrix(1.00, 0.00, -0.00, -1.00, 330.0, 428.0)"> </text><text xml:space="preserve" font-family="SourceCodePro-Regular" font-size="50.0" fill="#52575F" transform="matrix(1.00, 0.00, -0.00, -1.00, 360.0, 428.0)"> </text><text xml:space="preserve" font-family="SourceCodePro-Regular" font-size="50.0" fill="#52575F" transform="matrix(1.00, 0.00, -0.00, -1.00, 390.0, 428.0)"> </text><text xml:space="preserve" font-family="SourceCodePro-Regular" font-size="50.0" fill="#52575F" transform="matrix(1.00, 0.00, -0.00, -1.00, 420.0, 428.0)"> </text><text xml:space="preserve" font-family="SourceCodePro-Regular" font-size="50.0" fill="#52575F" transform="matrix(1.00, 0.00, -0.00, -1.00, 450.0, 428.0)">"</text><text xml:space="preserve" font-family="SourceCodePro-Regular" font-size="50.0" fill="#52575F" transform="matrix(1.00, 0.00, -0.00, -1.00, 480.0, 428.0)">u</text><text xml:space="preserve" font-family="SourceCodePro-Regular" font-size="50.0" fill="#52575F" transform="matrix(1.00, 0.00, -0.00, -1.00, 510.0, 428.0)">s</text><text xml:space="preserve" font-family="SourceCodePro-Regular" font-size="50.0" fill="#52575F" transform="matrix(1.00, 0.00, -0.00, -1.00, 540.0, 428.0)">e</text><text xml:space="preserve" font-family="SourceCodePro-Regular" font-size="50.0" fill="#52575F" transform="matrix(1.00, 0.00, -0.00, -1.00, 570.0, 428.0)">r</text><text xml:space="preserve" font-family="SourceCodePro-Regular" font-size="50.0" fill="#52575F" transform="matrix(1.00, 0.00, -0.00, -1.00, 600.0, 428.0)">"</text><text xml:space="preserve" font-family="SourceCodePro-Regular" font-size="50.0" fill="#52575F" transform="matrix(1.00, 0.00, -0.00, -1.00, 630.0, 428.0)">:</text><text xml:space="preserve" font-family="SourceCodePro-Regular" font-size="50.0" fill="#52575F" transform="matrix(1.00, 0.00, -0.00, -1.00, 660.0, 428.0)">"</text><text xml:space="preserve" font-family="SourceCodePro-Regular" font-size="50.0" fill="#52575F" transform="matrix(1.00, 0.00, -0.00, -1.00, 690.0, 428.0)">5</text><text xml:space="preserve" font-family="SourceCodePro-Regular" font-size="50.0" fill="#52575F" transform="matrix(1.00, 0.00, -0.00, -1.00, 720.0, 428.0)">7</text><text xml:space="preserve" font-family="SourceCodePro-Regular" font-size="50.0" fill="#52575F" transform="matrix(1.00, 0.00, -0.00, -1.00, 750.0, 428.0)">5</text><text xml:space="preserve" font-family="SourceCodePro-Regular" font-size="50.0" fill="#52575F" transform="matrix(1.00, 0.00, -0.00, -1.00, 780.0, 428.0)">4</text><text xml:space="preserve" font-family="SourceCodePro-Regular" font-size="50.0" fill="#52575F" transform="matrix(1.00, 0.00, -0.00, -1.00, 810.0, 428.0)">8</text><text xml:space="preserve" font-family="SourceCodePro-Regular" font-size="50.0" fill="#52575F" transform="matrix(1.00, 0.00, -0.00, -1.00, 840.0, 428.0)">1</text><text xml:space="preserve" font-family="SourceCodePro-Regular" font-size="50.0" fill="#52575F" transform="matrix(1.00, 0.00, -0.00, -1.00, 870.0, 428.0)">2</text><text xml:space="preserve" font-family="SourceCodePro-Regular" font-size="50.0" fill="#52575F" transform="matrix(1.00, 0.00, -0.00, -1.00, 900.0, 428.0)">d</text><text xml:space="preserve" font-family="SourceCodePro-Regular" font-size="50.0" fill="#52575F" transform="matrix(1.00, 0.00, -0.00, -1.00, 930.0, 428.0)">5</text><text xml:space="preserve" font-family="SourceCodePro-Regular" font-size="50.0" fill="#52575F" transform="matrix(1.00, 0.00, -0.00, -1.00, 960.0, 428.0)">0</text><text xml:space="preserve" font-family="SourceCodePro-Regular" font-size="50.0" fill="#52575F" transform="matrix(1.00, 0.00, -0.00, -1.00, 990.0, 428.0)">4</text><text xml:space="preserve" font-family="SourceCodePro-Regular" font-size="50.0" fill="#52575F" transform="matrix(1.00, 0.00, -0.00, -1.00, 1020.0, 428.0)">5</text><text xml:space="preserve" font-family="SourceCodePro-Regular" font-size="50.0" fill="#52575F" transform="matrix(1.00, 0.00, -0.00, -1.00, 1050.0, 428.0)">c</text><text xml:space="preserve" font-family="SourceCodePro-Regular" font-size="50.0" fill="#52575F" transform="matrix(1.00, 0.00, -0.00, -1.00, 1080.0, 428.0)">e</text><text xml:space="preserve" font-family="SourceCodePro-Regular" font-size="50.0" fill="#52575F" transform="matrix(1.00, 0.00, -0.00, -1.00, 1110.0, 428.0)">8</text><text xml:space="preserve" font-family="SourceCodePro-Regular" font-size="50.0" fill="#52575F" transform="matrix(1.00, 0.00, -0.00, -1.00, 1140.0, 428.0)">5</text><text xml:space="preserve" font-family="SourceCodePro-Regular" font-size="50.0" fill="#52575F" transform="matrix(1.00, 0.00, -0.00, -1.00, 1170.0, 428.0)">8</text><text xml:space="preserve" font-family="SourceCodePro-Regular" font-size="50.0" fill="#52575F" transform="matrix(1.00, 0.00, -0.00, -1.00, 1200.0, 428.0)">8</text><text xml:space="preserve" font-family="SourceCodePro-Regular" font-size="50.0" fill="#52575F" transform="matrix(1.00, 0.00, -0.00, -1.00, 1230.0, 428.0)">a</text><text xml:space="preserve" font-family="SourceCodePro-Regular" font-size="50.0" fill="#52575F" transform="matrix(1.00, 0.00, -0.00, -1.00, 1260.0, 428.0)">e</text><text xml:space="preserve" font-family="SourceCodePro-Regular" font-size="50.0" fill="#52575F" transform="matrix(1.00, 0.00, -0.00, -1.00, 1290.0, 428.0)">d</text><text xml:space="preserve" font-family="SourceCodePro-Regular" font-size="50.0" fill="#52575F" transform="matrix(1.00, 0.00, -0.00, -1.00, 1320.0, 428.0)">f</text><text xml:space="preserve" font-family="SourceCodePro-Regular" font-size="50.0" fill="#52575F" transform="matrix(1.00, 0.00, -0.00, -1.00, 1350.0, 428.0)">9</text><text xml:space="preserve" font-family="SourceCodePro-Regular" font-size="50.0" fill="#52575F" transform="matrix(1.00, 0.00, -0.00, -1.00, 1380.0, 428.0)">3</text><text xml:space="preserve" font-family="SourceCodePro-Regular" font-size="50.0" fill="#52575F" transform="matrix(1.00, 0.00, -0.00, -1.00, 1410.0, 428.0)">"</text><text xml:space="preserve" font-family="SourceCodePro-Regular" font-size="50.0" fill="#52575F" transform="matrix(1.00, 0.00, -0.00, -1.00, 1440.0, 428.0)">,</text><text xml:space="preserve" font-family="SourceCodePro-Regular" font-size="50.0" fill="#52575F" transform="matrix(1.00, 0.00, -0.00, -1.00, 1470.0, 428.0)"> </text><text xml:space="preserve" font-family="SourceCodePro-Regular" font-size="50.0" fill="#52575F" transform="matrix(1.00, 0.00, -0.00, -1.00, 270.0, 365.0)"> </text><text xml:space="preserve" font-family="SourceCodePro-Regular" font-size="50.0" fill="#52575F" transform="matrix(1.00, 0.00, -0.00, -1.00, 300.0, 365.0)"> </text><text xml:space="preserve" font-family="SourceCodePro-Regular" font-size="50.0" fill="#52575F" transform="matrix(1.00, 0.00, -0.00, -1.00, 330.0, 365.0)"> </text><text xml:space="preserve" font-family="SourceCodePro-Regular" font-size="50.0" fill="#52575F" transform="matrix(1.00, 0.00, -0.00, -1.00, 360.0, 365.0)"> </text><text xml:space="preserve" font-family="SourceCodePro-Regular" font-size="50.0" fill="#52575F" transform="matrix(1.00, 0.00, -0.00, -1.00, 390.0, 365.0)"> </text><text xml:space="preserve" font-family="SourceCodePro-Regular" font-size="50.0" fill="#52575F" transform="matrix(1.00, 0.00, -0.00, -1.00, 420.0, 365.0)"> </text><text xml:space="preserve" font-family="SourceCodePro-Regular" font-size="50.0" fill="#52575F" transform="matrix(1.00, 0.00, -0.00, -1.00, 450.0, 365.0)">"</text><text xml:space="preserve" font-family="SourceCodePro-Regular" font-size="50.0" fill="#52575F" transform="matrix(1.00, 0.00, -0.00, -1.00, 480.0, 365.0)">u</text><text xml:space="preserve" font-family="SourceCodePro-Regular" font-size="50.0" fill="#52575F" transform="matrix(1.00, 0.00, -0.00, -1.00, 510.0, 365.0)">p</text><text xml:space="preserve" font-family="SourceCodePro-Regular" font-size="50.0" fill="#52575F" transform="matrix(1.00, 0.00, -0.00, -1.00, 540.0, 365.0)">d</text><text xml:space="preserve" font-family="SourceCodePro-Regular" font-size="50.0" fill="#52575F" transform="matrix(1.00, 0.00, -0.00, -1.00, 570.0, 365.0)">a</text><text xml:space="preserve" font-family="SourceCodePro-Regular" font-size="50.0" fill="#52575F" transform="matrix(1.00, 0.00, -0.00, -1.00, 600.0, 365.0)">t</text><text xml:space="preserve" font-family="SourceCodePro-Regular" font-size="50.0" fill="#52575F" transform="matrix(1.00, 0.00, -0.00, -1.00, 630.0, 365.0)">e</text><text xml:space="preserve" font-family="SourceCodePro-Regular" font-size="50.0" fill="#52575F" transform="matrix(1.00, 0.00, -0.00, -1.00, 660.0, 365.0)">d</text><text xml:space="preserve" font-family="SourceCodePro-Regular" font-size="50.0" fill="#52575F" transform="matrix(1.00, 0.00, -0.00, -1.00, 690.0, 365.0)">_</text><text xml:space="preserve" font-family="SourceCodePro-Regular" font-size="50.0" fill="#52575F" transform="matrix(1.00, 0.00, -0.00, -1.00, 720.0, 365.0)">a</text><text xml:space="preserve" font-family="SourceCodePro-Regular" font-size="50.0" fill="#52575F" transform="matrix(1.00, 0.00, -0.00, -1.00, 750.0, 365.0)">t</text><text xml:space="preserve" font-family="SourceCodePro-Regular" font-size="50.0" fill="#52575F" transform="matrix(1.00, 0.00, -0.00, -1.00, 780.0, 365.0)">"</text><text xml:space="preserve" font-family="SourceCodePro-Regular" font-size="50.0" fill="#52575F" transform="matrix(1.00, 0.00, -0.00, -1.00, 810.0, 365.0)">:</text><text xml:space="preserve" font-family="SourceCodePro-Regular" font-size="50.0" fill="#52575F" transform="matrix(1.00, 0.00, -0.00, -1.00, 840.0, 365.0)">"</text><text xml:space="preserve" font-family="SourceCodePro-Regular" font-size="50.0" fill="#52575F" transform="matrix(1.00, 0.00, -0.00, -1.00, 870.0, 365.0)">2</text><text xml:space="preserve" font-family="SourceCodePro-Regular" font-size="50.0" fill="#52575F" transform="matrix(1.00, 0.00, -0.00, -1.00, 900.0, 365.0)">0</text><text xml:space="preserve" font-family="SourceCodePro-Regular" font-size="50.0" fill="#52575F" transform="matrix(1.00, 0.00, -0.00, -1.00, 930.0, 365.0)">1</text><text xml:space="preserve" font-family="SourceCodePro-Regular" font-size="50.0" fill="#52575F" transform="matrix(1.00, 0.00, -0.00, -1.00, 960.0, 365.0)">6</text><text xml:space="preserve" font-family="SourceCodePro-Regular" font-size="50.0" fill="#52575F" transform="matrix(1.00, 0.00, -0.00, -1.00, 990.0, 365.0)">-</text><text xml:space="preserve" font-family="SourceCodePro-Regular" font-size="50.0" fill="#52575F" transform="matrix(1.00, 0.00, -0.00, -1.00, 1020.0, 365.0)">0</text><text xml:space="preserve" font-family="SourceCodePro-Regular" font-size="50.0" fill="#52575F" transform="matrix(1.00, 0.00, -0.00, -1.00, 1050.0, 365.0)">6</text><text xml:space="preserve" font-family="SourceCodePro-Regular" font-size="50.0" fill="#52575F" transform="matrix(1.00, 0.00, -0.00, -1.00, 1080.0, 365.0)">-</text><text xml:space="preserve" font-family="SourceCodePro-Regular" font-size="50.0" fill="#52575F" transform="matrix(1.00, 0.00, -0.00, -1.00, 1110.0, 365.0)">0</text><text xml:space="preserve" font-family="SourceCodePro-Regular" font-size="50.0" fill="#52575F" transform="matrix(1.00, 0.00, -0.00, -1.00, 1140.0, 365.0)">5</text><text xml:space="preserve" font-family="SourceCodePro-Regular" font-size="50.0" fill="#52575F" transform="matrix(1.00, 0.00, -0.00, -1.00, 1170.0, 365.0)">T</text><text xml:space="preserve" font-family="SourceCodePro-Regular" font-size="50.0" fill="#52575F" transform="matrix(1.00, 0.00, -0.00, -1.00, 1200.0, 365.0)">1</text><text xml:space="preserve" font-family="SourceCodePro-Regular" font-size="50.0" fill="#52575F" transform="matrix(1.00, 0.00, -0.00, -1.00, 1230.0, 365.0)">9</text><text xml:space="preserve" font-family="SourceCodePro-Regular" font-size="50.0" fill="#52575F" transform="matrix(1.00, 0.00, -0.00, -1.00, 1260.0, 365.0)">:</text><text xml:space="preserve" font-family="SourceCodePro-Regular" font-size="50.0" fill="#52575F" transform="matrix(1.00, 0.00, -0.00, -1.00, 1290.0, 365.0)">5</text><text xml:space="preserve" font-family="SourceCodePro-Regular" font-size="50.0" fill="#52575F" transform="matrix(1.00, 0.00, -0.00, -1.00, 1320.0, 365.0)">0</text><text xml:space="preserve" font-family="SourceCodePro-Regular" font-size="50.0" fill="#52575F" transform="matrix(1.00, 0.00, -0.00, -1.00, 1350.0, 365.0)">:</text><text xml:space="preserve" font-family="SourceCodePro-Regular" font-size="50.0" fill="#52575F" transform="matrix(1.00, 0.00, -0.00, -1.00, 1380.0, 365.0)">4</text><text xml:space="preserve" font-family="SourceCodePro-Regular" font-size="50.0" fill="#52575F" transform="matrix(1.00, 0.00, -0.00, -1.00, 1410.0, 365.0)">9</text><text xml:space="preserve" font-family="SourceCodePro-Regular" font-size="50.0" fill="#52575F" transform="matrix(1.00, 0.00, -0.00, -1.00, 1440.0, 365.0)">.</text><text xml:space="preserve" font-family="SourceCodePro-Regular" font-size="50.0" fill="#52575F" transform="matrix(1.00, 0.00, -0.00, -1.00, 1470.0, 365.0)">1</text><text xml:space="preserve" font-family="SourceCodePro-Regular" font-size="50.0" fill="#52575F" transform="matrix(1.00, 0.00, -0.00, -1.00, 1500.0, 365.0)">9</text><text xml:space="preserve" font-family="SourceCodePro-Regular" font-size="50.0" fill="#52575F" transform="matrix(1.00, 0.00, -0.00, -1.00, 1530.0, 365.0)">6</text><text xml:space="preserve" font-family="SourceCodePro-Regular" font-size="50.0" fill="#52575F" transform="matrix(1.00, 0.00, -0.00, -1.00, 1560.0, 365.0)">Z</text><text xml:space="preserve" font-family="SourceCodePro-Regular" font-size="50.0" fill="#52575F" transform="matrix(1.00, 0.00, -0.00, -1.00, 1590.0, 365.0)">"</text><text xml:space="preserve" font-family="SourceCodePro-Regular" font-size="50.0" fill="#52575F" transform="matrix(1.00, 0.00, -0.00, -1.00, 1620.0, 365.0)"> </text><text xml:space="preserve" font-family="SourceCodePro-Regular" font-size="50.0" fill="#52575F" transform="matrix(1.00, 0.00, -0.00, -1.00, 270.0, 302.0)"> </text><text xml:space="preserve" font-family="SourceCodePro-Regular" font-size="50.0" fill="#52575F" transform="matrix(1.00, 0.00, -0.00, -1.00, 300.0, 302.0)"> </text><text xml:space="preserve" font-family="SourceCodePro-Regular" font-size="50.0" fill="#52575F" transform="matrix(1.00, 0.00, -0.00, -1.00, 330.0, 302.0)"> </text><text xml:space="preserve" font-family="SourceCodePro-Regular" font-size="50.0" fill="#52575F" transform="matrix(1.00, 0.00, -0.00, -1.00, 360.0, 302.0)">}</text><text xml:space="preserve" font-family="SourceCodePro-Regular" font-size="50.0" fill="#52575F" transform="matrix(1.00, 0.00, -0.00, -1.00, 390.0, 302.0)"> </text><text xml:space="preserve" font-family="SourceCodePro-Regular" font-size="50.0" fill="#52575F" transform="matrix(1.00, 0.00, -0.00, -1.00, 270.0, 239.0)">}</text><text xml:space="preserve" font-family="SourceCodePro-Regular" font-size="50.0" fill="#52575F" transform="matrix(1.00, 0.00, -0.00, -1.00, 300.0, 239.0)"> </text></g></svg>