<?xml version="1.0" encoding="UTF-8" standalone="no"?><svg xmlns="http://www.w3.org/2000/svg" xmlns:xlink="http://www.w3.org/1999/xlink" clip-rule="evenodd" stroke-miterlimit="4.00" viewBox="0 0 1920 1080"><desc>SVG generated by Keynote</desc><defs></defs><g transform="matrix(1.00, 0.00, -0.00, -1.00, 0.0, 1080.0)"><path d="M 0.0 1080.0 L 1920.0 1080.0 L 1920.0 0.0 L 0.0 0.0 Z M 0.0 1080.0 " fill="#000000"></path><image xlink:href="../../8A66D2DA-9B6B-414C-A628-2EFC09FB9737/assets/2D354E6AABD69CE5F62DCBDF174EC920.jpeg" width="978.00" height="410.00" transform="matrix(2.64, 0.00, -0.00, -2.64, -448.0, 1082.0)"></image><image xlink:href="../../8A66D2DA-9B6B-414C-A628-2EFC09FB9737/assets/57E6428F4B1D41047630E2AFFE8110C5.png" width="210.00" height="44.00" transform="matrix(2.21, 0.00, -0.00, -2.20, 102.0, 520.0)"></image><text xml:space="preserve" font-family="HelveticaNeue-Light" font-size="97.0" fill="#FEFFFF" transform="matrix(1.00, 0.00, -0.00, -1.00, 98.0, 550.0)">J</text><text xml:space="preserve" font-family="HelveticaNeue-Light" font-size="97.0" fill="#FEFFFF" transform="matrix(1.00, 0.00, -0.00, -1.00, 146.5, 550.0)">e</text><text xml:space="preserve" font-family="HelveticaNeue-Light" font-size="97.0" fill="#FEFFFF" transform="matrix(1.00, 0.00, -0.00, -1.00, 196.8, 550.0)">s</text><text xml:space="preserve" font-family="HelveticaNeue-Light" font-size="97.0" fill="#FEFFFF" transform="matrix(1.00, 0.00, -0.00, -1.00, 243.5, 550.0)">s</text><text xml:space="preserve" font-family="HelveticaNeue-Light" font-size="97.0" fill="#FEFFFF" transform="matrix(1.00, 0.00, -0.00, -1.00, 290.2, 550.0)">e</text><text xml:space="preserve" font-family="HelveticaNeue-Light" font-size="97.0" fill="#FEFFFF" transform="matrix(1.00, 0.00, -0.00, -1.00, 340.5, 550.0)"> </text><text xml:space="preserve" font-family="HelveticaNeue-Light" font-size="97.0" fill="#FEFFFF" transform="matrix(1.00, 0.00, -0.00, -1.00, 367.5, 550.0)">J</text><text xml:space="preserve" font-family="HelveticaNeue-Light" font-size="97.0" fill="#FEFFFF" transform="matrix(1.00, 0.00, -0.00, -1.00, 416.0, 550.0)">a</text><text xml:space="preserve" font-family="HelveticaNeue-Light" font-size="97.0" fill="#FEFFFF" transform="matrix(1.00, 0.00, -0.00, -1.00, 466.3, 550.0)">m</text><text xml:space="preserve" font-family="HelveticaNeue-Light" font-size="97.0" fill="#FEFFFF" transform="matrix(1.00, 0.00, -0.00, -1.00, 547.1, 550.0)">e</text><text xml:space="preserve" font-family="HelveticaNeue-Light" font-size="97.0" fill="#FEFFFF" transform="matrix(1.00, 0.00, -0.00, -1.00, 597.5, 550.0)">s</text><text xml:space="preserve" font-family="HelveticaNeue-Light" font-size="97.0" fill="#FEFFFF" transform="matrix(1.00, 0.00, -0.00, -1.00, 644.1, 550.0)"> </text><text xml:space="preserve" font-family="HelveticaNeue-Light" font-size="97.0" fill="#FEFFFF" transform="matrix(1.00, 0.00, -0.00, -1.00, 671.1, 550.0)">G</text><text xml:space="preserve" font-family="HelveticaNeue-Light" font-size="97.0" fill="#FEFFFF" transform="matrix(1.00, 0.00, -0.00, -1.00, 743.0, 550.0)">a</text><text xml:space="preserve" font-family="HelveticaNeue-Light" font-size="97.0" fill="#FEFFFF" transform="matrix(1.00, 0.00, -0.00, -1.00, 793.3, 550.0)">r</text><text xml:space="preserve" font-family="HelveticaNeue-Light" font-size="97.0" fill="#FEFFFF" transform="matrix(1.00, 0.00, -0.00, -1.00, 823.9, 550.0)">r</text><text xml:space="preserve" font-family="HelveticaNeue-Light" font-size="97.0" fill="#FEFFFF" transform="matrix(1.00, 0.00, -0.00, -1.00, 852.7, 550.0)">e</text><text xml:space="preserve" font-family="HelveticaNeue-Light" font-size="97.0" fill="#FEFFFF" transform="matrix(1.00, 0.00, -0.00, -1.00, 903.0, 550.0)">t</text><text xml:space="preserve" font-family="HelveticaNeue-Light" font-size="97.0" fill="#FEFFFF" transform="matrix(1.00, 0.00, -0.00, -1.00, 931.7, 550.0)">t</text><text xml:space="preserve" font-family="HelveticaNeue-Light" font-size="132.0" fill="#FEFFFF" transform="matrix(1.00, 0.00, -0.00, -1.00, 94.0, 881.0)">‟</text><text xml:space="preserve" font-family="HelveticaNeue-Light" font-size="132.0" fill="#FEFFFF" transform="matrix(1.00, 0.00, -0.00, -1.00, 142.8, 881.0)">A</text><text xml:space="preserve" font-family="HelveticaNeue-Light" font-size="132.0" fill="#FEFFFF" transform="matrix(1.00, 0.00, -0.00, -1.00, 226.0, 881.0)">n</text><text xml:space="preserve" font-family="HelveticaNeue-Light" font-size="132.0" fill="#FEFFFF" transform="matrix(1.00, 0.00, -0.00, -1.00, 296.9, 881.0)">d</text><text xml:space="preserve" font-family="HelveticaNeue-Light" font-size="132.0" fill="#FEFFFF" transform="matrix(1.00, 0.00, -0.00, -1.00, 372.7, 881.0)"> </text><text xml:space="preserve" font-family="HelveticaNeue-Light" font-size="132.0" fill="#FEFFFF" transform="matrix(1.00, 0.00, -0.00, -1.00, 409.3, 881.0)">i</text><text xml:space="preserve" font-family="HelveticaNeue-Light" font-size="132.0" fill="#FEFFFF" transform="matrix(1.00, 0.00, -0.00, -1.00, 433.8, 881.0)">t</text><text xml:space="preserve" font-family="HelveticaNeue-Light" font-size="132.0" fill="#FEFFFF" transform="matrix(1.00, 0.00, -0.00, -1.00, 472.8, 881.0)"> </text><text xml:space="preserve" font-family="HelveticaNeue-Light" font-size="132.0" fill="#FEFFFF" transform="matrix(1.00, 0.00, -0.00, -1.00, 509.5, 881.0)">s</text><text xml:space="preserve" font-family="HelveticaNeue-Light" font-size="132.0" fill="#FEFFFF" transform="matrix(1.00, 0.00, -0.00, -1.00, 573.0, 881.0)">h</text><text xml:space="preserve" font-family="HelveticaNeue-Light" font-size="132.0" fill="#FEFFFF" transform="matrix(1.00, 0.00, -0.00, -1.00, 643.9, 881.0)">a</text><text xml:space="preserve" font-family="HelveticaNeue-Light" font-size="132.0" fill="#FEFFFF" transform="matrix(1.00, 0.00, -0.00, -1.00, 712.4, 881.0)">l</text><text xml:space="preserve" font-family="HelveticaNeue-Light" font-size="132.0" fill="#FEFFFF" transform="matrix(1.00, 0.00, -0.00, -1.00, 736.8, 881.0)">l</text><text xml:space="preserve" font-family="HelveticaNeue-Light" font-size="132.0" fill="#FEFFFF" transform="matrix(1.00, 0.00, -0.00, -1.00, 761.3, 881.0)"> </text><text xml:space="preserve" font-family="HelveticaNeue-Light" font-size="132.0" fill="#FEFFFF" transform="matrix(1.00, 0.00, -0.00, -1.00, 798.0, 881.0)">b</text><text xml:space="preserve" font-family="HelveticaNeue-Light" font-size="132.0" fill="#FEFFFF" transform="matrix(1.00, 0.00, -0.00, -1.00, 873.7, 881.0)">e</text><text xml:space="preserve" font-family="HelveticaNeue-Light" font-size="132.0" fill="#FEFFFF" transform="matrix(1.00, 0.00, -0.00, -1.00, 942.2, 881.0)"> </text><text xml:space="preserve" font-family="HelveticaNeue-Light" font-size="132.0" fill="#FEFFFF" transform="matrix(1.00, 0.00, -0.00, -1.00, 94.0, 721.0)">c</text><text xml:space="preserve" font-family="HelveticaNeue-Light" font-size="132.0" fill="#FEFFFF" transform="matrix(1.00, 0.00, -0.00, -1.00, 162.5, 721.0)">a</text><text xml:space="preserve" font-family="HelveticaNeue-Light" font-size="132.0" fill="#FEFFFF" transform="matrix(1.00, 0.00, -0.00, -1.00, 231.0, 721.0)">l</text><text xml:space="preserve" font-family="HelveticaNeue-Light" font-size="132.0" fill="#FEFFFF" transform="matrix(1.00, 0.00, -0.00, -1.00, 255.4, 721.0)">l</text><text xml:space="preserve" font-family="HelveticaNeue-Light" font-size="132.0" fill="#FEFFFF" transform="matrix(1.00, 0.00, -0.00, -1.00, 279.9, 721.0)">e</text><text xml:space="preserve" font-family="HelveticaNeue-Light" font-size="132.0" fill="#FEFFFF" transform="matrix(1.00, 0.00, -0.00, -1.00, 348.4, 721.0)">d</text><text xml:space="preserve" font-family="HelveticaNeue-Light" font-size="132.0" fill="#FEFFFF" transform="matrix(1.00, 0.00, -0.00, -1.00, 424.1, 721.0)"> </text><text xml:space="preserve" font-family="HelveticaNeue-Light" font-size="132.0" fill="#FEFFFF" transform="matrix(1.00, 0.00, -0.00, -1.00, 460.8, 721.0)">A</text><text xml:space="preserve" font-family="HelveticaNeue-Light" font-size="132.0" fill="#FEFFFF" transform="matrix(1.00, 0.00, -0.00, -1.00, 544.0, 721.0)">j</text><text xml:space="preserve" font-family="HelveticaNeue-Light" font-size="132.0" fill="#FEFFFF" transform="matrix(1.00, 0.00, -0.00, -1.00, 568.4, 721.0)">a</text><text xml:space="preserve" font-family="HelveticaNeue-Light" font-size="132.0" fill="#FEFFFF" transform="matrix(1.00, 0.00, -0.00, -1.00, 636.9, 721.0)">x</text><text xml:space="preserve" font-family="HelveticaNeue-Light" font-size="132.0" fill="#FEFFFF" transform="matrix(1.00, 0.00, -0.00, -1.00, 700.4, 721.0)">.</text><text xml:space="preserve" font-family="HelveticaNeue-Light" font-size="132.0" fill="#FEFFFF" transform="matrix(1.00, 0.00, -0.00, -1.00, 737.1, 721.0)">”</text><text xml:space="preserve" font-family="HelveticaNeue-Light" font-size="132.0" fill="#FEFFFF" transform="matrix(1.00, 0.00, -0.00, -1.00, 785.9, 721.0)">*</text><text xml:space="preserve" font-family="HelveticaNeue-Light" font-size="97.0" fill="#FEFFFF" transform="matrix(1.00, 0.00, -0.00, -1.00, 53.0, 188.0)">*</text><text xml:space="preserve" font-family="HelveticaNeue-Light" font-size="97.0" fill="#FEFFFF" transform="matrix(1.00, 0.00, -0.00, -1.00, 87.1, 188.0)"> </text><text xml:space="preserve" font-family="HelveticaNeue-Light" font-size="71.0" fill="#FEFFFF" transform="matrix(1.00, 0.00, -0.00, -1.00, 114.1, 188.0)">I</text><text xml:space="preserve" font-family="HelveticaNeue-Light" font-size="71.0" fill="#FEFFFF" transform="matrix(1.00, 0.00, -0.00, -1.00, 129.9, 188.0)">’</text><text xml:space="preserve" font-family="HelveticaNeue-Light" font-size="71.0" fill="#FEFFFF" transform="matrix(1.00, 0.00, -0.00, -1.00, 149.6, 188.0)">m</text><text xml:space="preserve" font-family="HelveticaNeue-Light" font-size="71.0" fill="#FEFFFF" transform="matrix(1.00, 0.00, -0.00, -1.00, 208.8, 188.0)"> </text><text xml:space="preserve" font-family="HelveticaNeue-Light" font-size="71.0" fill="#FEFFFF" transform="matrix(1.00, 0.00, -0.00, -1.00, 228.5, 188.0)">p</text><text xml:space="preserve" font-family="HelveticaNeue-Light" font-size="71.0" fill="#FEFFFF" transform="matrix(1.00, 0.00, -0.00, -1.00, 269.2, 188.0)">a</text><text xml:space="preserve" font-family="HelveticaNeue-Light" font-size="71.0" fill="#FEFFFF" transform="matrix(1.00, 0.00, -0.00, -1.00, 306.1, 188.0)">r</text><text xml:space="preserve" font-family="HelveticaNeue-Light" font-size="71.0" fill="#FEFFFF" transform="matrix(1.00, 0.00, -0.00, -1.00, 328.5, 188.0)">a</text><text xml:space="preserve" font-family="HelveticaNeue-Light" font-size="71.0" fill="#FEFFFF" transform="matrix(1.00, 0.00, -0.00, -1.00, 365.3, 188.0)">p</text><text xml:space="preserve" font-family="HelveticaNeue-Light" font-size="71.0" fill="#FEFFFF" transform="matrix(1.00, 0.00, -0.00, -1.00, 406.1, 188.0)">h</text><text xml:space="preserve" font-family="HelveticaNeue-Light" font-size="71.0" fill="#FEFFFF" transform="matrix(1.00, 0.00, -0.00, -1.00, 444.2, 188.0)">r</text><text xml:space="preserve" font-family="HelveticaNeue-Light" font-size="71.0" fill="#FEFFFF" transform="matrix(1.00, 0.00, -0.00, -1.00, 466.6, 188.0)">a</text><text xml:space="preserve" font-family="HelveticaNeue-Light" font-size="71.0" fill="#FEFFFF" transform="matrix(1.00, 0.00, -0.00, -1.00, 503.4, 188.0)">s</text><text xml:space="preserve" font-family="HelveticaNeue-Light" font-size="71.0" fill="#FEFFFF" transform="matrix(1.00, 0.00, -0.00, -1.00, 537.6, 188.0)">i</text><text xml:space="preserve" font-family="HelveticaNeue-Light" font-size="71.0" fill="#FEFFFF" transform="matrix(1.00, 0.00, -0.00, -1.00, 550.7, 188.0)">n</text><text xml:space="preserve" font-family="HelveticaNeue-Light" font-size="71.0" fill="#FEFFFF" transform="matrix(1.00, 0.00, -0.00, -1.00, 588.8, 188.0)">g</text><text xml:space="preserve" font-family="HelveticaNeue-Light" font-size="71.0" fill="#FEFFFF" transform="matrix(1.00, 0.00, -0.00, -1.00, 628.3, 188.0)">.</text><text xml:space="preserve" font-family="HelveticaNeue-Light" font-size="54.0" fill="#FEFFFF" transform="matrix(1.00, 0.00, -0.00, -1.00, 115.0, 78.0)">h</text><text xml:space="preserve" font-family="HelveticaNeue-Light" font-size="54.0" fill="#FEFFFF" transform="matrix(1.00, 0.00, -0.00, -1.00, 144.0, 78.0)">t</text><text xml:space="preserve" font-family="HelveticaNeue-Light" font-size="54.0" fill="#FEFFFF" transform="matrix(1.00, 0.00, -0.00, -1.00, 160.0, 78.0)">t</text><text xml:space="preserve" font-family="HelveticaNeue-Light" font-size="54.0" fill="#FEFFFF" transform="matrix(1.00, 0.00, -0.00, -1.00, 176.0, 78.0)">p</text><text xml:space="preserve" font-family="HelveticaNeue-Light" font-size="54.0" fill="#FEFFFF" transform="matrix(1.00, 0.00, -0.00, -1.00, 207.0, 78.0)">:</text><text xml:space="preserve" font-family="HelveticaNeue-Light" font-size="54.0" fill="#FEFFFF" transform="matrix(1.00, 0.00, -0.00, -1.00, 222.0, 78.0)">/</text><text xml:space="preserve" font-family="HelveticaNeue-Light" font-size="54.0" fill="#FEFFFF" transform="matrix(1.00, 0.00, -0.00, -1.00, 240.0, 78.0)">/</text><text xml:space="preserve" font-family="HelveticaNeue-Light" font-size="54.0" fill="#FEFFFF" transform="matrix(1.00, 0.00, -0.00, -1.00, 257.9, 78.0)">w</text><text xml:space="preserve" font-family="HelveticaNeue-Light" font-size="54.0" fill="#FEFFFF" transform="matrix(1.00, 0.00, -0.00, -1.00, 298.0, 78.0)">w</text><text xml:space="preserve" font-family="HelveticaNeue-Light" font-size="54.0" fill="#FEFFFF" transform="matrix(1.00, 0.00, -0.00, -1.00, 338.0, 78.0)">w</text><text xml:space="preserve" font-family="HelveticaNeue-Light" font-size="54.0" fill="#FEFFFF" transform="matrix(1.00, 0.00, -0.00, -1.00, 375.0, 78.0)">.</text><text xml:space="preserve" font-family="HelveticaNeue-Light" font-size="54.0" fill="#FEFFFF" transform="matrix(1.00, 0.00, -0.00, -1.00, 390.0, 78.0)">a</text><text xml:space="preserve" font-family="HelveticaNeue-Light" font-size="54.0" fill="#FEFFFF" transform="matrix(1.00, 0.00, -0.00, -1.00, 418.0, 78.0)">d</text><text xml:space="preserve" font-family="HelveticaNeue-Light" font-size="54.0" fill="#FEFFFF" transform="matrix(1.00, 0.00, -0.00, -1.00, 449.0, 78.0)">a</text><text xml:space="preserve" font-family="HelveticaNeue-Light" font-size="54.0" fill="#FEFFFF" transform="matrix(1.00, 0.00, -0.00, -1.00, 477.1, 78.0)">p</text><text xml:space="preserve" font-family="HelveticaNeue-Light" font-size="54.0" fill="#FEFFFF" transform="matrix(1.00, 0.00, -0.00, -1.00, 508.1, 78.0)">t</text><text xml:space="preserve" font-family="HelveticaNeue-Light" font-size="54.0" fill="#FEFFFF" transform="matrix(1.00, 0.00, -0.00, -1.00, 524.0, 78.0)">i</text><text xml:space="preserve" font-family="HelveticaNeue-Light" font-size="54.0" fill="#FEFFFF" transform="matrix(1.00, 0.00, -0.00, -1.00, 534.0, 78.0)">v</text><text xml:space="preserve" font-family="HelveticaNeue-Light" font-size="54.0" fill="#FEFFFF" transform="matrix(1.00, 0.00, -0.00, -1.00, 559.0, 78.0)">e</text><text xml:space="preserve" font-family="HelveticaNeue-Light" font-size="54.0" fill="#FEFFFF" transform="matrix(1.00, 0.00, -0.00, -1.00, 587.1, 78.0)">p</text><text xml:space="preserve" font-family="HelveticaNeue-Light" font-size="54.0" fill="#FEFFFF" transform="matrix(1.00, 0.00, -0.00, -1.00, 618.1, 78.0)">a</text><text xml:space="preserve" font-family="HelveticaNeue-Light" font-size="54.0" fill="#FEFFFF" transform="matrix(1.00, 0.00, -0.00, -1.00, 646.1, 78.0)">t</text><text xml:space="preserve" font-family="HelveticaNeue-Light" font-size="54.0" fill="#FEFFFF" transform="matrix(1.00, 0.00, -0.00, -1.00, 662.1, 78.0)">h</text><text xml:space="preserve" font-family="HelveticaNeue-Light" font-size="54.0" fill="#FEFFFF" transform="matrix(1.00, 0.00, -0.00, -1.00, 691.1, 78.0)">.</text><text xml:space="preserve" font-family="HelveticaNeue-Light" font-size="54.0" fill="#FEFFFF" transform="matrix(1.00, 0.00, -0.00, -1.00, 706.1, 78.0)">c</text><text xml:space="preserve" font-family="HelveticaNeue-Light" font-size="54.0" fill="#FEFFFF" transform="matrix(1.00, 0.00, -0.00, -1.00, 734.1, 78.0)">o</text><text xml:space="preserve" font-family="HelveticaNeue-Light" font-size="54.0" fill="#FEFFFF" transform="matrix(1.00, 0.00, -0.00, -1.00, 764.1, 78.0)">m</text><text xml:space="preserve" font-family="HelveticaNeue-Light" font-size="54.0" fill="#FEFFFF" transform="matrix(1.00, 0.00, -0.00, -1.00, 809.1, 78.0)">/</text><text xml:space="preserve" font-family="HelveticaNeue-Light" font-size="54.0" fill="#FEFFFF" transform="matrix(1.00, 0.00, -0.00, -1.00, 827.1, 78.0)">i</text><text xml:space="preserve" font-family="HelveticaNeue-Light" font-size="54.0" fill="#FEFFFF" transform="matrix(1.00, 0.00, -0.00, -1.00, 837.1, 78.0)">d</text><text xml:space="preserve" font-family="HelveticaNeue-Light" font-size="54.0" fill="#FEFFFF" transform="matrix(1.00, 0.00, -0.00, -1.00, 868.1, 78.0)">e</text><text xml:space="preserve" font-family="HelveticaNeue-Light" font-size="54.0" fill="#FEFFFF" transform="matrix(1.00, 0.00, -0.00, -1.00, 896.1, 78.0)">a</text><text xml:space="preserve" font-family="HelveticaNeue-Light" font-size="54.0" fill="#FEFFFF" transform="matrix(1.00, 0.00, -0.00, -1.00, 924.1, 78.0)">s</text><text xml:space="preserve" font-family="HelveticaNeue-Light" font-size="54.0" fill="#FEFFFF" transform="matrix(1.00, 0.00, -0.00, -1.00, 950.1, 78.0)">/</text><text xml:space="preserve" font-family="HelveticaNeue-Light" font-size="54.0" fill="#FEFFFF" transform="matrix(1.00, 0.00, -0.00, -1.00, 968.1, 78.0)">a</text><text xml:space="preserve" font-family="HelveticaNeue-Light" font-size="54.0" fill="#FEFFFF" transform="matrix(1.00, 0.00, -0.00, -1.00, 996.1, 78.0)">j</text><text xml:space="preserve" font-family="HelveticaNeue-Light" font-size="54.0" fill="#FEFFFF" transform="matrix(1.00, 0.00, -0.00, -1.00, 1006.1, 78.0)">a</text><text xml:space="preserve" font-family="HelveticaNeue-Light" font-size="54.0" fill="#FEFFFF" transform="matrix(1.00, 0.00, -0.00, -1.00, 1034.1, 78.0)">x</text><text xml:space="preserve" font-family="HelveticaNeue-Light" font-size="54.0" fill="#FEFFFF" transform="matrix(1.00, 0.00, -0.00, -1.00, 1060.1, 78.0)">-</text><text xml:space="preserve" font-family="HelveticaNeue-Light" font-size="54.0" fill="#FEFFFF" transform="matrix(1.00, 0.00, -0.00, -1.00, 1080.1, 78.0)">n</text><text xml:space="preserve" font-family="HelveticaNeue-Light" font-size="54.0" fill="#FEFFFF" transform="matrix(1.00, 0.00, -0.00, -1.00, 1109.1, 78.0)">e</text><text xml:space="preserve" font-family="HelveticaNeue-Light" font-size="54.0" fill="#FEFFFF" transform="matrix(1.00, 0.00, -0.00, -1.00, 1137.1, 78.0)">w</text><text xml:space="preserve" font-family="HelveticaNeue-Light" font-size="54.0" fill="#FEFFFF" transform="matrix(1.00, 0.00, -0.00, -1.00, 1177.1, 78.0)">-</text><text xml:space="preserve" font-family="HelveticaNeue-Light" font-size="54.0" fill="#FEFFFF" transform="matrix(1.00, 0.00, -0.00, -1.00, 1197.1, 78.0)">a</text><text xml:space="preserve" font-family="HelveticaNeue-Light" font-size="54.0" fill="#FEFFFF" transform="matrix(1.00, 0.00, -0.00, -1.00, 1225.1, 78.0)">p</text><text xml:space="preserve" font-family="HelveticaNeue-Light" font-size="54.0" fill="#FEFFFF" transform="matrix(1.00, 0.00, -0.00, -1.00, 1256.1, 78.0)">p</text><text xml:space="preserve" font-family="HelveticaNeue-Light" font-size="54.0" fill="#FEFFFF" transform="matrix(1.00, 0.00, -0.00, -1.00, 1287.1, 78.0)">r</text><text xml:space="preserve" font-family="HelveticaNeue-Light" font-size="54.0" fill="#FEFFFF" transform="matrix(1.00, 0.00, -0.00, -1.00, 1303.2, 78.0)">o</text><text xml:space="preserve" font-family="HelveticaNeue-Light" font-size="54.0" fill="#FEFFFF" transform="matrix(1.00, 0.00, -0.00, -1.00, 1333.2, 78.0)">a</text><text xml:space="preserve" font-family="HelveticaNeue-Light" font-size="54.0" fill="#FEFFFF" transform="matrix(1.00, 0.00, -0.00, -1.00, 1361.2, 78.0)">c</text><text xml:space="preserve" font-family="HelveticaNeue-Light" font-size="54.0" fill="#FEFFFF" transform="matrix(1.00, 0.00, -0.00, -1.00, 1389.2, 78.0)">h</text><text xml:space="preserve" font-family="HelveticaNeue-Light" font-size="54.0" fill="#FEFFFF" transform="matrix(1.00, 0.00, -0.00, -1.00, 1418.2, 78.0)">-</text><text xml:space="preserve" font-family="HelveticaNeue-Light" font-size="54.0" fill="#FEFFFF" transform="matrix(1.00, 0.00, -0.00, -1.00, 1438.2, 78.0)">w</text><text xml:space="preserve" font-family="HelveticaNeue-Light" font-size="54.0" fill="#FEFFFF" transform="matrix(1.00, 0.00, -0.00, -1.00, 1478.2, 78.0)">e</text><text xml:space="preserve" font-family="HelveticaNeue-Light" font-size="54.0" fill="#FEFFFF" transform="matrix(1.00, 0.00, -0.00, -1.00, 1506.3, 78.0)">b</text><text xml:space="preserve" font-family="HelveticaNeue-Light" font-size="54.0" fill="#FEFFFF" transform="matrix(1.00, 0.00, -0.00, -1.00, 1537.3, 78.0)">-</text><text xml:space="preserve" font-family="HelveticaNeue-Light" font-size="54.0" fill="#FEFFFF" transform="matrix(1.00, 0.00, -0.00, -1.00, 1557.2, 78.0)">a</text><text xml:space="preserve" font-family="HelveticaNeue-Light" font-size="54.0" fill="#FEFFFF" transform="matrix(1.00, 0.00, -0.00, -1.00, 1585.3, 78.0)">p</text><text xml:space="preserve" font-family="HelveticaNeue-Light" font-size="54.0" fill="#FEFFFF" transform="matrix(1.00, 0.00, -0.00, -1.00, 1616.3, 78.0)">p</text><text xml:space="preserve" font-family="HelveticaNeue-Light" font-size="54.0" fill="#FEFFFF" transform="matrix(1.00, 0.00, -0.00, -1.00, 1647.3, 78.0)">l</text><text xml:space="preserve" font-family="HelveticaNeue-Light" font-size="54.0" fill="#FEFFFF" transform="matrix(1.00, 0.00, -0.00, -1.00, 1657.2, 78.0)">i</text><text xml:space="preserve" font-family="HelveticaNeue-Light" font-size="54.0" fill="#FEFFFF" transform="matrix(1.00, 0.00, -0.00, -1.00, 1667.2, 78.0)">c</text><text xml:space="preserve" font-family="HelveticaNeue-Light" font-size="54.0" fill="#FEFFFF" transform="matrix(1.00, 0.00, -0.00, -1.00, 1695.3, 78.0)">a</text><text xml:space="preserve" font-family="HelveticaNeue-Light" font-size="54.0" fill="#FEFFFF" transform="matrix(1.00, 0.00, -0.00, -1.00, 1723.3, 78.0)">t</text><text xml:space="preserve" font-family="HelveticaNeue-Light" font-size="54.0" fill="#FEFFFF" transform="matrix(1.00, 0.00, -0.00, -1.00, 1739.3, 78.0)">i</text><text xml:space="preserve" font-family="HelveticaNeue-Light" font-size="54.0" fill="#FEFFFF" transform="matrix(1.00, 0.00, -0.00, -1.00, 1749.3, 78.0)">o</text><text xml:space="preserve" font-family="HelveticaNeue-Light" font-size="54.0" fill="#FEFFFF" transform="matrix(1.00, 0.00, -0.00, -1.00, 1779.3, 78.0)">n</text><text xml:space="preserve" font-family="HelveticaNeue-Light" font-size="54.0" fill="#FEFFFF" transform="matrix(1.00, 0.00, -0.00, -1.00, 1808.3, 78.0)">s</text><text xml:space="preserve" font-family="HelveticaNeue-Light" font-size="54.0" fill="#FEFFFF" transform="matrix(1.00, 0.00, -0.00, -1.00, 1834.3, 78.0)">/</text><g><clipPath id="clip-37"><path d="M 114.4 70.2 L 1852.6 70.2 L 1852.6 74.9 L 114.4 74.9 Z M 114.4 70.2 "></path></clipPath><g clip-path="url(#clip-37)"><path d="M 134.9 64.0 L 1872.1 64.0 " fill="none" stroke="#FEFFFF" stroke-width="2.70" stroke-miterlimit="0.00" transform="matrix(1.00, 0.00, 0.00, -1.00, -19.5, 136.5)"></path></g></g></g></svg>