<?xml version="1.0" encoding="UTF-8" standalone="no"?><svg xmlns="http://www.w3.org/2000/svg" xmlns:xlink="http://www.w3.org/1999/xlink" clip-rule="evenodd" stroke-miterlimit="4.00" viewBox="0 0 1920 1080"><desc>SVG generated by Keynote</desc><defs></defs><g transform="matrix(1.00, 0.00, -0.00, -1.00, 0.0, 1080.0)"><path d="M 0.0 1080.0 L 1920.0 1080.0 L 1920.0 0.0 L 0.0 0.0 Z M 0.0 1080.0 " fill="#000000"></path><text xml:space="preserve" font-family="HelveticaNeue-Thin" font-size="150.0" fill="#FEFFFF" transform="matrix(1.00, 0.00, -0.00, -1.00, 479.0, 484.0)">I</text><text xml:space="preserve" font-family="HelveticaNeue-Thin" font-size="150.0" fill="#FEFFFF" transform="matrix(1.00, 0.00, -0.00, -1.00, 504.5, 484.0)">t</text><text xml:space="preserve" font-family="HelveticaNeue-Thin" font-size="150.0" fill="#FEFFFF" transform="matrix(1.00, 0.00, -0.00, -1.00, 543.4, 484.0)">'</text><text xml:space="preserve" font-family="HelveticaNeue-Thin" font-size="150.0" fill="#FEFFFF" transform="matrix(1.00, 0.00, -0.00, -1.00, 574.0, 484.0)">s</text><text xml:space="preserve" font-family="HelveticaNeue-Thin" font-size="150.0" fill="#FEFFFF" transform="matrix(1.00, 0.00, -0.00, -1.00, 646.1, 484.0)"> </text><text xml:space="preserve" font-family="HelveticaNeue-Thin" font-size="150.0" fill="#FEFFFF" transform="matrix(1.00, 0.00, -0.00, -1.00, 687.8, 484.0)">n</text><text xml:space="preserve" font-family="HelveticaNeue-Thin" font-size="150.0" fill="#FEFFFF" transform="matrix(1.00, 0.00, -0.00, -1.00, 765.6, 484.0)">o</text><text xml:space="preserve" font-family="HelveticaNeue-Thin" font-size="150.0" fill="#FEFFFF" transform="matrix(1.00, 0.00, -0.00, -1.00, 846.2, 484.0)">t</text><text xml:space="preserve" font-family="HelveticaNeue-Thin" font-size="150.0" fill="#FEFFFF" transform="matrix(1.00, 0.00, -0.00, -1.00, 885.0, 484.0)"> </text><text xml:space="preserve" font-family="HelveticaNeue-Thin" font-size="150.0" fill="#FEFFFF" transform="matrix(1.00, 0.00, -0.00, -1.00, 926.8, 484.0)">t</text><text xml:space="preserve" font-family="HelveticaNeue-Thin" font-size="150.0" fill="#FEFFFF" transform="matrix(1.00, 0.00, -0.00, -1.00, 965.6, 484.0)">h</text><text xml:space="preserve" font-family="HelveticaNeue-Thin" font-size="150.0" fill="#FEFFFF" transform="matrix(1.00, 0.00, -0.00, -1.00, 1043.5, 484.0)">a</text><text xml:space="preserve" font-family="HelveticaNeue-Thin" font-size="150.0" fill="#FEFFFF" transform="matrix(1.00, 0.00, -0.00, -1.00, 1118.5, 484.0)">t</text><text xml:space="preserve" font-family="HelveticaNeue-Thin" font-size="150.0" fill="#FEFFFF" transform="matrix(1.00, 0.00, -0.00, -1.00, 1157.3, 484.0)"> </text><text xml:space="preserve" font-family="HelveticaNeue-Thin" font-size="150.0" fill="#FEFFFF" transform="matrix(1.00, 0.00, -0.00, -1.00, 1199.0, 484.0)">b</text><text xml:space="preserve" font-family="HelveticaNeue-Thin" font-size="150.0" fill="#FEFFFF" transform="matrix(1.00, 0.00, -0.00, -1.00, 1282.4, 484.0)">a</text><text xml:space="preserve" font-family="HelveticaNeue-Thin" font-size="150.0" fill="#FEFFFF" transform="matrix(1.00, 0.00, -0.00, -1.00, 1357.4, 484.0)">d</text><text xml:space="preserve" font-family="ITCFranklinGothicStd-Demi" font-weight="bold" font-size="202.0" fill="#FEFFFF" transform="matrix(1.00, 0.00, -0.00, -1.00, 473.0, 784.0)">R</text><text xml:space="preserve" font-family="ITCFranklinGothicStd-Demi" font-weight="bold" font-size="202.0" fill="#FEFFFF" transform="matrix(1.00, 0.00, -0.00, -1.00, 606.3, 784.0)">e</text><text xml:space="preserve" font-family="ITCFranklinGothicStd-Demi" font-weight="bold" font-size="202.0" fill="#FEFFFF" transform="matrix(1.00, 0.00, -0.00, -1.00, 715.4, 784.0)">a</text><text xml:space="preserve" font-family="ITCFranklinGothicStd-Demi" font-weight="bold" font-size="202.0" fill="#FEFFFF" transform="matrix(1.00, 0.00, -0.00, -1.00, 824.5, 784.0)">s</text><text xml:space="preserve" font-family="ITCFranklinGothicStd-Demi" font-weight="bold" font-size="202.0" fill="#FEFFFF" transform="matrix(1.00, 0.00, -0.00, -1.00, 925.5, 784.0)">o</text><text xml:space="preserve" font-family="ITCFranklinGothicStd-Demi" font-weight="bold" font-size="202.0" fill="#FEFFFF" transform="matrix(1.00, 0.00, -0.00, -1.00, 1034.6, 784.0)">n</text><text xml:space="preserve" font-family="ITCFranklinGothicStd-Demi" font-weight="bold" font-size="202.0" fill="#FEFFFF" transform="matrix(1.00, 0.00, -0.00, -1.00, 1143.6, 784.0)"> </text><text xml:space="preserve" font-family="ITCFranklinGothicStd-Demi" font-weight="bold" font-size="202.0" fill="#FEFFFF" transform="matrix(1.00, 0.00, -0.00, -1.00, 1204.2, 784.0)">#</text><text xml:space="preserve" font-family="ITCFranklinGothicStd-Demi" font-weight="bold" font-size="202.0" fill="#FEFFFF" transform="matrix(1.00, 0.00, -0.00, -1.00, 1325.4, 784.0)">2</text></g></svg>