<?xml version="1.0" encoding="UTF-8" standalone="no"?><svg xmlns="http://www.w3.org/2000/svg" xmlns:xlink="http://www.w3.org/1999/xlink" clip-rule="evenodd" stroke-miterlimit="4.00" viewBox="0 0 1920 1080"><desc>SVG generated by Keynote</desc><defs></defs><g transform="matrix(1.00, 0.00, -0.00, -1.00, 0.0, 1080.0)"><path d="M 0.0 1080.0 L 1920.0 1080.0 L 1920.0 0.0 L 0.0 0.0 Z M 0.0 1080.0 " fill="#FEFFFE"></path><text xml:space="preserve" font-family="HelveticaNeue-Thin" font-size="127.0" fill="#000000" transform="matrix(1.00, 0.00, -0.00, -1.00, 826.0, 760.0)">X</text><text xml:space="preserve" font-family="HelveticaNeue-Thin" font-size="127.0" fill="#000000" transform="matrix(1.00, 0.00, -0.00, -1.00, 896.6, 760.0)">t</text><text xml:space="preserve" font-family="HelveticaNeue-Thin" font-size="127.0" fill="#000000" transform="matrix(1.00, 0.00, -0.00, -1.00, 927.7, 760.0)">e</text><text xml:space="preserve" font-family="HelveticaNeue-Thin" font-size="127.0" fill="#000000" transform="matrix(1.00, 0.00, -0.00, -1.00, 993.6, 760.0)">r</text><text xml:space="preserve" font-family="HelveticaNeue-Thin" font-size="127.0" fill="#000000" transform="matrix(1.00, 0.00, -0.00, -1.00, 1028.9, 760.0)">n</text><text xml:space="preserve" font-family="HelveticaNeue-Thin" font-size="127.0" fill="#000000" transform="matrix(1.00, 0.00, -0.00, -1.00, 1094.9, 760.0)"> </text><text xml:space="preserve" font-family="ITCFranklinGothicStd-Demi" font-weight="bold" font-size="227.0" fill="#000000" transform="matrix(1.00, 0.00, -0.00, -1.00, 356.0, 574.0)">B</text><text xml:space="preserve" font-family="ITCFranklinGothicStd-Demi" font-weight="bold" font-size="227.0" fill="#000000" transform="matrix(1.00, 0.00, -0.00, -1.00, 505.8, 574.0)">O</text><text xml:space="preserve" font-family="ITCFranklinGothicStd-Demi" font-weight="bold" font-size="227.0" fill="#000000" transform="matrix(1.00, 0.00, -0.00, -1.00, 655.6, 574.0)">O</text><text xml:space="preserve" font-family="ITCFranklinGothicStd-Demi" font-weight="bold" font-size="227.0" fill="#000000" transform="matrix(1.00, 0.00, -0.00, -1.00, 805.5, 574.0)">T</text><text xml:space="preserve" font-family="ITCFranklinGothicStd-Demi" font-weight="bold" font-size="227.0" fill="#000000" transform="matrix(1.00, 0.00, -0.00, -1.00, 928.0, 574.0)">C</text><text xml:space="preserve" font-family="ITCFranklinGothicStd-Demi" font-weight="bold" font-size="227.0" fill="#000000" transform="matrix(1.00, 0.00, -0.00, -1.00, 1077.9, 574.0)">A</text><text xml:space="preserve" font-family="ITCFranklinGothicStd-Demi" font-weight="bold" font-size="227.0" fill="#000000" transform="matrix(1.00, 0.00, -0.00, -1.00, 1223.1, 574.0)">M</text><text xml:space="preserve" font-family="ITCFranklinGothicStd-Demi" font-weight="bold" font-size="227.0" fill="#000000" transform="matrix(1.00, 0.00, -0.00, -1.00, 1422.9, 574.0)">P</text><text xml:space="preserve" font-family="ITCFranklinGothicStd-Demi" font-weight="bold" font-size="83.0" fill="#000000" transform="matrix(1.00, 0.00, -0.00, -1.00, 676.0, 425.0)">W</text><text xml:space="preserve" font-family="ITCFranklinGothicStd-Demi" font-weight="bold" font-size="83.0" fill="#000000" transform="matrix(1.00, 0.00, -0.00, -1.00, 747.4, 425.0)">e</text><text xml:space="preserve" font-family="ITCFranklinGothicStd-Demi" font-weight="bold" font-size="83.0" fill="#000000" transform="matrix(1.00, 0.00, -0.00, -1.00, 792.2, 425.0)">e</text><text xml:space="preserve" font-family="ITCFranklinGothicStd-Demi" font-weight="bold" font-size="83.0" fill="#000000" transform="matrix(1.00, 0.00, -0.00, -1.00, 837.0, 425.0)">k</text><text xml:space="preserve" font-family="ITCFranklinGothicStd-Demi" font-weight="bold" font-size="83.0" fill="#000000" transform="matrix(1.00, 0.00, -0.00, -1.00, 883.5, 425.0)"> </text><text xml:space="preserve" font-family="ITCFranklinGothicStd-Demi" font-weight="bold" font-size="83.0" fill="#000000" transform="matrix(1.00, 0.00, -0.00, -1.00, 908.4, 425.0)">1</text><text xml:space="preserve" font-family="ITCFranklinGothicStd-Demi" font-weight="bold" font-size="83.0" fill="#000000" transform="matrix(1.00, 0.00, -0.00, -1.00, 958.2, 425.0)"> </text><text xml:space="preserve" font-family="ITCFranklinGothicStd-Demi" font-weight="bold" font-size="83.0" fill="#000000" transform="matrix(1.00, 0.00, -0.00, -1.00, 983.1, 425.0)">|</text><text xml:space="preserve" font-family="ITCFranklinGothicStd-Demi" font-weight="bold" font-size="83.0" fill="#000000" transform="matrix(1.00, 0.00, -0.00, -1.00, 1008.0, 425.0)"> </text><text xml:space="preserve" font-family="ITCFranklinGothicStd-Demi" font-weight="bold" font-size="83.0" fill="#000000" transform="matrix(1.00, 0.00, -0.00, -1.00, 1032.9, 425.0)">D</text><text xml:space="preserve" font-family="ITCFranklinGothicStd-Demi" font-weight="bold" font-size="83.0" fill="#000000" transform="matrix(1.00, 0.00, -0.00, -1.00, 1087.7, 425.0)">a</text><text xml:space="preserve" font-family="ITCFranklinGothicStd-Demi" font-weight="bold" font-size="83.0" fill="#000000" transform="matrix(1.00, 0.00, -0.00, -1.00, 1130.4, 425.0)">y</text><text xml:space="preserve" font-family="ITCFranklinGothicStd-Demi" font-weight="bold" font-size="83.0" fill="#000000" transform="matrix(1.00, 0.00, -0.00, -1.00, 1170.3, 425.0)"> </text><text xml:space="preserve" font-family="ITCFranklinGothicStd-Demi" font-weight="bold" font-size="83.0" fill="#000000" transform="matrix(1.00, 0.00, -0.00, -1.00, 1195.2, 425.0)">2</text><text xml:space="preserve" font-family="LucidaGrande-Bold" font-weight="bold" font-size="83.0" fill="#000000" transform="matrix(1.00, 0.00, -0.00, -1.00, 1245.0, 425.0)"> </text><text xml:space="preserve" font-family="ITCFranklinGothicStd-Demi" font-weight="bold" font-size="67.0" fill="#000000" transform="matrix(1.00, 0.00, -0.00, -1.00, 763.0, 336.0)">J</text><text xml:space="preserve" font-family="ITCFranklinGothicStd-Demi" font-weight="bold" font-size="67.0" fill="#000000" transform="matrix(1.00, 0.00, -0.00, -1.00, 789.8, 336.0)">u</text><text xml:space="preserve" font-family="ITCFranklinGothicStd-Demi" font-weight="bold" font-size="67.0" fill="#000000" transform="matrix(1.00, 0.00, -0.00, -1.00, 826.0, 336.0)">n</text><text xml:space="preserve" font-family="ITCFranklinGothicStd-Demi" font-weight="bold" font-size="67.0" fill="#000000" transform="matrix(1.00, 0.00, -0.00, -1.00, 862.2, 336.0)">e</text><text xml:space="preserve" font-family="ITCFranklinGothicStd-Demi" font-weight="bold" font-size="67.0" fill="#000000" transform="matrix(1.00, 0.00, -0.00, -1.00, 898.3, 336.0)"> </text><text xml:space="preserve" font-family="ITCFranklinGothicStd-Demi" font-weight="bold" font-size="67.0" fill="#000000" transform="matrix(1.00, 0.00, -0.00, -1.00, 918.4, 336.0)">1</text><text xml:space="preserve" font-family="ITCFranklinGothicStd-Demi" font-weight="bold" font-size="67.0" fill="#000000" transform="matrix(1.00, 0.00, -0.00, -1.00, 958.6, 336.0)">,</text><text xml:space="preserve" font-family="ITCFranklinGothicStd-Demi" font-weight="bold" font-size="67.0" fill="#000000" transform="matrix(1.00, 0.00, -0.00, -1.00, 975.4, 336.0)"> </text><text xml:space="preserve" font-family="ITCFranklinGothicStd-Demi" font-weight="bold" font-size="67.0" fill="#000000" transform="matrix(1.00, 0.00, -0.00, -1.00, 995.5, 336.0)">2</text><text xml:space="preserve" font-family="ITCFranklinGothicStd-Demi" font-weight="bold" font-size="67.0" fill="#000000" transform="matrix(1.00, 0.00, -0.00, -1.00, 1035.7, 336.0)">0</text><text xml:space="preserve" font-family="ITCFranklinGothicStd-Demi" font-weight="bold" font-size="67.0" fill="#000000" transform="matrix(1.00, 0.00, -0.00, -1.00, 1075.9, 336.0)">1</text><text xml:space="preserve" font-family="ITCFranklinGothicStd-Demi" font-weight="bold" font-size="67.0" fill="#000000" transform="matrix(1.00, 0.00, -0.00, -1.00, 1116.1, 336.0)">6</text></g></svg>