<?xml version="1.0" encoding="UTF-8" standalone="no"?><svg xmlns="http://www.w3.org/2000/svg" xmlns:xlink="http://www.w3.org/1999/xlink" clip-rule="evenodd" stroke-miterlimit="4.00" viewBox="0 0 1920 1080"><desc>SVG generated by Keynote</desc><defs></defs><g transform="matrix(1.00, 0.00, -0.00, -1.00, 0.0, 1080.0)"><path d="M 0.0 1080.0 L 1920.0 1080.0 L 1920.0 0.0 L 0.0 0.0 Z M 0.0 1080.0 " fill="#FEFFFE"></path><text xml:space="preserve" font-family="HelveticaNeue-Thin" font-size="86.0" fill="#000000" transform="matrix(1.00, 0.00, -0.00, -1.00, 643.0, 870.0)">A</text><text xml:space="preserve" font-family="HelveticaNeue-Thin" font-size="86.0" fill="#000000" transform="matrix(1.00, 0.00, -0.00, -1.00, 694.0, 870.0)">d</text><text xml:space="preserve" font-family="HelveticaNeue-Thin" font-size="86.0" fill="#000000" transform="matrix(1.00, 0.00, -0.00, -1.00, 741.8, 870.0)">d</text><text xml:space="preserve" font-family="HelveticaNeue-Thin" font-size="86.0" fill="#000000" transform="matrix(1.00, 0.00, -0.00, -1.00, 789.6, 870.0)">i</text><text xml:space="preserve" font-family="HelveticaNeue-Thin" font-size="86.0" fill="#000000" transform="matrix(1.00, 0.00, -0.00, -1.00, 804.1, 870.0)">n</text><text xml:space="preserve" font-family="HelveticaNeue-Thin" font-size="86.0" fill="#000000" transform="matrix(1.00, 0.00, -0.00, -1.00, 848.7, 870.0)">g</text><text xml:space="preserve" font-family="HelveticaNeue-Thin" font-size="86.0" fill="#000000" transform="matrix(1.00, 0.00, -0.00, -1.00, 894.9, 870.0)"> </text><text xml:space="preserve" font-family="HelveticaNeue-Thin" font-size="86.0" fill="#000000" transform="matrix(1.00, 0.00, -0.00, -1.00, 918.8, 870.0)">p</text><text xml:space="preserve" font-family="HelveticaNeue-Thin" font-size="86.0" fill="#000000" transform="matrix(1.00, 0.00, -0.00, -1.00, 966.6, 870.0)">r</text><text xml:space="preserve" font-family="HelveticaNeue-Thin" font-size="86.0" fill="#000000" transform="matrix(1.00, 0.00, -0.00, -1.00, 989.5, 870.0)">o</text><text xml:space="preserve" font-family="HelveticaNeue-Thin" font-size="86.0" fill="#000000" transform="matrix(1.00, 0.00, -0.00, -1.00, 1035.7, 870.0)">p</text><text xml:space="preserve" font-family="HelveticaNeue-Thin" font-size="86.0" fill="#000000" transform="matrix(1.00, 0.00, -0.00, -1.00, 1083.5, 870.0)">e</text><text xml:space="preserve" font-family="HelveticaNeue-Thin" font-size="86.0" fill="#000000" transform="matrix(1.00, 0.00, -0.00, -1.00, 1128.1, 870.0)">r</text><text xml:space="preserve" font-family="HelveticaNeue-Thin" font-size="86.0" fill="#000000" transform="matrix(1.00, 0.00, -0.00, -1.00, 1154.3, 870.0)">t</text><text xml:space="preserve" font-family="HelveticaNeue-Thin" font-size="86.0" fill="#000000" transform="matrix(1.00, 0.00, -0.00, -1.00, 1176.5, 870.0)">i</text><text xml:space="preserve" font-family="HelveticaNeue-Thin" font-size="86.0" fill="#000000" transform="matrix(1.00, 0.00, -0.00, -1.00, 1191.0, 870.0)">e</text><text xml:space="preserve" font-family="HelveticaNeue-Thin" font-size="86.0" fill="#000000" transform="matrix(1.00, 0.00, -0.00, -1.00, 1235.6, 870.0)">s</text><text xml:space="preserve" font-family="CourierNewPSMT" font-size="64.0" fill="#2C9DDA" transform="matrix(1.00, 0.00, -0.00, -1.00, 191.0, 667.0)"> </text><text xml:space="preserve" font-family="CourierNewPSMT" font-size="64.0" fill="#2C9DDA" transform="matrix(1.00, 0.00, -0.00, -1.00, 229.4, 667.0)"> </text><text xml:space="preserve" font-family="CourierNewPSMT" font-size="64.0" fill="#2C9DDA" transform="matrix(1.00, 0.00, -0.00, -1.00, 267.8, 667.0)"> </text><text xml:space="preserve" font-family="CourierNewPSMT" font-size="64.0" fill="#2C9DDA" transform="matrix(1.00, 0.00, -0.00, -1.00, 306.2, 667.0)"> </text><text xml:space="preserve" font-family="CourierNewPSMT" font-size="64.0" fill="#2C9DDA" transform="matrix(1.00, 0.00, -0.00, -1.00, 344.7, 667.0)">1</text><text xml:space="preserve" font-family="CourierNewPSMT" font-size="64.0" fill="#2C9DDA" transform="matrix(1.00, 0.00, -0.00, -1.00, 383.1, 667.0)"> </text><text xml:space="preserve" font-family="CourierNewPSMT" font-size="64.0" fill="#D6601A" transform="matrix(1.00, 0.00, -0.00, -1.00, 421.4, 667.0)">v</text><text xml:space="preserve" font-family="CourierNewPSMT" font-size="64.0" fill="#D6601A" transform="matrix(1.00, 0.00, -0.00, -1.00, 459.9, 667.0)">a</text><text xml:space="preserve" font-family="CourierNewPSMT" font-size="64.0" fill="#D6601A" transform="matrix(1.00, 0.00, -0.00, -1.00, 498.3, 667.0)">r</text><text xml:space="preserve" font-family="CourierNewPSMT" font-size="64.0" fill="#000000" transform="matrix(1.00, 0.00, -0.00, -1.00, 536.7, 667.0)"> </text><text xml:space="preserve" font-family="CourierNewPSMT" font-size="64.0" fill="#94A4A6" transform="matrix(1.00, 0.00, -0.00, -1.00, 575.1, 667.0)">t</text><text xml:space="preserve" font-family="CourierNewPSMT" font-size="64.0" fill="#94A4A6" transform="matrix(1.00, 0.00, -0.00, -1.00, 613.5, 667.0)">h</text><text xml:space="preserve" font-family="CourierNewPSMT" font-size="64.0" fill="#94A4A6" transform="matrix(1.00, 0.00, -0.00, -1.00, 651.9, 667.0)">i</text><text xml:space="preserve" font-family="CourierNewPSMT" font-size="64.0" fill="#94A4A6" transform="matrix(1.00, 0.00, -0.00, -1.00, 690.3, 667.0)">n</text><text xml:space="preserve" font-family="CourierNewPSMT" font-size="64.0" fill="#94A4A6" transform="matrix(1.00, 0.00, -0.00, -1.00, 728.7, 667.0)">g</text><text xml:space="preserve" font-family="CourierNewPSMT" font-size="64.0" fill="#94A4A6" transform="matrix(1.00, 0.00, -0.00, -1.00, 767.1, 667.0)">s</text><text xml:space="preserve" font-family="CourierNewPSMT" font-size="64.0" fill="#000000" transform="matrix(1.00, 0.00, -0.00, -1.00, 805.5, 667.0)"> </text><text xml:space="preserve" font-family="CourierNewPSMT" font-size="64.0" fill="#A3B0B0" transform="matrix(1.00, 0.00, -0.00, -1.00, 843.9, 667.0)">=</text><text xml:space="preserve" font-family="CourierNewPSMT" font-size="64.0" fill="#A3B0B0" transform="matrix(1.00, 0.00, -0.00, -1.00, 882.3, 667.0)"> </text><text xml:space="preserve" font-family="CourierNewPSMT" font-size="64.0" fill="#A3B0B0" transform="matrix(1.00, 0.00, -0.00, -1.00, 920.7, 667.0)">{</text><text xml:space="preserve" font-family="CourierNewPSMT" font-size="64.0" fill="#000000" transform="matrix(1.00, 0.00, -0.00, -1.00, 959.1, 667.0)"> </text><text xml:space="preserve" font-family="CourierNewPSMT" font-size="64.0" fill="#2C9DDA" transform="matrix(1.00, 0.00, -0.00, -1.00, 191.0, 595.0)"> </text><text xml:space="preserve" font-family="CourierNewPSMT" font-size="64.0" fill="#2C9DDA" transform="matrix(1.00, 0.00, -0.00, -1.00, 229.4, 595.0)"> </text><text xml:space="preserve" font-family="CourierNewPSMT" font-size="64.0" fill="#2C9DDA" transform="matrix(1.00, 0.00, -0.00, -1.00, 267.8, 595.0)"> </text><text xml:space="preserve" font-family="CourierNewPSMT" font-size="64.0" fill="#2C9DDA" transform="matrix(1.00, 0.00, -0.00, -1.00, 306.2, 595.0)"> </text><text xml:space="preserve" font-family="CourierNewPSMT" font-size="64.0" fill="#2C9DDA" transform="matrix(1.00, 0.00, -0.00, -1.00, 344.7, 595.0)">2</text><text xml:space="preserve" font-family="CourierNewPSMT" font-size="64.0" fill="#2C9DDA" transform="matrix(1.00, 0.00, -0.00, -1.00, 383.1, 595.0)"> </text><text xml:space="preserve" font-family="CourierNewPSMT" font-size="64.0" fill="#94A4A6" transform="matrix(1.00, 0.00, -0.00, -1.00, 421.4, 595.0)"> </text><text xml:space="preserve" font-family="CourierNewPSMT" font-size="64.0" fill="#94A4A6" transform="matrix(1.00, 0.00, -0.00, -1.00, 459.9, 595.0)"> </text><text xml:space="preserve" font-family="CourierNewPSMT" font-size="64.0" fill="#94A4A6" transform="matrix(1.00, 0.00, -0.00, -1.00, 498.3, 595.0)">c</text><text xml:space="preserve" font-family="CourierNewPSMT" font-size="64.0" fill="#94A4A6" transform="matrix(1.00, 0.00, -0.00, -1.00, 536.7, 595.0)">o</text><text xml:space="preserve" font-family="CourierNewPSMT" font-size="64.0" fill="#94A4A6" transform="matrix(1.00, 0.00, -0.00, -1.00, 575.1, 595.0)">u</text><text xml:space="preserve" font-family="CourierNewPSMT" font-size="64.0" fill="#94A4A6" transform="matrix(1.00, 0.00, -0.00, -1.00, 613.5, 595.0)">n</text><text xml:space="preserve" font-family="CourierNewPSMT" font-size="64.0" fill="#94A4A6" transform="matrix(1.00, 0.00, -0.00, -1.00, 651.9, 595.0)">t</text><text xml:space="preserve" font-family="CourierNewPSMT" font-size="64.0" fill="#94A4A6" transform="matrix(1.00, 0.00, -0.00, -1.00, 690.3, 595.0)">r</text><text xml:space="preserve" font-family="CourierNewPSMT" font-size="64.0" fill="#94A4A6" transform="matrix(1.00, 0.00, -0.00, -1.00, 728.7, 595.0)">y</text><text xml:space="preserve" font-family="CourierNewPSMT" font-size="64.0" fill="#A3B0B0" transform="matrix(1.00, 0.00, -0.00, -1.00, 767.1, 595.0)">:</text><text xml:space="preserve" font-family="CourierNewPSMT" font-size="64.0" fill="#000000" transform="matrix(1.00, 0.00, -0.00, -1.00, 805.5, 595.0)"> </text><text xml:space="preserve" font-family="CourierNewPSMT" font-size="64.0" fill="#E5493C" transform="matrix(1.00, 0.00, -0.00, -1.00, 843.9, 595.0)">'</text><text xml:space="preserve" font-family="CourierNewPSMT" font-size="64.0" fill="#E5493C" transform="matrix(1.00, 0.00, -0.00, -1.00, 882.3, 595.0)">U</text><text xml:space="preserve" font-family="CourierNewPSMT" font-size="64.0" fill="#E5493C" transform="matrix(1.00, 0.00, -0.00, -1.00, 920.7, 595.0)">S</text><text xml:space="preserve" font-family="CourierNewPSMT" font-size="64.0" fill="#E5493C" transform="matrix(1.00, 0.00, -0.00, -1.00, 959.1, 595.0)">A</text><text xml:space="preserve" font-family="CourierNewPSMT" font-size="64.0" fill="#E5493C" transform="matrix(1.00, 0.00, -0.00, -1.00, 997.6, 595.0)">'</text><text xml:space="preserve" font-family="CourierNewPSMT" font-size="64.0" fill="#000000" transform="matrix(1.00, 0.00, -0.00, -1.00, 1035.9, 595.0)"> </text><text xml:space="preserve" font-family="CourierNewPSMT" font-size="64.0" fill="#2C9DDA" transform="matrix(1.00, 0.00, -0.00, -1.00, 191.0, 523.0)"> </text><text xml:space="preserve" font-family="CourierNewPSMT" font-size="64.0" fill="#2C9DDA" transform="matrix(1.00, 0.00, -0.00, -1.00, 229.4, 523.0)"> </text><text xml:space="preserve" font-family="CourierNewPSMT" font-size="64.0" fill="#2C9DDA" transform="matrix(1.00, 0.00, -0.00, -1.00, 267.8, 523.0)"> </text><text xml:space="preserve" font-family="CourierNewPSMT" font-size="64.0" fill="#2C9DDA" transform="matrix(1.00, 0.00, -0.00, -1.00, 306.2, 523.0)"> </text><text xml:space="preserve" font-family="CourierNewPSMT" font-size="64.0" fill="#2C9DDA" transform="matrix(1.00, 0.00, -0.00, -1.00, 344.7, 523.0)">3</text><text xml:space="preserve" font-family="CourierNewPSMT" font-size="64.0" fill="#2C9DDA" transform="matrix(1.00, 0.00, -0.00, -1.00, 383.1, 523.0)"> </text><text xml:space="preserve" font-family="CourierNewPSMT" font-size="64.0" fill="#A3B0B0" transform="matrix(1.00, 0.00, -0.00, -1.00, 421.4, 523.0)">}</text><text xml:space="preserve" font-family="CourierNewPSMT" font-size="64.0" fill="#A3B0B0" transform="matrix(1.00, 0.00, -0.00, -1.00, 459.9, 523.0)">;</text><text xml:space="preserve" font-family="CourierNewPSMT" font-size="64.0" fill="#000000" transform="matrix(1.00, 0.00, -0.00, -1.00, 498.2, 523.0)"> </text><text xml:space="preserve" font-family="CourierNewPSMT" font-size="64.0" fill="#2C9DDA" transform="matrix(1.00, 0.00, -0.00, -1.00, 191.0, 451.0)"> </text><text xml:space="preserve" font-family="CourierNewPSMT" font-size="64.0" fill="#2C9DDA" transform="matrix(1.00, 0.00, -0.00, -1.00, 229.4, 451.0)"> </text><text xml:space="preserve" font-family="CourierNewPSMT" font-size="64.0" fill="#2C9DDA" transform="matrix(1.00, 0.00, -0.00, -1.00, 267.8, 451.0)"> </text><text xml:space="preserve" font-family="CourierNewPSMT" font-size="64.0" fill="#2C9DDA" transform="matrix(1.00, 0.00, -0.00, -1.00, 306.2, 451.0)"> </text><text xml:space="preserve" font-family="CourierNewPSMT" font-size="64.0" fill="#2C9DDA" transform="matrix(1.00, 0.00, -0.00, -1.00, 344.7, 451.0)">4</text><text xml:space="preserve" font-family="CourierNewPSMT" font-size="64.0" fill="#2C9DDA" transform="matrix(1.00, 0.00, -0.00, -1.00, 383.1, 451.0)"> </text><text xml:space="preserve" font-family="CourierNewPSMT" font-size="64.0" fill="#94A4A6" transform="matrix(1.00, 0.00, -0.00, -1.00, 421.4, 451.0)"> </text><text xml:space="preserve" font-family="CourierNewPSMT" font-size="64.0" fill="#2C9DDA" transform="matrix(1.00, 0.00, -0.00, -1.00, 191.0, 379.0)"> </text><text xml:space="preserve" font-family="CourierNewPSMT" font-size="64.0" fill="#2C9DDA" transform="matrix(1.00, 0.00, -0.00, -1.00, 229.4, 379.0)"> </text><text xml:space="preserve" font-family="CourierNewPSMT" font-size="64.0" fill="#2C9DDA" transform="matrix(1.00, 0.00, -0.00, -1.00, 267.8, 379.0)"> </text><text xml:space="preserve" font-family="CourierNewPSMT" font-size="64.0" fill="#2C9DDA" transform="matrix(1.00, 0.00, -0.00, -1.00, 306.2, 379.0)"> </text><text xml:space="preserve" font-family="CourierNewPSMT" font-size="64.0" fill="#2C9DDA" transform="matrix(1.00, 0.00, -0.00, -1.00, 344.7, 379.0)">5</text><text xml:space="preserve" font-family="CourierNewPSMT" font-size="64.0" fill="#2C9DDA" transform="matrix(1.00, 0.00, -0.00, -1.00, 383.1, 379.0)"> </text><text xml:space="preserve" font-family="CourierNewPSMT" font-size="64.0" fill="#94A4A6" transform="matrix(1.00, 0.00, -0.00, -1.00, 421.4, 379.0)">t</text><text xml:space="preserve" font-family="CourierNewPSMT" font-size="64.0" fill="#94A4A6" transform="matrix(1.00, 0.00, -0.00, -1.00, 459.9, 379.0)">h</text><text xml:space="preserve" font-family="CourierNewPSMT" font-size="64.0" fill="#94A4A6" transform="matrix(1.00, 0.00, -0.00, -1.00, 498.3, 379.0)">i</text><text xml:space="preserve" font-family="CourierNewPSMT" font-size="64.0" fill="#94A4A6" transform="matrix(1.00, 0.00, -0.00, -1.00, 536.7, 379.0)">n</text><text xml:space="preserve" font-family="CourierNewPSMT" font-size="64.0" fill="#94A4A6" transform="matrix(1.00, 0.00, -0.00, -1.00, 575.1, 379.0)">g</text><text xml:space="preserve" font-family="CourierNewPSMT" font-size="64.0" fill="#94A4A6" transform="matrix(1.00, 0.00, -0.00, -1.00, 613.5, 379.0)">s</text><text xml:space="preserve" font-family="CourierNewPSMT" font-size="64.0" fill="#A3B0B0" transform="matrix(1.00, 0.00, -0.00, -1.00, 651.9, 379.0)">.</text><text xml:space="preserve" font-family="CourierNewPSMT" font-size="64.0" fill="#94A4A6" transform="matrix(1.00, 0.00, -0.00, -1.00, 690.3, 379.0)">a</text><text xml:space="preserve" font-family="CourierNewPSMT" font-size="64.0" fill="#94A4A6" transform="matrix(1.00, 0.00, -0.00, -1.00, 728.7, 379.0)">n</text><text xml:space="preserve" font-family="CourierNewPSMT" font-size="64.0" fill="#94A4A6" transform="matrix(1.00, 0.00, -0.00, -1.00, 767.1, 379.0)">i</text><text xml:space="preserve" font-family="CourierNewPSMT" font-size="64.0" fill="#94A4A6" transform="matrix(1.00, 0.00, -0.00, -1.00, 805.5, 379.0)">m</text><text xml:space="preserve" font-family="CourierNewPSMT" font-size="64.0" fill="#94A4A6" transform="matrix(1.00, 0.00, -0.00, -1.00, 843.9, 379.0)">a</text><text xml:space="preserve" font-family="CourierNewPSMT" font-size="64.0" fill="#94A4A6" transform="matrix(1.00, 0.00, -0.00, -1.00, 882.3, 379.0)">l</text><text xml:space="preserve" font-family="CourierNewPSMT" font-size="64.0" fill="#94A4A6" transform="matrix(1.00, 0.00, -0.00, -1.00, 920.8, 379.0)">s</text><text xml:space="preserve" font-family="CourierNewPSMT" font-size="64.0" fill="#000000" transform="matrix(1.00, 0.00, -0.00, -1.00, 959.1, 379.0)"> </text><text xml:space="preserve" font-family="CourierNewPSMT" font-size="64.0" fill="#A3B0B0" transform="matrix(1.00, 0.00, -0.00, -1.00, 997.5, 379.0)">=</text><text xml:space="preserve" font-family="CourierNewPSMT" font-size="64.0" fill="#A3B0B0" transform="matrix(1.00, 0.00, -0.00, -1.00, 1035.9, 379.0)"> </text><text xml:space="preserve" font-family="CourierNewPSMT" font-size="64.0" fill="#A3B0B0" transform="matrix(1.00, 0.00, -0.00, -1.00, 1074.4, 379.0)">[</text><text xml:space="preserve" font-family="CourierNewPSMT" font-size="64.0" fill="#E5493C" transform="matrix(1.00, 0.00, -0.00, -1.00, 1112.8, 379.0)">'</text><text xml:space="preserve" font-family="CourierNewPSMT" font-size="64.0" fill="#E5493C" transform="matrix(1.00, 0.00, -0.00, -1.00, 1151.2, 379.0)">d</text><text xml:space="preserve" font-family="CourierNewPSMT" font-size="64.0" fill="#E5493C" transform="matrix(1.00, 0.00, -0.00, -1.00, 1189.6, 379.0)">o</text><text xml:space="preserve" font-family="CourierNewPSMT" font-size="64.0" fill="#E5493C" transform="matrix(1.00, 0.00, -0.00, -1.00, 1228.0, 379.0)">g</text><text xml:space="preserve" font-family="CourierNewPSMT" font-size="64.0" fill="#E5493C" transform="matrix(1.00, 0.00, -0.00, -1.00, 1266.4, 379.0)">'</text><text xml:space="preserve" font-family="CourierNewPSMT" font-size="64.0" fill="#A3B0B0" transform="matrix(1.00, 0.00, -0.00, -1.00, 1304.8, 379.0)">,</text><text xml:space="preserve" font-family="CourierNewPSMT" font-size="64.0" fill="#000000" transform="matrix(1.00, 0.00, -0.00, -1.00, 1343.2, 379.0)"> </text><text xml:space="preserve" font-family="CourierNewPSMT" font-size="64.0" fill="#E5493C" transform="matrix(1.00, 0.00, -0.00, -1.00, 1381.6, 379.0)">'</text><text xml:space="preserve" font-family="CourierNewPSMT" font-size="64.0" fill="#E5493C" transform="matrix(1.00, 0.00, -0.00, -1.00, 1420.0, 379.0)">r</text><text xml:space="preserve" font-family="CourierNewPSMT" font-size="64.0" fill="#E5493C" transform="matrix(1.00, 0.00, -0.00, -1.00, 1458.4, 379.0)">h</text><text xml:space="preserve" font-family="CourierNewPSMT" font-size="64.0" fill="#E5493C" transform="matrix(1.00, 0.00, -0.00, -1.00, 1496.8, 379.0)">i</text><text xml:space="preserve" font-family="CourierNewPSMT" font-size="64.0" fill="#E5493C" transform="matrix(1.00, 0.00, -0.00, -1.00, 1535.2, 379.0)">n</text><text xml:space="preserve" font-family="CourierNewPSMT" font-size="64.0" fill="#E5493C" transform="matrix(1.00, 0.00, -0.00, -1.00, 1573.7, 379.0)">o</text><text xml:space="preserve" font-family="CourierNewPSMT" font-size="64.0" fill="#E5493C" transform="matrix(1.00, 0.00, -0.00, -1.00, 1612.1, 379.0)">'</text><text xml:space="preserve" font-family="CourierNewPSMT" font-size="64.0" fill="#A3B0B0" transform="matrix(1.00, 0.00, -0.00, -1.00, 1650.4, 379.0)">]</text><text xml:space="preserve" font-family="CourierNewPSMT" font-size="64.0" fill="#A3B0B0" transform="matrix(1.00, 0.00, -0.00, -1.00, 1688.9, 379.0)">;</text></g></svg>