<?xml version="1.0" encoding="UTF-8" standalone="no"?><svg xmlns="http://www.w3.org/2000/svg" xmlns:xlink="http://www.w3.org/1999/xlink" clip-rule="evenodd" stroke-miterlimit="4.00" viewBox="0 0 1920 1080"><desc>SVG generated by Keynote</desc><defs></defs><g transform="matrix(1.00, 0.00, -0.00, -1.00, 0.0, 1080.0)"><path d="M 0.0 1080.0 L 1920.0 1080.0 L 1920.0 0.0 L 0.0 0.0 Z M 0.0 1080.0 " fill="#FEFFFE"></path><text xml:space="preserve" font-family="SourceCodePro-Regular" font-size="94.0" fill="#DCDDE0" transform="matrix(1.00, 0.00, -0.00, -1.00, 142.0, 677.0)">$</text><text xml:space="preserve" font-family="SourceCodePro-Regular" font-size="94.0" fill="#52575F" transform="matrix(1.00, 0.00, -0.00, -1.00, 198.4, 677.0)"> </text><text xml:space="preserve" font-family="SourceCodePro-Regular" font-size="94.0" fill="#52575F" transform="matrix(1.00, 0.00, -0.00, -1.00, 254.8, 677.0)">g</text><text xml:space="preserve" font-family="SourceCodePro-Regular" font-size="94.0" fill="#52575F" transform="matrix(1.00, 0.00, -0.00, -1.00, 311.2, 677.0)">i</text><text xml:space="preserve" font-family="SourceCodePro-Regular" font-size="94.0" fill="#52575F" transform="matrix(1.00, 0.00, -0.00, -1.00, 367.6, 677.0)">t</text><text xml:space="preserve" font-family="SourceCodePro-Regular" font-size="94.0" fill="#52575F" transform="matrix(1.00, 0.00, -0.00, -1.00, 424.0, 677.0)"> </text><text xml:space="preserve" font-family="SourceCodePro-Regular" font-size="94.0" fill="#52575F" transform="matrix(1.00, 0.00, -0.00, -1.00, 480.4, 677.0)">c</text><text xml:space="preserve" font-family="SourceCodePro-Regular" font-size="94.0" fill="#52575F" transform="matrix(1.00, 0.00, -0.00, -1.00, 536.8, 677.0)">h</text><text xml:space="preserve" font-family="SourceCodePro-Regular" font-size="94.0" fill="#52575F" transform="matrix(1.00, 0.00, -0.00, -1.00, 593.2, 677.0)">e</text><text xml:space="preserve" font-family="SourceCodePro-Regular" font-size="94.0" fill="#52575F" transform="matrix(1.00, 0.00, -0.00, -1.00, 649.6, 677.0)">c</text><text xml:space="preserve" font-family="SourceCodePro-Regular" font-size="94.0" fill="#52575F" transform="matrix(1.00, 0.00, -0.00, -1.00, 706.0, 677.0)">k</text><text xml:space="preserve" font-family="SourceCodePro-Regular" font-size="94.0" fill="#52575F" transform="matrix(1.00, 0.00, -0.00, -1.00, 762.4, 677.0)">o</text><text xml:space="preserve" font-family="SourceCodePro-Regular" font-size="94.0" fill="#52575F" transform="matrix(1.00, 0.00, -0.00, -1.00, 818.8, 677.0)">u</text><text xml:space="preserve" font-family="SourceCodePro-Regular" font-size="94.0" fill="#52575F" transform="matrix(1.00, 0.00, -0.00, -1.00, 875.2, 677.0)">t</text><text xml:space="preserve" font-family="SourceCodePro-Regular" font-size="94.0" fill="#52575F" transform="matrix(1.00, 0.00, -0.00, -1.00, 931.6, 677.0)"> </text><text xml:space="preserve" font-family="SourceCodePro-Regular" font-size="94.0" fill="#52575F" transform="matrix(1.00, 0.00, -0.00, -1.00, 988.0, 677.0)">-</text><text xml:space="preserve" font-family="SourceCodePro-Regular" font-size="94.0" fill="#52575F" transform="matrix(1.00, 0.00, -0.00, -1.00, 1044.4, 677.0)">b</text><text xml:space="preserve" font-family="SourceCodePro-Regular" font-size="94.0" fill="#52575F" transform="matrix(1.00, 0.00, -0.00, -1.00, 1100.8, 677.0)"> </text><text xml:space="preserve" font-family="SourceCodePro-Regular" font-size="94.0" fill="#52575F" transform="matrix(1.00, 0.00, -0.00, -1.00, 1157.2, 677.0)">g</text><text xml:space="preserve" font-family="SourceCodePro-Regular" font-size="94.0" fill="#52575F" transform="matrix(1.00, 0.00, -0.00, -1.00, 1213.6, 677.0)">h</text><text xml:space="preserve" font-family="SourceCodePro-Regular" font-size="94.0" fill="#52575F" transform="matrix(1.00, 0.00, -0.00, -1.00, 1270.0, 677.0)">-</text><text xml:space="preserve" font-family="SourceCodePro-Regular" font-size="94.0" fill="#52575F" transform="matrix(1.00, 0.00, -0.00, -1.00, 1326.4, 677.0)">p</text><text xml:space="preserve" font-family="SourceCodePro-Regular" font-size="94.0" fill="#52575F" transform="matrix(1.00, 0.00, -0.00, -1.00, 1382.8, 677.0)">a</text><text xml:space="preserve" font-family="SourceCodePro-Regular" font-size="94.0" fill="#52575F" transform="matrix(1.00, 0.00, -0.00, -1.00, 1439.2, 677.0)">g</text><text xml:space="preserve" font-family="SourceCodePro-Regular" font-size="94.0" fill="#52575F" transform="matrix(1.00, 0.00, -0.00, -1.00, 1495.6, 677.0)">e</text><text xml:space="preserve" font-family="SourceCodePro-Regular" font-size="94.0" fill="#52575F" transform="matrix(1.00, 0.00, -0.00, -1.00, 1552.0, 677.0)">s</text><text xml:space="preserve" font-family="SourceCodePro-Regular" font-size="94.0" fill="#52575F" transform="matrix(1.00, 0.00, -0.00, -1.00, 1608.4, 677.0)"> </text><text xml:space="preserve" font-family="SourceCodePro-Regular" font-size="94.0" fill="#DCDDE0" transform="matrix(1.00, 0.00, -0.00, -1.00, 142.0, 559.0)">$</text><text xml:space="preserve" font-family="SourceCodePro-Regular" font-size="94.0" fill="#52575F" transform="matrix(1.00, 0.00, -0.00, -1.00, 198.4, 559.0)"> </text><text xml:space="preserve" font-family="SourceCodePro-Regular" font-size="94.0" fill="#52575F" transform="matrix(1.00, 0.00, -0.00, -1.00, 254.8, 559.0)">g</text><text xml:space="preserve" font-family="SourceCodePro-Regular" font-size="94.0" fill="#52575F" transform="matrix(1.00, 0.00, -0.00, -1.00, 311.2, 559.0)">i</text><text xml:space="preserve" font-family="SourceCodePro-Regular" font-size="94.0" fill="#52575F" transform="matrix(1.00, 0.00, -0.00, -1.00, 367.6, 559.0)">t</text><text xml:space="preserve" font-family="SourceCodePro-Regular" font-size="94.0" fill="#52575F" transform="matrix(1.00, 0.00, -0.00, -1.00, 424.0, 559.0)"> </text><text xml:space="preserve" font-family="SourceCodePro-Regular" font-size="94.0" fill="#52575F" transform="matrix(1.00, 0.00, -0.00, -1.00, 480.4, 559.0)">p</text><text xml:space="preserve" font-family="SourceCodePro-Regular" font-size="94.0" fill="#52575F" transform="matrix(1.00, 0.00, -0.00, -1.00, 536.8, 559.0)">u</text><text xml:space="preserve" font-family="SourceCodePro-Regular" font-size="94.0" fill="#52575F" transform="matrix(1.00, 0.00, -0.00, -1.00, 593.2, 559.0)">s</text><text xml:space="preserve" font-family="SourceCodePro-Regular" font-size="94.0" fill="#52575F" transform="matrix(1.00, 0.00, -0.00, -1.00, 649.6, 559.0)">h</text><text xml:space="preserve" font-family="SourceCodePro-Regular" font-size="94.0" fill="#52575F" transform="matrix(1.00, 0.00, -0.00, -1.00, 706.0, 559.0)"> </text><text xml:space="preserve" font-family="SourceCodePro-Regular" font-size="94.0" fill="#52575F" transform="matrix(1.00, 0.00, -0.00, -1.00, 762.4, 559.0)">-</text><text xml:space="preserve" font-family="SourceCodePro-Regular" font-size="94.0" fill="#52575F" transform="matrix(1.00, 0.00, -0.00, -1.00, 818.8, 559.0)">u</text><text xml:space="preserve" font-family="SourceCodePro-Regular" font-size="94.0" fill="#52575F" transform="matrix(1.00, 0.00, -0.00, -1.00, 875.2, 559.0)"> </text><text xml:space="preserve" font-family="SourceCodePro-Regular" font-size="94.0" fill="#52575F" transform="matrix(1.00, 0.00, -0.00, -1.00, 931.6, 559.0)">o</text><text xml:space="preserve" font-family="SourceCodePro-Regular" font-size="94.0" fill="#52575F" transform="matrix(1.00, 0.00, -0.00, -1.00, 988.0, 559.0)">r</text><text xml:space="preserve" font-family="SourceCodePro-Regular" font-size="94.0" fill="#52575F" transform="matrix(1.00, 0.00, -0.00, -1.00, 1044.4, 559.0)">i</text><text xml:space="preserve" font-family="SourceCodePro-Regular" font-size="94.0" fill="#52575F" transform="matrix(1.00, 0.00, -0.00, -1.00, 1100.8, 559.0)">g</text><text xml:space="preserve" font-family="SourceCodePro-Regular" font-size="94.0" fill="#52575F" transform="matrix(1.00, 0.00, -0.00, -1.00, 1157.2, 559.0)">i</text><text xml:space="preserve" font-family="SourceCodePro-Regular" font-size="94.0" fill="#52575F" transform="matrix(1.00, 0.00, -0.00, -1.00, 1213.6, 559.0)">n</text><text xml:space="preserve" font-family="SourceCodePro-Regular" font-size="94.0" fill="#52575F" transform="matrix(1.00, 0.00, -0.00, -1.00, 1270.0, 559.0)"> </text><text xml:space="preserve" font-family="SourceCodePro-Regular" font-size="94.0" fill="#52575F" transform="matrix(1.00, 0.00, -0.00, -1.00, 1326.4, 559.0)">g</text><text xml:space="preserve" font-family="SourceCodePro-Regular" font-size="94.0" fill="#52575F" transform="matrix(1.00, 0.00, -0.00, -1.00, 1382.8, 559.0)">h</text><text xml:space="preserve" font-family="SourceCodePro-Regular" font-size="94.0" fill="#52575F" transform="matrix(1.00, 0.00, -0.00, -1.00, 1439.2, 559.0)">-</text><text xml:space="preserve" font-family="SourceCodePro-Regular" font-size="94.0" fill="#52575F" transform="matrix(1.00, 0.00, -0.00, -1.00, 1495.6, 559.0)">p</text><text xml:space="preserve" font-family="SourceCodePro-Regular" font-size="94.0" fill="#52575F" transform="matrix(1.00, 0.00, -0.00, -1.00, 1552.0, 559.0)">a</text><text xml:space="preserve" font-family="SourceCodePro-Regular" font-size="94.0" fill="#52575F" transform="matrix(1.00, 0.00, -0.00, -1.00, 1608.4, 559.0)">g</text><text xml:space="preserve" font-family="SourceCodePro-Regular" font-size="94.0" fill="#52575F" transform="matrix(1.00, 0.00, -0.00, -1.00, 1664.8, 559.0)">e</text><text xml:space="preserve" font-family="SourceCodePro-Regular" font-size="94.0" fill="#52575F" transform="matrix(1.00, 0.00, -0.00, -1.00, 1721.2, 559.0)">s</text><text xml:space="preserve" font-family="Helvetica-Light" font-size="84.0" fill="#961817" transform="matrix(1.00, 0.00, -0.00, -1.00, 292.0, 331.0)">h</text><text xml:space="preserve" font-family="Helvetica-Light" font-size="84.0" fill="#961817" transform="matrix(1.00, 0.00, -0.00, -1.00, 338.7, 331.0)">t</text><text xml:space="preserve" font-family="Helvetica-Light" font-size="84.0" fill="#961817" transform="matrix(1.00, 0.00, -0.00, -1.00, 362.1, 331.0)">t</text><text xml:space="preserve" font-family="Helvetica-Light" font-size="84.0" fill="#961817" transform="matrix(1.00, 0.00, -0.00, -1.00, 385.4, 331.0)">p</text><text xml:space="preserve" font-family="Helvetica-Light" font-size="84.0" fill="#961817" transform="matrix(1.00, 0.00, -0.00, -1.00, 436.7, 331.0)">:</text><text xml:space="preserve" font-family="Helvetica-Light" font-size="84.0" fill="#961817" transform="matrix(1.00, 0.00, -0.00, -1.00, 460.1, 331.0)">/</text><text xml:space="preserve" font-family="Helvetica-Light" font-size="84.0" fill="#961817" transform="matrix(1.00, 0.00, -0.00, -1.00, 483.4, 331.0)">/</text><text xml:space="preserve" font-family="Helvetica-LightOblique" font-style="italic" font-size="84.0" fill="#D35854" transform="matrix(1.00, 0.00, -0.00, -1.00, 506.8, 331.0)">u</text><text xml:space="preserve" font-family="Helvetica-LightOblique" font-style="italic" font-size="84.0" fill="#D35854" transform="matrix(1.00, 0.00, -0.00, -1.00, 553.5, 331.0)">s</text><text xml:space="preserve" font-family="Helvetica-LightOblique" font-style="italic" font-size="84.0" fill="#D35854" transform="matrix(1.00, 0.00, -0.00, -1.00, 595.5, 331.0)">e</text><text xml:space="preserve" font-family="Helvetica-LightOblique" font-style="italic" font-size="84.0" fill="#D35854" transform="matrix(1.00, 0.00, -0.00, -1.00, 642.2, 331.0)">r</text><text xml:space="preserve" font-family="Helvetica-LightOblique" font-style="italic" font-size="84.0" fill="#D35854" transform="matrix(1.00, 0.00, -0.00, -1.00, 671.7, 331.0)">n</text><text xml:space="preserve" font-family="Helvetica-LightOblique" font-style="italic" font-size="84.0" fill="#D35854" transform="matrix(1.00, 0.00, -0.00, -1.00, 718.4, 331.0)">a</text><text xml:space="preserve" font-family="Helvetica-LightOblique" font-style="italic" font-size="84.0" fill="#D35854" transform="matrix(1.00, 0.00, -0.00, -1.00, 765.1, 331.0)">m</text><text xml:space="preserve" font-family="Helvetica-LightOblique" font-style="italic" font-size="84.0" fill="#D35854" transform="matrix(1.00, 0.00, -0.00, -1.00, 835.1, 331.0)">e</text><text xml:space="preserve" font-family="Helvetica-Light" font-size="84.0" fill="#961817" transform="matrix(1.00, 0.00, -0.00, -1.00, 881.8, 331.0)">.</text><text xml:space="preserve" font-family="Helvetica-Light" font-size="84.0" fill="#961817" transform="matrix(1.00, 0.00, -0.00, -1.00, 905.1, 331.0)">g</text><text xml:space="preserve" font-family="Helvetica-Light" font-size="84.0" fill="#961817" transform="matrix(1.00, 0.00, -0.00, -1.00, 956.4, 331.0)">i</text><text xml:space="preserve" font-family="Helvetica-Light" font-size="84.0" fill="#961817" transform="matrix(1.00, 0.00, -0.00, -1.00, 975.1, 331.0)">t</text><text xml:space="preserve" font-family="Helvetica-Light" font-size="84.0" fill="#961817" transform="matrix(1.00, 0.00, -0.00, -1.00, 998.4, 331.0)">h</text><text xml:space="preserve" font-family="Helvetica-Light" font-size="84.0" fill="#961817" transform="matrix(1.00, 0.00, -0.00, -1.00, 1045.1, 331.0)">u</text><text xml:space="preserve" font-family="Helvetica-Light" font-size="84.0" fill="#961817" transform="matrix(1.00, 0.00, -0.00, -1.00, 1091.8, 331.0)">b</text><text xml:space="preserve" font-family="Helvetica-Light" font-size="84.0" fill="#961817" transform="matrix(1.00, 0.00, -0.00, -1.00, 1143.2, 331.0)">.</text><text xml:space="preserve" font-family="Helvetica-Light" font-size="84.0" fill="#961817" transform="matrix(1.00, 0.00, -0.00, -1.00, 1166.5, 331.0)">i</text><text xml:space="preserve" font-family="Helvetica-Light" font-size="84.0" fill="#961817" transform="matrix(1.00, 0.00, -0.00, -1.00, 1185.2, 331.0)">o</text><text xml:space="preserve" font-family="Helvetica-Light" font-size="84.0" fill="#961817" transform="matrix(1.00, 0.00, -0.00, -1.00, 1231.9, 331.0)">/</text><text xml:space="preserve" font-family="Helvetica-LightOblique" font-style="italic" font-size="84.0" fill="#D35854" transform="matrix(1.00, 0.00, -0.00, -1.00, 1255.2, 331.0)">r</text><text xml:space="preserve" font-family="Helvetica-LightOblique" font-style="italic" font-size="84.0" fill="#D35854" transform="matrix(1.00, 0.00, -0.00, -1.00, 1281.7, 331.0)">e</text><text xml:space="preserve" font-family="Helvetica-LightOblique" font-style="italic" font-size="84.0" fill="#D35854" transform="matrix(1.00, 0.00, -0.00, -1.00, 1328.4, 331.0)">p</text><text xml:space="preserve" font-family="Helvetica-LightOblique" font-style="italic" font-size="84.0" fill="#D35854" transform="matrix(1.00, 0.00, -0.00, -1.00, 1379.7, 331.0)">o</text><text xml:space="preserve" font-family="Helvetica-LightOblique" font-style="italic" font-size="84.0" fill="#D35854" transform="matrix(1.00, 0.00, -0.00, -1.00, 1426.4, 331.0)">s</text><text xml:space="preserve" font-family="Helvetica-LightOblique" font-style="italic" font-size="84.0" fill="#D35854" transform="matrix(1.00, 0.00, -0.00, -1.00, 1468.4, 331.0)">i</text><text xml:space="preserve" font-family="Helvetica-LightOblique" font-style="italic" font-size="84.0" fill="#D35854" transform="matrix(1.00, 0.00, -0.00, -1.00, 1487.1, 331.0)">t</text><text xml:space="preserve" font-family="Helvetica-LightOblique" font-style="italic" font-size="84.0" fill="#D35854" transform="matrix(1.00, 0.00, -0.00, -1.00, 1510.4, 331.0)">o</text><text xml:space="preserve" font-family="Helvetica-LightOblique" font-style="italic" font-size="84.0" fill="#D35854" transform="matrix(1.00, 0.00, -0.00, -1.00, 1557.1, 331.0)">r</text><text xml:space="preserve" font-family="Helvetica-LightOblique" font-style="italic" font-size="84.0" fill="#D35854" transform="matrix(1.00, 0.00, -0.00, -1.00, 1586.6, 331.0)">y</text></g></svg>