<?xml version="1.0" encoding="UTF-8" standalone="no"?><svg xmlns="http://www.w3.org/2000/svg" xmlns:xlink="http://www.w3.org/1999/xlink" clip-rule="evenodd" stroke-miterlimit="4.00" viewBox="0 0 1920 1080"><desc>SVG generated by Keynote</desc><defs></defs><g transform="matrix(1.00, 0.00, -0.00, -1.00, 0.0, 1080.0)"><path d="M 0.0 1080.0 L 1920.0 1080.0 L 1920.0 0.0 L 0.0 0.0 Z M 0.0 1080.0 " fill="#FEFFFE"></path><text xml:space="preserve" font-family="HelveticaNeue-Thin" font-size="173.0" fill="#000000" transform="matrix(1.00, 0.00, -0.00, -1.00, 616.0, 475.0)">T</text><text xml:space="preserve" font-family="HelveticaNeue-Thin" font-size="173.0" fill="#000000" transform="matrix(1.00, 0.00, -0.00, -1.00, 689.2, 475.0)">o</text><text xml:space="preserve" font-family="HelveticaNeue-Thin" font-size="173.0" fill="#000000" transform="matrix(1.00, 0.00, -0.00, -1.00, 782.1, 475.0)">o</text><text xml:space="preserve" font-family="HelveticaNeue-Thin" font-size="173.0" fill="#000000" transform="matrix(1.00, 0.00, -0.00, -1.00, 875.0, 475.0)"> </text><text xml:space="preserve" font-family="HelveticaNeue-Thin" font-size="173.0" fill="#000000" transform="matrix(1.00, 0.00, -0.00, -1.00, 923.1, 475.0)">e</text><text xml:space="preserve" font-family="HelveticaNeue-Thin" font-size="173.0" fill="#000000" transform="matrix(1.00, 0.00, -0.00, -1.00, 1012.9, 475.0)">a</text><text xml:space="preserve" font-family="HelveticaNeue-Thin" font-size="173.0" fill="#000000" transform="matrix(1.00, 0.00, -0.00, -1.00, 1099.4, 475.0)">s</text><text xml:space="preserve" font-family="HelveticaNeue-Thin" font-size="173.0" fill="#000000" transform="matrix(1.00, 0.00, -0.00, -1.00, 1182.6, 475.0)">y</text><text xml:space="preserve" font-family="HelveticaNeue-Thin" font-size="173.0" fill="#000000" transform="matrix(1.00, 0.00, -0.00, -1.00, 1259.4, 475.0)">!</text></g></svg>