<?xml version="1.0" encoding="UTF-8" standalone="no"?><svg xmlns="http://www.w3.org/2000/svg" xmlns:xlink="http://www.w3.org/1999/xlink" clip-rule="evenodd" stroke-miterlimit="4.00" viewBox="0 0 1920 1080"><desc>SVG generated by Keynote</desc><defs></defs><g transform="matrix(1.00, 0.00, -0.00, -1.00, 0.0, 1080.0)"><path d="M 0.0 1080.0 L 1920.0 1080.0 L 1920.0 0.0 L 0.0 0.0 Z M 0.0 1080.0 " fill="#FEFFFE"></path><text xml:space="preserve" font-family="SourceCodePro-Regular" font-size="59.0" fill="#D6601A" transform="matrix(1.00, 0.00, -0.00, -1.00, 216.0, 914.0)">f</text><text xml:space="preserve" font-family="SourceCodePro-Regular" font-size="59.0" fill="#D6601A" transform="matrix(1.00, 0.00, -0.00, -1.00, 251.4, 914.0)">u</text><text xml:space="preserve" font-family="SourceCodePro-Regular" font-size="59.0" fill="#D6601A" transform="matrix(1.00, 0.00, -0.00, -1.00, 286.8, 914.0)">n</text><text xml:space="preserve" font-family="SourceCodePro-Regular" font-size="59.0" fill="#D6601A" transform="matrix(1.00, 0.00, -0.00, -1.00, 322.2, 914.0)">c</text><text xml:space="preserve" font-family="SourceCodePro-Regular" font-size="59.0" fill="#D6601A" transform="matrix(1.00, 0.00, -0.00, -1.00, 357.6, 914.0)">t</text><text xml:space="preserve" font-family="SourceCodePro-Regular" font-size="59.0" fill="#D6601A" transform="matrix(1.00, 0.00, -0.00, -1.00, 393.0, 914.0)">i</text><text xml:space="preserve" font-family="SourceCodePro-Regular" font-size="59.0" fill="#D6601A" transform="matrix(1.00, 0.00, -0.00, -1.00, 428.4, 914.0)">o</text><text xml:space="preserve" font-family="SourceCodePro-Regular" font-size="59.0" fill="#D6601A" transform="matrix(1.00, 0.00, -0.00, -1.00, 463.8, 914.0)">n</text><text xml:space="preserve" font-family="SourceCodePro-Regular" font-size="59.0" fill="#000000" transform="matrix(1.00, 0.00, -0.00, -1.00, 499.2, 914.0)"> </text><text xml:space="preserve" font-family="SourceCodePro-Regular" font-size="59.0" fill="#A3B0B0" transform="matrix(1.00, 0.00, -0.00, -1.00, 534.6, 914.0)">p</text><text xml:space="preserve" font-family="SourceCodePro-Regular" font-size="59.0" fill="#A3B0B0" transform="matrix(1.00, 0.00, -0.00, -1.00, 570.0, 914.0)">r</text><text xml:space="preserve" font-family="SourceCodePro-Regular" font-size="59.0" fill="#A3B0B0" transform="matrix(1.00, 0.00, -0.00, -1.00, 605.4, 914.0)">o</text><text xml:space="preserve" font-family="SourceCodePro-Regular" font-size="59.0" fill="#A3B0B0" transform="matrix(1.00, 0.00, -0.00, -1.00, 640.8, 914.0)">c</text><text xml:space="preserve" font-family="SourceCodePro-Regular" font-size="59.0" fill="#A3B0B0" transform="matrix(1.00, 0.00, -0.00, -1.00, 676.2, 914.0)">e</text><text xml:space="preserve" font-family="SourceCodePro-Regular" font-size="59.0" fill="#A3B0B0" transform="matrix(1.00, 0.00, -0.00, -1.00, 711.6, 914.0)">s</text><text xml:space="preserve" font-family="SourceCodePro-Regular" font-size="59.0" fill="#A3B0B0" transform="matrix(1.00, 0.00, -0.00, -1.00, 747.0, 914.0)">s</text><text xml:space="preserve" font-family="SourceCodePro-Regular" font-size="59.0" fill="#A3B0B0" transform="matrix(1.00, 0.00, -0.00, -1.00, 782.4, 914.0)">M</text><text xml:space="preserve" font-family="SourceCodePro-Regular" font-size="59.0" fill="#A3B0B0" transform="matrix(1.00, 0.00, -0.00, -1.00, 817.8, 914.0)">u</text><text xml:space="preserve" font-family="SourceCodePro-Regular" font-size="59.0" fill="#A3B0B0" transform="matrix(1.00, 0.00, -0.00, -1.00, 853.2, 914.0)">t</text><text xml:space="preserve" font-family="SourceCodePro-Regular" font-size="59.0" fill="#A3B0B0" transform="matrix(1.00, 0.00, -0.00, -1.00, 888.6, 914.0)">a</text><text xml:space="preserve" font-family="SourceCodePro-Regular" font-size="59.0" fill="#A3B0B0" transform="matrix(1.00, 0.00, -0.00, -1.00, 924.0, 914.0)">n</text><text xml:space="preserve" font-family="SourceCodePro-Regular" font-size="59.0" fill="#A3B0B0" transform="matrix(1.00, 0.00, -0.00, -1.00, 959.4, 914.0)">t</text><text xml:space="preserve" font-family="SourceCodePro-Regular" font-size="59.0" fill="#A3B0B0" transform="matrix(1.00, 0.00, -0.00, -1.00, 994.8, 914.0)">s</text><text xml:space="preserve" font-family="SourceCodePro-Regular" font-size="59.0" fill="#A3B0B0" transform="matrix(1.00, 0.00, -0.00, -1.00, 1030.2, 914.0)">(</text><text xml:space="preserve" font-family="SourceCodePro-Regular" font-size="59.0" fill="#94A4A6" transform="matrix(1.00, 0.00, -0.00, -1.00, 1065.6, 914.0)">a</text><text xml:space="preserve" font-family="SourceCodePro-Regular" font-size="59.0" fill="#94A4A6" transform="matrix(1.00, 0.00, -0.00, -1.00, 1101.0, 914.0)">j</text><text xml:space="preserve" font-family="SourceCodePro-Regular" font-size="59.0" fill="#94A4A6" transform="matrix(1.00, 0.00, -0.00, -1.00, 1136.4, 914.0)">a</text><text xml:space="preserve" font-family="SourceCodePro-Regular" font-size="59.0" fill="#94A4A6" transform="matrix(1.00, 0.00, -0.00, -1.00, 1171.8, 914.0)">x</text><text xml:space="preserve" font-family="SourceCodePro-Regular" font-size="59.0" fill="#94A4A6" transform="matrix(1.00, 0.00, -0.00, -1.00, 1207.2, 914.0)">R</text><text xml:space="preserve" font-family="SourceCodePro-Regular" font-size="59.0" fill="#94A4A6" transform="matrix(1.00, 0.00, -0.00, -1.00, 1242.6, 914.0)">e</text><text xml:space="preserve" font-family="SourceCodePro-Regular" font-size="59.0" fill="#94A4A6" transform="matrix(1.00, 0.00, -0.00, -1.00, 1278.0, 914.0)">s</text><text xml:space="preserve" font-family="SourceCodePro-Regular" font-size="59.0" fill="#94A4A6" transform="matrix(1.00, 0.00, -0.00, -1.00, 1313.4, 914.0)">u</text><text xml:space="preserve" font-family="SourceCodePro-Regular" font-size="59.0" fill="#94A4A6" transform="matrix(1.00, 0.00, -0.00, -1.00, 1348.8, 914.0)">l</text><text xml:space="preserve" font-family="SourceCodePro-Regular" font-size="59.0" fill="#94A4A6" transform="matrix(1.00, 0.00, -0.00, -1.00, 1384.2, 914.0)">t</text><text xml:space="preserve" font-family="SourceCodePro-Regular" font-size="59.0" fill="#94A4A6" transform="matrix(1.00, 0.00, -0.00, -1.00, 1419.6, 914.0)">s</text><text xml:space="preserve" font-family="SourceCodePro-Regular" font-size="59.0" fill="#A3B0B0" transform="matrix(1.00, 0.00, -0.00, -1.00, 1455.0, 914.0)">)</text><text xml:space="preserve" font-family="SourceCodePro-Regular" font-size="59.0" fill="#A3B0B0" transform="matrix(1.00, 0.00, -0.00, -1.00, 1490.4, 914.0)"> </text><text xml:space="preserve" font-family="SourceCodePro-Regular" font-size="59.0" fill="#A3B0B0" transform="matrix(1.00, 0.00, -0.00, -1.00, 1525.8, 914.0)">{</text><text xml:space="preserve" font-family="SourceCodePro-Regular" font-size="59.0" fill="#000000" transform="matrix(1.00, 0.00, -0.00, -1.00, 1561.2, 914.0)"> </text><text xml:space="preserve" font-family="SourceCodePro-Regular" font-size="59.0" fill="#94A4A6" transform="matrix(1.00, 0.00, -0.00, -1.00, 216.0, 840.0)"> </text><text xml:space="preserve" font-family="SourceCodePro-Regular" font-size="59.0" fill="#94A4A6" transform="matrix(1.00, 0.00, -0.00, -1.00, 251.4, 840.0)"> </text><text xml:space="preserve" font-family="SourceCodePro-Regular" font-size="59.0" fill="#94A4A6" transform="matrix(1.00, 0.00, -0.00, -1.00, 286.8, 840.0)">c</text><text xml:space="preserve" font-family="SourceCodePro-Regular" font-size="59.0" fill="#94A4A6" transform="matrix(1.00, 0.00, -0.00, -1.00, 322.2, 840.0)">o</text><text xml:space="preserve" font-family="SourceCodePro-Regular" font-size="59.0" fill="#94A4A6" transform="matrix(1.00, 0.00, -0.00, -1.00, 357.6, 840.0)">n</text><text xml:space="preserve" font-family="SourceCodePro-Regular" font-size="59.0" fill="#94A4A6" transform="matrix(1.00, 0.00, -0.00, -1.00, 393.0, 840.0)">s</text><text xml:space="preserve" font-family="SourceCodePro-Regular" font-size="59.0" fill="#94A4A6" transform="matrix(1.00, 0.00, -0.00, -1.00, 428.4, 840.0)">o</text><text xml:space="preserve" font-family="SourceCodePro-Regular" font-size="59.0" fill="#94A4A6" transform="matrix(1.00, 0.00, -0.00, -1.00, 463.8, 840.0)">l</text><text xml:space="preserve" font-family="SourceCodePro-Regular" font-size="59.0" fill="#94A4A6" transform="matrix(1.00, 0.00, -0.00, -1.00, 499.2, 840.0)">e</text><text xml:space="preserve" font-family="SourceCodePro-Regular" font-size="59.0" fill="#A3B0B0" transform="matrix(1.00, 0.00, -0.00, -1.00, 534.6, 840.0)">.</text><text xml:space="preserve" font-family="SourceCodePro-Regular" font-size="59.0" fill="#A3B0B0" transform="matrix(1.00, 0.00, -0.00, -1.00, 570.0, 840.0)">l</text><text xml:space="preserve" font-family="SourceCodePro-Regular" font-size="59.0" fill="#A3B0B0" transform="matrix(1.00, 0.00, -0.00, -1.00, 605.4, 840.0)">o</text><text xml:space="preserve" font-family="SourceCodePro-Regular" font-size="59.0" fill="#A3B0B0" transform="matrix(1.00, 0.00, -0.00, -1.00, 640.8, 840.0)">g</text><text xml:space="preserve" font-family="SourceCodePro-Regular" font-size="59.0" fill="#A3B0B0" transform="matrix(1.00, 0.00, -0.00, -1.00, 676.2, 840.0)">(</text><text xml:space="preserve" font-family="SourceCodePro-Regular" font-size="59.0" fill="#94A4A6" transform="matrix(1.00, 0.00, -0.00, -1.00, 711.6, 840.0)">a</text><text xml:space="preserve" font-family="SourceCodePro-Regular" font-size="59.0" fill="#94A4A6" transform="matrix(1.00, 0.00, -0.00, -1.00, 747.0, 840.0)">j</text><text xml:space="preserve" font-family="SourceCodePro-Regular" font-size="59.0" fill="#94A4A6" transform="matrix(1.00, 0.00, -0.00, -1.00, 782.4, 840.0)">a</text><text xml:space="preserve" font-family="SourceCodePro-Regular" font-size="59.0" fill="#94A4A6" transform="matrix(1.00, 0.00, -0.00, -1.00, 817.8, 840.0)">x</text><text xml:space="preserve" font-family="SourceCodePro-Regular" font-size="59.0" fill="#94A4A6" transform="matrix(1.00, 0.00, -0.00, -1.00, 853.2, 840.0)">R</text><text xml:space="preserve" font-family="SourceCodePro-Regular" font-size="59.0" fill="#94A4A6" transform="matrix(1.00, 0.00, -0.00, -1.00, 888.6, 840.0)">e</text><text xml:space="preserve" font-family="SourceCodePro-Regular" font-size="59.0" fill="#94A4A6" transform="matrix(1.00, 0.00, -0.00, -1.00, 924.0, 840.0)">s</text><text xml:space="preserve" font-family="SourceCodePro-Regular" font-size="59.0" fill="#94A4A6" transform="matrix(1.00, 0.00, -0.00, -1.00, 959.4, 840.0)">u</text><text xml:space="preserve" font-family="SourceCodePro-Regular" font-size="59.0" fill="#94A4A6" transform="matrix(1.00, 0.00, -0.00, -1.00, 994.8, 840.0)">l</text><text xml:space="preserve" font-family="SourceCodePro-Regular" font-size="59.0" fill="#94A4A6" transform="matrix(1.00, 0.00, -0.00, -1.00, 1030.2, 840.0)">t</text><text xml:space="preserve" font-family="SourceCodePro-Regular" font-size="59.0" fill="#94A4A6" transform="matrix(1.00, 0.00, -0.00, -1.00, 1065.6, 840.0)">s</text><text xml:space="preserve" font-family="SourceCodePro-Regular" font-size="59.0" fill="#A3B0B0" transform="matrix(1.00, 0.00, -0.00, -1.00, 1101.0, 840.0)">)</text><text xml:space="preserve" font-family="SourceCodePro-Regular" font-size="59.0" fill="#A3B0B0" transform="matrix(1.00, 0.00, -0.00, -1.00, 1136.4, 840.0)">;</text><text xml:space="preserve" font-family="SourceCodePro-Regular" font-size="59.0" fill="#000000" transform="matrix(1.00, 0.00, -0.00, -1.00, 1171.8, 840.0)"> </text><text xml:space="preserve" font-family="SourceCodePro-Regular" font-size="59.0" fill="#A3B0B0" transform="matrix(1.00, 0.00, -0.00, -1.00, 216.0, 766.0)">}</text><text xml:space="preserve" font-family="SourceCodePro-Regular" font-size="59.0" fill="#000000" transform="matrix(1.00, 0.00, -0.00, -1.00, 251.4, 766.0)"> </text><text xml:space="preserve" font-family="SourceCodePro-Regular" font-size="59.0" fill="#A3B0B0" transform="matrix(1.00, 0.00, -0.00, -1.00, 216.0, 618.0)">$</text><text xml:space="preserve" font-family="SourceCodePro-Regular" font-size="59.0" fill="#A3B0B0" transform="matrix(1.00, 0.00, -0.00, -1.00, 251.4, 618.0)">.</text><text xml:space="preserve" font-family="SourceCodePro-Regular" font-size="59.0" fill="#D6601A" transform="matrix(1.00, 0.00, -0.00, -1.00, 286.8, 618.0)">a</text><text xml:space="preserve" font-family="SourceCodePro-Regular" font-size="59.0" fill="#D6601A" transform="matrix(1.00, 0.00, -0.00, -1.00, 322.2, 618.0)">j</text><text xml:space="preserve" font-family="SourceCodePro-Regular" font-size="59.0" fill="#D6601A" transform="matrix(1.00, 0.00, -0.00, -1.00, 357.6, 618.0)">a</text><text xml:space="preserve" font-family="SourceCodePro-Regular" font-size="59.0" fill="#D6601A" transform="matrix(1.00, 0.00, -0.00, -1.00, 393.0, 618.0)">x</text><text xml:space="preserve" font-family="SourceCodePro-Regular" font-size="59.0" fill="#A3B0B0" transform="matrix(1.00, 0.00, -0.00, -1.00, 428.4, 618.0)">(</text><text xml:space="preserve" font-family="SourceCodePro-Regular" font-size="59.0" fill="#A3B0B0" transform="matrix(1.00, 0.00, -0.00, -1.00, 463.8, 618.0)">{</text><text xml:space="preserve" font-family="SourceCodePro-Regular" font-size="59.0" fill="#A3B0B0" transform="matrix(1.00, 0.00, -0.00, -1.00, 499.2, 618.0)"> </text><text xml:space="preserve" font-family="SourceCodePro-Regular" font-size="59.0" fill="#A3B0B0" transform="matrix(1.00, 0.00, -0.00, -1.00, 216.0, 544.0)"> </text><text xml:space="preserve" font-family="SourceCodePro-Regular" font-size="59.0" fill="#A3B0B0" transform="matrix(1.00, 0.00, -0.00, -1.00, 251.4, 544.0)"> </text><text xml:space="preserve" font-family="SourceCodePro-Regular" font-size="59.0" fill="#A3B0B0" transform="matrix(1.00, 0.00, -0.00, -1.00, 286.8, 544.0)">m</text><text xml:space="preserve" font-family="SourceCodePro-Regular" font-size="59.0" fill="#A3B0B0" transform="matrix(1.00, 0.00, -0.00, -1.00, 322.2, 544.0)">e</text><text xml:space="preserve" font-family="SourceCodePro-Regular" font-size="59.0" fill="#A3B0B0" transform="matrix(1.00, 0.00, -0.00, -1.00, 357.6, 544.0)">t</text><text xml:space="preserve" font-family="SourceCodePro-Regular" font-size="59.0" fill="#A3B0B0" transform="matrix(1.00, 0.00, -0.00, -1.00, 393.0, 544.0)">h</text><text xml:space="preserve" font-family="SourceCodePro-Regular" font-size="59.0" fill="#A3B0B0" transform="matrix(1.00, 0.00, -0.00, -1.00, 428.4, 544.0)">o</text><text xml:space="preserve" font-family="SourceCodePro-Regular" font-size="59.0" fill="#A3B0B0" transform="matrix(1.00, 0.00, -0.00, -1.00, 463.8, 544.0)">d</text><text xml:space="preserve" font-family="SourceCodePro-Regular" font-size="59.0" fill="#A3B0B0" transform="matrix(1.00, 0.00, -0.00, -1.00, 499.2, 544.0)">:</text><text xml:space="preserve" font-family="SourceCodePro-Regular" font-size="59.0" fill="#A3B0B0" transform="matrix(1.00, 0.00, -0.00, -1.00, 534.6, 544.0)"> </text><text xml:space="preserve" font-family="SourceCodePro-Regular" font-size="59.0" fill="#D6601A" transform="matrix(1.00, 0.00, -0.00, -1.00, 570.0, 544.0)">'</text><text xml:space="preserve" font-family="SourceCodePro-Regular" font-size="59.0" fill="#D6601A" transform="matrix(1.00, 0.00, -0.00, -1.00, 605.4, 544.0)">g</text><text xml:space="preserve" font-family="SourceCodePro-Regular" font-size="59.0" fill="#D6601A" transform="matrix(1.00, 0.00, -0.00, -1.00, 640.8, 544.0)">e</text><text xml:space="preserve" font-family="SourceCodePro-Regular" font-size="59.0" fill="#D6601A" transform="matrix(1.00, 0.00, -0.00, -1.00, 676.2, 544.0)">t</text><text xml:space="preserve" font-family="SourceCodePro-Regular" font-size="59.0" fill="#D6601A" transform="matrix(1.00, 0.00, -0.00, -1.00, 711.6, 544.0)">'</text><text xml:space="preserve" font-family="SourceCodePro-Regular" font-size="59.0" fill="#A3B0B0" transform="matrix(1.00, 0.00, -0.00, -1.00, 747.0, 544.0)">,</text><text xml:space="preserve" font-family="SourceCodePro-Regular" font-size="59.0" fill="#000000" transform="matrix(1.00, 0.00, -0.00, -1.00, 782.4, 544.0)"> </text><text xml:space="preserve" font-family="SourceCodePro-Regular" font-size="59.0" fill="#94A4A6" transform="matrix(1.00, 0.00, -0.00, -1.00, 216.0, 470.0)"> </text><text xml:space="preserve" font-family="SourceCodePro-Regular" font-size="59.0" fill="#94A4A6" transform="matrix(1.00, 0.00, -0.00, -1.00, 251.4, 470.0)"> </text><text xml:space="preserve" font-family="SourceCodePro-Regular" font-size="59.0" fill="#94A4A6" transform="matrix(1.00, 0.00, -0.00, -1.00, 286.8, 470.0)">u</text><text xml:space="preserve" font-family="SourceCodePro-Regular" font-size="59.0" fill="#94A4A6" transform="matrix(1.00, 0.00, -0.00, -1.00, 322.2, 470.0)">r</text><text xml:space="preserve" font-family="SourceCodePro-Regular" font-size="59.0" fill="#94A4A6" transform="matrix(1.00, 0.00, -0.00, -1.00, 357.6, 470.0)">l</text><text xml:space="preserve" font-family="SourceCodePro-Regular" font-size="59.0" fill="#A3B0B0" transform="matrix(1.00, 0.00, -0.00, -1.00, 393.0, 470.0)">:</text><text xml:space="preserve" font-family="SourceCodePro-Regular" font-size="59.0" fill="#000000" transform="matrix(1.00, 0.00, -0.00, -1.00, 428.4, 470.0)"> </text><text xml:space="preserve" font-family="SourceCodePro-Regular" font-size="59.0" fill="#E5493C" transform="matrix(1.00, 0.00, -0.00, -1.00, 463.8, 470.0)">'</text><text xml:space="preserve" font-family="SourceCodePro-Regular" font-size="59.0" fill="#E5493C" transform="matrix(1.00, 0.00, -0.00, -1.00, 499.2, 470.0)">h</text><text xml:space="preserve" font-family="SourceCodePro-Regular" font-size="59.0" fill="#E5493C" transform="matrix(1.00, 0.00, -0.00, -1.00, 534.6, 470.0)">t</text><text xml:space="preserve" font-family="SourceCodePro-Regular" font-size="59.0" fill="#E5493C" transform="matrix(1.00, 0.00, -0.00, -1.00, 570.0, 470.0)">t</text><text xml:space="preserve" font-family="SourceCodePro-Regular" font-size="59.0" fill="#E5493C" transform="matrix(1.00, 0.00, -0.00, -1.00, 605.4, 470.0)">p</text><text xml:space="preserve" font-family="SourceCodePro-Regular" font-size="59.0" fill="#E5493C" transform="matrix(1.00, 0.00, -0.00, -1.00, 640.8, 470.0)">s</text><text xml:space="preserve" font-family="SourceCodePro-Regular" font-size="59.0" fill="#E5493C" transform="matrix(1.00, 0.00, -0.00, -1.00, 676.2, 470.0)">:</text><text xml:space="preserve" font-family="SourceCodePro-Regular" font-size="59.0" fill="#E5493C" transform="matrix(1.00, 0.00, -0.00, -1.00, 711.6, 470.0)">/</text><text xml:space="preserve" font-family="SourceCodePro-Regular" font-size="59.0" fill="#E5493C" transform="matrix(1.00, 0.00, -0.00, -1.00, 747.0, 470.0)">/</text><text xml:space="preserve" font-family="SourceCodePro-Regular" font-size="59.0" fill="#E5493C" transform="matrix(1.00, 0.00, -0.00, -1.00, 782.4, 470.0)">m</text><text xml:space="preserve" font-family="SourceCodePro-Regular" font-size="59.0" fill="#E5493C" transform="matrix(1.00, 0.00, -0.00, -1.00, 817.8, 470.0)">u</text><text xml:space="preserve" font-family="SourceCodePro-Regular" font-size="59.0" fill="#E5493C" transform="matrix(1.00, 0.00, -0.00, -1.00, 853.2, 470.0)">t</text><text xml:space="preserve" font-family="SourceCodePro-Regular" font-size="59.0" fill="#E5493C" transform="matrix(1.00, 0.00, -0.00, -1.00, 888.6, 470.0)">a</text><text xml:space="preserve" font-family="SourceCodePro-Regular" font-size="59.0" fill="#E5493C" transform="matrix(1.00, 0.00, -0.00, -1.00, 924.0, 470.0)">n</text><text xml:space="preserve" font-family="SourceCodePro-Regular" font-size="59.0" fill="#E5493C" transform="matrix(1.00, 0.00, -0.00, -1.00, 959.4, 470.0)">t</text><text xml:space="preserve" font-family="SourceCodePro-Regular" font-size="59.0" fill="#E5493C" transform="matrix(1.00, 0.00, -0.00, -1.00, 994.8, 470.0)">-</text><text xml:space="preserve" font-family="SourceCodePro-Regular" font-size="59.0" fill="#E5493C" transform="matrix(1.00, 0.00, -0.00, -1.00, 1030.2, 470.0)">s</text><text xml:space="preserve" font-family="SourceCodePro-Regular" font-size="59.0" fill="#E5493C" transform="matrix(1.00, 0.00, -0.00, -1.00, 1065.6, 470.0)">c</text><text xml:space="preserve" font-family="SourceCodePro-Regular" font-size="59.0" fill="#E5493C" transform="matrix(1.00, 0.00, -0.00, -1.00, 1101.0, 470.0)">h</text><text xml:space="preserve" font-family="SourceCodePro-Regular" font-size="59.0" fill="#E5493C" transform="matrix(1.00, 0.00, -0.00, -1.00, 1136.4, 470.0)">o</text><text xml:space="preserve" font-family="SourceCodePro-Regular" font-size="59.0" fill="#E5493C" transform="matrix(1.00, 0.00, -0.00, -1.00, 1171.8, 470.0)">o</text><text xml:space="preserve" font-family="SourceCodePro-Regular" font-size="59.0" fill="#E5493C" transform="matrix(1.00, 0.00, -0.00, -1.00, 1207.2, 470.0)">l</text><text xml:space="preserve" font-family="SourceCodePro-Regular" font-size="59.0" fill="#E5493C" transform="matrix(1.00, 0.00, -0.00, -1.00, 1242.6, 470.0)">.</text><text xml:space="preserve" font-family="SourceCodePro-Regular" font-size="59.0" fill="#E5493C" transform="matrix(1.00, 0.00, -0.00, -1.00, 1278.0, 470.0)">.</text><text xml:space="preserve" font-family="SourceCodePro-Regular" font-size="59.0" fill="#E5493C" transform="matrix(1.00, 0.00, -0.00, -1.00, 1313.4, 470.0)">.</text><text xml:space="preserve" font-family="SourceCodePro-Regular" font-size="59.0" fill="#E5493C" transform="matrix(1.00, 0.00, -0.00, -1.00, 1348.8, 470.0)">m</text><text xml:space="preserve" font-family="SourceCodePro-Regular" font-size="59.0" fill="#E5493C" transform="matrix(1.00, 0.00, -0.00, -1.00, 1384.2, 470.0)">u</text><text xml:space="preserve" font-family="SourceCodePro-Regular" font-size="59.0" fill="#E5493C" transform="matrix(1.00, 0.00, -0.00, -1.00, 1419.6, 470.0)">t</text><text xml:space="preserve" font-family="SourceCodePro-Regular" font-size="59.0" fill="#E5493C" transform="matrix(1.00, 0.00, -0.00, -1.00, 1455.0, 470.0)">a</text><text xml:space="preserve" font-family="SourceCodePro-Regular" font-size="59.0" fill="#E5493C" transform="matrix(1.00, 0.00, -0.00, -1.00, 1490.4, 470.0)">n</text><text xml:space="preserve" font-family="SourceCodePro-Regular" font-size="59.0" fill="#E5493C" transform="matrix(1.00, 0.00, -0.00, -1.00, 1525.8, 470.0)">t</text><text xml:space="preserve" font-family="SourceCodePro-Regular" font-size="59.0" fill="#E5493C" transform="matrix(1.00, 0.00, -0.00, -1.00, 1561.2, 470.0)">s</text><text xml:space="preserve" font-family="SourceCodePro-Regular" font-size="59.0" fill="#E5493C" transform="matrix(1.00, 0.00, -0.00, -1.00, 1596.6, 470.0)">'</text><text xml:space="preserve" font-family="SourceCodePro-Regular" font-size="59.0" fill="#A3B0B0" transform="matrix(1.00, 0.00, -0.00, -1.00, 1632.0, 470.0)">,</text><text xml:space="preserve" font-family="SourceCodePro-Regular" font-size="59.0" fill="#000000" transform="matrix(1.00, 0.00, -0.00, -1.00, 1667.4, 470.0)"> </text><text xml:space="preserve" font-family="SourceCodePro-Regular" font-size="59.0" fill="#94A4A6" transform="matrix(1.00, 0.00, -0.00, -1.00, 216.0, 396.0)"> </text><text xml:space="preserve" font-family="SourceCodePro-Regular" font-size="59.0" fill="#94A4A6" transform="matrix(1.00, 0.00, -0.00, -1.00, 251.4, 396.0)"> </text><text xml:space="preserve" font-family="SourceCodePro-Regular" font-size="59.0" fill="#94A4A6" transform="matrix(1.00, 0.00, -0.00, -1.00, 286.8, 396.0)">s</text><text xml:space="preserve" font-family="SourceCodePro-Regular" font-size="59.0" fill="#94A4A6" transform="matrix(1.00, 0.00, -0.00, -1.00, 322.2, 396.0)">u</text><text xml:space="preserve" font-family="SourceCodePro-Regular" font-size="59.0" fill="#94A4A6" transform="matrix(1.00, 0.00, -0.00, -1.00, 357.6, 396.0)">c</text><text xml:space="preserve" font-family="SourceCodePro-Regular" font-size="59.0" fill="#94A4A6" transform="matrix(1.00, 0.00, -0.00, -1.00, 393.0, 396.0)">c</text><text xml:space="preserve" font-family="SourceCodePro-Regular" font-size="59.0" fill="#94A4A6" transform="matrix(1.00, 0.00, -0.00, -1.00, 428.4, 396.0)">e</text><text xml:space="preserve" font-family="SourceCodePro-Regular" font-size="59.0" fill="#94A4A6" transform="matrix(1.00, 0.00, -0.00, -1.00, 463.8, 396.0)">s</text><text xml:space="preserve" font-family="SourceCodePro-Regular" font-size="59.0" fill="#94A4A6" transform="matrix(1.00, 0.00, -0.00, -1.00, 499.2, 396.0)">s</text><text xml:space="preserve" font-family="SourceCodePro-Regular" font-size="59.0" fill="#A3B0B0" transform="matrix(1.00, 0.00, -0.00, -1.00, 534.6, 396.0)">:</text><text xml:space="preserve" font-family="SourceCodePro-Regular" font-size="59.0" fill="#000000" transform="matrix(1.00, 0.00, -0.00, -1.00, 570.0, 396.0)"> </text><text xml:space="preserve" font-family="SourceCodePro-Regular" font-size="59.0" fill="#94A4A6" transform="matrix(1.00, 0.00, -0.00, -1.00, 605.4, 396.0)">p</text><text xml:space="preserve" font-family="SourceCodePro-Regular" font-size="59.0" fill="#94A4A6" transform="matrix(1.00, 0.00, -0.00, -1.00, 640.8, 396.0)">r</text><text xml:space="preserve" font-family="SourceCodePro-Regular" font-size="59.0" fill="#94A4A6" transform="matrix(1.00, 0.00, -0.00, -1.00, 676.2, 396.0)">o</text><text xml:space="preserve" font-family="SourceCodePro-Regular" font-size="59.0" fill="#94A4A6" transform="matrix(1.00, 0.00, -0.00, -1.00, 711.6, 396.0)">c</text><text xml:space="preserve" font-family="SourceCodePro-Regular" font-size="59.0" fill="#94A4A6" transform="matrix(1.00, 0.00, -0.00, -1.00, 747.0, 396.0)">e</text><text xml:space="preserve" font-family="SourceCodePro-Regular" font-size="59.0" fill="#94A4A6" transform="matrix(1.00, 0.00, -0.00, -1.00, 782.4, 396.0)">s</text><text xml:space="preserve" font-family="SourceCodePro-Regular" font-size="59.0" fill="#94A4A6" transform="matrix(1.00, 0.00, -0.00, -1.00, 817.8, 396.0)">s</text><text xml:space="preserve" font-family="SourceCodePro-Regular" font-size="59.0" fill="#94A4A6" transform="matrix(1.00, 0.00, -0.00, -1.00, 853.2, 396.0)">M</text><text xml:space="preserve" font-family="SourceCodePro-Regular" font-size="59.0" fill="#94A4A6" transform="matrix(1.00, 0.00, -0.00, -1.00, 888.6, 396.0)">u</text><text xml:space="preserve" font-family="SourceCodePro-Regular" font-size="59.0" fill="#94A4A6" transform="matrix(1.00, 0.00, -0.00, -1.00, 924.0, 396.0)">t</text><text xml:space="preserve" font-family="SourceCodePro-Regular" font-size="59.0" fill="#94A4A6" transform="matrix(1.00, 0.00, -0.00, -1.00, 959.4, 396.0)">a</text><text xml:space="preserve" font-family="SourceCodePro-Regular" font-size="59.0" fill="#94A4A6" transform="matrix(1.00, 0.00, -0.00, -1.00, 994.8, 396.0)">n</text><text xml:space="preserve" font-family="SourceCodePro-Regular" font-size="59.0" fill="#94A4A6" transform="matrix(1.00, 0.00, -0.00, -1.00, 1030.2, 396.0)">t</text><text xml:space="preserve" font-family="SourceCodePro-Regular" font-size="59.0" fill="#94A4A6" transform="matrix(1.00, 0.00, -0.00, -1.00, 1065.6, 396.0)">s</text><text xml:space="preserve" font-family="SourceCodePro-Regular" font-size="59.0" fill="#000000" transform="matrix(1.00, 0.00, -0.00, -1.00, 1101.0, 396.0)"> </text><text xml:space="preserve" font-family="SourceCodePro-Regular" font-size="59.0" fill="#A3B0B0" transform="matrix(1.00, 0.00, -0.00, -1.00, 216.0, 322.0)">}</text><text xml:space="preserve" font-family="SourceCodePro-Regular" font-size="59.0" fill="#A3B0B0" transform="matrix(1.00, 0.00, -0.00, -1.00, 251.4, 322.0)">)</text><text xml:space="preserve" font-family="SourceCodePro-Regular" font-size="59.0" fill="#A3B0B0" transform="matrix(1.00, 0.00, -0.00, -1.00, 286.8, 322.0)">;</text></g></svg>