<?xml version="1.0" encoding="UTF-8" standalone="no"?><svg xmlns="http://www.w3.org/2000/svg" xmlns:xlink="http://www.w3.org/1999/xlink" clip-rule="evenodd" stroke-miterlimit="4.00" viewBox="0 0 1920 1080"><desc>SVG generated by Keynote</desc><defs></defs><g transform="matrix(1.00, 0.00, -0.00, -1.00, 0.0, 1080.0)"><path d="M 0.0 1080.0 L 1920.0 1080.0 L 1920.0 0.0 L 0.0 0.0 Z M 0.0 1080.0 " fill="#000000"></path><image xlink:href="../../AF5D3B42-E251-4165-95D4-1EAA670D2834/assets/9767A2053B768F0B3D3A12F6DCDCF85B.png" width="960.00" height="540.00" transform="matrix(1.29, 0.00, -0.00, -1.29, 342.0, 807.0)"></image><text xml:space="preserve" font-family="HelveticaNeue-Thin" font-size="133.0" fill="#FEFFFF" transform="matrix(1.00, 0.00, -0.00, -1.00, 742.0, 871.0)">M</text><text xml:space="preserve" font-family="HelveticaNeue-Thin" font-size="133.0" fill="#FEFFFF" transform="matrix(1.00, 0.00, -0.00, -1.00, 849.6, 871.0)">o</text><text xml:space="preserve" font-family="HelveticaNeue-Thin" font-size="133.0" fill="#FEFFFF" transform="matrix(1.00, 0.00, -0.00, -1.00, 921.0, 871.0)">s</text><text xml:space="preserve" font-family="HelveticaNeue-Thin" font-size="133.0" fill="#FEFFFF" transform="matrix(1.00, 0.00, -0.00, -1.00, 985.0, 871.0)">a</text><text xml:space="preserve" font-family="HelveticaNeue-Thin" font-size="133.0" fill="#FEFFFF" transform="matrix(1.00, 0.00, -0.00, -1.00, 1051.5, 871.0)">i</text><text xml:space="preserve" font-family="HelveticaNeue-Thin" font-size="133.0" fill="#FEFFFF" transform="matrix(1.00, 0.00, -0.00, -1.00, 1073.8, 871.0)">c</text><text xml:space="preserve" font-family="HelveticaNeue-Thin" font-size="133.0" fill="#FEFFFF" transform="matrix(1.00, 0.00, -0.00, -1.00, 1142.9, 871.0)">!</text><text xml:space="preserve" font-family="HelveticaNeue-Thin" font-size="133.0" fill="#FEFFFF" transform="matrix(1.00, 0.00, -0.00, -1.00, 1177.3, 871.0)"> </text></g></svg>