<?xml version="1.0" encoding="UTF-8" standalone="no"?><svg xmlns="http://www.w3.org/2000/svg" xmlns:xlink="http://www.w3.org/1999/xlink" clip-rule="evenodd" stroke-miterlimit="4.00" viewBox="0 0 1920 1080"><desc>SVG generated by Keynote</desc><defs></defs><g transform="matrix(1.00, 0.00, -0.00, -1.00, 0.0, 1080.0)"><path d="M 0.0 1080.0 L 1920.0 1080.0 L 1920.0 0.0 L 0.0 0.0 Z M 0.0 1080.0 " fill="#000000"></path><image xlink:href="../../131DCD3C-AE68-48A5-85CA-4956182C5482/assets/83750B4ECFFD84BE5C1C480FC00BC8BD.png" width="636.00" height="523.00" transform="matrix(2.03, 0.00, -0.00, -2.03, 283.0, 1072.0)"></image><text xml:space="preserve" font-family="Inkpen2Script" font-size="140.0" fill="#FEFFFF" transform="matrix(0.96, 0.28, 0.28, -0.96, 136.4, 352.5)">S</text><text xml:space="preserve" font-family="Inkpen2Script" font-size="140.0" fill="#FEFFFF" transform="matrix(0.96, 0.28, 0.28, -0.96, 196.8, 370.4)">h</text><text xml:space="preserve" font-family="Inkpen2Script" font-size="140.0" fill="#FEFFFF" transform="matrix(0.96, 0.28, 0.28, -0.96, 240.9, 383.5)">o</text><text xml:space="preserve" font-family="Inkpen2Script" font-size="140.0" fill="#FEFFFF" transform="matrix(0.96, 0.28, 0.28, -0.96, 287.4, 397.3)">c</text><text xml:space="preserve" font-family="Inkpen2Script" font-size="140.0" fill="#FEFFFF" transform="matrix(0.96, 0.28, 0.28, -0.96, 338.0, 412.4)">k</text><text xml:space="preserve" font-family="Inkpen2Script" font-size="140.0" fill="#FEFFFF" transform="matrix(0.96, 0.28, 0.28, -0.96, 383.8, 426.0)">w</text><text xml:space="preserve" font-family="Inkpen2Script" font-size="140.0" fill="#FEFFFF" transform="matrix(0.96, 0.28, 0.28, -0.96, 454.6, 447.0)">a</text><text xml:space="preserve" font-family="Inkpen2Script" font-size="140.0" fill="#FEFFFF" transform="matrix(0.96, 0.28, 0.28, -0.96, 495.4, 459.1)">v</text><text xml:space="preserve" font-family="Inkpen2Script" font-size="140.0" fill="#FEFFFF" transform="matrix(0.96, 0.28, 0.28, -0.96, 542.4, 473.1)">e</text><text xml:space="preserve" font-family="Inkpen2Script" font-size="140.0" fill="#FEFFFF" transform="matrix(0.96, 0.28, 0.28, -0.96, 588.2, 486.7)">!</text><text xml:space="preserve" font-family="Inkpen2Script" font-size="152.0" fill="#FEFFFF" transform="matrix(0.99, -0.17, -0.17, -0.99, 1205.6, 706.0)">Q</text><text xml:space="preserve" font-family="Inkpen2Script" font-size="152.0" fill="#FEFFFF" transform="matrix(0.99, -0.17, -0.17, -0.99, 1266.9, 695.4)">u</text><text xml:space="preserve" font-family="Inkpen2Script" font-size="152.0" fill="#FEFFFF" transform="matrix(0.99, -0.17, -0.17, -0.99, 1326.5, 685.0)">i</text><text xml:space="preserve" font-family="Inkpen2Script" font-size="152.0" fill="#FEFFFF" transform="matrix(0.99, -0.17, -0.17, -0.99, 1348.5, 681.1)">c</text><text xml:space="preserve" font-family="Inkpen2Script" font-size="152.0" fill="#FEFFFF" transform="matrix(0.99, -0.17, -0.17, -0.99, 1404.9, 671.3)">k</text><text xml:space="preserve" font-family="Inkpen2Script" font-size="152.0" fill="#FEFFFF" transform="matrix(0.99, -0.17, -0.17, -0.99, 1456.0, 662.4)">T</text><text xml:space="preserve" font-family="Inkpen2Script" font-size="152.0" fill="#FEFFFF" transform="matrix(0.99, -0.17, -0.17, -0.99, 1517.4, 651.6)">i</text><text xml:space="preserve" font-family="Inkpen2Script" font-size="152.0" fill="#FEFFFF" transform="matrix(0.99, -0.17, -0.17, -0.99, 1539.4, 647.8)">m</text><text xml:space="preserve" font-family="Inkpen2Script" font-size="152.0" fill="#FEFFFF" transform="matrix(0.99, -0.17, -0.17, -0.99, 1608.6, 635.7)">e</text><text xml:space="preserve" font-family="Inkpen2Script" font-size="152.0" fill="#FEFFFF" transform="matrix(0.99, -0.17, -0.17, -0.99, 1659.6, 626.8)"> </text><text xml:space="preserve" font-family="Inkpen2Script" font-size="152.0" fill="#FEFFFF" transform="matrix(0.99, -0.17, -0.17, -0.99, 1707.7, 618.4)">V</text><text xml:space="preserve" font-family="Inkpen2Script" font-size="152.0" fill="#FEFFFF" transform="matrix(0.99, -0.17, -0.17, -0.99, 1767.1, 608.1)">R</text><text xml:space="preserve" font-family="Inkpen2Script" font-size="152.0" fill="#FEFFFF" transform="matrix(0.99, -0.17, -0.17, -0.99, 1825.4, 597.9)">!</text><text xml:space="preserve" font-family="Helvetica-Light" font-size="70.0" fill="#FEFFFF" transform="matrix(1.00, 0.00, -0.00, -1.00, 110.0, 997.0)">h</text><text xml:space="preserve" font-family="Helvetica-Light" font-size="70.0" fill="#FEFFFF" transform="matrix(1.00, 0.00, -0.00, -1.00, 148.9, 997.0)">t</text><text xml:space="preserve" font-family="Helvetica-Light" font-size="70.0" fill="#FEFFFF" transform="matrix(1.00, 0.00, -0.00, -1.00, 168.4, 997.0)">t</text><text xml:space="preserve" font-family="Helvetica-Light" font-size="70.0" fill="#FEFFFF" transform="matrix(1.00, 0.00, -0.00, -1.00, 187.8, 997.0)">p</text><text xml:space="preserve" font-family="Helvetica-Light" font-size="70.0" fill="#FEFFFF" transform="matrix(1.00, 0.00, -0.00, -1.00, 230.6, 997.0)">:</text><text xml:space="preserve" font-family="Helvetica-Light" font-size="70.0" fill="#FEFFFF" transform="matrix(1.00, 0.00, -0.00, -1.00, 250.1, 997.0)">/</text><text xml:space="preserve" font-family="Helvetica-Light" font-size="70.0" fill="#FEFFFF" transform="matrix(1.00, 0.00, -0.00, -1.00, 269.5, 997.0)">/</text><text xml:space="preserve" font-family="Helvetica-Light" font-size="70.0" fill="#FEFFFF" transform="matrix(1.00, 0.00, -0.00, -1.00, 289.0, 997.0)">w</text><text xml:space="preserve" font-family="Helvetica-Light" font-size="70.0" fill="#FEFFFF" transform="matrix(1.00, 0.00, -0.00, -1.00, 339.5, 997.0)">w</text><text xml:space="preserve" font-family="Helvetica-Light" font-size="70.0" fill="#FEFFFF" transform="matrix(1.00, 0.00, -0.00, -1.00, 390.1, 997.0)">w</text><text xml:space="preserve" font-family="Helvetica-Light" font-size="70.0" fill="#FEFFFF" transform="matrix(1.00, 0.00, -0.00, -1.00, 440.6, 997.0)">2</text><text xml:space="preserve" font-family="Helvetica-Light" font-size="70.0" fill="#FEFFFF" transform="matrix(1.00, 0.00, -0.00, -1.00, 479.5, 997.0)">.</text><text xml:space="preserve" font-family="Helvetica-Light" font-size="70.0" fill="#FEFFFF" transform="matrix(1.00, 0.00, -0.00, -1.00, 499.0, 997.0)">w</text><text xml:space="preserve" font-family="Helvetica-Light" font-size="70.0" fill="#FEFFFF" transform="matrix(1.00, 0.00, -0.00, -1.00, 549.5, 997.0)">a</text><text xml:space="preserve" font-family="Helvetica-Light" font-size="70.0" fill="#FEFFFF" transform="matrix(1.00, 0.00, -0.00, -1.00, 588.5, 997.0)">r</text><text xml:space="preserve" font-family="Helvetica-Light" font-size="70.0" fill="#FEFFFF" transform="matrix(1.00, 0.00, -0.00, -1.00, 613.0, 997.0)">n</text><text xml:space="preserve" font-family="Helvetica-Light" font-size="70.0" fill="#FEFFFF" transform="matrix(1.00, 0.00, -0.00, -1.00, 651.9, 997.0)">e</text><text xml:space="preserve" font-family="Helvetica-Light" font-size="70.0" fill="#FEFFFF" transform="matrix(1.00, 0.00, -0.00, -1.00, 690.9, 997.0)">r</text><text xml:space="preserve" font-family="Helvetica-Light" font-size="70.0" fill="#FEFFFF" transform="matrix(1.00, 0.00, -0.00, -1.00, 714.2, 997.0)">b</text><text xml:space="preserve" font-family="Helvetica-Light" font-size="70.0" fill="#FEFFFF" transform="matrix(1.00, 0.00, -0.00, -1.00, 756.9, 997.0)">r</text><text xml:space="preserve" font-family="Helvetica-Light" font-size="70.0" fill="#FEFFFF" transform="matrix(1.00, 0.00, -0.00, -1.00, 779.0, 997.0)">o</text><text xml:space="preserve" font-family="Helvetica-Light" font-size="70.0" fill="#FEFFFF" transform="matrix(1.00, 0.00, -0.00, -1.00, 817.9, 997.0)">s</text><text xml:space="preserve" font-family="Helvetica-Light" font-size="70.0" fill="#FEFFFF" transform="matrix(1.00, 0.00, -0.00, -1.00, 852.9, 997.0)">.</text><text xml:space="preserve" font-family="Helvetica-Light" font-size="70.0" fill="#FEFFFF" transform="matrix(1.00, 0.00, -0.00, -1.00, 872.4, 997.0)">c</text><text xml:space="preserve" font-family="Helvetica-Light" font-size="70.0" fill="#FEFFFF" transform="matrix(1.00, 0.00, -0.00, -1.00, 911.3, 997.0)">o</text><text xml:space="preserve" font-family="Helvetica-Light" font-size="70.0" fill="#FEFFFF" transform="matrix(1.00, 0.00, -0.00, -1.00, 950.2, 997.0)">m</text><text xml:space="preserve" font-family="Helvetica-Light" font-size="70.0" fill="#FEFFFF" transform="matrix(1.00, 0.00, -0.00, -1.00, 1008.5, 997.0)">/</text><text xml:space="preserve" font-family="Helvetica-Light" font-size="70.0" fill="#FEFFFF" transform="matrix(1.00, 0.00, -0.00, -1.00, 1028.0, 997.0)">s</text><text xml:space="preserve" font-family="Helvetica-Light" font-size="70.0" fill="#FEFFFF" transform="matrix(1.00, 0.00, -0.00, -1.00, 1063.0, 997.0)">p</text><text xml:space="preserve" font-family="Helvetica-Light" font-size="70.0" fill="#FEFFFF" transform="matrix(1.00, 0.00, -0.00, -1.00, 1105.8, 997.0)">a</text><text xml:space="preserve" font-family="Helvetica-Light" font-size="70.0" fill="#FEFFFF" transform="matrix(1.00, 0.00, -0.00, -1.00, 1144.7, 997.0)">c</text><text xml:space="preserve" font-family="Helvetica-Light" font-size="70.0" fill="#FEFFFF" transform="matrix(1.00, 0.00, -0.00, -1.00, 1183.6, 997.0)">e</text><text xml:space="preserve" font-family="Helvetica-Light" font-size="70.0" fill="#FEFFFF" transform="matrix(1.00, 0.00, -0.00, -1.00, 1222.5, 997.0)">j</text><text xml:space="preserve" font-family="Helvetica-Light" font-size="70.0" fill="#FEFFFF" transform="matrix(1.00, 0.00, -0.00, -1.00, 1238.1, 997.0)">a</text><text xml:space="preserve" font-family="Helvetica-Light" font-size="70.0" fill="#FEFFFF" transform="matrix(1.00, 0.00, -0.00, -1.00, 1277.0, 997.0)">m</text><text xml:space="preserve" font-family="Helvetica-Light" font-size="70.0" fill="#FEFFFF" transform="matrix(1.00, 0.00, -0.00, -1.00, 1335.3, 997.0)">/</text><text xml:space="preserve" font-family="Helvetica-Light" font-size="70.0" fill="#FEFFFF" transform="matrix(1.00, 0.00, -0.00, -1.00, 1354.7, 997.0)">m</text><text xml:space="preserve" font-family="Helvetica-Light" font-size="70.0" fill="#FEFFFF" transform="matrix(1.00, 0.00, -0.00, -1.00, 1413.1, 997.0)">o</text><text xml:space="preserve" font-family="Helvetica-Light" font-size="70.0" fill="#FEFFFF" transform="matrix(1.00, 0.00, -0.00, -1.00, 1452.0, 997.0)">v</text><text xml:space="preserve" font-family="Helvetica-Light" font-size="70.0" fill="#FEFFFF" transform="matrix(1.00, 0.00, -0.00, -1.00, 1487.0, 997.0)">i</text><text xml:space="preserve" font-family="Helvetica-Light" font-size="70.0" fill="#FEFFFF" transform="matrix(1.00, 0.00, -0.00, -1.00, 1502.5, 997.0)">e</text><text xml:space="preserve" font-family="Helvetica-Light" font-size="70.0" fill="#FEFFFF" transform="matrix(1.00, 0.00, -0.00, -1.00, 1541.4, 997.0)">/</text><text xml:space="preserve" font-family="Helvetica-Light" font-size="70.0" fill="#FEFFFF" transform="matrix(1.00, 0.00, -0.00, -1.00, 1560.9, 997.0)">j</text><text xml:space="preserve" font-family="Helvetica-Light" font-size="70.0" fill="#FEFFFF" transform="matrix(1.00, 0.00, -0.00, -1.00, 1576.4, 997.0)">a</text><text xml:space="preserve" font-family="Helvetica-Light" font-size="70.0" fill="#FEFFFF" transform="matrix(1.00, 0.00, -0.00, -1.00, 1615.4, 997.0)">m</text><text xml:space="preserve" font-family="Helvetica-Light" font-size="70.0" fill="#FEFFFF" transform="matrix(1.00, 0.00, -0.00, -1.00, 1673.7, 997.0)">.</text><text xml:space="preserve" font-family="Helvetica-Light" font-size="70.0" fill="#FEFFFF" transform="matrix(1.00, 0.00, -0.00, -1.00, 1693.1, 997.0)">h</text><text xml:space="preserve" font-family="Helvetica-Light" font-size="70.0" fill="#FEFFFF" transform="matrix(1.00, 0.00, -0.00, -1.00, 1732.0, 997.0)">t</text><text xml:space="preserve" font-family="Helvetica-Light" font-size="70.0" fill="#FEFFFF" transform="matrix(1.00, 0.00, -0.00, -1.00, 1751.5, 997.0)">m</text><g><clipPath id="clip-19"><path d="M 109.1 989.3 L 1809.9 989.3 L 1809.9 994.8 L 109.1 994.8 Z M 109.1 989.3 "></path></clipPath><g clip-path="url(#clip-19)"><path d="M 10.2 78.8 L 1710.1 78.8 " fill="none" stroke="#FEFFFF" stroke-width="3.50" stroke-miterlimit="0.00" transform="matrix(1.00, 0.00, 0.00, -1.00, 99.8, 1070.8)"></path></g></g></g></svg>