<?xml version="1.0" encoding="UTF-8" standalone="no"?><svg xmlns="http://www.w3.org/2000/svg" xmlns:xlink="http://www.w3.org/1999/xlink" clip-rule="evenodd" stroke-miterlimit="4.00" viewBox="0 0 1920 1080"><desc>SVG generated by Keynote</desc><defs></defs><g transform="matrix(1.00, 0.00, -0.00, -1.00, 0.0, 1080.0)"><path d="M 0.0 1080.0 L 1920.0 1080.0 L 1920.0 0.0 L 0.0 0.0 Z M 0.0 1080.0 " fill="#FEFFFE"></path><text xml:space="preserve" font-family="SourceCodePro-Regular" font-size="74.0" fill="#0065C0" transform="matrix(1.00, 0.00, -0.00, -1.00, 427.0, 795.0)">?</text><text xml:space="preserve" font-family="SourceCodePro-Regular" font-size="74.0" fill="#0B5C11" transform="matrix(1.00, 0.00, -0.00, -1.00, 471.4, 795.0)">f</text><text xml:space="preserve" font-family="SourceCodePro-Regular" font-size="74.0" fill="#0B5C11" transform="matrix(1.00, 0.00, -0.00, -1.00, 515.8, 795.0)">i</text><text xml:space="preserve" font-family="SourceCodePro-Regular" font-size="74.0" fill="#0B5C11" transform="matrix(1.00, 0.00, -0.00, -1.00, 560.2, 795.0)">e</text><text xml:space="preserve" font-family="SourceCodePro-Regular" font-size="74.0" fill="#0B5C11" transform="matrix(1.00, 0.00, -0.00, -1.00, 604.6, 795.0)">l</text><text xml:space="preserve" font-family="SourceCodePro-Regular" font-size="74.0" fill="#0B5C11" transform="matrix(1.00, 0.00, -0.00, -1.00, 649.0, 795.0)">d</text><text xml:space="preserve" font-family="SourceCodePro-Regular" font-size="74.0" fill="#52575F" transform="matrix(1.00, 0.00, -0.00, -1.00, 693.4, 795.0)">=</text><text xml:space="preserve" font-family="SourceCodePro-Regular" font-size="74.0" fill="#961817" transform="matrix(1.00, 0.00, -0.00, -1.00, 737.8, 795.0)">v</text><text xml:space="preserve" font-family="SourceCodePro-Regular" font-size="74.0" fill="#961817" transform="matrix(1.00, 0.00, -0.00, -1.00, 782.2, 795.0)">a</text><text xml:space="preserve" font-family="SourceCodePro-Regular" font-size="74.0" fill="#961817" transform="matrix(1.00, 0.00, -0.00, -1.00, 826.6, 795.0)">l</text><text xml:space="preserve" font-family="SourceCodePro-Regular" font-size="74.0" fill="#961817" transform="matrix(1.00, 0.00, -0.00, -1.00, 871.0, 795.0)">u</text><text xml:space="preserve" font-family="SourceCodePro-Regular" font-size="74.0" fill="#961817" transform="matrix(1.00, 0.00, -0.00, -1.00, 915.4, 795.0)">e</text><text xml:space="preserve" font-family="SourceCodePro-Regular" font-size="74.0" fill="#52575F" transform="matrix(1.00, 0.00, -0.00, -1.00, 959.8, 795.0)">&amp;</text><text xml:space="preserve" font-family="SourceCodePro-Regular" font-size="74.0" fill="#0B5C11" transform="matrix(1.00, 0.00, -0.00, -1.00, 1004.2, 795.0)">f</text><text xml:space="preserve" font-family="SourceCodePro-Regular" font-size="74.0" fill="#0B5C11" transform="matrix(1.00, 0.00, -0.00, -1.00, 1048.6, 795.0)">i</text><text xml:space="preserve" font-family="SourceCodePro-Regular" font-size="74.0" fill="#0B5C11" transform="matrix(1.00, 0.00, -0.00, -1.00, 1093.0, 795.0)">e</text><text xml:space="preserve" font-family="SourceCodePro-Regular" font-size="74.0" fill="#0B5C11" transform="matrix(1.00, 0.00, -0.00, -1.00, 1137.4, 795.0)">l</text><text xml:space="preserve" font-family="SourceCodePro-Regular" font-size="74.0" fill="#0B5C11" transform="matrix(1.00, 0.00, -0.00, -1.00, 1181.8, 795.0)">d</text><text xml:space="preserve" font-family="SourceCodePro-Regular" font-size="74.0" fill="#52575F" transform="matrix(1.00, 0.00, -0.00, -1.00, 1226.2, 795.0)">=</text><text xml:space="preserve" font-family="SourceCodePro-Regular" font-size="74.0" fill="#961817" transform="matrix(1.00, 0.00, -0.00, -1.00, 1270.6, 795.0)">v</text><text xml:space="preserve" font-family="SourceCodePro-Regular" font-size="74.0" fill="#961817" transform="matrix(1.00, 0.00, -0.00, -1.00, 1315.0, 795.0)">a</text><text xml:space="preserve" font-family="SourceCodePro-Regular" font-size="74.0" fill="#961817" transform="matrix(1.00, 0.00, -0.00, -1.00, 1359.4, 795.0)">l</text><text xml:space="preserve" font-family="SourceCodePro-Regular" font-size="74.0" fill="#961817" transform="matrix(1.00, 0.00, -0.00, -1.00, 1403.8, 795.0)">u</text><text xml:space="preserve" font-family="SourceCodePro-Regular" font-size="74.0" fill="#961817" transform="matrix(1.00, 0.00, -0.00, -1.00, 1448.2, 795.0)">e</text><text xml:space="preserve" font-family="HelveticaNeue-Thin" font-size="127.0" fill="#000000" transform="matrix(1.00, 0.00, -0.00, -1.00, 652.0, 491.0)">q</text><text xml:space="preserve" font-family="HelveticaNeue-Thin" font-size="127.0" fill="#000000" transform="matrix(1.00, 0.00, -0.00, -1.00, 722.6, 491.0)">u</text><text xml:space="preserve" font-family="HelveticaNeue-Thin" font-size="127.0" fill="#000000" transform="matrix(1.00, 0.00, -0.00, -1.00, 788.5, 491.0)">e</text><text xml:space="preserve" font-family="HelveticaNeue-Thin" font-size="127.0" fill="#000000" transform="matrix(1.00, 0.00, -0.00, -1.00, 854.4, 491.0)">r</text><text xml:space="preserve" font-family="HelveticaNeue-Thin" font-size="127.0" fill="#000000" transform="matrix(1.00, 0.00, -0.00, -1.00, 892.0, 491.0)">y</text><text xml:space="preserve" font-family="HelveticaNeue-Thin" font-size="127.0" fill="#000000" transform="matrix(1.00, 0.00, -0.00, -1.00, 948.4, 491.0)"> </text><text xml:space="preserve" font-family="HelveticaNeue-Thin" font-size="127.0" fill="#000000" transform="matrix(1.00, 0.00, -0.00, -1.00, 983.7, 491.0)">s</text><text xml:space="preserve" font-family="HelveticaNeue-Thin" font-size="127.0" fill="#000000" transform="matrix(1.00, 0.00, -0.00, -1.00, 1044.8, 491.0)">t</text><text xml:space="preserve" font-family="HelveticaNeue-Thin" font-size="127.0" fill="#000000" transform="matrix(1.00, 0.00, -0.00, -1.00, 1077.7, 491.0)">r</text><text xml:space="preserve" font-family="HelveticaNeue-Thin" font-size="127.0" fill="#000000" transform="matrix(1.00, 0.00, -0.00, -1.00, 1113.0, 491.0)">i</text><text xml:space="preserve" font-family="HelveticaNeue-Thin" font-size="127.0" fill="#000000" transform="matrix(1.00, 0.00, -0.00, -1.00, 1134.3, 491.0)">n</text><text xml:space="preserve" font-family="HelveticaNeue-Thin" font-size="127.0" fill="#000000" transform="matrix(1.00, 0.00, -0.00, -1.00, 1200.3, 491.0)">g</text></g></svg>