<?xml version="1.0" encoding="UTF-8" standalone="no"?><svg xmlns="http://www.w3.org/2000/svg" xmlns:xlink="http://www.w3.org/1999/xlink" clip-rule="evenodd" stroke-miterlimit="4.00" viewBox="0 0 1920 1080"><desc>SVG generated by Keynote</desc><defs><pattern id="7145B9DE-3542-4077-9CAF-B633FBC764EF" patternUnits="userSpaceOnUse" width="128" height="128" viewBox="0 0 128 128" patternTransform="matrix(-1.000000, 0.000000, 0.000000, -1.000000, 674.777100, 590.000000)"><image xlink:href="../../C1159B2F-A943-4A0F-9FA6-374A67E20FCF/assets/161283A943846B493D1C05430B672F4B.jpeg" width="128.00" height="128.00"></image></pattern></defs><g transform="matrix(1.00, 0.00, -0.00, -1.00, 0.0, 1080.0)"><path d="M 0.0 1080.0 L 1920.0 1080.0 L 1920.0 0.0 L 0.0 0.0 Z M 0.0 1080.0 " fill="#000000"></path><text xml:space="preserve" font-family="HelveticaNeue-Thin" font-size="133.0" fill="#FEFFFF" transform="matrix(1.00, 0.00, -0.00, -1.00, 472.0, 837.0)">M</text><text xml:space="preserve" font-family="HelveticaNeue-Thin" font-size="133.0" fill="#FEFFFF" transform="matrix(1.00, 0.00, -0.00, -1.00, 579.6, 837.0)">a</text><text xml:space="preserve" font-family="HelveticaNeue-Thin" font-size="133.0" fill="#FEFFFF" transform="matrix(1.00, 0.00, -0.00, -1.00, 646.1, 837.0)">r</text><text xml:space="preserve" font-family="HelveticaNeue-Thin" font-size="133.0" fill="#FEFFFF" transform="matrix(1.00, 0.00, -0.00, -1.00, 681.5, 837.0)">c</text><text xml:space="preserve" font-family="HelveticaNeue-Thin" font-size="133.0" fill="#FEFFFF" transform="matrix(1.00, 0.00, -0.00, -1.00, 750.5, 837.0)"> </text><text xml:space="preserve" font-family="HelveticaNeue-Thin" font-size="133.0" fill="#FEFFFF" transform="matrix(1.00, 0.00, -0.00, -1.00, 787.5, 837.0)">A</text><text xml:space="preserve" font-family="HelveticaNeue-Thin" font-size="133.0" fill="#FEFFFF" transform="matrix(1.00, 0.00, -0.00, -1.00, 866.3, 837.0)">n</text><text xml:space="preserve" font-family="HelveticaNeue-Thin" font-size="133.0" fill="#FEFFFF" transform="matrix(1.00, 0.00, -0.00, -1.00, 935.4, 837.0)">d</text><text xml:space="preserve" font-family="HelveticaNeue-Thin" font-size="133.0" fill="#FEFFFF" transform="matrix(1.00, 0.00, -0.00, -1.00, 1009.3, 837.0)">r</text><text xml:space="preserve" font-family="HelveticaNeue-Thin" font-size="133.0" fill="#FEFFFF" transform="matrix(1.00, 0.00, -0.00, -1.00, 1044.7, 837.0)">e</text><text xml:space="preserve" font-family="HelveticaNeue-Thin" font-size="133.0" fill="#FEFFFF" transform="matrix(1.00, 0.00, -0.00, -1.00, 1113.7, 837.0)">e</text><text xml:space="preserve" font-family="HelveticaNeue-Thin" font-size="133.0" fill="#FEFFFF" transform="matrix(1.00, 0.00, -0.00, -1.00, 1182.8, 837.0)">s</text><text xml:space="preserve" font-family="HelveticaNeue-Thin" font-size="133.0" fill="#FEFFFF" transform="matrix(1.00, 0.00, -0.00, -1.00, 1246.7, 837.0)">s</text><text xml:space="preserve" font-family="HelveticaNeue-Thin" font-size="133.0" fill="#FEFFFF" transform="matrix(1.00, 0.00, -0.00, -1.00, 1310.7, 837.0)">e</text><text xml:space="preserve" font-family="HelveticaNeue-Thin" font-size="133.0" fill="#FEFFFF" transform="matrix(1.00, 0.00, -0.00, -1.00, 1379.7, 837.0)">n</text><g><clipPath id="clip-15"><path d="M 649.8 590.0 C 652.5 590.0 654.8 587.8 654.8 585.0 L 654.8 550.0 L 674.8 540.0 L 654.8 530.0 L 654.8 495.0 C 654.8 492.2 652.5 490.0 649.8 490.0 L 278.5 490.0 C 275.7 490.0 273.5 492.2 273.5 495.0 L 273.5 585.0 C 273.5 587.8 275.7 590.0 278.5 590.0 L 649.8 590.0 Z M 649.8 590.0 "></path></clipPath><g clip-path="url(#clip-15)"><path d="M 674.8 490.0 L 273.5 490.0 L 273.5 590.0 L 674.8 590.0 Z M 674.8 490.0 " fill="url(#7145B9DE-3542-4077-9CAF-B633FBC764EF)"></path><path d="M 273.5 490.0 L 674.8 490.0 L 674.8 590.0 L 273.5 590.0 Z M 273.5 490.0 " fill="#04599E" fill-opacity="0.85"></path></g></g><text xml:space="preserve" font-family="HelveticaNeue-Light" font-size="50.0" fill="#FEFFFF" transform="matrix(1.00, 0.00, -0.00, -1.00, 305.0, 521.0)">t</text><text xml:space="preserve" font-family="HelveticaNeue-Light" font-size="50.0" fill="#FEFFFF" transform="matrix(1.00, 0.00, -0.00, -1.00, 319.8, 521.0)">h</text><text xml:space="preserve" font-family="HelveticaNeue-Light" font-size="50.0" fill="#FEFFFF" transform="matrix(1.00, 0.00, -0.00, -1.00, 346.6, 521.0)">i</text><text xml:space="preserve" font-family="HelveticaNeue-Light" font-size="50.0" fill="#FEFFFF" transform="matrix(1.00, 0.00, -0.00, -1.00, 355.9, 521.0)">s</text><text xml:space="preserve" font-family="HelveticaNeue-Light" font-size="50.0" fill="#FEFFFF" transform="matrix(1.00, 0.00, -0.00, -1.00, 379.9, 521.0)"> </text><text xml:space="preserve" font-family="HelveticaNeue-Light" font-size="50.0" fill="#FEFFFF" transform="matrix(1.00, 0.00, -0.00, -1.00, 393.9, 521.0)">g</text><text xml:space="preserve" font-family="HelveticaNeue-Light" font-size="50.0" fill="#FEFFFF" transform="matrix(1.00, 0.00, -0.00, -1.00, 421.6, 521.0)">u</text><text xml:space="preserve" font-family="HelveticaNeue-Light" font-size="50.0" fill="#FEFFFF" transform="matrix(1.00, 0.00, -0.00, -1.00, 448.5, 521.0)">y</text><text xml:space="preserve" font-family="HelveticaNeue-Light" font-size="50.0" fill="#FEFFFF" transform="matrix(1.00, 0.00, -0.00, -1.00, 471.6, 521.0)"> </text><text xml:space="preserve" font-family="HelveticaNeue-Light" font-size="50.0" fill="#FEFFFF" transform="matrix(1.00, 0.00, -0.00, -1.00, 485.6, 521.0)">(</text><text xml:space="preserve" font-family="HelveticaNeue-Light" font-size="50.0" fill="#FEFFFF" transform="matrix(1.00, 0.00, -0.00, -1.00, 497.6, 521.0)">a</text><text xml:space="preserve" font-family="HelveticaNeue-Light" font-size="50.0" fill="#FEFFFF" transform="matrix(1.00, 0.00, -0.00, -1.00, 523.5, 521.0)">g</text><text xml:space="preserve" font-family="HelveticaNeue-Light" font-size="50.0" fill="#FEFFFF" transform="matrix(1.00, 0.00, -0.00, -1.00, 551.4, 521.0)">a</text><text xml:space="preserve" font-family="HelveticaNeue-Light" font-size="50.0" fill="#FEFFFF" transform="matrix(1.00, 0.00, -0.00, -1.00, 577.3, 521.0)">i</text><text xml:space="preserve" font-family="HelveticaNeue-Light" font-size="50.0" fill="#FEFFFF" transform="matrix(1.00, 0.00, -0.00, -1.00, 586.5, 521.0)">n</text><text xml:space="preserve" font-family="HelveticaNeue-Light" font-size="50.0" fill="#FEFFFF" transform="matrix(1.00, 0.00, -0.00, -1.00, 613.4, 521.0)">)</text><image xlink:href="../../9B0A7277-7F9B-444D-A58E-39F84CB53230/assets/22BEDFBCF5FA99529E3C8730A82D4A53.jpeg" width="286.00" height="293.00" transform="matrix(1.71, 0.00, -0.00, -1.71, 700.0, 701.0)"></image></g></svg>