<?xml version="1.0" encoding="UTF-8" standalone="no"?><svg xmlns="http://www.w3.org/2000/svg" xmlns:xlink="http://www.w3.org/1999/xlink" clip-rule="evenodd" stroke-miterlimit="4.00" viewBox="0 0 837 147"><desc>SVG generated by Keynote</desc><defs></defs><g transform="matrix(1.00, 0.00, -0.00, -1.00, 0.0, 147.0)"><text xml:space="preserve" font-family="Helvetica-Light" font-size="67.2" fill="#FEFFFF" transform="matrix(1.00, 0.00, -0.00, -1.00, 0.0, 95.0)">T</text><text xml:space="preserve" font-family="Helvetica-Light" font-size="67.2" fill="#FEFFFF" transform="matrix(1.00, 0.00, -0.00, -1.00, 37.4, 95.0)">i</text><text xml:space="preserve" font-family="Helvetica-Light" font-size="67.2" fill="#FEFFFF" transform="matrix(1.00, 0.00, -0.00, -1.00, 52.3, 95.0)">p</text><text xml:space="preserve" font-family="Helvetica-Light" font-size="67.2" fill="#FEFFFF" transform="matrix(1.00, 0.00, -0.00, -1.00, 93.3, 95.0)">s</text><text xml:space="preserve" font-family="Helvetica-Light" font-size="67.2" fill="#FEFFFF" transform="matrix(1.00, 0.00, -0.00, -1.00, 126.9, 95.0)"> </text><text xml:space="preserve" font-family="Helvetica-Light" font-size="67.2" fill="#FEFFFF" transform="matrix(1.00, 0.00, -0.00, -1.00, 145.6, 95.0)">f</text><text xml:space="preserve" font-family="Helvetica-Light" font-size="67.2" fill="#FEFFFF" transform="matrix(1.00, 0.00, -0.00, -1.00, 164.3, 95.0)">o</text><text xml:space="preserve" font-family="Helvetica-Light" font-size="67.2" fill="#FEFFFF" transform="matrix(1.00, 0.00, -0.00, -1.00, 201.7, 95.0)">r</text><text xml:space="preserve" font-family="Helvetica-Light" font-size="67.2" fill="#FEFFFF" transform="matrix(1.00, 0.00, -0.00, -1.00, 224.0, 95.0)"> </text><text xml:space="preserve" font-family="Helvetica-Light" font-size="67.2" fill="#FEFFFF" transform="matrix(1.00, 0.00, -0.00, -1.00, 242.7, 95.0)">S</text><text xml:space="preserve" font-family="Helvetica-Light" font-size="67.2" fill="#FEFFFF" transform="matrix(1.00, 0.00, -0.00, -1.00, 283.8, 95.0)">u</text><text xml:space="preserve" font-family="Helvetica-Light" font-size="67.2" fill="#FEFFFF" transform="matrix(1.00, 0.00, -0.00, -1.00, 321.1, 95.0)">c</text><text xml:space="preserve" font-family="Helvetica-Light" font-size="67.2" fill="#FEFFFF" transform="matrix(1.00, 0.00, -0.00, -1.00, 358.5, 95.0)">c</text><text xml:space="preserve" font-family="Helvetica-Light" font-size="67.2" fill="#FEFFFF" transform="matrix(1.00, 0.00, -0.00, -1.00, 395.9, 95.0)">e</text><text xml:space="preserve" font-family="Helvetica-Light" font-size="67.2" fill="#FEFFFF" transform="matrix(1.00, 0.00, -0.00, -1.00, 433.2, 95.0)">s</text><text xml:space="preserve" font-family="Helvetica-Light" font-size="67.2" fill="#FEFFFF" transform="matrix(1.00, 0.00, -0.00, -1.00, 466.8, 95.0)">s</text><text xml:space="preserve" font-family="Helvetica-Light" font-size="67.2" fill="#FEFFFF" transform="matrix(1.00, 0.00, -0.00, -1.00, 500.4, 95.0)"> </text><text xml:space="preserve" font-family="Helvetica-Light" font-size="67.2" fill="#FEFFFF" transform="matrix(1.00, 0.00, -0.00, -1.00, 519.1, 95.0)">-</text><text xml:space="preserve" font-family="Helvetica-Light" font-size="67.2" fill="#FEFFFF" transform="matrix(1.00, 0.00, -0.00, -1.00, 541.5, 95.0)"> </text><text xml:space="preserve" font-family="Helvetica-Light" font-size="67.2" fill="#FEFFFF" transform="matrix(1.00, 0.00, -0.00, -1.00, 560.2, 95.0)">B</text><text xml:space="preserve" font-family="Helvetica-Light" font-size="67.2" fill="#FEFFFF" transform="matrix(1.00, 0.00, -0.00, -1.00, 605.0, 95.0)">u</text><text xml:space="preserve" font-family="Helvetica-Light" font-size="67.2" fill="#FEFFFF" transform="matrix(1.00, 0.00, -0.00, -1.00, 642.4, 95.0)">t</text><text xml:space="preserve" font-family="Helvetica-Light" font-size="67.2" fill="#FEFFFF" transform="matrix(1.00, 0.00, -0.00, -1.00, 661.0, 95.0)"> </text><text xml:space="preserve" font-family="Helvetica-Light" font-size="67.2" fill="#FEFFFF" transform="matrix(1.00, 0.00, -0.00, -1.00, 679.7, 95.0)">D</text><text xml:space="preserve" font-family="Helvetica-Light" font-size="67.2" fill="#FEFFFF" transform="matrix(1.00, 0.00, -0.00, -1.00, 728.2, 95.0)">o</text><text xml:space="preserve" font-family="Helvetica-Light" font-size="67.2" fill="#FEFFFF" transform="matrix(1.00, 0.00, -0.00, -1.00, 765.6, 95.0)">n</text><text xml:space="preserve" font-family="Helvetica-Light" font-size="67.2" fill="#FEFFFF" transform="matrix(1.00, 0.00, -0.00, -1.00, 803.0, 95.0)">’</text><text xml:space="preserve" font-family="Helvetica-Light" font-size="67.2" fill="#FEFFFF" transform="matrix(1.00, 0.00, -0.00, -1.00, 816.7, 95.0)">t</text><text xml:space="preserve" font-family="Helvetica-Light" font-size="67.2" fill="#FEFFFF" transform="matrix(1.00, 0.00, -0.00, -1.00, 835.4, 95.0)"> </text><text xml:space="preserve" font-family="Helvetica-Light" font-size="67.2" fill="#FEFFFF" transform="matrix(1.00, 0.00, -0.00, -1.00, 117.0, 15.0)">S</text><text xml:space="preserve" font-family="Helvetica-Light" font-size="67.2" fill="#FEFFFF" transform="matrix(1.00, 0.00, -0.00, -1.00, 158.1, 15.0)">t</text><text xml:space="preserve" font-family="Helvetica-Light" font-size="67.2" fill="#FEFFFF" transform="matrix(1.00, 0.00, -0.00, -1.00, 176.7, 15.0)">a</text><text xml:space="preserve" font-family="Helvetica-Light" font-size="67.2" fill="#FEFFFF" transform="matrix(1.00, 0.00, -0.00, -1.00, 214.1, 15.0)">y</text><text xml:space="preserve" font-family="Helvetica-Light" font-size="67.2" fill="#FEFFFF" transform="matrix(1.00, 0.00, -0.00, -1.00, 247.7, 15.0)"> </text><text xml:space="preserve" font-family="Helvetica-Light" font-size="67.2" fill="#FEFFFF" transform="matrix(1.00, 0.00, -0.00, -1.00, 266.4, 15.0)">S</text><text xml:space="preserve" font-family="Helvetica-Light" font-size="67.2" fill="#FEFFFF" transform="matrix(1.00, 0.00, -0.00, -1.00, 307.4, 15.0)">t</text><text xml:space="preserve" font-family="Helvetica-Light" font-size="67.2" fill="#FEFFFF" transform="matrix(1.00, 0.00, -0.00, -1.00, 326.1, 15.0)">u</text><text xml:space="preserve" font-family="Helvetica-Light" font-size="67.2" fill="#FEFFFF" transform="matrix(1.00, 0.00, -0.00, -1.00, 363.5, 15.0)">c</text><text xml:space="preserve" font-family="Helvetica-Light" font-size="67.2" fill="#FEFFFF" transform="matrix(1.00, 0.00, -0.00, -1.00, 400.9, 15.0)">k</text><text xml:space="preserve" font-family="Helvetica-Light" font-size="67.2" fill="#FEFFFF" transform="matrix(1.00, 0.00, -0.00, -1.00, 434.5, 15.0)"> </text><text xml:space="preserve" font-family="Helvetica-Light" font-size="67.2" fill="#FEFFFF" transform="matrix(1.00, 0.00, -0.00, -1.00, 453.1, 15.0)">t</text><text xml:space="preserve" font-family="Helvetica-Light" font-size="67.2" fill="#FEFFFF" transform="matrix(1.00, 0.00, -0.00, -1.00, 471.8, 15.0)">o</text><text xml:space="preserve" font-family="Helvetica-Light" font-size="67.2" fill="#FEFFFF" transform="matrix(1.00, 0.00, -0.00, -1.00, 509.2, 15.0)">o</text><text xml:space="preserve" font-family="Helvetica-Light" font-size="67.2" fill="#FEFFFF" transform="matrix(1.00, 0.00, -0.00, -1.00, 546.5, 15.0)"> </text><text xml:space="preserve" font-family="Helvetica-Light" font-size="67.2" fill="#FEFFFF" transform="matrix(1.00, 0.00, -0.00, -1.00, 565.2, 15.0)">L</text><text xml:space="preserve" font-family="Helvetica-Light" font-size="67.2" fill="#FEFFFF" transform="matrix(1.00, 0.00, -0.00, -1.00, 602.6, 15.0)">o</text><text xml:space="preserve" font-family="Helvetica-Light" font-size="67.2" fill="#FEFFFF" transform="matrix(1.00, 0.00, -0.00, -1.00, 640.0, 15.0)">n</text><text xml:space="preserve" font-family="Helvetica-Light" font-size="67.2" fill="#FEFFFF" transform="matrix(1.00, 0.00, -0.00, -1.00, 677.3, 15.0)">g</text></g></svg>