<?xml version="1.0" encoding="UTF-8" standalone="no"?><svg xmlns="http://www.w3.org/2000/svg" xmlns:xlink="http://www.w3.org/1999/xlink" clip-rule="evenodd" stroke-miterlimit="4.00" viewBox="0 0 1024 768"><desc>SVG generated by Keynote</desc><defs></defs><g transform="matrix(1.00, 0.00, -0.00, -1.00, 0.0, 768.0)"><path d="M 0.0 768.0 L 1024.0 768.0 L 1024.0 0.0 L 0.0 0.0 Z M 0.0 768.0 " fill="#000000"></path><g><clipPath id="clip-20"><path d="M 529.0 564.0 L 949.0 564.0 L 949.0 69.0 L 529.0 69.0 Z M 529.0 564.0 "></path></clipPath><g clip-path="url(#clip-20)"><image xlink:href="91D232FF9F571683B371B0DB0FBF6CA0.png" width="236.00" height="314.00" transform="matrix(1.78, 0.00, -0.00, -1.78, 529.0, 596.0)"></image></g></g><text xml:space="preserve" font-family="Helvetica-Light" font-size="67.2" fill="#FEFFFF" transform="matrix(1.00, 0.00, -0.00, -1.00, 163.0, 678.0)">T</text><text xml:space="preserve" font-family="Helvetica-Light" font-size="67.2" fill="#FEFFFF" transform="matrix(1.00, 0.00, -0.00, -1.00, 200.4, 678.0)">i</text><text xml:space="preserve" font-family="Helvetica-Light" font-size="67.2" fill="#FEFFFF" transform="matrix(1.00, 0.00, -0.00, -1.00, 215.3, 678.0)">p</text><text xml:space="preserve" font-family="Helvetica-Light" font-size="67.2" fill="#FEFFFF" transform="matrix(1.00, 0.00, -0.00, -1.00, 256.3, 678.0)">s</text><text xml:space="preserve" font-family="Helvetica-Light" font-size="67.2" fill="#FEFFFF" transform="matrix(1.00, 0.00, -0.00, -1.00, 289.9, 678.0)"> </text><text xml:space="preserve" font-family="Helvetica-Light" font-size="67.2" fill="#FEFFFF" transform="matrix(1.00, 0.00, -0.00, -1.00, 308.6, 678.0)">f</text><text xml:space="preserve" font-family="Helvetica-Light" font-size="67.2" fill="#FEFFFF" transform="matrix(1.00, 0.00, -0.00, -1.00, 327.3, 678.0)">o</text><text xml:space="preserve" font-family="Helvetica-Light" font-size="67.2" fill="#FEFFFF" transform="matrix(1.00, 0.00, -0.00, -1.00, 364.7, 678.0)">r</text><text xml:space="preserve" font-family="Helvetica-Light" font-size="67.2" fill="#FEFFFF" transform="matrix(1.00, 0.00, -0.00, -1.00, 387.0, 678.0)"> </text><text xml:space="preserve" font-family="Helvetica-Light" font-size="67.2" fill="#FEFFFF" transform="matrix(1.00, 0.00, -0.00, -1.00, 405.7, 678.0)">S</text><text xml:space="preserve" font-family="Helvetica-Light" font-size="67.2" fill="#FEFFFF" transform="matrix(1.00, 0.00, -0.00, -1.00, 446.8, 678.0)">u</text><text xml:space="preserve" font-family="Helvetica-Light" font-size="67.2" fill="#FEFFFF" transform="matrix(1.00, 0.00, -0.00, -1.00, 484.1, 678.0)">c</text><text xml:space="preserve" font-family="Helvetica-Light" font-size="67.2" fill="#FEFFFF" transform="matrix(1.00, 0.00, -0.00, -1.00, 521.5, 678.0)">c</text><text xml:space="preserve" font-family="Helvetica-Light" font-size="67.2" fill="#FEFFFF" transform="matrix(1.00, 0.00, -0.00, -1.00, 558.9, 678.0)">e</text><text xml:space="preserve" font-family="Helvetica-Light" font-size="67.2" fill="#FEFFFF" transform="matrix(1.00, 0.00, -0.00, -1.00, 596.2, 678.0)">s</text><text xml:space="preserve" font-family="Helvetica-Light" font-size="67.2" fill="#FEFFFF" transform="matrix(1.00, 0.00, -0.00, -1.00, 629.8, 678.0)">s</text><text xml:space="preserve" font-family="Helvetica-Light" font-size="67.2" fill="#FEFFFF" transform="matrix(1.00, 0.00, -0.00, -1.00, 663.4, 678.0)"> </text><text xml:space="preserve" font-family="Helvetica-Light" font-size="67.2" fill="#FEFFFF" transform="matrix(1.00, 0.00, -0.00, -1.00, 682.1, 678.0)">-</text><text xml:space="preserve" font-family="Helvetica-Light" font-size="67.2" fill="#FEFFFF" transform="matrix(1.00, 0.00, -0.00, -1.00, 704.5, 678.0)"> </text><text xml:space="preserve" font-family="Helvetica-Light" font-size="67.2" fill="#FEFFFF" transform="matrix(1.00, 0.00, -0.00, -1.00, 723.2, 678.0)">T</text><text xml:space="preserve" font-family="Helvetica-Light" font-size="67.2" fill="#FEFFFF" transform="matrix(1.00, 0.00, -0.00, -1.00, 753.1, 678.0)">a</text><text xml:space="preserve" font-family="Helvetica-Light" font-size="67.2" fill="#FEFFFF" transform="matrix(1.00, 0.00, -0.00, -1.00, 790.4, 678.0)">k</text><text xml:space="preserve" font-family="Helvetica-Light" font-size="67.2" fill="#FEFFFF" transform="matrix(1.00, 0.00, -0.00, -1.00, 824.0, 678.0)">e</text><text xml:space="preserve" font-family="Helvetica-Light" font-size="67.2" fill="#FEFFFF" transform="matrix(1.00, 0.00, -0.00, -1.00, 861.4, 678.0)"> </text><text xml:space="preserve" font-family="Helvetica-Light" font-size="67.2" fill="#FEFFFF" transform="matrix(1.00, 0.00, -0.00, -1.00, 408.0, 598.0)">B</text><text xml:space="preserve" font-family="Helvetica-Light" font-size="67.2" fill="#FEFFFF" transform="matrix(1.00, 0.00, -0.00, -1.00, 452.8, 598.0)">r</text><text xml:space="preserve" font-family="Helvetica-Light" font-size="67.2" fill="#FEFFFF" transform="matrix(1.00, 0.00, -0.00, -1.00, 474.0, 598.0)">e</text><text xml:space="preserve" font-family="Helvetica-Light" font-size="67.2" fill="#FEFFFF" transform="matrix(1.00, 0.00, -0.00, -1.00, 511.4, 598.0)">a</text><text xml:space="preserve" font-family="Helvetica-Light" font-size="67.2" fill="#FEFFFF" transform="matrix(1.00, 0.00, -0.00, -1.00, 548.7, 598.0)">k</text><text xml:space="preserve" font-family="Helvetica-Light" font-size="67.2" fill="#FEFFFF" transform="matrix(1.00, 0.00, -0.00, -1.00, 582.3, 598.0)">s</text></g></svg>