<?xml version="1.0" encoding="UTF-8" standalone="no"?><svg xmlns="http://www.w3.org/2000/svg" xmlns:xlink="http://www.w3.org/1999/xlink" clip-rule="evenodd" stroke-miterlimit="4.00" viewBox="0 0 1920 1080"><desc>SVG generated by Keynote</desc><defs></defs><g transform="matrix(1.00, 0.00, -0.00, -1.00, 0.0, 1080.0)"><path d="M 0.0 1080.0 L 1920.0 1080.0 L 1920.0 0.0 L 0.0 0.0 Z M 0.0 1080.0 " fill="#FEFFFE"></path><text xml:space="preserve" font-family="CourierNewPSMT" font-size="84.0" fill="#94A4A6" transform="matrix(1.00, 0.00, -0.00, -1.00, 128.0, 565.0)">l</text><text xml:space="preserve" font-family="CourierNewPSMT" font-size="84.0" fill="#94A4A6" transform="matrix(1.00, 0.00, -0.00, -1.00, 178.4, 565.0)">o</text><text xml:space="preserve" font-family="CourierNewPSMT" font-size="84.0" fill="#94A4A6" transform="matrix(1.00, 0.00, -0.00, -1.00, 228.8, 565.0)">c</text><text xml:space="preserve" font-family="CourierNewPSMT" font-size="84.0" fill="#94A4A6" transform="matrix(1.00, 0.00, -0.00, -1.00, 279.2, 565.0)">a</text><text xml:space="preserve" font-family="CourierNewPSMT" font-size="84.0" fill="#94A4A6" transform="matrix(1.00, 0.00, -0.00, -1.00, 329.7, 565.0)">l</text><text xml:space="preserve" font-family="CourierNewPSMT" font-size="84.0" fill="#94A4A6" transform="matrix(1.00, 0.00, -0.00, -1.00, 380.1, 565.0)">S</text><text xml:space="preserve" font-family="CourierNewPSMT" font-size="84.0" fill="#94A4A6" transform="matrix(1.00, 0.00, -0.00, -1.00, 430.5, 565.0)">t</text><text xml:space="preserve" font-family="CourierNewPSMT" font-size="84.0" fill="#94A4A6" transform="matrix(1.00, 0.00, -0.00, -1.00, 480.9, 565.0)">o</text><text xml:space="preserve" font-family="CourierNewPSMT" font-size="84.0" fill="#94A4A6" transform="matrix(1.00, 0.00, -0.00, -1.00, 531.3, 565.0)">r</text><text xml:space="preserve" font-family="CourierNewPSMT" font-size="84.0" fill="#94A4A6" transform="matrix(1.00, 0.00, -0.00, -1.00, 581.7, 565.0)">a</text><text xml:space="preserve" font-family="CourierNewPSMT" font-size="84.0" fill="#94A4A6" transform="matrix(1.00, 0.00, -0.00, -1.00, 632.2, 565.0)">g</text><text xml:space="preserve" font-family="CourierNewPSMT" font-size="84.0" fill="#94A4A6" transform="matrix(1.00, 0.00, -0.00, -1.00, 682.6, 565.0)">e</text><text xml:space="preserve" font-family="CourierNewPSMT" font-size="84.0" fill="#000000" transform="matrix(1.00, 0.00, -0.00, -1.00, 732.9, 565.0)"> </text><text xml:space="preserve" font-family="CourierNewPSMT" font-size="84.0" fill="#2C9DDA" transform="matrix(1.00, 0.00, -0.00, -1.00, 128.0, 470.0)"> </text><text xml:space="preserve" font-family="CourierNewPSMT" font-size="84.0" fill="#2C9DDA" transform="matrix(1.00, 0.00, -0.00, -1.00, 178.4, 470.0)"> </text><text xml:space="preserve" font-family="CourierNewPSMT" font-size="84.0" fill="#2C9DDA" transform="matrix(1.00, 0.00, -0.00, -1.00, 228.8, 470.0)"> </text><text xml:space="preserve" font-family="CourierNewPSMT" font-size="84.0" fill="#A3B0B0" transform="matrix(1.00, 0.00, -0.00, -1.00, 279.2, 470.0)">.</text><text xml:space="preserve" font-family="CourierNewPSMT" font-size="84.0" fill="#A3B0B0" transform="matrix(1.00, 0.00, -0.00, -1.00, 329.6, 470.0)">s</text><text xml:space="preserve" font-family="CourierNewPSMT" font-size="84.0" fill="#A3B0B0" transform="matrix(1.00, 0.00, -0.00, -1.00, 380.1, 470.0)">e</text><text xml:space="preserve" font-family="CourierNewPSMT" font-size="84.0" fill="#A3B0B0" transform="matrix(1.00, 0.00, -0.00, -1.00, 430.5, 470.0)">t</text><text xml:space="preserve" font-family="CourierNewPSMT" font-size="84.0" fill="#A3B0B0" transform="matrix(1.00, 0.00, -0.00, -1.00, 480.9, 470.0)">I</text><text xml:space="preserve" font-family="CourierNewPSMT" font-size="84.0" fill="#A3B0B0" transform="matrix(1.00, 0.00, -0.00, -1.00, 531.3, 470.0)">t</text><text xml:space="preserve" font-family="CourierNewPSMT" font-size="84.0" fill="#A3B0B0" transform="matrix(1.00, 0.00, -0.00, -1.00, 581.7, 470.0)">e</text><text xml:space="preserve" font-family="CourierNewPSMT" font-size="84.0" fill="#A3B0B0" transform="matrix(1.00, 0.00, -0.00, -1.00, 632.1, 470.0)">m</text><text xml:space="preserve" font-family="CourierNewPSMT" font-size="84.0" fill="#A3B0B0" transform="matrix(1.00, 0.00, -0.00, -1.00, 682.6, 470.0)">(</text><text xml:space="preserve" font-family="CourierNewPSMT" font-size="84.0" fill="#E5493C" transform="matrix(1.00, 0.00, -0.00, -1.00, 732.9, 470.0)">'</text><text xml:space="preserve" font-family="CourierNewPSMT" font-size="84.0" fill="#E5493C" transform="matrix(1.00, 0.00, -0.00, -1.00, 783.3, 470.0)">f</text><text xml:space="preserve" font-family="CourierNewPSMT" font-size="84.0" fill="#E5493C" transform="matrix(1.00, 0.00, -0.00, -1.00, 833.7, 470.0)">i</text><text xml:space="preserve" font-family="CourierNewPSMT" font-size="84.0" fill="#E5493C" transform="matrix(1.00, 0.00, -0.00, -1.00, 884.1, 470.0)">r</text><text xml:space="preserve" font-family="CourierNewPSMT" font-size="84.0" fill="#E5493C" transform="matrix(1.00, 0.00, -0.00, -1.00, 934.6, 470.0)">s</text><text xml:space="preserve" font-family="CourierNewPSMT" font-size="84.0" fill="#E5493C" transform="matrix(1.00, 0.00, -0.00, -1.00, 985.0, 470.0)">t</text><text xml:space="preserve" font-family="CourierNewPSMT" font-size="84.0" fill="#E5493C" transform="matrix(1.00, 0.00, -0.00, -1.00, 1035.4, 470.0)">N</text><text xml:space="preserve" font-family="CourierNewPSMT" font-size="84.0" fill="#E5493C" transform="matrix(1.00, 0.00, -0.00, -1.00, 1085.8, 470.0)">a</text><text xml:space="preserve" font-family="CourierNewPSMT" font-size="84.0" fill="#E5493C" transform="matrix(1.00, 0.00, -0.00, -1.00, 1136.2, 470.0)">m</text><text xml:space="preserve" font-family="CourierNewPSMT" font-size="84.0" fill="#E5493C" transform="matrix(1.00, 0.00, -0.00, -1.00, 1186.6, 470.0)">e</text><text xml:space="preserve" font-family="CourierNewPSMT" font-size="84.0" fill="#E5493C" transform="matrix(1.00, 0.00, -0.00, -1.00, 1237.1, 470.0)">'</text><text xml:space="preserve" font-family="CourierNewPSMT" font-size="84.0" fill="#A3B0B0" transform="matrix(1.00, 0.00, -0.00, -1.00, 1287.4, 470.0)">,</text><text xml:space="preserve" font-family="CourierNewPSMT" font-size="84.0" fill="#000000" transform="matrix(1.00, 0.00, -0.00, -1.00, 1337.8, 470.0)"> </text><text xml:space="preserve" font-family="CourierNewPSMT" font-size="84.0" fill="#E5493C" transform="matrix(1.00, 0.00, -0.00, -1.00, 1388.2, 470.0)">'</text><text xml:space="preserve" font-family="CourierNewPSMT" font-size="84.0" fill="#E5493C" transform="matrix(1.00, 0.00, -0.00, -1.00, 1438.6, 470.0)">D</text><text xml:space="preserve" font-family="CourierNewPSMT" font-size="84.0" fill="#E5493C" transform="matrix(1.00, 0.00, -0.00, -1.00, 1489.0, 470.0)">a</text><text xml:space="preserve" font-family="CourierNewPSMT" font-size="84.0" fill="#E5493C" transform="matrix(1.00, 0.00, -0.00, -1.00, 1539.5, 470.0)">v</text><text xml:space="preserve" font-family="CourierNewPSMT" font-size="84.0" fill="#E5493C" transform="matrix(1.00, 0.00, -0.00, -1.00, 1589.9, 470.0)">e</text><text xml:space="preserve" font-family="CourierNewPSMT" font-size="84.0" fill="#E5493C" transform="matrix(1.00, 0.00, -0.00, -1.00, 1640.3, 470.0)">'</text><text xml:space="preserve" font-family="CourierNewPSMT" font-size="84.0" fill="#A3B0B0" transform="matrix(1.00, 0.00, -0.00, -1.00, 1690.7, 470.0)">)</text><text xml:space="preserve" font-family="CourierNewPSMT" font-size="84.0" fill="#A3B0B0" transform="matrix(1.00, 0.00, -0.00, -1.00, 1741.1, 470.0)">;</text><text xml:space="preserve" font-family="HelveticaNeue-Thin" font-size="132.7" fill="#000000" transform="matrix(1.00, 0.00, -0.00, -1.00, 410.0, 853.0)">S</text><text xml:space="preserve" font-family="HelveticaNeue-Thin" font-size="132.7" fill="#000000" transform="matrix(1.00, 0.00, -0.00, -1.00, 493.6, 853.0)">e</text><text xml:space="preserve" font-family="HelveticaNeue-Thin" font-size="132.7" fill="#000000" transform="matrix(1.00, 0.00, -0.00, -1.00, 562.5, 853.0)">t</text><text xml:space="preserve" font-family="HelveticaNeue-Thin" font-size="132.7" fill="#000000" transform="matrix(1.00, 0.00, -0.00, -1.00, 596.9, 853.0)">t</text><text xml:space="preserve" font-family="HelveticaNeue-Thin" font-size="132.7" fill="#000000" transform="matrix(1.00, 0.00, -0.00, -1.00, 631.2, 853.0)">i</text><text xml:space="preserve" font-family="HelveticaNeue-Thin" font-size="132.7" fill="#000000" transform="matrix(1.00, 0.00, -0.00, -1.00, 653.5, 853.0)">n</text><text xml:space="preserve" font-family="HelveticaNeue-Thin" font-size="132.7" fill="#000000" transform="matrix(1.00, 0.00, -0.00, -1.00, 722.4, 853.0)">g</text><text xml:space="preserve" font-family="HelveticaNeue-Thin" font-size="132.7" fill="#000000" transform="matrix(1.00, 0.00, -0.00, -1.00, 793.7, 853.0)"> </text><text xml:space="preserve" font-family="HelveticaNeue-Thin" font-size="132.7" fill="#000000" transform="matrix(1.00, 0.00, -0.00, -1.00, 830.6, 853.0)">l</text><text xml:space="preserve" font-family="HelveticaNeue-Thin" font-size="132.7" fill="#000000" transform="matrix(1.00, 0.00, -0.00, -1.00, 852.9, 853.0)">o</text><text xml:space="preserve" font-family="HelveticaNeue-Thin" font-size="132.7" fill="#000000" transform="matrix(1.00, 0.00, -0.00, -1.00, 924.2, 853.0)">c</text><text xml:space="preserve" font-family="HelveticaNeue-Thin" font-size="132.7" fill="#000000" transform="matrix(1.00, 0.00, -0.00, -1.00, 993.0, 853.0)">a</text><text xml:space="preserve" font-family="HelveticaNeue-Thin" font-size="132.7" fill="#000000" transform="matrix(1.00, 0.00, -0.00, -1.00, 1059.4, 853.0)">l</text><text xml:space="preserve" font-family="HelveticaNeue-Thin" font-size="132.7" fill="#000000" transform="matrix(1.00, 0.00, -0.00, -1.00, 1081.7, 853.0)">S</text><text xml:space="preserve" font-family="HelveticaNeue-Thin" font-size="132.7" fill="#000000" transform="matrix(1.00, 0.00, -0.00, -1.00, 1164.8, 853.0)">t</text><text xml:space="preserve" font-family="HelveticaNeue-Thin" font-size="132.7" fill="#000000" transform="matrix(1.00, 0.00, -0.00, -1.00, 1197.3, 853.0)">o</text><text xml:space="preserve" font-family="HelveticaNeue-Thin" font-size="132.7" fill="#000000" transform="matrix(1.00, 0.00, -0.00, -1.00, 1268.6, 853.0)">r</text><text xml:space="preserve" font-family="HelveticaNeue-Thin" font-size="132.7" fill="#000000" transform="matrix(1.00, 0.00, -0.00, -1.00, 1302.8, 853.0)">a</text><text xml:space="preserve" font-family="HelveticaNeue-Thin" font-size="132.7" fill="#000000" transform="matrix(1.00, 0.00, -0.00, -1.00, 1369.2, 853.0)">g</text><text xml:space="preserve" font-family="HelveticaNeue-Thin" font-size="132.7" fill="#000000" transform="matrix(1.00, 0.00, -0.00, -1.00, 1440.4, 853.0)">e</text></g></svg>