<?xml version="1.0" encoding="UTF-8" standalone="no"?><svg xmlns="http://www.w3.org/2000/svg" xmlns:xlink="http://www.w3.org/1999/xlink" clip-rule="evenodd" stroke-miterlimit="4.00" viewBox="0 0 1920 1080"><desc>SVG generated by Keynote</desc><defs></defs><g transform="matrix(1.00, 0.00, -0.00, -1.00, 0.0, 1080.0)"><path d="M 0.0 1080.0 L 1920.0 1080.0 L 1920.0 0.0 L 0.0 0.0 Z M 0.0 1080.0 " fill="#000000"></path><image xlink:href="3E0676D62EA47D5F1C016221326B6046.png" width="500.00" height="300.00" transform="matrix(2.48, 0.00, -0.00, -2.48, 341.0, 968.0)"></image><text xml:space="preserve" font-family="HelveticaNeue" font-size="74.0" fill="#FEFFFF" transform="matrix(1.00, 0.00, -0.00, -1.00, 841.0, 107.0)">#</text><text xml:space="preserve" font-family="HelveticaNeue" font-size="74.0" fill="#FEFFFF" transform="matrix(1.00, 0.00, -0.00, -1.00, 882.1, 107.0)">l</text><text xml:space="preserve" font-family="HelveticaNeue" font-size="74.0" fill="#FEFFFF" transform="matrix(1.00, 0.00, -0.00, -1.00, 898.6, 107.0)">o</text><text xml:space="preserve" font-family="HelveticaNeue" font-size="74.0" fill="#FEFFFF" transform="matrix(1.00, 0.00, -0.00, -1.00, 941.0, 107.0)">l</text><text xml:space="preserve" font-family="HelveticaNeue" font-size="74.0" fill="#FEFFFF" transform="matrix(1.00, 0.00, -0.00, -1.00, 957.5, 107.0)">w</text><text xml:space="preserve" font-family="HelveticaNeue" font-size="74.0" fill="#FEFFFF" transform="matrix(1.00, 0.00, -0.00, -1.00, 1013.6, 107.0)">u</text><text xml:space="preserve" font-family="HelveticaNeue" font-size="74.0" fill="#FEFFFF" transform="matrix(1.00, 0.00, -0.00, -1.00, 1054.7, 107.0)">t</text></g></svg>