<?xml version="1.0" encoding="UTF-8" standalone="no"?><svg xmlns="http://www.w3.org/2000/svg" xmlns:xlink="http://www.w3.org/1999/xlink" clip-rule="evenodd" stroke-miterlimit="4.00" viewBox="0 0 804 150"><desc>SVG generated by Keynote</desc><defs></defs><g transform="matrix(1.00, 0.00, -0.00, -1.00, 0.0, 150.0)"><text xml:space="preserve" font-family="HelveticaNeue-Thin" font-size="160.0" fill="#FEFFFF" transform="matrix(1.00, 0.00, -0.00, -1.00, -8.0, 31.0)">E</text><text xml:space="preserve" font-family="HelveticaNeue-Thin" font-size="160.0" fill="#FEFFFF" transform="matrix(1.00, 0.00, -0.00, -1.00, 81.6, 31.0)">C</text><text xml:space="preserve" font-family="HelveticaNeue-Thin" font-size="160.0" fill="#FEFFFF" transform="matrix(1.00, 0.00, -0.00, -1.00, 194.2, 31.0)">M</text><text xml:space="preserve" font-family="HelveticaNeue-Thin" font-size="160.0" fill="#FEFFFF" transform="matrix(1.00, 0.00, -0.00, -1.00, 323.7, 31.0)">A</text><text xml:space="preserve" font-family="HelveticaNeue-Thin" font-size="160.0" fill="#FEFFFF" transform="matrix(1.00, 0.00, -0.00, -1.00, 418.6, 31.0)">S</text><text xml:space="preserve" font-family="HelveticaNeue-Thin" font-size="160.0" fill="#FEFFFF" transform="matrix(1.00, 0.00, -0.00, -1.00, 519.4, 31.0)">c</text><text xml:space="preserve" font-family="HelveticaNeue-Thin" font-size="160.0" fill="#FEFFFF" transform="matrix(1.00, 0.00, -0.00, -1.00, 602.4, 31.0)">r</text><text xml:space="preserve" font-family="HelveticaNeue-Thin" font-size="160.0" fill="#FEFFFF" transform="matrix(1.00, 0.00, -0.00, -1.00, 646.9, 31.0)">i</text><text xml:space="preserve" font-family="HelveticaNeue-Thin" font-size="160.0" fill="#FEFFFF" transform="matrix(1.00, 0.00, -0.00, -1.00, 673.8, 31.0)">p</text><text xml:space="preserve" font-family="HelveticaNeue-Thin" font-size="160.0" fill="#FEFFFF" transform="matrix(1.00, 0.00, -0.00, -1.00, 762.7, 31.0)">t</text></g></svg>