<?xml version="1.0" encoding="UTF-8" standalone="no"?><svg xmlns="http://www.w3.org/2000/svg" xmlns:xlink="http://www.w3.org/1999/xlink" clip-rule="evenodd" stroke-miterlimit="4.00" viewBox="0 0 1920 1080"><desc>SVG generated by Keynote</desc><defs></defs><g transform="matrix(1.00, 0.00, -0.00, -1.00, 0.0, 1080.0)"><path d="M 0.0 1080.0 L 1920.0 1080.0 L 1920.0 0.0 L 0.0 0.0 Z M 0.0 1080.0 " fill="#000000"></path><text xml:space="preserve" font-family="ITCFranklinGothicStd-Demi" font-weight="bold" font-size="207.0" fill="#FEFFFF" transform="matrix(1.00, 0.00, -0.00, -1.00, 245.0, 732.0)">D</text><text xml:space="preserve" font-family="ITCFranklinGothicStd-Demi" font-weight="bold" font-size="207.0" fill="#FEFFFF" transform="matrix(1.00, 0.00, -0.00, -1.00, 381.6, 732.0)">a</text><text xml:space="preserve" font-family="ITCFranklinGothicStd-Demi" font-weight="bold" font-size="207.0" fill="#FEFFFF" transform="matrix(1.00, 0.00, -0.00, -1.00, 488.2, 732.0)">v</text><text xml:space="preserve" font-family="ITCFranklinGothicStd-Demi" font-weight="bold" font-size="207.0" fill="#FEFFFF" transform="matrix(1.00, 0.00, -0.00, -1.00, 587.6, 732.0)">e</text><text xml:space="preserve" font-family="ITCFranklinGothicStd-Demi" font-weight="bold" font-size="207.0" fill="#FEFFFF" transform="matrix(1.00, 0.00, -0.00, -1.00, 695.2, 732.0)">y</text><text xml:space="preserve" font-family="ITCFranklinGothicStd-Demi" font-weight="bold" font-size="207.0" fill="#FEFFFF" transform="matrix(1.00, 0.00, -0.00, -1.00, 794.6, 732.0)"> </text><text xml:space="preserve" font-family="HelveticaNeue-Thin" font-size="124.0" fill="#FEFFFF" transform="matrix(1.00, 0.00, -0.00, -1.00, 310.0, 506.0)">@</text><text xml:space="preserve" font-family="HelveticaNeue-Thin" font-size="124.0" fill="#FEFFFF" transform="matrix(1.00, 0.00, -0.00, -1.00, 409.2, 506.0)">d</text><text xml:space="preserve" font-family="HelveticaNeue-Thin" font-size="124.0" fill="#FEFFFF" transform="matrix(1.00, 0.00, -0.00, -1.00, 478.1, 506.0)">s</text><text xml:space="preserve" font-family="HelveticaNeue-Thin" font-size="124.0" fill="#FEFFFF" transform="matrix(1.00, 0.00, -0.00, -1.00, 537.8, 506.0)">t</text><text xml:space="preserve" font-family="HelveticaNeue-Thin" font-size="124.0" fill="#FEFFFF" transform="matrix(1.00, 0.00, -0.00, -1.00, 569.9, 506.0)">r</text><text xml:space="preserve" font-family="HelveticaNeue-Thin" font-size="124.0" fill="#FEFFFF" transform="matrix(1.00, 0.00, -0.00, -1.00, 604.4, 506.0)">u</text><text xml:space="preserve" font-family="HelveticaNeue-Thin" font-size="124.0" fill="#FEFFFF" transform="matrix(1.00, 0.00, -0.00, -1.00, 668.7, 506.0)">s</text><text xml:space="preserve" font-family="HelveticaNeue-Thin" font-size="124.0" fill="#FEFFFF" transform="matrix(1.00, 0.00, -0.00, -1.00, 728.4, 506.0)"> </text><text xml:space="preserve" font-family="HelveticaNeue-Thin" font-size="72.0" fill="#FEFFFF" transform="matrix(1.00, 0.00, -0.00, -1.00, 82.0, 406.0)">h</text><text xml:space="preserve" font-family="HelveticaNeue-Thin" font-size="72.0" fill="#FEFFFF" transform="matrix(1.00, 0.00, -0.00, -1.00, 119.4, 406.0)">t</text><text xml:space="preserve" font-family="HelveticaNeue-Thin" font-size="72.0" fill="#FEFFFF" transform="matrix(1.00, 0.00, -0.00, -1.00, 138.0, 406.0)">t</text><text xml:space="preserve" font-family="HelveticaNeue-Thin" font-size="72.0" fill="#FEFFFF" transform="matrix(1.00, 0.00, -0.00, -1.00, 156.7, 406.0)">p</text><text xml:space="preserve" font-family="HelveticaNeue-Thin" font-size="72.0" fill="#FEFFFF" transform="matrix(1.00, 0.00, -0.00, -1.00, 196.7, 406.0)">s</text><text xml:space="preserve" font-family="HelveticaNeue-Thin" font-size="72.0" fill="#FEFFFF" transform="matrix(1.00, 0.00, -0.00, -1.00, 231.3, 406.0)">:</text><text xml:space="preserve" font-family="HelveticaNeue-Thin" font-size="72.0" fill="#FEFFFF" transform="matrix(1.00, 0.00, -0.00, -1.00, 251.3, 406.0)">/</text><text xml:space="preserve" font-family="HelveticaNeue-Thin" font-size="72.0" fill="#FEFFFF" transform="matrix(1.00, 0.00, -0.00, -1.00, 275.3, 406.0)">/</text><text xml:space="preserve" font-family="HelveticaNeue-Thin" font-size="72.0" fill="#FEFFFF" transform="matrix(1.00, 0.00, -0.00, -1.00, 299.3, 406.0)">l</text><text xml:space="preserve" font-family="HelveticaNeue-Thin" font-size="72.0" fill="#FEFFFF" transform="matrix(1.00, 0.00, -0.00, -1.00, 311.4, 406.0)">i</text><text xml:space="preserve" font-family="HelveticaNeue-Thin" font-size="72.0" fill="#FEFFFF" transform="matrix(1.00, 0.00, -0.00, -1.00, 323.5, 406.0)">n</text><text xml:space="preserve" font-family="HelveticaNeue-Thin" font-size="72.0" fill="#FEFFFF" transform="matrix(1.00, 0.00, -0.00, -1.00, 360.9, 406.0)">k</text><text xml:space="preserve" font-family="HelveticaNeue-Thin" font-size="72.0" fill="#FEFFFF" transform="matrix(1.00, 0.00, -0.00, -1.00, 393.3, 406.0)">e</text><text xml:space="preserve" font-family="HelveticaNeue-Thin" font-size="72.0" fill="#FEFFFF" transform="matrix(1.00, 0.00, -0.00, -1.00, 430.7, 406.0)">d</text><text xml:space="preserve" font-family="HelveticaNeue-Thin" font-size="72.0" fill="#FEFFFF" transform="matrix(1.00, 0.00, -0.00, -1.00, 470.7, 406.0)">i</text><text xml:space="preserve" font-family="HelveticaNeue-Thin" font-size="72.0" fill="#FEFFFF" transform="matrix(1.00, 0.00, -0.00, -1.00, 482.8, 406.0)">n</text><text xml:space="preserve" font-family="HelveticaNeue-Thin" font-size="72.0" fill="#FEFFFF" transform="matrix(1.00, 0.00, -0.00, -1.00, 520.2, 406.0)">.</text><text xml:space="preserve" font-family="HelveticaNeue-Thin" font-size="72.0" fill="#FEFFFF" transform="matrix(1.00, 0.00, -0.00, -1.00, 540.2, 406.0)">c</text><text xml:space="preserve" font-family="HelveticaNeue-Thin" font-size="72.0" fill="#FEFFFF" transform="matrix(1.00, 0.00, -0.00, -1.00, 577.6, 406.0)">o</text><text xml:space="preserve" font-family="HelveticaNeue-Thin" font-size="72.0" fill="#FEFFFF" transform="matrix(1.00, 0.00, -0.00, -1.00, 616.2, 406.0)">m</text><text xml:space="preserve" font-family="HelveticaNeue-Thin" font-size="72.0" fill="#FEFFFF" transform="matrix(1.00, 0.00, -0.00, -1.00, 673.6, 406.0)">/</text><text xml:space="preserve" font-family="HelveticaNeue-Thin" font-size="72.0" fill="#FEFFFF" transform="matrix(1.00, 0.00, -0.00, -1.00, 697.5, 406.0)">i</text><text xml:space="preserve" font-family="HelveticaNeue-Thin" font-size="72.0" fill="#FEFFFF" transform="matrix(1.00, 0.00, -0.00, -1.00, 709.6, 406.0)">n</text><text xml:space="preserve" font-family="HelveticaNeue-Thin" font-size="72.0" fill="#FEFFFF" transform="matrix(1.00, 0.00, -0.00, -1.00, 747.0, 406.0)">/</text><text xml:space="preserve" font-family="HelveticaNeue-Thin" font-size="72.0" fill="#FEFFFF" transform="matrix(1.00, 0.00, -0.00, -1.00, 771.0, 406.0)">d</text><text xml:space="preserve" font-family="HelveticaNeue-Thin" font-size="72.0" fill="#FEFFFF" transform="matrix(1.00, 0.00, -0.00, -1.00, 811.0, 406.0)">s</text><text xml:space="preserve" font-family="HelveticaNeue-Thin" font-size="72.0" fill="#FEFFFF" transform="matrix(1.00, 0.00, -0.00, -1.00, 845.6, 406.0)">t</text><text xml:space="preserve" font-family="HelveticaNeue-Thin" font-size="72.0" fill="#FEFFFF" transform="matrix(1.00, 0.00, -0.00, -1.00, 864.3, 406.0)">r</text><text xml:space="preserve" font-family="HelveticaNeue-Thin" font-size="72.0" fill="#FEFFFF" transform="matrix(1.00, 0.00, -0.00, -1.00, 884.3, 406.0)">u</text><text xml:space="preserve" font-family="HelveticaNeue-Thin" font-size="72.0" fill="#FEFFFF" transform="matrix(1.00, 0.00, -0.00, -1.00, 921.7, 406.0)">s</text><text xml:space="preserve" font-family="HelveticaNeue-Thin" font-size="72.0" fill="#FEFFFF" transform="matrix(1.00, 0.00, -0.00, -1.00, 956.3, 406.0)"> </text><g><clipPath id="clip-1"><path d="M 81.2 398.2 L 956.5 398.2 L 956.5 403.8 L 81.2 403.8 Z M 81.2 398.2 "></path></clipPath><g clip-path="url(#clip-1)"><path d="M 66.5 478.6 L 940.8 478.6 " fill="none" stroke="#FEFFFF" stroke-width="3.60" stroke-miterlimit="0.00" transform="matrix(1.00, 0.00, 0.00, -1.00, 15.7, 879.6)"></path></g></g><text xml:space="preserve" font-family="HelveticaNeue-UltraLight" font-size="153.0" fill="#FEFFFF" transform="matrix(1.00, 0.00, -0.00, -1.00, 43.0, 247.0)">8</text><text xml:space="preserve" font-family="HelveticaNeue-UltraLight" font-size="153.0" fill="#FEFFFF" transform="matrix(1.00, 0.00, -0.00, -1.00, 128.1, 247.0)">1</text><text xml:space="preserve" font-family="HelveticaNeue-UltraLight" font-size="153.0" fill="#FEFFFF" transform="matrix(1.00, 0.00, -0.00, -1.00, 213.1, 247.0)">2</text><text xml:space="preserve" font-family="HelveticaNeue-UltraLight" font-size="153.0" fill="#FEFFFF" transform="matrix(1.00, 0.00, -0.00, -1.00, 298.2, 247.0)">-</text><text xml:space="preserve" font-family="HelveticaNeue-UltraLight" font-size="153.0" fill="#FEFFFF" transform="matrix(1.00, 0.00, -0.00, -1.00, 349.2, 247.0)">3</text><text xml:space="preserve" font-family="HelveticaNeue-UltraLight" font-size="153.0" fill="#FEFFFF" transform="matrix(1.00, 0.00, -0.00, -1.00, 434.2, 247.0)">6</text><text xml:space="preserve" font-family="HelveticaNeue-UltraLight" font-size="153.0" fill="#FEFFFF" transform="matrix(1.00, 0.00, -0.00, -1.00, 519.3, 247.0)">1</text><text xml:space="preserve" font-family="HelveticaNeue-UltraLight" font-size="153.0" fill="#FEFFFF" transform="matrix(1.00, 0.00, -0.00, -1.00, 604.4, 247.0)">-</text><text xml:space="preserve" font-family="HelveticaNeue-UltraLight" font-size="153.0" fill="#FEFFFF" transform="matrix(1.00, 0.00, -0.00, -1.00, 655.3, 247.0)">5</text><text xml:space="preserve" font-family="HelveticaNeue-UltraLight" font-size="153.0" fill="#FEFFFF" transform="matrix(1.00, 0.00, -0.00, -1.00, 740.4, 247.0)">9</text><text xml:space="preserve" font-family="HelveticaNeue-UltraLight" font-size="153.0" fill="#FEFFFF" transform="matrix(1.00, 0.00, -0.00, -1.00, 825.4, 247.0)">7</text><text xml:space="preserve" font-family="HelveticaNeue-UltraLight" font-size="153.0" fill="#FEFFFF" transform="matrix(1.00, 0.00, -0.00, -1.00, 910.5, 247.0)">7</text><text xml:space="preserve" font-family="HelveticaNeue-UltraLight" font-size="153.0" fill="#FEFFFF" transform="matrix(1.00, 0.00, -0.00, -1.00, 995.6, 247.0)"> </text><image xlink:href="../../4B582FA8-1923-430F-8AF3-F9DCC482D676/assets/DD208ED85BD991C52F1281AC92B7F442.png" width="456.00" height="596.00" transform="matrix(1.59, 0.00, -0.00, -1.59, 1111.0, 1014.0)"></image></g></svg>