<?xml version="1.0" encoding="UTF-8" standalone="no"?><svg xmlns="http://www.w3.org/2000/svg" xmlns:xlink="http://www.w3.org/1999/xlink" clip-rule="evenodd" stroke-miterlimit="4.00" viewBox="0 0 1920 1080"><desc>SVG generated by Keynote</desc><defs></defs><g transform="matrix(1.00, 0.00, -0.00, -1.00, 0.0, 1080.0)"><path d="M 0.0 1080.0 L 1920.0 1080.0 L 1920.0 0.0 L 0.0 0.0 Z M 0.0 1080.0 " fill="#FEFFFE"></path><image xlink:href="C1AB19D800581C027EF488C73C9FB1B8.jpeg" width="304.00" height="166.00" transform="matrix(2.16, 0.00, -0.00, -2.17, -2.0, 1082.0)"></image><text xml:space="preserve" font-family="HelveticaNeue-UltraLight" font-size="133.0" fill="#000000" transform="matrix(1.00, 0.00, -0.00, -1.00, 604.0, 570.0)">T</text><text xml:space="preserve" font-family="HelveticaNeue-UltraLight" font-size="133.0" fill="#000000" transform="matrix(1.00, 0.00, -0.00, -1.00, 670.5, 570.0)">H</text><text xml:space="preserve" font-family="HelveticaNeue-UltraLight" font-size="133.0" fill="#000000" transform="matrix(1.00, 0.00, -0.00, -1.00, 756.7, 570.0)">E</text><text xml:space="preserve" font-family="HelveticaNeue-UltraLight" font-size="133.0" fill="#000000" transform="matrix(1.00, 0.00, -0.00, -1.00, 828.1, 570.0)">Y</text><text xml:space="preserve" font-family="HelveticaNeue-UltraLight" font-size="133.0" fill="#000000" transform="matrix(1.00, 0.00, -0.00, -1.00, 899.7, 570.0)">'</text><text xml:space="preserve" font-family="HelveticaNeue-UltraLight" font-size="133.0" fill="#000000" transform="matrix(1.00, 0.00, -0.00, -1.00, 921.9, 570.0)">R</text><text xml:space="preserve" font-family="HelveticaNeue-UltraLight" font-size="133.0" fill="#000000" transform="matrix(1.00, 0.00, -0.00, -1.00, 1003.1, 570.0)">E</text><text xml:space="preserve" font-family="HelveticaNeue-UltraLight" font-size="133.0" fill="#000000" transform="matrix(1.00, 0.00, -0.00, -1.00, 1074.6, 570.0)"> </text><text xml:space="preserve" font-family="HelveticaNeue-UltraLight" font-size="133.0" fill="#000000" transform="matrix(1.00, 0.00, -0.00, -1.00, 1111.5, 570.0)">A</text><text xml:space="preserve" font-family="HelveticaNeue-UltraLight" font-size="133.0" fill="#000000" transform="matrix(1.00, 0.00, -0.00, -1.00, 1188.0, 570.0)">L</text><text xml:space="preserve" font-family="HelveticaNeue-UltraLight" font-size="133.0" fill="#000000" transform="matrix(1.00, 0.00, -0.00, -1.00, 1252.0, 570.0)">L</text><text xml:space="preserve" font-family="HelveticaNeue-UltraLight" font-size="133.0" fill="#000000" transform="matrix(1.00, 0.00, -0.00, -1.00, 1315.9, 570.0)"> </text><text xml:space="preserve" font-family="HelveticaNeue-UltraLight" font-size="133.0" fill="#000000" transform="matrix(1.00, 0.00, -0.00, -1.00, 608.0, 414.0)">M</text><text xml:space="preserve" font-family="HelveticaNeue-UltraLight" font-size="133.0" fill="#000000" transform="matrix(1.00, 0.00, -0.00, -1.00, 711.7, 414.0)">O</text><text xml:space="preserve" font-family="HelveticaNeue-UltraLight" font-size="133.0" fill="#000000" transform="matrix(1.00, 0.00, -0.00, -1.00, 807.6, 414.0)">S</text><text xml:space="preserve" font-family="HelveticaNeue-UltraLight" font-size="133.0" fill="#000000" transform="matrix(1.00, 0.00, -0.00, -1.00, 888.9, 414.0)">T</text><text xml:space="preserve" font-family="HelveticaNeue-UltraLight" font-size="133.0" fill="#000000" transform="matrix(1.00, 0.00, -0.00, -1.00, 955.4, 414.0)">L</text><text xml:space="preserve" font-family="HelveticaNeue-UltraLight" font-size="133.0" fill="#000000" transform="matrix(1.00, 0.00, -0.00, -1.00, 1004.6, 414.0)">Y</text><text xml:space="preserve" font-family="HelveticaNeue-UltraLight" font-size="133.0" fill="#000000" transform="matrix(1.00, 0.00, -0.00, -1.00, 1076.2, 414.0)"> </text><text xml:space="preserve" font-family="HelveticaNeue-UltraLight" font-size="133.0" fill="#000000" transform="matrix(1.00, 0.00, -0.00, -1.00, 1113.1, 414.0)">O</text><text xml:space="preserve" font-family="HelveticaNeue-UltraLight" font-size="133.0" fill="#000000" transform="matrix(1.00, 0.00, -0.00, -1.00, 1209.0, 414.0)">K</text><text xml:space="preserve" font-family="HelveticaNeue-UltraLight" font-size="133.0" fill="#000000" transform="matrix(1.00, 0.00, -0.00, -1.00, 1287.9, 414.0)">!</text></g></svg>