<?xml version="1.0" encoding="UTF-8" standalone="no"?><svg xmlns="http://www.w3.org/2000/svg" xmlns:xlink="http://www.w3.org/1999/xlink" clip-rule="evenodd" stroke-miterlimit="4.00" viewBox="0 0 1920 1080"><desc>SVG generated by Keynote</desc><defs></defs><g transform="matrix(1.00, 0.00, -0.00, -1.00, 0.0, 1080.0)"><path d="M 0.0 1080.0 L 1920.0 1080.0 L 1920.0 0.0 L 0.0 0.0 Z M 0.0 1080.0 " fill="#000000"></path><image xlink:href="A59DD591F4FB7E386B991D6B6BF6C8D4.png" width="376.00" height="210.00" transform="matrix(3.81, 0.00, -0.00, -3.81, 244.0, 910.0)"></image><image xlink:href="7855A92490ABDADEC03EAB34F36F2D8B.png" width="614.00" height="263.00" transform="matrix(1.00, 0.00, -0.00, -1.00, 159.0, 1014.0)"></image><text xml:space="preserve" font-family="Inkpen2Script" font-size="142.0" fill="#FEFFFF" transform="matrix(0.96, 0.29, 0.29, -0.96, 179.5, 752.0)">C</text><text xml:space="preserve" font-family="Inkpen2Script" font-size="142.0" fill="#FEFFFF" transform="matrix(0.96, 0.29, 0.29, -0.96, 237.9, 769.4)">G</text><text xml:space="preserve" font-family="Inkpen2Script" font-size="142.0" fill="#FEFFFF" transform="matrix(0.96, 0.29, 0.29, -0.96, 300.6, 788.1)">I</text><text xml:space="preserve" font-family="Inkpen2Script" font-size="142.0" fill="#FEFFFF" transform="matrix(0.96, 0.29, 0.29, -0.96, 323.4, 794.9)"> </text><text xml:space="preserve" font-family="Inkpen2Script" font-size="142.0" fill="#FEFFFF" transform="matrix(0.96, 0.29, 0.29, -0.96, 367.0, 808.0)">S</text><text xml:space="preserve" font-family="Inkpen2Script" font-size="142.0" fill="#FEFFFF" transform="matrix(0.96, 0.29, 0.29, -0.96, 428.3, 826.2)">C</text><text xml:space="preserve" font-family="Inkpen2Script" font-size="142.0" fill="#FEFFFF" transform="matrix(0.96, 0.29, 0.29, -0.96, 486.6, 843.7)">R</text><text xml:space="preserve" font-family="Inkpen2Script" font-size="142.0" fill="#FEFFFF" transform="matrix(0.96, 0.29, 0.29, -0.96, 539.6, 859.5)">I</text><text xml:space="preserve" font-family="Inkpen2Script" font-size="142.0" fill="#FEFFFF" transform="matrix(0.96, 0.29, 0.29, -0.96, 562.3, 866.2)">P</text><text xml:space="preserve" font-family="Inkpen2Script" font-size="142.0" fill="#FEFFFF" transform="matrix(0.96, 0.29, 0.29, -0.96, 614.0, 881.7)">T</text><text xml:space="preserve" font-family="Inkpen2Script" font-size="142.0" fill="#FEFFFF" transform="matrix(0.96, 0.29, 0.29, -0.96, 669.8, 898.3)">S</text><text xml:space="preserve" font-family="Inkpen2Script" font-size="142.0" fill="#FEFFFF" transform="matrix(0.96, 0.29, 0.29, -0.96, 731.0, 916.6)">!</text><text xml:space="preserve" font-family="Inkpen2Script" font-size="142.0" fill="#FEFFFF" transform="matrix(0.96, 0.29, 0.29, -0.96, 751.8, 922.8)">!</text></g></svg>