<?xml version="1.0" encoding="UTF-8" standalone="no"?><svg xmlns="http://www.w3.org/2000/svg" xmlns:xlink="http://www.w3.org/1999/xlink" clip-rule="evenodd" stroke-miterlimit="4.00" viewBox="0 0 1920 1080"><desc>SVG generated by Keynote</desc><defs></defs><g transform="matrix(1.00, 0.00, -0.00, -1.00, 0.0, 1080.0)"><path d="M 0.0 1080.0 L 1920.0 1080.0 L 1920.0 0.0 L 0.0 0.0 Z M 0.0 1080.0 " fill="#FEFFFE"></path><text xml:space="preserve" font-family="SourceCodePro-Regular" font-size="174.0" fill="#A3B0B0" transform="matrix(1.00, 0.00, -0.00, -1.00, 803.0, 478.0)">$</text><text xml:space="preserve" font-family="SourceCodePro-Regular" font-size="174.0" fill="#A3B0B0" transform="matrix(1.00, 0.00, -0.00, -1.00, 907.4, 478.0)">(</text><text xml:space="preserve" font-family="SourceCodePro-Regular" font-size="174.0" fill="#A3B0B0" transform="matrix(1.00, 0.00, -0.00, -1.00, 1011.8, 478.0)">)</text><text xml:space="preserve" font-family="HelveticaNeue-Thin" font-size="131.0" fill="#000000" transform="matrix(1.00, 0.00, -0.00, -1.00, 414.0, 852.0)">T</text><text xml:space="preserve" font-family="HelveticaNeue-Thin" font-size="131.0" fill="#000000" transform="matrix(1.00, 0.00, -0.00, -1.00, 482.0, 852.0)">h</text><text xml:space="preserve" font-family="HelveticaNeue-Thin" font-size="131.0" fill="#000000" transform="matrix(1.00, 0.00, -0.00, -1.00, 550.0, 852.0)">e</text><text xml:space="preserve" font-family="HelveticaNeue-Thin" font-size="131.0" fill="#000000" transform="matrix(1.00, 0.00, -0.00, -1.00, 618.0, 852.0)"> </text><text xml:space="preserve" font-family="HelveticaNeue-Thin" font-size="131.0" fill="#000000" transform="matrix(1.00, 0.00, -0.00, -1.00, 654.5, 852.0)">j</text><text xml:space="preserve" font-family="HelveticaNeue-Thin" font-size="131.0" fill="#000000" transform="matrix(1.00, 0.00, -0.00, -1.00, 676.5, 852.0)">Q</text><text xml:space="preserve" font-family="HelveticaNeue-Thin" font-size="131.0" fill="#000000" transform="matrix(1.00, 0.00, -0.00, -1.00, 773.6, 852.0)">u</text><text xml:space="preserve" font-family="HelveticaNeue-Thin" font-size="131.0" fill="#000000" transform="matrix(1.00, 0.00, -0.00, -1.00, 841.6, 852.0)">e</text><text xml:space="preserve" font-family="HelveticaNeue-Thin" font-size="131.0" fill="#000000" transform="matrix(1.00, 0.00, -0.00, -1.00, 909.6, 852.0)">r</text><text xml:space="preserve" font-family="HelveticaNeue-Thin" font-size="131.0" fill="#000000" transform="matrix(1.00, 0.00, -0.00, -1.00, 948.4, 852.0)">y</text><text xml:space="preserve" font-family="HelveticaNeue-Thin" font-size="131.0" fill="#000000" transform="matrix(1.00, 0.00, -0.00, -1.00, 1006.6, 852.0)"> </text><text xml:space="preserve" font-family="HelveticaNeue-Thin" font-size="131.0" fill="#000000" transform="matrix(1.00, 0.00, -0.00, -1.00, 1043.0, 852.0)">F</text><text xml:space="preserve" font-family="HelveticaNeue-Thin" font-size="131.0" fill="#000000" transform="matrix(1.00, 0.00, -0.00, -1.00, 1107.2, 852.0)">u</text><text xml:space="preserve" font-family="HelveticaNeue-Thin" font-size="131.0" fill="#000000" transform="matrix(1.00, 0.00, -0.00, -1.00, 1175.2, 852.0)">n</text><text xml:space="preserve" font-family="HelveticaNeue-Thin" font-size="131.0" fill="#000000" transform="matrix(1.00, 0.00, -0.00, -1.00, 1243.2, 852.0)">c</text><text xml:space="preserve" font-family="HelveticaNeue-Thin" font-size="131.0" fill="#000000" transform="matrix(1.00, 0.00, -0.00, -1.00, 1311.2, 852.0)">t</text><text xml:space="preserve" font-family="HelveticaNeue-Thin" font-size="131.0" fill="#000000" transform="matrix(1.00, 0.00, -0.00, -1.00, 1345.2, 852.0)">i</text><text xml:space="preserve" font-family="HelveticaNeue-Thin" font-size="131.0" fill="#000000" transform="matrix(1.00, 0.00, -0.00, -1.00, 1367.2, 852.0)">o</text><text xml:space="preserve" font-family="HelveticaNeue-Thin" font-size="131.0" fill="#000000" transform="matrix(1.00, 0.00, -0.00, -1.00, 1437.6, 852.0)">n</text></g></svg>