<?xml version="1.0" encoding="UTF-8" standalone="no"?><svg xmlns="http://www.w3.org/2000/svg" xmlns:xlink="http://www.w3.org/1999/xlink" clip-rule="evenodd" stroke-miterlimit="4.00" viewBox="0 0 1920 1080"><desc>SVG generated by Keynote</desc><defs></defs><g transform="matrix(1.00, 0.00, -0.00, -1.00, 0.0, 1080.0)"><path d="M 0.0 1080.0 L 1920.0 1080.0 L 1920.0 0.0 L 0.0 0.0 Z M 0.0 1080.0 " fill="#000000"></path><text xml:space="preserve" font-family="SourceCodePro-Regular" font-size="93.0" fill="#FEFFFF" transform="matrix(1.00, 0.00, -0.00, -1.00, 123.0, 565.0)">M</text><text xml:space="preserve" font-family="SourceCodePro-Regular" font-size="93.0" fill="#FEFFFF" transform="matrix(1.00, 0.00, -0.00, -1.00, 178.8, 565.0)">o</text><text xml:space="preserve" font-family="SourceCodePro-Regular" font-size="93.0" fill="#FEFFFF" transform="matrix(1.00, 0.00, -0.00, -1.00, 234.6, 565.0)">z</text><text xml:space="preserve" font-family="SourceCodePro-Regular" font-size="93.0" fill="#FEFFFF" transform="matrix(1.00, 0.00, -0.00, -1.00, 290.4, 565.0)">i</text><text xml:space="preserve" font-family="SourceCodePro-Regular" font-size="93.0" fill="#FEFFFF" transform="matrix(1.00, 0.00, -0.00, -1.00, 346.2, 565.0)">l</text><text xml:space="preserve" font-family="SourceCodePro-Regular" font-size="93.0" fill="#FEFFFF" transform="matrix(1.00, 0.00, -0.00, -1.00, 402.0, 565.0)">l</text><text xml:space="preserve" font-family="SourceCodePro-Regular" font-size="93.0" fill="#FEFFFF" transform="matrix(1.00, 0.00, -0.00, -1.00, 457.8, 565.0)">a</text><text xml:space="preserve" font-family="SourceCodePro-Regular" font-size="93.0" fill="#FEFFFF" transform="matrix(1.00, 0.00, -0.00, -1.00, 513.6, 565.0)">/</text><text xml:space="preserve" font-family="SourceCodePro-Regular" font-size="93.0" fill="#FEFFFF" transform="matrix(1.00, 0.00, -0.00, -1.00, 569.4, 565.0)">1</text><text xml:space="preserve" font-family="SourceCodePro-Regular" font-size="93.0" fill="#FEFFFF" transform="matrix(1.00, 0.00, -0.00, -1.00, 625.2, 565.0)">.</text><text xml:space="preserve" font-family="SourceCodePro-Regular" font-size="93.0" fill="#FEFFFF" transform="matrix(1.00, 0.00, -0.00, -1.00, 681.0, 565.0)">2</text><text xml:space="preserve" font-family="SourceCodePro-Regular" font-size="93.0" fill="#FEFFFF" transform="matrix(1.00, 0.00, -0.00, -1.00, 736.8, 565.0)">2</text><text xml:space="preserve" font-family="SourceCodePro-Regular" font-size="93.0" fill="#FEFFFF" transform="matrix(1.00, 0.00, -0.00, -1.00, 792.6, 565.0)"> </text><text xml:space="preserve" font-family="SourceCodePro-Regular" font-size="93.0" fill="#FEFFFF" transform="matrix(1.00, 0.00, -0.00, -1.00, 848.4, 565.0)">(</text><text xml:space="preserve" font-family="SourceCodePro-Regular" font-size="93.0" fill="#FEFFFF" transform="matrix(1.00, 0.00, -0.00, -1.00, 904.2, 565.0)">c</text><text xml:space="preserve" font-family="SourceCodePro-Regular" font-size="93.0" fill="#FEFFFF" transform="matrix(1.00, 0.00, -0.00, -1.00, 960.0, 565.0)">o</text><text xml:space="preserve" font-family="SourceCodePro-Regular" font-size="93.0" fill="#FEFFFF" transform="matrix(1.00, 0.00, -0.00, -1.00, 1015.8, 565.0)">m</text><text xml:space="preserve" font-family="SourceCodePro-Regular" font-size="93.0" fill="#FEFFFF" transform="matrix(1.00, 0.00, -0.00, -1.00, 1071.6, 565.0)">p</text><text xml:space="preserve" font-family="SourceCodePro-Regular" font-size="93.0" fill="#FEFFFF" transform="matrix(1.00, 0.00, -0.00, -1.00, 1127.4, 565.0)">a</text><text xml:space="preserve" font-family="SourceCodePro-Regular" font-size="93.0" fill="#FEFFFF" transform="matrix(1.00, 0.00, -0.00, -1.00, 1183.2, 565.0)">t</text><text xml:space="preserve" font-family="SourceCodePro-Regular" font-size="93.0" fill="#FEFFFF" transform="matrix(1.00, 0.00, -0.00, -1.00, 1239.0, 565.0)">i</text><text xml:space="preserve" font-family="SourceCodePro-Regular" font-size="93.0" fill="#FEFFFF" transform="matrix(1.00, 0.00, -0.00, -1.00, 1294.8, 565.0)">b</text><text xml:space="preserve" font-family="SourceCodePro-Regular" font-size="93.0" fill="#FEFFFF" transform="matrix(1.00, 0.00, -0.00, -1.00, 1350.6, 565.0)">l</text><text xml:space="preserve" font-family="SourceCodePro-Regular" font-size="93.0" fill="#FEFFFF" transform="matrix(1.00, 0.00, -0.00, -1.00, 1406.4, 565.0)">e</text><text xml:space="preserve" font-family="SourceCodePro-Regular" font-size="93.0" fill="#FEFFFF" transform="matrix(1.00, 0.00, -0.00, -1.00, 1462.2, 565.0)">;</text><text xml:space="preserve" font-family="SourceCodePro-Regular" font-size="93.0" fill="#FEFFFF" transform="matrix(1.00, 0.00, -0.00, -1.00, 1518.0, 565.0)"> </text><text xml:space="preserve" font-family="SourceCodePro-Regular" font-size="93.0" fill="#FEFFFF" transform="matrix(1.00, 0.00, -0.00, -1.00, 1573.8, 565.0)">M</text><text xml:space="preserve" font-family="SourceCodePro-Regular" font-size="93.0" fill="#FEFFFF" transform="matrix(1.00, 0.00, -0.00, -1.00, 1629.6, 565.0)">S</text><text xml:space="preserve" font-family="SourceCodePro-Regular" font-size="93.0" fill="#FEFFFF" transform="matrix(1.00, 0.00, -0.00, -1.00, 1685.4, 565.0)">I</text><text xml:space="preserve" font-family="SourceCodePro-Regular" font-size="93.0" fill="#FEFFFF" transform="matrix(1.00, 0.00, -0.00, -1.00, 1741.2, 565.0)">E</text><text xml:space="preserve" font-family="SourceCodePro-Regular" font-size="93.0" fill="#FEFFFF" transform="matrix(1.00, 0.00, -0.00, -1.00, 1797.0, 565.0)"> </text><text xml:space="preserve" font-family="SourceCodePro-Regular" font-size="93.0" fill="#FEFFFF" transform="matrix(1.00, 0.00, -0.00, -1.00, 514.0, 448.0)">2</text><text xml:space="preserve" font-family="SourceCodePro-Regular" font-size="93.0" fill="#FEFFFF" transform="matrix(1.00, 0.00, -0.00, -1.00, 569.8, 448.0)">.</text><text xml:space="preserve" font-family="SourceCodePro-Regular" font-size="93.0" fill="#FEFFFF" transform="matrix(1.00, 0.00, -0.00, -1.00, 625.6, 448.0)">0</text><text xml:space="preserve" font-family="SourceCodePro-Regular" font-size="93.0" fill="#FEFFFF" transform="matrix(1.00, 0.00, -0.00, -1.00, 681.4, 448.0)">;</text><text xml:space="preserve" font-family="SourceCodePro-Regular" font-size="93.0" fill="#FEFFFF" transform="matrix(1.00, 0.00, -0.00, -1.00, 737.2, 448.0)"> </text><text xml:space="preserve" font-family="SourceCodePro-Regular" font-size="93.0" fill="#FEFFFF" transform="matrix(1.00, 0.00, -0.00, -1.00, 793.0, 448.0)">W</text><text xml:space="preserve" font-family="SourceCodePro-Regular" font-size="93.0" fill="#FEFFFF" transform="matrix(1.00, 0.00, -0.00, -1.00, 848.8, 448.0)">i</text><text xml:space="preserve" font-family="SourceCodePro-Regular" font-size="93.0" fill="#FEFFFF" transform="matrix(1.00, 0.00, -0.00, -1.00, 904.6, 448.0)">n</text><text xml:space="preserve" font-family="SourceCodePro-Regular" font-size="93.0" fill="#FEFFFF" transform="matrix(1.00, 0.00, -0.00, -1.00, 960.4, 448.0)">d</text><text xml:space="preserve" font-family="SourceCodePro-Regular" font-size="93.0" fill="#FEFFFF" transform="matrix(1.00, 0.00, -0.00, -1.00, 1016.2, 448.0)">o</text><text xml:space="preserve" font-family="SourceCodePro-Regular" font-size="93.0" fill="#FEFFFF" transform="matrix(1.00, 0.00, -0.00, -1.00, 1072.0, 448.0)">w</text><text xml:space="preserve" font-family="SourceCodePro-Regular" font-size="93.0" fill="#FEFFFF" transform="matrix(1.00, 0.00, -0.00, -1.00, 1127.8, 448.0)">s</text><text xml:space="preserve" font-family="SourceCodePro-Regular" font-size="93.0" fill="#FEFFFF" transform="matrix(1.00, 0.00, -0.00, -1.00, 1183.6, 448.0)"> </text><text xml:space="preserve" font-family="SourceCodePro-Regular" font-size="93.0" fill="#FEFFFF" transform="matrix(1.00, 0.00, -0.00, -1.00, 1239.4, 448.0)">9</text><text xml:space="preserve" font-family="SourceCodePro-Regular" font-size="93.0" fill="#FEFFFF" transform="matrix(1.00, 0.00, -0.00, -1.00, 1295.2, 448.0)">5</text><text xml:space="preserve" font-family="SourceCodePro-Regular" font-size="93.0" fill="#FEFFFF" transform="matrix(1.00, 0.00, -0.00, -1.00, 1351.0, 448.0)">)</text></g></svg>