<?xml version="1.0" encoding="UTF-8" standalone="no"?><svg xmlns="http://www.w3.org/2000/svg" xmlns:xlink="http://www.w3.org/1999/xlink" clip-rule="evenodd" stroke-miterlimit="4.00" viewBox="0 0 1920 1080"><desc>SVG generated by Keynote</desc><defs></defs><g transform="matrix(1.00, 0.00, -0.00, -1.00, 0.0, 1080.0)"><path d="M 0.0 1080.0 L 1920.0 1080.0 L 1920.0 0.0 L 0.0 0.0 Z M 0.0 1080.0 " fill="#000000"></path><image xlink:href="3139EC744EA7150F303F2C13AD38EE47.png" width="960.00" height="203.00" transform="matrix(1.63, 0.00, -0.00, -1.64, 154.0, 987.0)"></image><path d="M 661.1 27.1 C 812.4 63.3 812.4 122.0 661.1 158.2 C 509.9 194.4 264.7 194.4 113.4 158.2 C -37.8 122.0 -37.8 63.3 113.4 27.1 C 264.7 -9.0 509.9 -9.0 661.1 27.1 Z M 661.1 27.1 " fill="none" stroke="#ED2C2E" stroke-width="5.00" transform="matrix(1.00, 0.00, 0.00, -1.00, 287.7, 781.2)"></path><image xlink:href="47141B508DD8D2215F23294A287ACBCF.png" width="272.00" height="210.00" transform="matrix(2.56, 0.00, -0.00, -2.56, 1026.0, 619.0)"></image></g></svg>