<?xml version="1.0" encoding="UTF-8" standalone="no"?><svg xmlns="http://www.w3.org/2000/svg" xmlns:xlink="http://www.w3.org/1999/xlink" clip-rule="evenodd" stroke-miterlimit="4.00" viewBox="0 0 1920 1080"><desc>SVG generated by Keynote</desc><defs></defs><g transform="matrix(1.00, 0.00, -0.00, -1.00, 0.0, 1080.0)"><path d="M 0.0 1080.0 L 1920.0 1080.0 L 1920.0 0.0 L 0.0 0.0 Z M 0.0 1080.0 " fill="#000000"></path><image xlink:href="77B9E48C20F9AC7D010210EB486D5CF6.jpeg" width="307.00" height="200.00" transform="matrix(6.25, 0.00, -0.00, -6.25, 0.0, 1069.0)"></image><image xlink:href="8D50B15409678E3CD01FFD5DEB010B4D.png" width="943.00" height="210.00" transform="matrix(1.00, 0.00, -0.00, -1.00, 486.0, 645.0)"></image><text xml:space="preserve" font-family="Inkpen2Script" font-size="234.0" fill="#FEFFFF" transform="matrix(1.00, 0.00, -0.00, -1.00, 506.0, 459.0)">P</text><text xml:space="preserve" font-family="Inkpen2Script" font-size="234.0" fill="#FEFFFF" transform="matrix(1.00, 0.00, -0.00, -1.00, 594.9, 459.0)">O</text><text xml:space="preserve" font-family="Inkpen2Script" font-size="234.0" fill="#FEFFFF" transform="matrix(1.00, 0.00, -0.00, -1.00, 687.4, 459.0)">P</text><text xml:space="preserve" font-family="Inkpen2Script" font-size="234.0" fill="#FEFFFF" transform="matrix(1.00, 0.00, -0.00, -1.00, 776.3, 459.0)">U</text><text xml:space="preserve" font-family="Inkpen2Script" font-size="234.0" fill="#FEFFFF" transform="matrix(1.00, 0.00, -0.00, -1.00, 882.0, 459.0)">P</text><text xml:space="preserve" font-family="Inkpen2Script" font-size="234.0" fill="#FEFFFF" transform="matrix(1.00, 0.00, -0.00, -1.00, 971.0, 459.0)"> </text><text xml:space="preserve" font-family="Inkpen2Script" font-size="234.0" fill="#FEFFFF" transform="matrix(1.00, 0.00, -0.00, -1.00, 1046.1, 459.0)">A</text><text xml:space="preserve" font-family="Inkpen2Script" font-size="234.0" fill="#FEFFFF" transform="matrix(1.00, 0.00, -0.00, -1.00, 1126.8, 459.0)">D</text><text xml:space="preserve" font-family="Inkpen2Script" font-size="234.0" fill="#FEFFFF" transform="matrix(1.00, 0.00, -0.00, -1.00, 1236.8, 459.0)">S</text><text xml:space="preserve" font-family="Inkpen2Script" font-size="234.0" fill="#FEFFFF" transform="matrix(1.00, 0.00, -0.00, -1.00, 1342.1, 459.0)">!</text><text xml:space="preserve" font-family="Inkpen2Script" font-size="234.0" fill="#FEFFFF" transform="matrix(1.00, 0.00, -0.00, -1.00, 1377.9, 459.0)">!</text></g></svg>