<?xml version="1.0" encoding="UTF-8" standalone="no"?><svg xmlns="http://www.w3.org/2000/svg" xmlns:xlink="http://www.w3.org/1999/xlink" clip-rule="evenodd" stroke-miterlimit="4.00" viewBox="0 0 1024 768"><desc>SVG generated by Keynote</desc><defs></defs><g transform="matrix(1.00, 0.00, -0.00, -1.00, 0.0, 768.0)"><path d="M 0.0 768.0 L 1024.0 768.0 L 1024.0 0.0 L 0.0 0.0 Z M 0.0 768.0 " fill="#000000"></path><g><clipPath id="clip-10"><path d="M 529.0 564.0 L 949.0 564.0 L 949.0 69.0 L 529.0 69.0 Z M 529.0 564.0 "></path></clipPath><g clip-path="url(#clip-10)"><image xlink:href="../../D00090C5-BDEF-4923-849D-B5EB988DF5ED/assets/27C535F09329E0E970E1ED98CC871E6C.png" width="420.00" height="582.00" transform="matrix(1.00, 0.00, -0.00, -1.00, 529.0, 607.0)"></image></g></g><text xml:space="preserve" font-family="Helvetica-Light" font-size="80.0" fill="#FEFFFF" transform="matrix(1.00, 0.00, -0.00, -1.00, 281.0, 633.0)">E</text><text xml:space="preserve" font-family="Helvetica-Light" font-size="80.0" fill="#FEFFFF" transform="matrix(1.00, 0.00, -0.00, -1.00, 329.9, 633.0)">x</text><text xml:space="preserve" font-family="Helvetica-Light" font-size="80.0" fill="#FEFFFF" transform="matrix(1.00, 0.00, -0.00, -1.00, 369.9, 633.0)">p</text><text xml:space="preserve" font-family="Helvetica-Light" font-size="80.0" fill="#FEFFFF" transform="matrix(1.00, 0.00, -0.00, -1.00, 418.8, 633.0)">e</text><text xml:space="preserve" font-family="Helvetica-Light" font-size="80.0" fill="#FEFFFF" transform="matrix(1.00, 0.00, -0.00, -1.00, 463.2, 633.0)">c</text><text xml:space="preserve" font-family="Helvetica-Light" font-size="80.0" fill="#FEFFFF" transform="matrix(1.00, 0.00, -0.00, -1.00, 507.7, 633.0)">t</text><text xml:space="preserve" font-family="Helvetica-Light" font-size="80.0" fill="#FEFFFF" transform="matrix(1.00, 0.00, -0.00, -1.00, 530.0, 633.0)">a</text><text xml:space="preserve" font-family="Helvetica-Light" font-size="80.0" fill="#FEFFFF" transform="matrix(1.00, 0.00, -0.00, -1.00, 574.4, 633.0)">t</text><text xml:space="preserve" font-family="Helvetica-Light" font-size="80.0" fill="#FEFFFF" transform="matrix(1.00, 0.00, -0.00, -1.00, 596.7, 633.0)">i</text><text xml:space="preserve" font-family="Helvetica-Light" font-size="80.0" fill="#FEFFFF" transform="matrix(1.00, 0.00, -0.00, -1.00, 614.4, 633.0)">o</text><text xml:space="preserve" font-family="Helvetica-Light" font-size="80.0" fill="#FEFFFF" transform="matrix(1.00, 0.00, -0.00, -1.00, 658.9, 633.0)">n</text><text xml:space="preserve" font-family="Helvetica-Light" font-size="80.0" fill="#FEFFFF" transform="matrix(1.00, 0.00, -0.00, -1.00, 703.4, 633.0)">s</text><text xml:space="preserve" font-family="Helvetica-Light" font-size="21.0" fill="#FEFFFF" transform="matrix(1.00, 0.00, -0.00, -1.00, 79.0, 424.3)">•</text><text xml:space="preserve" font-family="Helvetica-Light" font-size="28.0" fill="#FEFFFF" transform="matrix(1.00, 0.00, -0.00, -1.00, 106.0, 421.0)">I</text><text xml:space="preserve" font-family="Helvetica-Light" font-size="28.0" fill="#FEFFFF" transform="matrix(1.00, 0.00, -0.00, -1.00, 113.8, 421.0)">t</text><text xml:space="preserve" font-family="Helvetica-Light" font-size="28.0" fill="#FEFFFF" transform="matrix(1.00, 0.00, -0.00, -1.00, 121.6, 421.0)">’</text><text xml:space="preserve" font-family="Helvetica-Light" font-size="28.0" fill="#FEFFFF" transform="matrix(1.00, 0.00, -0.00, -1.00, 125.7, 421.0)">s</text><text xml:space="preserve" font-family="Helvetica-Light" font-size="28.0" fill="#FEFFFF" transform="matrix(1.00, 0.00, -0.00, -1.00, 139.7, 421.0)"> </text><text xml:space="preserve" font-family="Helvetica-Light" font-size="28.0" fill="#FEFFFF" transform="matrix(1.00, 0.00, -0.00, -1.00, 147.5, 421.0)">a</text><text xml:space="preserve" font-family="Helvetica-Light" font-size="28.0" fill="#FEFFFF" transform="matrix(1.00, 0.00, -0.00, -1.00, 163.1, 421.0)"> </text><text xml:space="preserve" font-family="Helvetica-Light" font-size="28.0" fill="#FEFFFF" transform="matrix(1.00, 0.00, -0.00, -1.00, 170.8, 421.0)">l</text><text xml:space="preserve" font-family="Helvetica-Light" font-size="28.0" fill="#FEFFFF" transform="matrix(1.00, 0.00, -0.00, -1.00, 177.1, 421.0)">o</text><text xml:space="preserve" font-family="Helvetica-Light" font-size="28.0" fill="#FEFFFF" transform="matrix(1.00, 0.00, -0.00, -1.00, 192.6, 421.0)">t</text><text xml:space="preserve" font-family="Helvetica-Light" font-size="28.0" fill="#FEFFFF" transform="matrix(1.00, 0.00, -0.00, -1.00, 200.4, 421.0)"> </text><text xml:space="preserve" font-family="Helvetica-Light" font-size="28.0" fill="#FEFFFF" transform="matrix(1.00, 0.00, -0.00, -1.00, 208.2, 421.0)">o</text><text xml:space="preserve" font-family="Helvetica-Light" font-size="28.0" fill="#FEFFFF" transform="matrix(1.00, 0.00, -0.00, -1.00, 223.8, 421.0)">f</text><text xml:space="preserve" font-family="Helvetica-Light" font-size="28.0" fill="#FEFFFF" transform="matrix(1.00, 0.00, -0.00, -1.00, 231.6, 421.0)"> </text><text xml:space="preserve" font-family="Helvetica-Light" font-size="28.0" fill="#FEFFFF" transform="matrix(1.00, 0.00, -0.00, -1.00, 239.3, 421.0)">h</text><text xml:space="preserve" font-family="Helvetica-Light" font-size="28.0" fill="#FEFFFF" transform="matrix(1.00, 0.00, -0.00, -1.00, 254.9, 421.0)">a</text><text xml:space="preserve" font-family="Helvetica-Light" font-size="28.0" fill="#FEFFFF" transform="matrix(1.00, 0.00, -0.00, -1.00, 270.5, 421.0)">r</text><text xml:space="preserve" font-family="Helvetica-Light" font-size="28.0" fill="#FEFFFF" transform="matrix(1.00, 0.00, -0.00, -1.00, 279.3, 421.0)">d</text><text xml:space="preserve" font-family="Helvetica-Light" font-size="28.0" fill="#FEFFFF" transform="matrix(1.00, 0.00, -0.00, -1.00, 296.4, 421.0)"> </text><text xml:space="preserve" font-family="Helvetica-Light" font-size="28.0" fill="#FEFFFF" transform="matrix(1.00, 0.00, -0.00, -1.00, 304.2, 421.0)">w</text><text xml:space="preserve" font-family="Helvetica-Light" font-size="28.0" fill="#FEFFFF" transform="matrix(1.00, 0.00, -0.00, -1.00, 324.4, 421.0)">o</text><text xml:space="preserve" font-family="Helvetica-Light" font-size="28.0" fill="#FEFFFF" transform="matrix(1.00, 0.00, -0.00, -1.00, 340.0, 421.0)">r</text><text xml:space="preserve" font-family="Helvetica-Light" font-size="28.0" fill="#FEFFFF" transform="matrix(1.00, 0.00, -0.00, -1.00, 349.3, 421.0)">k</text><text xml:space="preserve" font-family="Helvetica-Light" font-size="21.0" fill="#FEFFFF" transform="matrix(1.00, 0.00, -0.00, -1.00, 79.0, 358.3)">•</text><text xml:space="preserve" font-family="Helvetica-Light" font-size="28.0" fill="#FEFFFF" transform="matrix(1.00, 0.00, -0.00, -1.00, 106.0, 355.0)">Y</text><text xml:space="preserve" font-family="Helvetica-Light" font-size="28.0" fill="#FEFFFF" transform="matrix(1.00, 0.00, -0.00, -1.00, 120.5, 355.0)">o</text><text xml:space="preserve" font-family="Helvetica-Light" font-size="28.0" fill="#FEFFFF" transform="matrix(1.00, 0.00, -0.00, -1.00, 136.1, 355.0)">u</text><text xml:space="preserve" font-family="Helvetica-Light" font-size="28.0" fill="#FEFFFF" transform="matrix(1.00, 0.00, -0.00, -1.00, 151.7, 355.0)"> </text><text xml:space="preserve" font-family="Helvetica-Light" font-size="28.0" fill="#FEFFFF" transform="matrix(1.00, 0.00, -0.00, -1.00, 159.5, 355.0)">g</text><text xml:space="preserve" font-family="Helvetica-Light" font-size="28.0" fill="#FEFFFF" transform="matrix(1.00, 0.00, -0.00, -1.00, 176.6, 355.0)">e</text><text xml:space="preserve" font-family="Helvetica-Light" font-size="28.0" fill="#FEFFFF" transform="matrix(1.00, 0.00, -0.00, -1.00, 192.1, 355.0)">t</text><text xml:space="preserve" font-family="Helvetica-Light" font-size="28.0" fill="#FEFFFF" transform="matrix(1.00, 0.00, -0.00, -1.00, 199.9, 355.0)"> </text><text xml:space="preserve" font-family="Helvetica-Light" font-size="28.0" fill="#FEFFFF" transform="matrix(1.00, 0.00, -0.00, -1.00, 207.7, 355.0)">o</text><text xml:space="preserve" font-family="Helvetica-Light" font-size="28.0" fill="#FEFFFF" transform="matrix(1.00, 0.00, -0.00, -1.00, 223.3, 355.0)">u</text><text xml:space="preserve" font-family="Helvetica-Light" font-size="28.0" fill="#FEFFFF" transform="matrix(1.00, 0.00, -0.00, -1.00, 238.8, 355.0)">t</text><text xml:space="preserve" font-family="Helvetica-Light" font-size="28.0" fill="#FEFFFF" transform="matrix(1.00, 0.00, -0.00, -1.00, 246.6, 355.0)"> </text><text xml:space="preserve" font-family="Helvetica-Light" font-size="28.0" fill="#FEFFFF" transform="matrix(1.00, 0.00, -0.00, -1.00, 254.4, 355.0)">w</text><text xml:space="preserve" font-family="Helvetica-Light" font-size="28.0" fill="#FEFFFF" transform="matrix(1.00, 0.00, -0.00, -1.00, 274.6, 355.0)">h</text><text xml:space="preserve" font-family="Helvetica-Light" font-size="28.0" fill="#FEFFFF" transform="matrix(1.00, 0.00, -0.00, -1.00, 290.2, 355.0)">a</text><text xml:space="preserve" font-family="Helvetica-Light" font-size="28.0" fill="#FEFFFF" transform="matrix(1.00, 0.00, -0.00, -1.00, 305.8, 355.0)">t</text><text xml:space="preserve" font-family="Helvetica-Light" font-size="28.0" fill="#FEFFFF" transform="matrix(1.00, 0.00, -0.00, -1.00, 313.5, 355.0)"> </text><text xml:space="preserve" font-family="Helvetica-Light" font-size="28.0" fill="#FEFFFF" transform="matrix(1.00, 0.00, -0.00, -1.00, 321.3, 355.0)">y</text><text xml:space="preserve" font-family="Helvetica-Light" font-size="28.0" fill="#FEFFFF" transform="matrix(1.00, 0.00, -0.00, -1.00, 335.3, 355.0)">o</text><text xml:space="preserve" font-family="Helvetica-Light" font-size="28.0" fill="#FEFFFF" transform="matrix(1.00, 0.00, -0.00, -1.00, 350.9, 355.0)">u</text><text xml:space="preserve" font-family="Helvetica-Light" font-size="28.0" fill="#FEFFFF" transform="matrix(1.00, 0.00, -0.00, -1.00, 366.5, 355.0)"> </text><text xml:space="preserve" font-family="Helvetica-Light" font-size="28.0" fill="#FEFFFF" transform="matrix(1.00, 0.00, -0.00, -1.00, 374.2, 355.0)">p</text><text xml:space="preserve" font-family="Helvetica-Light" font-size="28.0" fill="#FEFFFF" transform="matrix(1.00, 0.00, -0.00, -1.00, 391.3, 355.0)">u</text><text xml:space="preserve" font-family="Helvetica-Light" font-size="28.0" fill="#FEFFFF" transform="matrix(1.00, 0.00, -0.00, -1.00, 406.9, 355.0)">t</text><text xml:space="preserve" font-family="Helvetica-Light" font-size="28.0" fill="#FEFFFF" transform="matrix(1.00, 0.00, -0.00, -1.00, 414.7, 355.0)"> </text><text xml:space="preserve" font-family="Helvetica-Light" font-size="28.0" fill="#FEFFFF" transform="matrix(1.00, 0.00, -0.00, -1.00, 422.5, 355.0)">i</text><text xml:space="preserve" font-family="Helvetica-Light" font-size="28.0" fill="#FEFFFF" transform="matrix(1.00, 0.00, -0.00, -1.00, 428.7, 355.0)">n</text><text xml:space="preserve" font-family="Helvetica-Light" font-size="21.0" fill="#FEFFFF" transform="matrix(1.00, 0.00, -0.00, -1.00, 79.0, 292.3)">•</text><text xml:space="preserve" font-family="Helvetica-Light" font-size="28.0" fill="#FEFFFF" transform="matrix(1.00, 0.00, -0.00, -1.00, 106.0, 289.0)">Y</text><text xml:space="preserve" font-family="Helvetica-Light" font-size="28.0" fill="#FEFFFF" transform="matrix(1.00, 0.00, -0.00, -1.00, 120.5, 289.0)">o</text><text xml:space="preserve" font-family="Helvetica-Light" font-size="28.0" fill="#FEFFFF" transform="matrix(1.00, 0.00, -0.00, -1.00, 136.1, 289.0)">u</text><text xml:space="preserve" font-family="Helvetica-Light" font-size="28.0" fill="#FEFFFF" transform="matrix(1.00, 0.00, -0.00, -1.00, 151.7, 289.0)"> </text><text xml:space="preserve" font-family="Helvetica-Light" font-size="28.0" fill="#FEFFFF" transform="matrix(1.00, 0.00, -0.00, -1.00, 159.5, 289.0)">w</text><text xml:space="preserve" font-family="Helvetica-Light" font-size="28.0" fill="#FEFFFF" transform="matrix(1.00, 0.00, -0.00, -1.00, 179.7, 289.0)">i</text><text xml:space="preserve" font-family="Helvetica-Light" font-size="28.0" fill="#FEFFFF" transform="matrix(1.00, 0.00, -0.00, -1.00, 185.9, 289.0)">l</text><text xml:space="preserve" font-family="Helvetica-Light" font-size="28.0" fill="#FEFFFF" transform="matrix(1.00, 0.00, -0.00, -1.00, 192.1, 289.0)">l</text><text xml:space="preserve" font-family="Helvetica-Light" font-size="28.0" fill="#FEFFFF" transform="matrix(1.00, 0.00, -0.00, -1.00, 198.3, 289.0)"> </text><text xml:space="preserve" font-family="Helvetica-Light" font-size="28.0" fill="#FEFFFF" transform="matrix(1.00, 0.00, -0.00, -1.00, 206.1, 289.0)">l</text><text xml:space="preserve" font-family="Helvetica-Light" font-size="28.0" fill="#FEFFFF" transform="matrix(1.00, 0.00, -0.00, -1.00, 212.3, 289.0)">e</text><text xml:space="preserve" font-family="Helvetica-Light" font-size="28.0" fill="#FEFFFF" transform="matrix(1.00, 0.00, -0.00, -1.00, 227.9, 289.0)">a</text><text xml:space="preserve" font-family="Helvetica-Light" font-size="28.0" fill="#FEFFFF" transform="matrix(1.00, 0.00, -0.00, -1.00, 243.5, 289.0)">r</text><text xml:space="preserve" font-family="Helvetica-Light" font-size="28.0" fill="#FEFFFF" transform="matrix(1.00, 0.00, -0.00, -1.00, 253.3, 289.0)">n</text><text xml:space="preserve" font-family="Helvetica-Light" font-size="28.0" fill="#FEFFFF" transform="matrix(1.00, 0.00, -0.00, -1.00, 268.8, 289.0)"> </text><text xml:space="preserve" font-family="Helvetica-Light" font-size="28.0" fill="#FEFFFF" transform="matrix(1.00, 0.00, -0.00, -1.00, 276.6, 289.0)">a</text><text xml:space="preserve" font-family="Helvetica-Light" font-size="28.0" fill="#FEFFFF" transform="matrix(1.00, 0.00, -0.00, -1.00, 292.2, 289.0)"> </text><text xml:space="preserve" font-family="Helvetica-Light" font-size="28.0" fill="#FEFFFF" transform="matrix(1.00, 0.00, -0.00, -1.00, 300.0, 289.0)">T</text><text xml:space="preserve" font-family="Helvetica-Light" font-size="28.0" fill="#FEFFFF" transform="matrix(1.00, 0.00, -0.00, -1.00, 315.6, 289.0)">O</text><text xml:space="preserve" font-family="Helvetica-Light" font-size="28.0" fill="#FEFFFF" transform="matrix(1.00, 0.00, -0.00, -1.00, 337.3, 289.0)">N</text><text xml:space="preserve" font-family="Helvetica-Light" font-size="28.0" fill="#FEFFFF" transform="matrix(1.00, 0.00, -0.00, -1.00, 357.6, 289.0)"> </text><text xml:space="preserve" font-family="Helvetica-Light" font-size="28.0" fill="#FEFFFF" transform="matrix(1.00, 0.00, -0.00, -1.00, 365.3, 289.0)">i</text><text xml:space="preserve" font-family="Helvetica-Light" font-size="28.0" fill="#FEFFFF" transform="matrix(1.00, 0.00, -0.00, -1.00, 371.6, 289.0)">n</text><text xml:space="preserve" font-family="Helvetica-Light" font-size="28.0" fill="#FEFFFF" transform="matrix(1.00, 0.00, -0.00, -1.00, 387.1, 289.0)"> </text><text xml:space="preserve" font-family="Helvetica-Light" font-size="28.0" fill="#FEFFFF" transform="matrix(1.00, 0.00, -0.00, -1.00, 394.9, 289.0)">a</text><text xml:space="preserve" font-family="Helvetica-Light" font-size="28.0" fill="#FEFFFF" transform="matrix(1.00, 0.00, -0.00, -1.00, 410.5, 289.0)"> </text><text xml:space="preserve" font-family="Helvetica-Light" font-size="28.0" fill="#FEFFFF" transform="matrix(1.00, 0.00, -0.00, -1.00, 418.3, 289.0)">s</text><text xml:space="preserve" font-family="Helvetica-Light" font-size="28.0" fill="#FEFFFF" transform="matrix(1.00, 0.00, -0.00, -1.00, 432.3, 289.0)">h</text><text xml:space="preserve" font-family="Helvetica-Light" font-size="28.0" fill="#FEFFFF" transform="matrix(1.00, 0.00, -0.00, -1.00, 447.8, 289.0)">o</text><text xml:space="preserve" font-family="Helvetica-Light" font-size="28.0" fill="#FEFFFF" transform="matrix(1.00, 0.00, -0.00, -1.00, 463.4, 289.0)">r</text><text xml:space="preserve" font-family="Helvetica-Light" font-size="28.0" fill="#FEFFFF" transform="matrix(1.00, 0.00, -0.00, -1.00, 473.2, 289.0)">t</text><text xml:space="preserve" font-family="Helvetica-Light" font-size="28.0" fill="#FEFFFF" transform="matrix(1.00, 0.00, -0.00, -1.00, 481.0, 289.0)"> </text><text xml:space="preserve" font-family="Helvetica-Light" font-size="28.0" fill="#FEFFFF" transform="matrix(1.00, 0.00, -0.00, -1.00, 106.0, 255.0)">a</text><text xml:space="preserve" font-family="Helvetica-Light" font-size="28.0" fill="#FEFFFF" transform="matrix(1.00, 0.00, -0.00, -1.00, 121.6, 255.0)">m</text><text xml:space="preserve" font-family="Helvetica-Light" font-size="28.0" fill="#FEFFFF" transform="matrix(1.00, 0.00, -0.00, -1.00, 144.9, 255.0)">o</text><text xml:space="preserve" font-family="Helvetica-Light" font-size="28.0" fill="#FEFFFF" transform="matrix(1.00, 0.00, -0.00, -1.00, 160.5, 255.0)">u</text><text xml:space="preserve" font-family="Helvetica-Light" font-size="28.0" fill="#FEFFFF" transform="matrix(1.00, 0.00, -0.00, -1.00, 176.0, 255.0)">n</text><text xml:space="preserve" font-family="Helvetica-Light" font-size="28.0" fill="#FEFFFF" transform="matrix(1.00, 0.00, -0.00, -1.00, 191.6, 255.0)">t</text><text xml:space="preserve" font-family="Helvetica-Light" font-size="28.0" fill="#FEFFFF" transform="matrix(1.00, 0.00, -0.00, -1.00, 199.4, 255.0)"> </text><text xml:space="preserve" font-family="Helvetica-Light" font-size="28.0" fill="#FEFFFF" transform="matrix(1.00, 0.00, -0.00, -1.00, 207.2, 255.0)">o</text><text xml:space="preserve" font-family="Helvetica-Light" font-size="28.0" fill="#FEFFFF" transform="matrix(1.00, 0.00, -0.00, -1.00, 222.7, 255.0)">f</text><text xml:space="preserve" font-family="Helvetica-Light" font-size="28.0" fill="#FEFFFF" transform="matrix(1.00, 0.00, -0.00, -1.00, 230.5, 255.0)"> </text><text xml:space="preserve" font-family="Helvetica-Light" font-size="28.0" fill="#FEFFFF" transform="matrix(1.00, 0.00, -0.00, -1.00, 238.3, 255.0)">t</text><text xml:space="preserve" font-family="Helvetica-Light" font-size="28.0" fill="#FEFFFF" transform="matrix(1.00, 0.00, -0.00, -1.00, 246.1, 255.0)">i</text><text xml:space="preserve" font-family="Helvetica-Light" font-size="28.0" fill="#FEFFFF" transform="matrix(1.00, 0.00, -0.00, -1.00, 252.3, 255.0)">m</text><text xml:space="preserve" font-family="Helvetica-Light" font-size="28.0" fill="#FEFFFF" transform="matrix(1.00, 0.00, -0.00, -1.00, 275.6, 255.0)">e</text><text xml:space="preserve" font-family="Helvetica-Light" font-size="21.0" fill="#FEFFFF" transform="matrix(1.00, 0.00, -0.00, -1.00, 79.0, 192.3)">•</text><text xml:space="preserve" font-family="Helvetica-Light" font-size="28.0" fill="#FEFFFF" transform="matrix(1.00, 0.00, -0.00, -1.00, 106.0, 189.0)">B</text><text xml:space="preserve" font-family="Helvetica-Light" font-size="28.0" fill="#FEFFFF" transform="matrix(1.00, 0.00, -0.00, -1.00, 124.7, 189.0)">u</text><text xml:space="preserve" font-family="Helvetica-Light" font-size="28.0" fill="#FEFFFF" transform="matrix(1.00, 0.00, -0.00, -1.00, 140.2, 189.0)">t</text><text xml:space="preserve" font-family="Helvetica-Light" font-size="28.0" fill="#FEFFFF" transform="matrix(1.00, 0.00, -0.00, -1.00, 148.0, 189.0)">…</text><text xml:space="preserve" font-family="Helvetica-Light" font-size="28.0" fill="#FEFFFF" transform="matrix(1.00, 0.00, -0.00, -1.00, 176.0, 189.0)">.</text><text xml:space="preserve" font-family="Helvetica-Light" font-size="28.0" fill="#FEFFFF" transform="matrix(1.00, 0.00, -0.00, -1.00, 183.8, 189.0)"> </text><text xml:space="preserve" font-family="Helvetica-Light" font-size="28.0" fill="#FEFFFF" transform="matrix(1.00, 0.00, -0.00, -1.00, 191.6, 189.0)">i</text><text xml:space="preserve" font-family="Helvetica-Light" font-size="28.0" fill="#FEFFFF" transform="matrix(1.00, 0.00, -0.00, -1.00, 197.8, 189.0)">t</text><text xml:space="preserve" font-family="Helvetica-Light" font-size="28.0" fill="#FEFFFF" transform="matrix(1.00, 0.00, -0.00, -1.00, 205.6, 189.0)"> </text><text xml:space="preserve" font-family="Helvetica-Light" font-size="28.0" fill="#FEFFFF" transform="matrix(1.00, 0.00, -0.00, -1.00, 213.4, 189.0)">m</text><text xml:space="preserve" font-family="Helvetica-Light" font-size="28.0" fill="#FEFFFF" transform="matrix(1.00, 0.00, -0.00, -1.00, 236.7, 189.0)">i</text><text xml:space="preserve" font-family="Helvetica-Light" font-size="28.0" fill="#FEFFFF" transform="matrix(1.00, 0.00, -0.00, -1.00, 242.9, 189.0)">g</text><text xml:space="preserve" font-family="Helvetica-Light" font-size="28.0" fill="#FEFFFF" transform="matrix(1.00, 0.00, -0.00, -1.00, 260.0, 189.0)">h</text><text xml:space="preserve" font-family="Helvetica-Light" font-size="28.0" fill="#FEFFFF" transform="matrix(1.00, 0.00, -0.00, -1.00, 275.6, 189.0)">t</text><text xml:space="preserve" font-family="Helvetica-Light" font-size="28.0" fill="#FEFFFF" transform="matrix(1.00, 0.00, -0.00, -1.00, 283.4, 189.0)"> </text><text xml:space="preserve" font-family="Helvetica-Light" font-size="28.0" fill="#FEFFFF" transform="matrix(1.00, 0.00, -0.00, -1.00, 291.2, 189.0)">n</text><text xml:space="preserve" font-family="Helvetica-Light" font-size="28.0" fill="#FEFFFF" transform="matrix(1.00, 0.00, -0.00, -1.00, 306.7, 189.0)">o</text><text xml:space="preserve" font-family="Helvetica-Light" font-size="28.0" fill="#FEFFFF" transform="matrix(1.00, 0.00, -0.00, -1.00, 322.3, 189.0)">t</text><text xml:space="preserve" font-family="Helvetica-Light" font-size="28.0" fill="#FEFFFF" transform="matrix(1.00, 0.00, -0.00, -1.00, 330.1, 189.0)"> </text><text xml:space="preserve" font-family="Helvetica-Light" font-size="28.0" fill="#FEFFFF" transform="matrix(1.00, 0.00, -0.00, -1.00, 337.9, 189.0)">f</text><text xml:space="preserve" font-family="Helvetica-Light" font-size="28.0" fill="#FEFFFF" transform="matrix(1.00, 0.00, -0.00, -1.00, 345.7, 189.0)">e</text><text xml:space="preserve" font-family="Helvetica-Light" font-size="28.0" fill="#FEFFFF" transform="matrix(1.00, 0.00, -0.00, -1.00, 361.2, 189.0)">e</text><text xml:space="preserve" font-family="Helvetica-Light" font-size="28.0" fill="#FEFFFF" transform="matrix(1.00, 0.00, -0.00, -1.00, 376.8, 189.0)">l</text><text xml:space="preserve" font-family="Helvetica-Light" font-size="28.0" fill="#FEFFFF" transform="matrix(1.00, 0.00, -0.00, -1.00, 383.0, 189.0)"> </text><text xml:space="preserve" font-family="Helvetica-Light" font-size="28.0" fill="#FEFFFF" transform="matrix(1.00, 0.00, -0.00, -1.00, 390.8, 189.0)">l</text><text xml:space="preserve" font-family="Helvetica-Light" font-size="28.0" fill="#FEFFFF" transform="matrix(1.00, 0.00, -0.00, -1.00, 397.0, 189.0)">i</text><text xml:space="preserve" font-family="Helvetica-Light" font-size="28.0" fill="#FEFFFF" transform="matrix(1.00, 0.00, -0.00, -1.00, 403.2, 189.0)">k</text><text xml:space="preserve" font-family="Helvetica-Light" font-size="28.0" fill="#FEFFFF" transform="matrix(1.00, 0.00, -0.00, -1.00, 417.2, 189.0)">e</text><text xml:space="preserve" font-family="Helvetica-Light" font-size="28.0" fill="#FEFFFF" transform="matrix(1.00, 0.00, -0.00, -1.00, 432.8, 189.0)"> </text><text xml:space="preserve" font-family="Helvetica-Light" font-size="28.0" fill="#FEFFFF" transform="matrix(1.00, 0.00, -0.00, -1.00, 440.6, 189.0)">i</text><text xml:space="preserve" font-family="Helvetica-Light" font-size="28.0" fill="#FEFFFF" transform="matrix(1.00, 0.00, -0.00, -1.00, 446.8, 189.0)">t</text></g></svg>